<svg width="53" height="53" viewBox="0 0 53 53" fill="none" xmlns="http://www.w3.org/2000/svg">
<path d="M0 0.529297V52.6128H52.0835V0.529297H0ZM49.0692 3.54359V40.9568H45.9958V39.6582C45.9958 38.2234 45.0811 37.0609 43.9517 37.0609H35.7753C34.6467 37.0609 33.7312 38.2241 33.7312 39.6582V40.9568H32.0321V39.6582C32.0321 38.2234 31.1167 37.0609 29.988 37.0609H21.8117C20.683 37.0609 19.7676 38.2241 19.7676 39.6582V40.9568H18.0685V39.6582C18.0685 38.2234 17.1537 37.0609 16.0244 37.0609H7.84796C6.71931 37.0609 5.80386 38.2241 5.80386 39.6582V40.9568H3.01357V23.0151H28.9365C30.9121 23.0151 32.514 24.617 32.514 26.5926C32.514 28.5683 30.9121 30.1702 28.9365 30.1702V33.693H45.2136V30.1702C43.238 30.1702 41.6361 28.5683 41.6361 26.5926C41.6361 24.617 43.238 23.0151 45.2136 23.0151V17.5894C43.238 17.5894 41.6361 15.9875 41.6361 14.0119C41.6361 12.0362 43.238 10.4343 45.2136 10.4343V6.91153H28.9365V10.4343C30.9121 10.4343 32.514 12.0362 32.514 14.0119C32.514 15.9875 30.9121 17.5894 28.9365 17.5894H3.01429V3.54359H49.0692ZM42.5472 43.5548H42.9304V44.2037C42.9304 44.5624 42.7021 44.8527 42.4197 44.8527H37.3095C37.0272 44.8527 36.7988 44.5617 36.7988 44.2037V43.5548H37.3527C37.9887 43.5548 38.5051 43.0391 38.5051 42.4024V42.1092C38.5051 41.4732 37.9894 40.9568 37.3527 40.9568H36.7988V40.3078C36.7988 39.9492 37.0272 39.6589 37.3095 39.6589H42.4197C42.7021 39.6589 42.9304 39.9499 42.9304 40.3078V40.9568H42.5472C41.9833 40.9568 41.5266 41.4142 41.5266 41.9774V42.5335C41.5266 43.0974 41.984 43.5548 42.5472 43.5548ZM28.4136 43.5548H28.9667V44.2037C28.9667 44.5624 28.7384 44.8527 28.4561 44.8527H23.3458C23.0635 44.8527 22.8344 44.5617 22.8344 44.2037V43.5548H23.3883C24.0243 43.5548 24.5407 43.0391 24.5407 42.4024V42.1092C24.5407 41.4732 24.025 40.9568 23.3883 40.9568H22.8344V40.3078C22.8344 39.9492 23.0635 39.6589 23.3458 39.6589H28.4561C28.7384 39.6589 28.9667 39.9499 28.9667 40.3078V40.9568H28.4136C27.7768 40.9568 27.2611 41.4725 27.2611 42.1092V42.4024C27.2611 43.0384 27.7768 43.5548 28.4136 43.5548ZM14.4499 43.5548H15.0037V44.2037C15.0037 44.5624 14.7747 44.8527 14.4924 44.8527H9.38211C9.09977 44.8527 8.87073 44.5617 8.87073 44.2037V43.5548H9.5557C10.1197 43.5548 10.5763 43.0974 10.5763 42.5342V41.9781C10.5763 41.4149 10.1197 40.9575 9.5557 40.9575H8.87073V40.3086C8.87073 39.9499 9.09977 39.6596 9.38211 39.6596H14.4924C14.7747 39.6596 15.0037 39.9506 15.0037 40.3086V40.9575H14.4499C13.8139 40.9575 13.2975 41.4732 13.2975 42.1099V42.4031C13.2975 43.0391 13.8132 43.5548 14.4499 43.5548ZM3.01429 49.5985V43.5541H5.80458V44.8527C5.80458 46.2874 6.72003 47.4499 7.84868 47.4499H16.0251C17.1544 47.4499 18.0692 46.2867 18.0692 44.8527V43.5541H19.7683V44.8527C19.7683 46.2874 20.683 47.4499 21.8124 47.4499H29.9888C31.1174 47.4499 32.0329 46.2867 32.0329 44.8527V43.5541H33.732V44.8527C33.732 46.2874 34.6467 47.4499 35.7761 47.4499H43.9525C45.0811 47.4499 45.9966 46.2867 45.9966 44.8527V43.5541H49.0699V49.5985H3.01429Z" fill="#322D66" style="fill:#322D66;fill:color(display-p3 0.1961 0.1765 0.4000);fill-opacity:1;"/>
</svg>
