<svg width="375" height="272" viewBox="0 0 375 272" fill="none" xmlns="http://www.w3.org/2000/svg">
<path d="M173.289 223.875H156.662V270.666H173.289C189.801 270.666 198.06 261.568 198.06 247.266C198.06 232.964 189.801 223.875 173.289 223.875ZM173.285 265.786H166.64V228.747H173.285C186.013 228.747 187.043 234.274 187.043 247.265C187.043 260.256 186.009 265.786 173.285 265.786Z" fill="white" style="fill:white;fill-opacity:1;"/>
<path d="M114.132 223.875H104.153V270.666H114.132V223.875Z" fill="white" style="fill:white;fill-opacity:1;"/>
<path d="M73.9689 271.701C90.3039 271.701 95.5139 264.576 95.5139 252.761V223.874H85.5349V252.759C85.5349 263.5 84.2949 266.531 73.9659 266.531C63.6369 266.531 62.3969 263.5 62.3969 252.759V223.874H52.4179V252.761C52.4179 264.576 57.6269 271.701 73.9619 271.701" fill="white" style="fill:white;fill-opacity:1;"/>
<path d="M153.148 265.848H132.847V223.875H122.869V270.666H148.33L153.148 265.848Z" fill="white" style="fill:white;fill-opacity:1;"/>
<path d="M25.2269 222.835C9.05287 222.835 0.796875 231.784 0.796875 246.925C0.796875 262.066 9.05387 271.698 25.2269 271.698C36.2369 271.692 45.1649 266.576 45.1649 266.576V246.181H35.1859V265.25C32.8909 266.004 28.6349 266.532 25.2279 266.532C12.4999 266.532 11.8069 260.684 11.8069 246.924C11.8069 233.164 12.4989 227.314 25.2279 227.314C34.8619 227.314 41.7359 233.662 42.4279 234.692V227.656C42.4279 227.656 37.2639 222.836 25.2279 222.836L25.2269 222.835Z" fill="white" style="fill:white;fill-opacity:1;"/>
<path d="M52.4169 213.87H62.3959V172.24H75.4659C79.2539 172.24 81.3139 173.959 81.3139 179.808C81.3139 185.657 79.2529 187.029 74.7809 187.029H66.7049L85.3089 213.866H96.6389L80.4689 191.501C83.7269 191.848 91.6399 189.44 91.6399 179.807C91.6399 172.239 86.1329 167.074 77.1889 167.074H52.4159V213.869L52.4169 213.87Z" fill="white" style="fill:white;fill-opacity:1;"/>
<path d="M97.4939 190.129C97.4939 205.273 105.746 214.907 122.267 214.907C138.788 214.907 147.04 205.273 147.04 190.129C147.04 174.985 138.779 166.043 122.267 166.043C105.755 166.043 97.4939 174.993 97.4939 190.129ZM122.262 170.517C134.99 170.517 136.021 176.37 136.021 190.125C136.021 203.88 134.986 209.737 122.262 209.737C109.538 209.737 108.503 203.891 108.503 190.125C108.503 176.359 109.529 170.517 122.262 170.517Z" fill="white" style="fill:white;fill-opacity:1;"/>
<path d="M185.385 190.129C185.385 205.273 193.638 214.907 210.158 214.907C226.678 214.907 234.931 205.273 234.931 190.129C234.931 174.985 226.67 166.043 210.158 166.043C193.646 166.043 185.385 174.993 185.385 190.129ZM210.155 170.517C222.882 170.517 223.912 176.37 223.912 190.125C223.912 203.88 222.878 209.737 210.155 209.737C197.432 209.737 196.396 203.891 196.396 190.125C196.396 176.359 197.422 170.517 210.155 170.517Z" fill="white" style="fill:white;fill-opacity:1;"/>
<path d="M288.128 190.129C288.128 205.273 296.38 214.907 312.901 214.907C329.422 214.907 337.674 205.273 337.674 190.129C337.674 174.985 329.413 166.043 312.901 166.043C296.389 166.043 288.128 174.993 288.128 190.129ZM312.897 170.517C325.624 170.517 326.656 176.37 326.656 190.125C326.656 203.88 325.621 209.737 312.897 209.737C300.173 209.737 299.138 203.891 299.138 190.125C299.138 176.359 300.164 170.517 312.897 170.517Z" fill="white" style="fill:white;fill-opacity:1;"/>
<path d="M282.71 210.43V203.551C280.991 204.927 276.171 209.741 265.85 209.741C253.123 209.741 252.43 203.893 252.43 190.133C252.43 176.373 253.123 170.521 265.85 170.521C275.484 170.521 282.017 176.737 282.71 177.767L283.051 170.863C283.051 170.863 277.887 166.043 265.851 166.043C249.677 166.043 241.421 174.993 241.421 190.133C241.421 205.273 249.677 214.907 265.851 214.907C276.861 214.901 282.71 210.43 282.71 210.43Z" fill="white" style="fill:white;fill-opacity:1;"/>
<path d="M45.2619 181.267C45.2619 172.161 39.7559 167.075 30.8109 167.075H4.79187V213.871H14.0789V172.24H29.0879C32.8759 172.24 34.9369 174.229 34.9369 181.268C34.9369 188.307 32.8759 189.949 28.4039 189.949H17.8319L22.3039 194.421H33.9059C37.3469 194.768 45.2619 192.858 45.2619 181.267Z" fill="white" style="fill:white;fill-opacity:1;"/>
<path d="M374.733 209.057H354.432V167.084H344.453V213.875H369.915L374.733 209.057Z" fill="white" style="fill:white;fill-opacity:1;"/>
<path d="M149.9 167.084L145.081 171.903H161.223V213.875H171.202V171.903H182.525L187.344 167.084H149.9Z" fill="white" style="fill:white;fill-opacity:1;"/>
<path d="M156.595 53.9916L136.612 73.9746H171.473C166.982 92.1676 150.53 105.702 130.973 105.702C126.125 105.702 121.472 104.863 117.142 103.337C125.786 92.5386 130.973 78.8586 130.973 63.9836C130.973 52.0676 127.637 40.9226 121.867 31.4076C117.215 32.5756 108.532 36.8546 104.034 43.2226C107.566 49.3416 109.598 56.4266 109.598 63.9836C109.598 87.0246 90.922 105.702 67.882 105.702H67.879C44.876 105.702 26.161 86.9866 26.161 63.9836C26.161 40.9806 44.877 22.2656 67.879 22.2656C72.725 22.2656 77.378 23.1056 81.709 24.6316C73.065 35.4296 67.879 49.1076 67.879 63.9836C67.879 75.9006 71.214 87.0456 76.983 96.5586V96.5596C81.635 95.3916 90.318 91.1126 94.816 84.7446C91.284 78.6266 89.252 71.5406 89.252 63.9836C89.252 40.9426 107.932 22.2636 130.973 22.2636C147.581 22.2636 161.94 32.0256 168.648 46.1066H191.468C183.742 19.9966 159.553 0.890625 130.973 0.890625C119.485 0.890625 108.715 3.99163 99.427 9.37863C90.14 3.99163 79.37 0.890625 67.882 0.890625C33.092 0.890625 4.79102 29.1936 4.79102 63.9816V127.074L24.791 147.074V110.004C36.077 120.579 51.231 127.074 67.883 127.074C79.371 127.074 90.141 123.974 99.428 118.586C108.716 123.973 119.486 127.074 130.974 127.074C147.624 127.074 162.78 120.579 174.065 110.004V147.074L194.065 127.074V53.9906H156.597L156.595 53.9916Z" fill="white" style="fill:white;fill-opacity:1;"/>
</svg>
