<svg width="375" height="272" viewBox="0 0 375 272" fill="none" xmlns="http://www.w3.org/2000/svg">
<path d="M172.972 223.875H156.345V270.666H172.972C189.484 270.666 197.743 261.568 197.743 247.266C197.743 232.964 189.484 223.875 172.972 223.875ZM172.968 265.786H166.323V228.747H172.968C185.696 228.747 186.726 234.274 186.726 247.265C186.726 260.256 185.692 265.786 172.968 265.786Z" fill="#333333" style="fill:#333333;fill:color(display-p3 0.2000 0.2000 0.2000);fill-opacity:1;"/>
<path d="M113.815 223.875H103.836V270.666H113.815V223.875Z" fill="#333333" style="fill:#333333;fill:color(display-p3 0.2000 0.2000 0.2000);fill-opacity:1;"/>
<path d="M73.6525 271.701C89.9875 271.701 95.1975 264.576 95.1975 252.761V223.874H85.2185V252.759C85.2185 263.5 83.9785 266.531 73.6495 266.531C63.3205 266.531 62.0805 263.5 62.0805 252.759V223.874H52.1015V252.761C52.1015 264.576 57.3105 271.701 73.6455 271.701" fill="#333333" style="fill:#333333;fill:color(display-p3 0.2000 0.2000 0.2000);fill-opacity:1;"/>
<path d="M152.831 265.848H132.53V223.875H122.552V270.666H148.013L152.831 265.848Z" fill="#333333" style="fill:#333333;fill:color(display-p3 0.2000 0.2000 0.2000);fill-opacity:1;"/>
<path d="M24.9105 222.835C8.73647 222.835 0.480469 231.784 0.480469 246.925C0.480469 262.066 8.73746 271.698 24.9105 271.698C35.9205 271.692 44.8485 266.576 44.8485 266.576V246.181H34.8695V265.25C32.5745 266.004 28.3185 266.532 24.9115 266.532C12.1835 266.532 11.4905 260.684 11.4905 246.924C11.4905 233.164 12.1825 227.314 24.9115 227.314C34.5455 227.314 41.4195 233.662 42.1115 234.692V227.656C42.1115 227.656 36.9475 222.836 24.9115 222.836L24.9105 222.835Z" fill="#333333" style="fill:#333333;fill:color(display-p3 0.2000 0.2000 0.2000);fill-opacity:1;"/>
<path d="M52.1005 213.87H62.0795V172.24H75.1495C78.9375 172.24 80.9975 173.959 80.9975 179.808C80.9975 185.657 78.9365 187.029 74.4645 187.029H66.3885L84.9925 213.866H96.3225L80.1525 191.501C83.4105 191.848 91.3235 189.44 91.3235 179.807C91.3235 172.239 85.8165 167.074 76.8725 167.074H52.0995V213.869L52.1005 213.87Z" fill="#333333" style="fill:#333333;fill:color(display-p3 0.2000 0.2000 0.2000);fill-opacity:1;"/>
<path d="M97.1775 190.129C97.1775 205.273 105.429 214.907 121.95 214.907C138.471 214.907 146.723 205.273 146.723 190.129C146.723 174.985 138.462 166.043 121.95 166.043C105.438 166.043 97.1775 174.993 97.1775 190.129ZM121.945 170.517C134.673 170.517 135.704 176.37 135.704 190.125C135.704 203.88 134.669 209.737 121.945 209.737C109.221 209.737 108.186 203.891 108.186 190.125C108.186 176.359 109.212 170.517 121.945 170.517Z" fill="#333333" style="fill:#333333;fill:color(display-p3 0.2000 0.2000 0.2000);fill-opacity:1;"/>
<path d="M185.068 190.129C185.068 205.273 193.321 214.907 209.841 214.907C226.361 214.907 234.614 205.273 234.614 190.129C234.614 174.985 226.353 166.043 209.841 166.043C193.329 166.043 185.068 174.993 185.068 190.129ZM209.838 170.517C222.565 170.517 223.595 176.37 223.595 190.125C223.595 203.88 222.561 209.737 209.838 209.737C197.115 209.737 196.079 203.891 196.079 190.125C196.079 176.359 197.105 170.517 209.838 170.517Z" fill="#333333" style="fill:#333333;fill:color(display-p3 0.2000 0.2000 0.2000);fill-opacity:1;"/>
<path d="M287.811 190.129C287.811 205.273 296.063 214.907 312.584 214.907C329.105 214.907 337.357 205.273 337.357 190.129C337.357 174.985 329.096 166.043 312.584 166.043C296.072 166.043 287.811 174.993 287.811 190.129ZM312.58 170.517C325.307 170.517 326.339 176.37 326.339 190.125C326.339 203.88 325.304 209.737 312.58 209.737C299.856 209.737 298.821 203.891 298.821 190.125C298.821 176.359 299.847 170.517 312.58 170.517Z" fill="#333333" style="fill:#333333;fill:color(display-p3 0.2000 0.2000 0.2000);fill-opacity:1;"/>
<path d="M282.393 210.43V203.551C280.674 204.927 275.854 209.741 265.533 209.741C252.806 209.741 252.113 203.893 252.113 190.133C252.113 176.373 252.806 170.521 265.533 170.521C275.167 170.521 281.7 176.737 282.393 177.767L282.734 170.863C282.734 170.863 277.57 166.043 265.534 166.043C249.36 166.043 241.104 174.993 241.104 190.133C241.104 205.273 249.36 214.907 265.534 214.907C276.544 214.901 282.393 210.43 282.393 210.43Z" fill="#333333" style="fill:#333333;fill:color(display-p3 0.2000 0.2000 0.2000);fill-opacity:1;"/>
<path d="M44.9455 181.267C44.9455 172.161 39.4395 167.075 30.4945 167.075H4.47547V213.871H13.7625V172.24H28.7715C32.5595 172.24 34.6205 174.229 34.6205 181.268C34.6205 188.307 32.5595 189.949 28.0875 189.949H17.5155L21.9875 194.421H33.5895C37.0305 194.768 44.9455 192.858 44.9455 181.267Z" fill="#333333" style="fill:#333333;fill:color(display-p3 0.2000 0.2000 0.2000);fill-opacity:1;"/>
<path d="M374.416 209.057H354.115V167.084H344.136V213.875H369.598L374.416 209.057Z" fill="#333333" style="fill:#333333;fill:color(display-p3 0.2000 0.2000 0.2000);fill-opacity:1;"/>
<path d="M149.583 167.084L144.764 171.903H160.906V213.875H170.885V171.903H182.208L187.027 167.084H149.583Z" fill="#333333" style="fill:#333333;fill:color(display-p3 0.2000 0.2000 0.2000);fill-opacity:1;"/>
<path d="M156.279 53.9916L136.296 73.9746H171.157C166.666 92.1676 150.214 105.702 130.657 105.702C125.809 105.702 121.156 104.863 116.826 103.337C125.47 92.5386 130.657 78.8586 130.657 63.9836C130.657 52.0676 127.321 40.9226 121.551 31.4076C116.899 32.5756 108.216 36.8546 103.718 43.2226C107.25 49.3416 109.282 56.4266 109.282 63.9836C109.282 87.0246 90.6056 105.702 67.5656 105.702H67.5626C44.5596 105.702 25.8446 86.9866 25.8446 63.9836C25.8446 40.9806 44.5606 22.2656 67.5626 22.2656C72.4086 22.2656 77.0616 23.1056 81.3926 24.6316C72.7486 35.4296 67.5626 49.1076 67.5626 63.9836C67.5626 75.9006 70.8976 87.0456 76.6666 96.5586V96.5596C81.3186 95.3916 90.0016 91.1126 94.4996 84.7446C90.9676 78.6266 88.9356 71.5406 88.9356 63.9836C88.9356 40.9426 107.616 22.2636 130.657 22.2636C147.265 22.2636 161.624 32.0256 168.332 46.1066H191.152C183.426 19.9966 159.237 0.890625 130.657 0.890625C119.169 0.890625 108.399 3.99163 99.1106 9.37863C89.8236 3.99163 79.0536 0.890625 67.5656 0.890625C32.7756 0.890625 4.47461 29.1936 4.47461 63.9816V127.074L24.4746 147.074V110.004C35.7606 120.579 50.9146 127.074 67.5666 127.074C79.0546 127.074 89.8246 123.974 99.1116 118.586C108.4 123.973 119.17 127.074 130.658 127.074C147.308 127.074 162.464 120.579 173.749 110.004V147.074L193.749 127.074V53.9906H156.281L156.279 53.9916Z" fill="#333333" style="fill:#333333;fill:color(display-p3 0.2000 0.2000 0.2000);fill-opacity:1;"/>
</svg>
