<svg width="354" height="353" viewBox="0 0 354 353" fill="none" xmlns="http://www.w3.org/2000/svg">
<g clip-path="url(#clip0_6177_63)">
<path d="M176.99 351.434C273.654 351.434 352.016 273.072 352.016 176.408C352.016 79.7436 273.654 1.38184 176.99 1.38184C80.3257 1.38184 1.96387 79.7436 1.96387 176.408C1.96387 273.072 80.3257 351.434 176.99 351.434Z" fill="url(#paint0_linear_6177_63)" stroke="url(#paint1_linear_6177_63)" style="" strokeWidth="2.764" stroke-miterlimit="10"/>
<path d="M176.98 300.884C245.723 300.884 301.45 245.157 301.45 176.414C301.45 107.671 245.723 51.9438 176.98 51.9438C108.237 51.9438 52.5098 107.671 52.5098 176.414C52.5098 245.157 108.237 300.884 176.98 300.884Z" fill="url(#paint2_linear_6177_63)" stroke="url(#paint3_linear_6177_63)" style="" strokeWidth="2.764" stroke-miterlimit="10"/>
<path d="M296.995 114.961L325.411 104.285L328.072 111.361L299.656 122.037L296.995 114.961ZM59.6474 254.541L38.1454 253.496L39.3384 255.426L60.8404 256.472L59.6474 254.541ZM49.0584 235.478L44.6844 232.67L41.6684 234.073L45.6914 236.681L45.7354 236.776L32.8804 242.76L34.4634 246.16L50.5464 238.673L49.0584 235.478ZM309.085 153.761L313.965 155.646L310.83 140.559L336.256 135.275L334.708 127.825L304.98 134.002L309.086 153.76L309.085 153.761ZM51.3624 259.277C51.8094 259.999 52.0324 260.701 52.0334 261.382C52.0344 262.063 51.8584 262.689 51.5074 263.256C51.1544 263.823 50.6744 264.295 50.0664 264.672L49.2694 265.163C48.6654 265.537 48.0314 265.753 47.3644 265.811C46.6984 265.871 46.0584 265.747 45.4444 265.44C44.8304 265.134 44.3034 264.625 43.8634 263.913C43.4174 263.191 43.1954 262.489 43.1994 261.809C43.2024 261.128 43.3794 260.502 43.7294 259.933C44.0804 259.363 44.5564 258.892 45.1614 258.518L45.9574 258.026C46.5614 257.653 47.1974 257.438 47.8654 257.381C48.5334 257.324 49.1734 257.448 49.7854 257.752C50.3964 258.056 50.9244 258.564 51.3634 259.276L51.3624 259.277ZM49.4774 260.443C49.2044 260.001 48.8594 259.79 48.4434 259.808C48.0284 259.828 47.6404 259.949 47.2834 260.17L46.4864 260.662C46.1384 260.877 45.8614 261.165 45.6564 261.526C45.4524 261.886 45.4884 262.291 45.7634 262.738C46.0404 263.184 46.3814 263.396 46.7874 263.373C47.1934 263.349 47.5754 263.227 47.9344 263.005L48.7294 262.513C49.0884 262.291 49.3744 262.006 49.5864 261.658C49.7984 261.309 49.7634 260.904 49.4774 260.443ZM47.0054 143.157L22.4394 135.356L24.6734 128.324C25.1274 126.893 25.7914 126.334 27.0364 126.334C27.6534 126.334 28.4244 126.481 29.3304 126.768C30.8494 127.25 31.7154 127.783 32.0584 128.443C32.3594 129.026 32.3184 129.817 31.9134 131.086L29.9844 137.164L50.9674 130.675L53.6244 122.307L37.3264 127.709C37.5144 126.458 37.3974 124.914 36.7374 123.474C35.8434 121.527 34.0984 120.094 31.6904 119.328C30.7644 119.035 29.8344 118.884 28.9324 118.884C25.1304 118.884 22.0234 121.513 20.6234 125.916L15.7644 141.217L44.7014 150.406L47.0054 143.157ZM257.382 70.092C262.891 74.297 269.174 75.157 269.44 75.191L269.846 75.245L278.179 64.324L272.134 59.709L264.872 69.226C263.595 68.697 261.726 67.577 260.193 66.407C257.348 64.235 256.256 62.46 256.543 60.471C256.846 58.369 258.688 55.821 261.065 52.707C264.271 48.508 266.402 45.957 268.989 45.957C270.389 45.957 271.948 46.752 274.048 48.253C279.215 51.944 279.181 60.201 279.181 60.201L283.525 54.51L283.473 54.207C283.443 54.021 282.642 49.593 276.564 44.955C273.09 42.303 269.647 40.958 266.334 40.958C261.949 40.958 257.976 43.252 254.522 47.776C248.35 55.862 249.394 63.996 257.382 70.092ZM42.8424 177.661L17.0974 176.35L17.5354 167.766C17.6044 166.416 17.9774 165.098 21.6434 165.098C21.9354 165.098 22.2444 165.108 22.5694 165.124C26.9014 165.344 27.1494 166.619 27.0434 168.691L26.6854 175.683L31.0824 171.884L31.4024 165.562C31.6044 164.154 31.3114 162.029 29.8764 160.283C28.3954 158.481 26.0694 157.488 22.9654 157.329C22.7214 157.317 22.4834 157.311 22.2474 157.311C16.7514 157.311 13.2984 160.751 13.0044 166.512L12.1504 183.28L42.4774 184.824L42.8424 177.661ZM282.913 95.491C286.377 100.108 289.832 102.353 293.474 102.353C295.924 102.353 298.464 101.338 301.244 99.254L316.115 88.096L311.579 82.047L296.708 93.205C294.21 95.079 292.483 96.165 291.048 96.165C289.704 96.165 288.411 95.172 286.585 92.737C283.046 88.021 283.815 86.748 288.962 82.886L303.833 71.728L299.267 65.642L284.396 76.8C277.628 81.879 277.156 87.819 282.913 95.491ZM37.4734 88.435C40.9254 82.987 45.1534 80.223 50.0404 80.223C52.9564 80.223 56.0394 81.24 59.2014 83.242C63.4064 85.907 66.0074 89.152 66.9334 92.889C67.8984 96.783 66.9774 100.98 64.1994 105.367C60.8514 110.65 56.4694 113.442 51.5274 113.442C48.4784 113.442 45.2844 112.397 42.0354 110.339C33.5524 104.964 31.9324 97.186 37.4734 88.435ZM46.4484 103.373C50.2864 105.808 52.7544 107.126 54.7964 107.126H54.7984C56.7574 107.126 58.3984 105.857 60.2824 102.883C64.1224 96.822 61.9634 94.695 54.8144 90.165C51.0004 87.748 48.5414 86.44 46.4714 86.44C44.4944 86.44 42.8514 87.699 40.9794 90.655C37.1374 96.72 39.2994 98.845 46.4484 103.373ZM81.0064 82.82L86.5354 77.661L68.8194 58.672L73.6444 54.171L73.8584 47.962L55.4684 65.12L55.2544 71.329L63.2894 63.83L81.0054 82.82H81.0064ZM77.6084 284.792C76.7704 285.622 75.8544 286.173 74.8564 286.446C73.8584 286.719 72.8424 286.692 71.8094 286.363C70.7764 286.034 69.7794 285.385 68.8194 284.418L66.6004 282.179L62.5164 286.228L59.8744 283.564L72.4734 271.074L77.4014 276.045C78.3484 277 78.9744 277.994 79.2784 279.026C79.5824 280.058 79.5894 281.07 79.2994 282.061C79.0094 283.052 78.4454 283.962 77.6104 284.791L77.6084 284.792ZM75.7244 279.232C75.5654 278.723 75.2304 278.211 74.7164 277.694L72.9364 275.898L68.7354 280.063L70.5284 281.871C71.0374 282.384 71.5454 282.719 72.0544 282.876C72.5634 283.033 73.0604 283.037 73.5434 282.889C74.0254 282.74 74.4744 282.46 74.8884 282.049C75.3064 281.634 75.5904 281.189 75.7404 280.711C75.8884 280.234 75.8844 279.741 75.7244 279.232ZM55.2064 246.187C55.6554 246.914 55.8804 247.617 55.8794 248.296C55.8784 248.975 55.7024 249.601 55.3524 250.17C55.0024 250.739 54.5224 251.213 53.9144 251.589L53.1174 252.081C52.5094 252.458 51.8714 252.674 51.2064 252.728C50.5414 252.782 49.9044 252.657 49.2974 252.35C48.6904 252.043 48.1644 251.531 47.7214 250.814C47.2784 250.097 47.0574 249.397 47.0594 248.713C47.0614 248.029 47.2354 247.405 47.5824 246.841C47.9304 246.278 48.4044 245.808 49.0104 245.435L49.8054 244.943C50.4144 244.567 51.0534 244.351 51.7234 244.297C52.3924 244.243 53.0324 244.368 53.6414 244.674C54.2504 244.98 54.7734 245.484 55.2074 246.186L55.2064 246.187ZM53.3194 247.353C53.0494 246.915 52.7064 246.711 52.2884 246.739C51.8704 246.767 51.4874 246.887 51.1394 247.103L50.3434 247.595C49.9844 247.817 49.7054 248.106 49.5054 248.464C49.3064 248.821 49.3394 249.216 49.6074 249.649C49.8864 250.101 50.2294 250.315 50.6354 250.292C51.0414 250.268 51.4234 250.146 51.7824 249.924L52.5774 249.432C52.9364 249.21 53.2224 248.925 53.4344 248.577C53.6464 248.228 53.6084 247.821 53.3194 247.354V247.353ZM341.513 162.661L341.333 173.652C341.166 183.702 335.677 189.465 326.272 189.465L325.885 189.461C316.236 189.3 310.8 183.357 310.968 173.151L311.15 162.16L341.513 162.661ZM336.947 170.197L315.464 169.842L315.409 173.224C315.349 176.838 316.027 178.831 317.673 179.883C319.291 180.916 321.854 181.15 326.022 181.219C326.583 181.227 327.124 181.233 327.642 181.233C334.599 181.233 336.781 180.178 336.892 173.578L336.948 170.196L336.947 170.197ZM226.869 47.153L212.289 42.428L220.296 17.728L213.06 15.382L203.698 44.262L222.889 50.484L226.868 47.154L226.869 47.153ZM270.503 281.833L277.691 290.366L277.572 290.467L264.528 286.866L262.01 288.987L273.439 302.555L276.308 300.138L269.115 291.599L269.215 291.515L282.311 295.082L284.79 292.995L273.36 279.427L270.505 281.832L270.503 281.833ZM240.765 314.161L246.967 318.99L243.169 320.638L237.583 316.206L235.071 317.295L237.574 323.064L234.134 324.557L227.073 308.283L233.493 305.497C234.722 304.964 235.868 304.726 236.929 304.786C237.99 304.845 238.923 305.174 239.727 305.772C240.531 306.37 241.166 307.208 241.633 308.283C242.102 309.364 242.271 310.393 242.142 311.372C242.013 312.351 241.597 313.237 240.894 314.033C240.855 314.077 240.806 314.117 240.766 314.16L240.765 314.161ZM233.871 314.531L236.208 313.517C236.864 313.232 237.371 312.906 237.728 312.537C238.084 312.169 238.291 311.758 238.349 311.305C238.408 310.851 238.322 310.357 238.089 309.822C237.855 309.282 237.55 308.873 237.174 308.595C236.798 308.317 236.351 308.176 235.829 308.172C235.308 308.169 234.717 308.311 234.054 308.598L231.734 309.605L233.872 314.532L233.871 314.531ZM215.571 311.959L226.034 327.537L222.149 328.567L219.842 324.994L213.651 326.637L213.417 330.885L209.532 331.915L210.9 313.198L215.571 311.958V311.959ZM218.172 322.409L214.343 316.48L214.209 316.515L213.821 323.564L218.172 322.409ZM258.552 295.282L256.931 292.649L244.525 300.287L246.146 302.921L250.771 300.073L258.45 312.547L261.607 310.604L253.927 298.13L258.552 295.282ZM291.714 281.433L288.552 278.616L293.599 272.949L291.289 270.892L286.242 276.558L283.085 273.746L288.542 267.621L286.232 265.564L278.282 274.49L291.528 286.29L299.503 277.338L297.193 275.28L291.714 281.432V281.433ZM86.7494 284.72L75.9114 298.764L84.9014 305.702L86.7904 303.254L80.7694 298.608L89.7184 287.012L86.7494 284.72ZM305.179 257.679L313.006 258.393L310.7 261.832L303.606 261.119L302.081 263.393L307.303 266.896L305.215 270.01L290.481 260.129L294.379 254.317C295.125 253.204 295.961 252.386 296.886 251.862C297.811 251.339 298.774 251.112 299.774 251.181C300.774 251.25 301.76 251.611 302.734 252.264C303.713 252.92 304.412 253.695 304.831 254.588C305.251 255.482 305.38 256.452 305.219 257.502C305.21 257.56 305.191 257.62 305.18 257.678L305.179 257.679ZM299.578 261.714L300.997 259.599C301.395 259.004 301.645 258.455 301.745 257.953C301.847 257.451 301.799 256.993 301.602 256.58C301.407 256.167 301.067 255.798 300.582 255.473C300.092 255.145 299.615 254.966 299.148 254.935C298.683 254.904 298.23 255.028 297.789 255.306C297.35 255.584 296.928 256.023 296.525 256.622L295.117 258.723L299.577 261.715L299.578 261.714ZM318.42 236.706C317.751 236.391 317.103 236.227 316.474 236.215C315.845 236.203 315.238 236.319 314.652 236.563C314.067 236.806 313.504 237.157 312.963 237.614C312.422 238.071 311.906 238.61 311.414 239.232L310.377 240.502C310.131 240.814 309.879 241.095 309.619 241.348C309.359 241.601 309.096 241.808 308.83 241.968C308.562 242.127 308.291 242.223 308.014 242.252C307.737 242.282 307.457 242.223 307.177 242.074C306.834 241.908 306.574 241.66 306.401 241.33C306.227 240.999 306.155 240.606 306.185 240.153C306.215 239.699 306.363 239.197 306.628 238.645C307.02 237.833 307.504 237.275 308.08 236.97C308.657 236.664 309.275 236.632 309.934 236.873L311.496 233.636C310.537 233.193 309.576 233.043 308.615 233.189C307.654 233.335 306.756 233.752 305.924 234.444C305.09 235.135 304.387 236.074 303.815 237.259C303.253 238.424 302.955 239.563 302.919 240.673C302.884 241.784 303.101 242.776 303.571 243.648C304.043 244.519 304.762 245.185 305.733 245.647C306.911 246.221 308.037 246.287 309.11 245.843C310.183 245.399 311.209 244.582 312.186 243.393L313.461 241.864C313.883 241.349 314.277 240.932 314.643 240.611C315.009 240.292 315.366 240.085 315.711 239.992C316.056 239.899 316.41 239.939 316.769 240.112C317.154 240.299 317.438 240.58 317.622 240.957C317.806 241.334 317.878 241.774 317.841 242.278C317.803 242.783 317.646 243.321 317.37 243.893C317.089 244.475 316.747 244.954 316.346 245.328C315.945 245.701 315.499 245.939 315.012 246.04C314.525 246.142 314.003 246.081 313.45 245.859L311.873 249.128C313.035 249.656 314.134 249.842 315.168 249.684C316.203 249.526 317.148 249.065 318.004 248.301C318.86 247.537 319.599 246.51 320.221 245.22C320.848 243.92 321.188 242.714 321.241 241.601C321.294 240.489 321.081 239.514 320.603 238.677C320.124 237.841 319.398 237.184 318.422 236.707L318.42 236.706ZM128.924 313.393C129.075 314.88 128.806 316.478 128.116 318.186C127.426 319.9 126.509 321.243 125.367 322.214C124.224 323.186 122.92 323.759 121.452 323.933C119.983 324.107 118.415 323.857 116.743 323.183L110.911 320.831L117.545 304.378L123.426 306.749C125.081 307.416 126.373 308.318 127.303 309.456C128.233 310.594 128.773 311.906 128.924 313.393ZM125.313 313.591C125.268 312.676 124.967 311.895 124.414 311.247C123.858 310.601 123.067 310.069 122.039 309.655L119.821 308.76L115.591 319.252L117.801 320.143C118.829 320.558 119.769 320.724 120.622 320.641C121.474 320.558 122.233 320.202 122.901 319.571C123.57 318.941 124.151 318.012 124.645 316.786C125.135 315.57 125.358 314.505 125.313 313.591ZM109.866 303.946L111.422 301.273L101.092 295.258L92.1654 310.588L102.524 316.62L104.081 313.948L96.9624 309.802L99.0934 306.142L105.652 309.96L107.208 307.287L100.65 303.469L102.777 299.817L109.867 303.945L109.866 303.946ZM100.369 64.252C95.2244 64.252 90.7774 61.305 87.5124 55.729C85.0244 51.484 84.2534 47.475 85.2184 43.812C86.2094 40.057 88.9934 36.816 93.4954 34.178C96.7684 32.261 99.9034 31.289 102.807 31.289C107.744 31.289 112.022 34.135 115.176 39.521C117.692 43.813 118.517 47.889 117.626 51.634C116.7 55.535 113.958 58.843 109.48 61.467C106.328 63.315 103.262 64.252 100.369 64.252ZM102.257 59.19C103.561 59.19 105.159 58.626 107.14 57.466C113.329 53.838 112.386 50.96 108.109 43.661C105.026 38.4 103.188 36.054 100.442 36.054C99.1354 36.054 97.5504 36.611 95.5914 37.758C89.4024 41.385 90.3454 44.263 94.6224 51.563C97.7134 56.836 99.5494 59.19 102.257 59.19ZM150.122 316.283C149.585 315.615 148.928 315.041 148.149 314.562C147.37 314.083 146.491 313.731 145.512 313.505C144.369 313.242 143.262 313.197 142.192 313.371C141.121 313.545 140.128 313.93 139.214 314.525C138.301 315.12 137.513 315.921 136.852 316.927C136.19 317.933 135.698 319.137 135.375 320.537C134.955 322.36 134.934 324.014 135.313 325.496C135.691 326.979 136.411 328.221 137.473 329.221C138.534 330.221 139.875 330.909 141.495 331.282C142.947 331.617 144.303 331.62 145.564 331.291C146.825 330.963 147.902 330.327 148.794 329.387C149.687 328.446 150.308 327.215 150.657 325.696L151.159 323.518L143.925 321.851L143.291 324.603L146.992 325.456C146.818 326.14 146.534 326.714 146.12 327.157C145.683 327.625 145.138 327.939 144.481 328.099C143.825 328.258 143.083 328.244 142.255 328.053C141.344 327.842 140.604 327.44 140.035 326.843C139.468 326.247 139.097 325.486 138.928 324.557C138.756 323.628 138.809 322.562 139.086 321.358C139.363 320.154 139.785 319.176 140.349 318.426C140.913 317.676 141.578 317.158 142.347 316.873C143.115 316.588 143.94 316.547 144.825 316.751C145.298 316.859 145.716 317.018 146.079 317.227C146.443 317.435 146.753 317.686 147.009 317.979C147.264 318.272 147.462 318.602 147.603 318.969C147.744 319.336 147.826 319.739 147.849 320.177L151.563 321.032C151.642 320.149 151.555 319.304 151.303 318.496C151.05 317.688 150.656 316.95 150.12 316.281L150.122 316.283ZM202.399 321.274C202.545 322.443 202.422 323.506 202.03 324.463C201.638 325.42 200.996 326.207 200.104 326.825C199.212 327.443 198.09 327.837 196.739 328.007L193.61 328.399L194.325 334.106L190.603 334.573L188.397 316.97L195.342 316.1C196.677 315.933 197.846 316.043 198.85 316.433C199.853 316.823 200.659 317.434 201.266 318.269C201.874 319.104 202.252 320.105 202.399 321.274ZM198.565 321.754C198.492 321.17 198.311 320.673 198.024 320.264C197.737 319.855 197.344 319.558 196.843 319.373C196.343 319.188 195.732 319.141 195.01 319.231L192.5 319.545L193.236 325.415L195.762 325.098C196.479 325.008 197.055 324.81 197.491 324.501C197.927 324.193 198.233 323.803 198.409 323.33C198.586 322.857 198.638 322.331 198.565 321.752V321.754ZM179.326 43.14L178.902 43.137C168.698 42.975 162.937 37.028 163.099 26.823C163.255 16.943 168.886 11.502 178.951 11.502L179.407 11.505C184.621 11.588 188.632 13.042 191.33 15.827C193.955 18.537 195.247 22.408 195.168 27.332C195.009 37.379 189.236 43.14 179.326 43.14ZM179.339 15.655L178.962 15.652C172.128 15.652 171.472 18.581 171.339 26.952C171.206 35.415 171.799 38.385 178.976 38.499L179.349 38.502C186.185 38.502 186.841 35.573 186.976 27.2C187.111 18.739 186.516 15.769 179.339 15.655ZM158.217 334.033L170.167 334.992L170.414 331.909L162.202 331.25L162.542 327.028L170.105 327.634L170.352 324.552L162.789 323.945L163.128 319.732L171.304 320.388L171.552 317.305L159.636 316.349L158.217 334.033ZM143.808 42.506C142.501 42.824 141.411 42.979 140.475 42.979C136.524 42.979 135.441 40.149 133.75 33.2C132.826 29.408 132.164 26.344 132.723 24.29C133.254 22.343 134.953 21.154 138.405 20.313C139.434 20.062 140.501 19.935 141.573 19.935C147.519 19.935 150.532 23.607 150.532 23.608L149.299 16.878L149.006 16.714C148.921 16.667 146.889 15.562 143.068 15.562C141.284 15.562 139.384 15.804 137.424 16.282C132.462 17.489 128.931 19.779 126.936 23.087C124.983 26.322 124.581 30.381 125.743 35.15C127.706 43.208 132.743 47.646 139.932 47.646C141.496 47.646 143.17 47.432 144.904 47.009C151.688 45.359 154.64 41.752 154.763 41.6L154.981 41.328L153.546 35.423C153.546 35.423 149.992 41 143.808 42.506Z" fill="black" style="fill:black;fill-opacity:1;"/>
<path d="M214.166 175.53V177.372H253.211C248.096 194.628 220.162 221.391 220.162 221.391L195.828 205.27C203.789 194.711 208.526 181.593 208.526 167.381V165.539C208.526 153.623 205.19 142.478 199.42 132.963C194.768 134.131 186.085 138.41 181.587 144.778V146.62C184.97 152.481 186.975 159.227 187.139 166.426C186.665 189.021 168.138 207.256 145.431 207.256C122.724 207.256 104.217 189.039 103.725 166.459C104.217 143.879 122.737 125.662 145.431 125.662C149.858 125.662 154.122 126.364 158.128 127.649L166.491 131.376L145.43 167.379C145.43 179.296 148.765 190.441 154.534 199.954V199.955C159.186 198.787 167.869 194.508 172.367 188.14V186.298L166.815 183.915V166.492C167.289 143.897 185.815 125.662 208.521 125.662C225.129 125.662 239.49 135.421 246.198 149.502H269.018V147.66L226.278 116.405H112.819L82.3398 230.47L102.34 250.47V248.628L97.0948 227.416L102.34 213.4C113.627 223.975 128.78 230.47 145.432 230.47C156.92 230.47 167.69 227.37 176.977 221.982C186.265 227.369 197.035 230.47 208.523 230.47C225.173 230.47 240.329 223.975 251.614 213.4L258.668 225.438L251.614 248.627V250.469L271.614 230.469V228.627L254.62 166.308L214.163 175.528L214.166 175.53Z" fill="white" style="fill:white;fill-opacity:1;"/>
<path d="M234.149 155.546L214.166 175.529H249.027C244.536 193.722 228.084 207.256 208.527 207.256C203.679 207.256 199.026 206.417 194.696 204.891C203.34 194.093 208.527 180.413 208.527 165.538C208.527 153.622 205.191 142.477 199.421 132.962C194.769 134.13 186.086 138.409 181.588 144.777C185.12 150.896 187.152 157.981 187.152 165.538C187.152 188.579 168.476 207.256 145.436 207.256H145.433C122.43 207.256 103.715 188.541 103.715 165.538C103.715 142.535 122.431 123.82 145.433 123.82C150.279 123.82 154.932 124.66 159.263 126.186C150.619 136.984 145.433 150.662 145.433 165.538C145.433 177.455 148.768 188.6 154.537 198.113C159.189 196.945 167.872 192.667 172.37 186.299C168.838 180.181 166.806 173.095 166.806 165.538C166.806 142.497 185.486 123.818 208.527 123.818C225.135 123.818 239.494 133.58 246.202 147.661H269.022C261.296 121.551 237.107 102.445 208.527 102.445C197.039 102.445 186.269 105.546 176.981 110.933C167.694 105.546 156.924 102.445 145.436 102.445C110.646 102.445 82.3447 130.748 82.3447 165.536V228.628L102.345 248.628V211.558C113.631 222.133 128.785 228.628 145.437 228.628C156.925 228.628 167.695 225.528 176.982 220.14C186.27 225.527 197.04 228.628 208.528 228.628C225.178 228.628 240.334 222.133 251.619 211.558V248.628L271.619 228.628V155.545H234.151L234.149 155.546Z" fill="black" style="fill:black;fill-opacity:1;"/>
</g>
<defs>
<linearGradient id="paint0_linear_6177_63" x1="177.257" y1="1.38184" x2="176.724" y2="351.435" gradientUnits="userSpaceOnUse">
<stop stop-color="white" style="stop-color:white;stop-opacity:1;"/>
<stop offset="0.51" stop-color="#E1F0FF" style="stop-color:#E1F0FF;stop-color:color(display-p3 0.8805 0.9403 1.0000);stop-opacity:1;"/>
<stop offset="1" stop-color="#8D9FA9" style="stop-color:#8D9FA9;stop-color:color(display-p3 0.5529 0.6235 0.6627);stop-opacity:1;"/>
</linearGradient>
<linearGradient id="paint1_linear_6177_63" x1="176.99" y1="352.817" x2="176.99" y2="-0.000161841" gradientUnits="userSpaceOnUse">
<stop stop-color="#506C7B" style="stop-color:#506C7B;stop-color:color(display-p3 0.3137 0.4235 0.4824);stop-opacity:1;"/>
<stop offset="0.316" stop-color="#8D9FA9" style="stop-color:#8D9FA9;stop-color:color(display-p3 0.5529 0.6235 0.6627);stop-opacity:1;"/>
<stop offset="0.781" stop-color="#E1F0FF" style="stop-color:#E1F0FF;stop-color:color(display-p3 0.8805 0.9403 1.0000);stop-opacity:1;"/>
<stop offset="0.933" stop-color="white" style="stop-color:white;stop-opacity:1;"/>
</linearGradient>
<linearGradient id="paint2_linear_6177_63" x1="177.17" y1="51.9438" x2="176.791" y2="300.884" gradientUnits="userSpaceOnUse">
<stop stop-color="white" style="stop-color:white;stop-opacity:1;"/>
<stop offset="0.51" stop-color="#E1F0FF" style="stop-color:#E1F0FF;stop-color:color(display-p3 0.8805 0.9403 1.0000);stop-opacity:1;"/>
<stop offset="1" stop-color="#8D9FA9" style="stop-color:#8D9FA9;stop-color:color(display-p3 0.5529 0.6235 0.6627);stop-opacity:1;"/>
</linearGradient>
<linearGradient id="paint3_linear_6177_63" x1="176.98" y1="302.265" x2="176.98" y2="50.5618" gradientUnits="userSpaceOnUse">
<stop stop-color="white" style="stop-color:white;stop-opacity:1;"/>
<stop offset="0.513" stop-color="#E1F0FF" style="stop-color:#E1F0FF;stop-color:color(display-p3 0.8805 0.9403 1.0000);stop-opacity:1;"/>
<stop offset="1" stop-color="#8D9FA9" style="stop-color:#8D9FA9;stop-color:color(display-p3 0.5529 0.6235 0.6627);stop-opacity:1;"/>
</linearGradient>
<clipPath id="clip0_6177_63">
<rect width="352.817" height="352.817" fill="white" style="fill:white;fill-opacity:1;" transform="translate(0.582031)"/>
</clipPath>
</defs>
</svg>
