<svg width="40" height="32" viewBox="0 0 40 32" fill="none" xmlns="http://www.w3.org/2000/svg">
<path d="M39.8612 11.955V27.0619L35.727 31.1961V23.5334C33.3944 25.7193 30.2615 27.0619 26.8197 27.0619C24.445 27.0619 22.2188 26.4208 20.2988 25.3073C18.379 26.4211 16.1527 27.0619 13.778 27.0619C10.336 27.0619 7.20359 25.7193 4.87055 23.5334V31.1961L0.736328 27.0619V14.0202C0.736328 6.82895 6.58656 0.978516 13.778 0.978516C16.1527 0.978516 18.379 1.61963 20.2988 2.73318C22.2188 1.61953 24.4451 0.978516 26.8197 0.978516C32.7274 0.978516 37.7276 4.92783 39.3247 10.3252H34.6077C33.2211 7.41446 30.2528 5.39655 26.8197 5.39655C22.057 5.39655 18.1957 9.2577 18.1957 14.0204C18.1957 15.5826 18.6157 17.0473 19.3458 18.312C18.416 19.6283 16.6211 20.5127 15.6595 20.7542L15.6593 20.754C14.4667 18.7875 13.7774 16.4837 13.7774 14.0203C13.7774 10.9455 14.8495 8.118 16.6363 5.88594C15.7411 5.57039 14.7792 5.39686 13.7774 5.39686C9.02275 5.39686 5.15395 9.26525 5.15395 14.0203C5.15395 18.7754 9.02244 22.6438 13.7774 22.6438H13.7781C18.5409 22.6438 22.4014 18.783 22.4014 14.0203C22.4014 12.4581 21.9814 10.9937 21.2513 9.72869C22.181 8.41236 23.9759 7.52795 24.9375 7.2864C26.1303 9.25326 26.8198 11.5571 26.8198 14.0203C26.8198 17.0951 25.7475 19.9228 23.9607 22.1549C24.8558 22.4705 25.8176 22.6438 26.8198 22.6438C30.8626 22.6438 34.2635 19.8462 35.1917 16.0855H27.9856L32.1163 11.9548H39.8614L39.8612 11.955Z" fill="white" style="fill:white;fill-opacity:1;"/>
</svg>
