<svg width="255" height="44" viewBox="0 0 255 44" fill="none" xmlns="http://www.w3.org/2000/svg">
<path d="M39.8292 29.0109H36.3616V26.8474H39.8292V18.9124L41.6663 17.0753L40.3521 13.4273C40.0401 12.5612 39.2185 11.9839 38.2981 11.9839H36.3616V9.59793C36.3616 9.05666 36.8003 8.61794 37.3416 8.61794C37.8829 8.61794 38.3216 9.05666 38.3216 9.59793H39.9353V4.48377H38.3216C38.3216 5.02504 37.8829 5.46377 37.3416 5.46377C36.8003 5.46377 36.3616 5.02504 36.3616 4.48377H33.7366C33.7366 5.02504 33.2979 5.46377 32.7566 5.46377H30.8509L29.6875 8.61776H32.7568C33.2981 8.61776 33.7368 9.05649 33.7368 9.59776V11.9837H31.8491C31.3659 11.9837 30.892 12.1155 30.4783 12.365L27.7506 14.0097V9.54229C27.7506 7.51195 26.6256 5.46342 23.089 5.46342H21.6215L22.0915 4.48342H16.3549C13.2971 4.48342 10.8184 6.96228 10.8184 10.0199V10.7169L0.893719 0.791992V19.6073C0.893719 22.0771 1.87476 24.4455 3.62108 26.1918L6.29593 28.8667H0L1.53072 30.3976C2.23141 31.0981 3.18148 31.4917 4.17232 31.4917H8.92022L15.7124 38.2839L13.8835 40.1128L11.9753 38.2046C10.68 36.9093 8.07462 36.1822 6.24798 36.1489H0L1.52967 37.6784C2.23036 38.3789 3.18043 38.7727 4.17127 38.7727H6.11638C7.28275 38.7727 9.29454 39.2359 10.1191 40.0607L10.9588 40.9003H0L1.53072 42.4312C2.23141 43.1317 3.18148 43.5253 4.17232 43.5253H17.296L15.8157 42.0452L17.6446 40.2161L20.9538 43.5253H41.6662V42.9413L39.1658 40.4409C38.8356 40.1107 38.8356 39.5756 39.1658 39.2454L41.6662 36.745V36.161L39.829 36.1596V29.0104L39.8292 29.0109ZM37.2042 24.2224H36.3616V23.1588H33.7366V24.2224H32.8942V19.7003H37.2042V24.2224ZM26.1275 24.7506L30.269 20.609V26.8474H33.7365V29.0109H30.269V36.1528L24.3661 36.1482L23.0396 34.8217L24.1217 33.7395C25.4286 32.4327 26.1483 30.6951 26.1483 28.8469V25.7164C26.1483 25.3842 26.1412 25.0624 26.1275 24.7506ZM31.3437 14.9086C31.6688 14.7126 32.0412 14.609 32.4208 14.609H33.7365V15.6786H36.3614V14.609H37.4856C37.7868 14.609 38.0556 14.798 38.1576 15.0813L38.876 17.0755H31.1974C30.4886 17.0755 29.8088 17.357 29.3078 17.8582L25.6916 21.4744C25.4473 20.4407 25.1256 19.5797 24.7783 18.8676L31.3437 14.9088V14.9086ZM27.6302 14.0825L23.3079 16.6887C23.258 16.6357 23.209 16.5846 23.1618 16.5373C22.8893 16.2649 22.6361 16.0239 22.4125 15.8113C21.2659 14.7207 20.7984 14.276 20.6831 12.9894H23.5757C25.9142 12.9894 27.1621 13.4833 27.6302 14.0825ZM13.4429 10.0804C13.4429 8.43927 14.7734 7.10875 16.4145 7.10875H20.5603L20.0902 8.08875H22.6307C23.8366 8.08875 25.1253 8.47077 25.1253 9.54264V10.3643H18.0282V10.8376C18.0282 15.0759 18.8642 16.0591 20.6033 17.7132C20.8261 17.9251 21.0564 18.1442 21.3056 18.3934C22.3997 19.4873 23.1441 21.4205 23.4119 23.7541L23.3734 23.7926L23.4222 23.8414C23.4878 24.4431 23.5233 25.0698 23.5233 25.7164V28.8053C23.5233 29.9524 23.0767 31.0307 22.2656 31.8419L21.1649 32.9426C20.4878 32.2417 20.1065 31.3062 20.1065 30.33V22.9647C20.1065 21.0567 19.3634 19.2629 18.0144 17.9141L13.4427 13.3424V10.0806L13.4429 10.0804ZM3.51818 7.12975L16.1583 19.7701C17.0116 20.6232 17.4815 21.7577 17.4815 22.9645V26.861L5.30386 14.6836C4.16042 13.5401 3.518 11.9893 3.518 10.3721L3.51818 7.12975ZM22.0413 40.9008L5.30404 24.1634C4.1606 23.02 3.51818 21.4692 3.51818 19.852V16.6098L17.4817 30.5733C17.4817 32.1117 18.0928 33.5869 19.1806 34.6746L23.279 38.773H28.9119C29.5869 38.773 30.2344 39.0411 30.7116 39.5185L32.0939 40.9007L22.0413 40.9008ZM37.2042 36.1582H37.2035L32.894 36.1547V31.6359H33.7365V32.6995H36.3614V31.6359H37.2041V36.158L37.2042 36.1582Z" fill="white" style="fill:white;fill-opacity:1;"/>
<path fill-rule="evenodd" clip-rule="evenodd" d="M66.5788 43.1574H69.8744V28.3838H74.7584C76.1027 28.3838 76.834 28.9937 76.834 31.0695C76.834 33.1452 76.1027 33.6322 74.5155 33.6322H71.5843L78.0553 43.1561H82.2066L76.4683 35.2192C77.6897 35.3421 80.4982 34.4879 80.4982 31.0695C80.4982 28.3838 78.5441 26.551 75.3699 26.551H66.5788V43.1574Z" fill="white" style="fill:white;fill-opacity:1;"/>
<path fill-rule="evenodd" clip-rule="evenodd" d="M82.5775 34.7319C82.5775 40.1061 85.5059 43.5245 91.3686 43.5245C97.2313 43.5245 100.16 40.1061 100.16 34.7319C100.16 29.3577 97.2284 25.9424 91.3686 25.9424C85.5087 25.9424 82.5775 29.3608 82.5775 34.7319ZM91.3673 27.7723C95.8842 27.7723 96.2498 29.8494 96.2498 34.7306C96.2498 39.6118 95.8826 41.6905 91.3673 41.6905C86.8519 41.6905 86.4848 39.6162 86.4848 34.7306C86.4848 29.845 86.8491 27.7723 91.3673 27.7723Z" fill="white" style="fill:white;fill-opacity:1;"/>
<path fill-rule="evenodd" clip-rule="evenodd" d="M113.767 34.7319C113.767 40.1061 116.696 43.5245 122.558 43.5245C128.421 43.5245 131.35 40.1061 131.35 34.7319C131.35 29.3577 128.418 25.9424 122.558 25.9424C116.699 25.9424 113.767 29.3608 113.767 34.7319ZM122.557 27.7723C127.074 27.7723 127.44 29.8494 127.44 34.7306C127.44 39.6118 127.073 41.6905 122.557 41.6905C118.042 41.6905 117.675 39.6162 117.675 34.7306C117.675 29.845 118.039 27.7723 122.557 27.7723Z" fill="white" style="fill:white;fill-opacity:1;"/>
<path fill-rule="evenodd" clip-rule="evenodd" d="M149.971 34.7319C149.971 40.1061 152.899 43.5245 158.762 43.5245C164.625 43.5245 167.553 40.1061 167.553 34.7319C167.553 29.3577 164.622 25.9424 158.762 25.9424C152.902 25.9424 149.971 29.3608 149.971 34.7319ZM158.761 27.7723C163.278 27.7723 163.643 29.8494 163.643 34.7306C163.643 39.6118 163.276 41.6905 158.761 41.6905C154.246 41.6905 153.878 39.6162 153.878 34.7306C153.878 29.845 154.243 27.7723 158.761 27.7723Z" fill="white" style="fill:white;fill-opacity:1;"/>
<path fill-rule="evenodd" clip-rule="evenodd" d="M169.766 26.5528V43.1578H180.512V41.448H173.308V26.5528H169.766Z" fill="white" style="fill:white;fill-opacity:1;"/>
<path fill-rule="evenodd" clip-rule="evenodd" d="M227.417 26.5529V43.158H238.162V41.4481H230.958V26.5529H227.417Z" fill="white" style="fill:white;fill-opacity:1;"/>
<path d="M224.576 26.5528H221.034V43.1578H224.576V26.5528Z" fill="white" style="fill:white;fill-opacity:1;"/>
<path fill-rule="evenodd" clip-rule="evenodd" d="M100.318 26.5528V28.2626H105.192V43.1578H108.733V28.2626H113.606V26.5528H100.318Z" fill="white" style="fill:white;fill-opacity:1;"/>
<path fill-rule="evenodd" clip-rule="evenodd" d="M148.049 41.936V39.4946C147.44 39.9832 145.729 41.6917 142.067 41.6917C137.55 41.6917 137.304 39.6162 137.304 34.7335C137.304 29.8507 137.55 27.7736 142.067 27.7736C145.485 27.7736 146.705 29.6049 146.951 29.9707L148.171 27.8952C148.171 27.8952 146.338 25.9424 142.067 25.9424C136.327 25.9424 133.397 29.3608 133.397 34.7335C133.397 40.1061 136.327 43.5245 142.067 43.5245C145.974 43.523 148.049 41.936 148.049 41.936Z" fill="white" style="fill:white;fill-opacity:1;"/>
<path fill-rule="evenodd" clip-rule="evenodd" d="M64.8257 31.5872C64.8257 28.3556 62.8715 26.551 59.6976 26.551H50.9062V43.1574H54.2018V28.3838H59.0859C60.4301 28.3838 61.1614 29.0897 61.1614 31.5872C61.1614 34.0848 60.4301 34.668 58.8429 34.668H55.9117L56.9899 36.255H60.7958C62.0171 36.3779 64.8257 35.7007 64.8257 31.5872Z" fill="white" style="fill:white;fill-opacity:1;"/>
<path fill-rule="evenodd" clip-rule="evenodd" d="M245.603 26.5529H239.703V43.158H245.603C251.463 43.158 254.395 39.9294 254.395 34.8541C254.395 29.7788 251.463 26.5529 245.603 26.5529ZM245.602 41.4256H243.244V28.2811H245.602C250.119 28.2811 250.484 30.2428 250.484 34.8528C250.484 39.4629 250.118 41.4256 245.602 41.4256Z" fill="white" style="fill:white;fill-opacity:1;"/>
<path d="M214.687 26.5528V36.544C214.687 39.817 214.197 41.6907 210.84 41.6907C207.483 41.6907 206.993 39.817 206.993 36.544V26.5528H203.452V36.545C203.452 40.1454 205.531 43.525 210.839 43.525H210.841C216.149 43.525 218.228 40.1454 218.228 36.545V26.5528H214.687Z" fill="white" style="fill:white;fill-opacity:1;"/>
<path d="M197.597 34.4698V41.2366C196.783 41.5036 195.791 41.6917 194.581 41.6917C190.064 41.6917 189.819 39.6162 189.819 34.7335C189.819 29.8507 190.064 27.7736 194.581 27.7736C198 27.7736 199.22 29.6049 199.465 29.9707L200.685 27.8952C200.685 27.8952 198.853 25.9424 194.581 25.9424C188.841 25.9424 185.911 29.3608 185.911 34.7335C185.911 40.1061 188.841 43.5245 194.581 43.5245C198.488 43.523 201.139 41.707 201.139 41.707V34.4698H197.597Z" fill="white" style="fill:white;fill-opacity:1;"/>
</svg>
