<svg width="149" height="149" viewBox="0 0 149 149" fill="none" xmlns="http://www.w3.org/2000/svg">
<path d="M127.013 126.591C145.824 107.769 153.134 80.5254 146.369 55.1117C145.195 50.701 142.403 48.1045 138.084 46.9995C134.846 46.1708 131.583 46.307 128.322 46.8415C123.325 47.6603 118.633 49.4093 114.094 51.5926C107.725 54.6563 101.811 58.4641 96.2662 62.8263C92.7408 65.6007 89.3293 68.5232 85.9234 71.4456C83.9467 73.1417 82.3607 75.2018 80.9974 77.4175C79.8458 79.289 79.1551 81.2322 79.7506 83.525C80.0243 84.5783 79.2522 85.526 78.5696 86.3186C77.3825 87.6968 76.107 88.9991 74.9049 90.3648C67.8287 98.4067 61.3964 106.902 56.6223 116.551C54.6045 120.629 52.9936 124.854 52.1698 129.348C51.6845 131.993 51.5209 134.655 51.9888 137.319C52.6968 141.352 54.658 144.49 58.533 146.185C59.1571 146.458 59.8297 146.657 60.5004 146.781C79.8202 150.363 97.8409 146.985 114.524 136.604C119.143 133.729 123.364 130.332 127.013 126.59L127.013 126.591Z" fill="#303336" style="fill:#303336;fill:color(display-p3 0.1882 0.2000 0.2118);fill-opacity:1;"/>
<path d="M140.397 39.6887C139.309 37.8495 138.307 35.9518 137.113 34.1841C135.484 31.7743 133.749 29.4318 131.98 27.1209C130.719 25.4733 128.978 24.438 127.037 23.7424C124.044 22.6704 120.946 22.5104 117.815 22.7388C112.305 23.1401 107.091 24.7211 102.011 26.798C94.8607 29.7211 88.2536 33.6235 81.9464 38.0479C76.0785 42.1644 70.5148 46.6654 65.2659 51.5459C63.2712 53.4006 61.6105 55.5472 60.2728 57.9253C59.3768 59.5193 58.9506 61.1812 59.3775 63.0522C59.617 64.1024 58.9226 64.9953 58.2681 65.75C56.8383 67.3995 55.312 68.9655 53.8679 70.6031C46.735 78.6911 40.1864 87.2071 34.9401 96.6645C32.0655 101.846 29.6582 107.226 28.1762 112.985C27.274 116.49 26.747 120.043 27.0102 123.677C27.2453 126.92 28.0567 129.964 30.0291 132.634C31.0183 133.973 32.3816 134.836 33.7094 135.755C34.0721 136.005 34.4572 136.224 34.9805 136.55C34.9065 136.275 34.9083 136.119 34.833 136.028C33.4574 134.355 33.1575 132.381 33.2807 130.315C33.4735 127.086 34.4504 124.044 35.6282 121.061C37.9247 115.246 40.9567 109.811 44.2718 104.53C48.9893 97.0148 54.2586 89.9012 60.0426 83.1734C62.3354 80.506 64.6636 77.8667 67.0572 75.2914C67.6645 74.6381 68.5741 74.2579 69.3699 73.7956C69.5491 73.6911 69.8521 73.7036 70.0662 73.7689C72.0454 74.3712 73.846 73.8118 75.5322 72.8474C76.9334 72.046 78.3233 71.1905 79.5876 70.1925C81.8064 68.4404 83.9474 66.5869 86.0809 64.7302C90.9371 60.5049 95.9931 56.534 101.23 52.7952C106.532 49.0098 111.987 45.4571 117.757 42.4139C120.873 40.7707 124.059 39.2805 127.43 38.2234C129.485 37.5788 131.572 37.096 133.738 37.0867C136.283 37.0755 138.53 37.7941 140.189 39.8741C140.258 39.8125 140.328 39.7503 140.397 39.6887Z" fill="#303336" style="fill:#303336;fill:color(display-p3 0.1882 0.2000 0.2118);fill-opacity:1;"/>
<path d="M13.1632 115.149C11.9219 111.187 12.8751 107.461 14.1263 103.792C16.0166 98.2479 18.827 93.1422 21.8571 88.1584C26.2361 80.9552 31.1789 74.1447 36.5509 67.6589C39.8778 63.6426 43.4131 59.7987 46.8788 55.8987C47.3547 55.363 47.9427 54.9138 48.5257 54.4882C49.3277 53.904 50.1801 53.624 51.2404 53.8467C52.2857 54.0664 53.3197 53.7092 54.3009 53.2849C56.249 52.4418 58.0024 51.2659 59.6307 49.9406C62.0442 47.9763 64.3756 45.9094 66.7088 43.8487C71.5041 39.614 76.4879 35.6126 81.6396 31.8253C86.9215 27.9416 92.3551 24.2806 98.1117 21.1235C101.701 19.1555 105.376 17.3823 109.302 16.1765C109.689 16.0576 110.08 15.9512 110.472 15.8517C113.907 14.9812 117.327 14.5905 120.752 16.1093C120.282 15.7328 119.819 15.3483 119.341 14.9818C118.827 14.588 118.323 14.1755 117.776 13.8333C115.068 12.139 112.358 10.4491 109.63 8.78911C106.121 6.65373 102.274 6.21695 98.2722 6.594C93.6387 7.03078 89.2149 8.30006 84.8969 9.97501C77.3465 12.9031 70.3897 16.9262 63.7353 21.5C58.1598 25.3321 52.8742 29.5387 47.8786 34.0963C45.78 36.0108 44.0247 38.2507 42.715 40.7893C42.3137 41.5671 41.9727 42.4444 41.8894 43.3036C41.7307 44.9282 40.9554 46.2491 39.9792 47.4107C37.7424 50.0725 35.3146 52.5743 33.0834 55.2411C25.1591 64.7134 18.1364 74.7718 13.3641 86.2501C11.3345 91.1319 9.81698 96.1592 9.44367 101.468C9.34723 102.836 9.36651 104.219 9.42998 105.59C9.57993 108.835 10.6993 111.746 12.6088 114.363C12.7979 114.622 12.9784 114.887 13.1632 115.149Z" fill="#303336" style="fill:#303336;fill:color(display-p3 0.1882 0.2000 0.2118);fill-opacity:1;"/>
<path d="M92.4952 2.29641C70.793 -3.33758 43.3373 1.36872 23.0406 21.1596C3.48122 40.2318 -1.81492 66.2806 1.80191 85.9669C1.90146 84.9285 1.94502 84.0941 2.06697 83.2716C2.58961 79.7487 3.89249 76.4803 5.43056 73.3027C8.22485 67.5294 11.7328 62.1928 15.4983 57.0174C19.1438 52.0068 23.0997 47.247 27.2193 42.6247C28.7486 40.9087 30.3632 39.2537 32.0755 37.7224C33.3056 36.6218 34.7839 35.8608 36.4458 35.4545C38.2801 35.0059 39.7939 33.8698 41.3525 32.8506C43.8058 31.2466 45.8366 29.1448 48.0311 27.2353C56.7158 19.6781 65.7351 12.5826 75.964 7.18004C79.6232 5.24749 83.3956 3.56072 87.5039 2.82963C89.1266 2.54094 90.7879 2.47187 92.4952 2.29641Z" fill="#303336" style="fill:#303336;fill:color(display-p3 0.1882 0.2000 0.2118);fill-opacity:1;"/>
</svg>
