<svg width="46" height="46" viewBox="0 0 46 46" fill="none" xmlns="http://www.w3.org/2000/svg">
<path d="M16.668 5.11103C16.137 5.11068 15.6116 5.22001 15.1248 5.43218C14.638 5.64435 14.2002 5.95479 13.839 6.34403C12.9069 7.3482 11.7775 8.14907 10.5216 8.69644C9.26557 9.24381 7.91008 9.5259 6.54 9.52503H4.244C6.3962 6.56922 9.21782 4.16513 12.4779 2.50956C15.7379 0.853987 19.3437 -0.00598871 23 3.13901e-05C26.6563 -0.00598871 30.2621 0.853987 33.5221 2.50956C36.7822 4.16513 39.6038 6.56922 41.756 9.52503H39.773C38.3879 9.52578 37.0165 9.25022 35.7392 8.71449C34.4618 8.17877 33.3042 7.39363 32.334 6.40503C31.9319 5.99506 31.452 5.66944 30.9224 5.44724C30.3928 5.22505 29.8243 5.11075 29.25 5.11103H16.668ZM44.471 14.404H37.436C36.8616 14.4043 36.2929 14.29 35.7632 14.0678C35.2334 13.8456 34.7534 13.52 34.351 13.11C33.3809 12.1213 32.2232 11.3361 30.9459 10.8004C29.6685 10.2647 28.2971 9.98917 26.912 9.99003H19.006C17.6358 9.98926 16.2802 10.2714 15.0241 10.8188C13.7679 11.3661 12.6383 12.1669 11.706 13.171C11.3448 13.5603 10.907 13.8707 10.4202 14.0829C9.93342 14.2951 9.40803 14.4044 8.877 14.404H1.529C0.74477 16.3377 0.23028 18.3701 0 20.444H8.877C10.2472 20.445 11.6029 20.163 12.8591 19.6156C14.1153 19.0683 15.2448 18.2673 16.177 17.263C16.5382 16.8738 16.976 16.5634 17.4628 16.3512C17.9496 16.139 18.475 16.0297 19.006 16.03H26.912C27.4864 16.0298 28.0551 16.1441 28.5848 16.3663C29.1146 16.5885 29.5946 16.9141 29.997 17.324C30.9671 18.3127 32.1248 19.0979 33.4021 19.6336C34.6795 20.1694 36.0509 20.4449 37.436 20.444H46C45.7697 18.3701 45.2552 16.3377 44.471 14.404ZM46 25.556H37.436C36.0509 25.5552 34.6795 25.8307 33.4021 26.3664C32.1248 26.9021 30.9671 27.6873 29.997 28.676C29.5946 29.086 29.1146 29.4116 28.5848 29.6338C28.0551 29.856 27.4864 29.9703 26.912 29.97H19.006C18.475 29.9704 17.9496 29.8611 17.4628 29.6489C16.976 29.4367 16.5382 29.1263 16.177 28.737C15.2448 27.7327 14.1153 26.9318 12.8591 26.3844C11.6029 25.837 10.2472 25.555 8.877 25.556H0C0.230155 27.63 0.744649 29.6624 1.529 31.596H8.877C9.952 31.596 10.978 32.043 11.706 32.829C12.6382 33.8333 13.7677 34.6343 15.0239 35.1816C16.2801 35.729 17.6358 36.011 19.006 36.01H26.912C29.714 36.01 32.397 34.885 34.351 32.89C34.7534 32.4801 35.2334 32.1545 35.7632 31.9323C36.2929 31.7101 36.8616 31.5958 37.436 31.596H44.471C45.2554 29.6624 45.7698 27.63 46 25.556ZM41.756 36.475H39.773C38.3879 36.4743 37.0165 36.7498 35.7392 37.2856C34.4618 37.8213 33.3042 38.6064 32.334 39.595C31.9319 40.005 31.452 40.3306 30.9224 40.5528C30.3928 40.775 29.8243 40.8893 29.25 40.889H16.668C16.137 40.8894 15.6116 40.7801 15.1248 40.5679C14.638 40.3557 14.2002 40.0453 13.839 39.656C12.9069 38.6519 11.7775 37.851 10.5216 37.3036C9.26557 36.7562 7.91008 36.4742 6.54 36.475H4.244C6.3962 39.4308 9.21782 41.8349 12.4779 43.4905C15.7379 45.1461 19.3437 46.0061 23 46C26.6563 46.0061 30.2621 45.1461 33.5221 43.4905C36.7822 41.8349 39.6038 39.4308 41.756 36.475ZM22.999 27.414C25.452 27.414 27.441 25.438 27.441 23C27.441 20.562 25.452 18.586 22.999 18.586C20.546 18.586 18.558 20.562 18.558 23C18.558 25.438 20.546 27.414 22.999 27.414Z" fill="white" style="fill:white;fill-opacity:1;"/>
</svg>
