<svg width="24" height="24" viewBox="0 0 24 24" fill="none" xmlns="http://www.w3.org/2000/svg">
<g clip-path="url(#clip0_458_683)">
<path d="M21.7017 15.8223V2.53234C21.6837 1.42234 20.8197 0.527344 19.7337 0.527344H6.19669C3.27669 0.570344 0.929688 3.02034 0.929688 6.02234C0.929688 7.03534 1.19369 7.90234 1.59969 8.66234C1.94469 9.29534 2.48269 9.89234 3.01169 10.3343C3.16169 10.4613 3.09169 10.4063 3.55069 10.6963C3.97625 10.9527 4.43299 11.1534 4.90969 11.2933L4.89969 19.2393C4.91769 19.6193 4.95369 19.9803 5.04969 20.3143C5.34969 21.4363 6.10969 22.2943 7.14169 22.7103C7.57469 22.8823 8.05969 23.0003 8.58069 23.0093L19.3907 23.0453C21.5437 23.0453 23.2907 21.2553 23.2907 19.0403C23.2933 18.4176 23.1513 17.8028 22.8757 17.2443C22.6001 16.6859 22.1975 16.1991 21.7017 15.8223Z" fill="#FFEEDA" style="fill:#FFEEDA;fill:color(display-p3 1.0000 0.9333 0.8549);fill-opacity:1;"/>
<path d="M21.9652 19.14C21.9212 20.559 20.7832 21.698 19.3882 21.698L11.9492 21.671C12.5646 20.9393 12.9021 20.014 12.9022 19.058C12.9022 17.494 11.9932 16.418 11.9932 16.418H19.3972C20.8182 16.418 21.9742 17.603 21.9742 19.058L21.9652 19.14Z" fill="#EBC28E" style="fill:#EBC28E;fill:color(display-p3 0.9216 0.7608 0.5569);fill-opacity:1;"/>
<path d="M3.71669 9.21416C2.86069 8.38216 2.26069 7.30716 2.26069 6.03216V5.89616C2.33069 3.71816 4.07969 1.96416 6.20569 1.90116H19.7427C20.0957 1.92016 20.3777 2.17316 20.3777 2.54316V14.2772C20.6877 14.3322 20.8377 14.3772 21.1377 14.4852C21.3757 14.5752 21.7017 14.7652 21.7017 14.7652V2.54316C21.6837 1.43116 20.8197 0.535156 19.7337 0.535156H6.19669C3.27669 0.581156 0.929688 3.03116 0.929688 6.03216C0.929688 7.77716 1.70569 9.26816 2.97669 10.3172C3.06469 10.3892 3.14469 10.4802 3.37369 10.4802C3.77069 10.4802 4.05369 10.1542 4.03569 9.80216C4.02669 9.50316 3.90269 9.39516 3.71669 9.21416Z" fill="#101010" style="fill:#101010;fill:color(display-p3 0.0627 0.0627 0.0627);fill-opacity:1;"/>
<path d="M19.3881 15.0439H8.77209C8.42534 15.0505 8.09524 15.1939 7.85378 15.4429C7.61232 15.6918 7.47907 16.0261 7.48309 16.3729V17.9369C7.50109 18.6599 8.10109 19.2749 8.81609 19.2749H9.60109V17.9369H8.81609V16.4089H9.24809C10.5901 16.4089 11.5781 17.6839 11.5781 19.0489C11.5781 20.2599 10.5011 21.8059 8.70109 21.6789C7.10409 21.5709 6.23909 20.1159 6.23909 19.0489V5.79594C6.23909 5.19894 5.76209 4.71094 5.18009 4.71094H4.12109V6.06694H4.90609V19.0569C4.86209 21.6969 6.74209 23.0269 8.70109 23.0269L19.3971 23.0629C21.5501 23.0629 23.2971 21.2729 23.2971 19.0579C23.2971 16.8429 21.5421 15.0439 19.3881 15.0439ZM21.9641 19.1389C21.9201 20.5589 20.7811 21.6979 19.3871 21.6979L11.9471 21.6709C12.5629 20.9394 12.9007 20.0141 12.9011 19.0579C12.9011 17.4939 11.9911 16.4179 11.9911 16.4179H19.3981C20.8181 16.4179 21.9741 17.6019 21.9741 19.0579L21.9641 19.1389ZM16.5281 6.31094H8.52409V4.95494H16.5281C16.6161 4.95598 16.703 4.97435 16.7839 5.00899C16.8648 5.04363 16.9381 5.09386 16.9995 5.15682C17.061 5.21978 17.1095 5.29423 17.1422 5.37592C17.1749 5.45762 17.1911 5.54495 17.1901 5.63294C17.1911 5.72092 17.1749 5.80826 17.1422 5.88995C17.1095 5.97164 17.061 6.0461 16.9995 6.10906C16.9381 6.17202 16.8648 6.22225 16.7839 6.25689C16.703 6.29153 16.6161 6.30989 16.5281 6.31094Z" fill="#101010" style="fill:#101010;fill:color(display-p3 0.0627 0.0627 0.0627);fill-opacity:1;"/>
<path d="M16.5313 12.6915H8.52734V11.3355H16.5313C16.6193 11.3366 16.7063 11.3549 16.7871 11.3896C16.868 11.4242 16.9413 11.4745 17.0028 11.5374C17.0642 11.6004 17.1127 11.6748 17.1454 11.7565C17.1781 11.8382 17.1944 11.9255 17.1933 12.0135C17.1944 12.1015 17.1781 12.1889 17.1454 12.2705C17.1127 12.3522 17.0642 12.4267 17.0028 12.4896C16.9413 12.5526 16.868 12.6028 16.7871 12.6375C16.7063 12.6721 16.6193 12.6905 16.5313 12.6915ZM17.9433 9.50053H8.52734V8.14453H17.9343C18.0223 8.14558 18.1093 8.16394 18.1901 8.19858C18.271 8.23322 18.3443 8.28345 18.4058 8.34641C18.4672 8.40937 18.5157 8.48382 18.5484 8.56552C18.5811 8.64721 18.5974 8.73454 18.5963 8.82253C18.5987 8.91012 18.5837 8.99731 18.552 9.07901C18.5204 9.16072 18.4727 9.2353 18.412 9.29841C18.3512 9.36152 18.2784 9.4119 18.198 9.4466C18.1175 9.4813 18.031 9.49963 17.9433 9.50053Z" fill="#101010" style="fill:#101010;fill:color(display-p3 0.0627 0.0627 0.0627);fill-opacity:1;"/>
</g>
<defs>
<clipPath id="clip0_458_683">
<rect width="24" height="24" fill="white" style="fill:white;fill-opacity:1;"/>
</clipPath>
</defs>
</svg>
