<svg width="51" height="21" viewBox="0 0 51 21" fill="none" xmlns="http://www.w3.org/2000/svg">
<path d="M5.61703 10.3644L5.08903 8.34837H2.79703L2.28103 10.3644H0.457031L2.72503 1.98837H5.26903L7.53703 10.3644H5.61703ZM3.99703 3.72837H3.90103L3.08503 6.89638H4.81303L3.99703 3.72837Z" fill="#333333" style="fill:#333333;fill:color(display-p3 0.2000 0.2000 0.2000);fill-opacity:1;"/>
<path d="M8.37234 10.3644V4.17237H10.1483V5.30037H10.2203C10.2923 5.12437 10.3803 4.96037 10.4843 4.80837C10.5883 4.65637 10.7123 4.52437 10.8563 4.41237C11.0083 4.29237 11.1803 4.20037 11.3723 4.13637C11.5723 4.06437 11.7963 4.02838 12.0443 4.02838C12.3403 4.02838 12.6123 4.08037 12.8603 4.18437C13.1083 4.28037 13.3203 4.42838 13.4963 4.62838C13.6723 4.82838 13.8083 5.07238 13.9043 5.36037C14.0083 5.64838 14.0603 5.98037 14.0603 6.35637V10.3644H12.2843V6.59637C12.2843 5.79637 11.9363 5.39637 11.2403 5.39637C11.1043 5.39637 10.9683 5.41637 10.8323 5.45638C10.7043 5.48837 10.5883 5.54437 10.4843 5.62437C10.3803 5.69637 10.2963 5.78837 10.2323 5.90037C10.1763 6.01237 10.1483 6.14437 10.1483 6.29637V10.3644H8.37234Z" fill="#333333" style="fill:#333333;fill:color(display-p3 0.2000 0.2000 0.2000);fill-opacity:1;"/>
<path d="M18.8677 10.3644C18.2277 10.3644 17.7517 10.1964 17.4397 9.86038C17.1277 9.52438 16.9717 9.09637 16.9717 8.57638V5.55237H15.2917V4.17237H16.3837C16.6477 4.17237 16.8357 4.12037 16.9477 4.01637C17.0597 3.91237 17.1157 3.72037 17.1157 3.44037V1.98837H18.7477V4.17237H21.1597V5.55237H18.7477V8.98438H21.1597V10.3644H18.8677Z" fill="#333333" style="fill:#333333;fill:color(display-p3 0.2000 0.2000 0.2000);fill-opacity:1;"/>
<path d="M22.763 1.48438H24.539V5.30037H24.611C24.683 5.12437 24.771 4.96037 24.875 4.80837C24.979 4.65637 25.103 4.52437 25.247 4.41237C25.399 4.29237 25.571 4.20037 25.763 4.13637C25.963 4.06437 26.187 4.02838 26.435 4.02838C26.731 4.02838 27.003 4.08037 27.251 4.18437C27.499 4.28037 27.711 4.42838 27.887 4.62838C28.063 4.82838 28.199 5.07238 28.295 5.36037C28.399 5.64838 28.451 5.98037 28.451 6.35637V10.3644H26.675V6.59637C26.675 5.79637 26.327 5.39637 25.631 5.39637C25.495 5.39637 25.359 5.41637 25.223 5.45638C25.095 5.48837 24.979 5.54437 24.875 5.62437C24.771 5.69637 24.687 5.78837 24.623 5.90037C24.567 6.01237 24.539 6.14437 24.539 6.29637V10.3644H22.763V1.48438Z" fill="#333333" style="fill:#333333;fill:color(display-p3 0.2000 0.2000 0.2000);fill-opacity:1;"/>
<path d="M32.7783 10.5084C32.2983 10.5084 31.8663 10.4364 31.4823 10.2924C31.0983 10.1404 30.7703 9.92437 30.4983 9.64437C30.2343 9.36437 30.0303 9.02437 29.8863 8.62437C29.7423 8.22437 29.6703 7.77237 29.6703 7.26837C29.6703 6.76437 29.7423 6.31238 29.8863 5.91237C30.0303 5.51237 30.2343 5.17237 30.4983 4.89237C30.7703 4.61237 31.0983 4.40037 31.4823 4.25638C31.8663 4.10438 32.2983 4.02838 32.7783 4.02838C33.2583 4.02838 33.6903 4.10438 34.0743 4.25638C34.4583 4.40037 34.7823 4.61237 35.0463 4.89237C35.3183 5.17237 35.5263 5.51237 35.6703 5.91237C35.8143 6.31238 35.8863 6.76437 35.8863 7.26837C35.8863 7.77237 35.8143 8.22437 35.6703 8.62437C35.5263 9.02437 35.3183 9.36437 35.0463 9.64437C34.7823 9.92437 34.4583 10.1404 34.0743 10.2924C33.6903 10.4364 33.2583 10.5084 32.7783 10.5084ZM32.7783 9.18837C33.1783 9.18837 33.4903 9.06437 33.7143 8.81637C33.9383 8.56837 34.0503 8.21637 34.0503 7.76038V6.77637C34.0503 6.32037 33.9383 5.96838 33.7143 5.72038C33.4903 5.47238 33.1783 5.34837 32.7783 5.34837C32.3783 5.34837 32.0663 5.47238 31.8423 5.72038C31.6183 5.96838 31.5063 6.32037 31.5063 6.77637V7.76038C31.5063 8.21637 31.6183 8.56837 31.8423 8.81637C32.0663 9.06437 32.3783 9.18837 32.7783 9.18837Z" fill="#333333" style="fill:#333333;fill:color(display-p3 0.2000 0.2000 0.2000);fill-opacity:1;"/>
<path d="M37.1536 10.3644V4.17237H38.9296V5.30037H39.0016C39.0736 5.12437 39.1616 4.96037 39.2656 4.80837C39.3696 4.65637 39.4936 4.52437 39.6376 4.41237C39.7896 4.29237 39.9616 4.20037 40.1536 4.13637C40.3536 4.06437 40.5776 4.02838 40.8256 4.02838C41.1216 4.02838 41.3936 4.08037 41.6416 4.18437C41.8896 4.28037 42.1016 4.42838 42.2776 4.62838C42.4536 4.82838 42.5896 5.07238 42.6856 5.36037C42.7896 5.64838 42.8416 5.98037 42.8416 6.35637V10.3644H41.0656V6.59637C41.0656 5.79637 40.7176 5.39637 40.0216 5.39637C39.8856 5.39637 39.7496 5.41637 39.6136 5.45638C39.4856 5.48837 39.3696 5.54437 39.2656 5.62437C39.1616 5.69637 39.0776 5.78837 39.0136 5.90037C38.9576 6.01237 38.9296 6.14437 38.9296 6.29637V10.3644H37.1536Z" fill="#333333" style="fill:#333333;fill:color(display-p3 0.2000 0.2000 0.2000);fill-opacity:1;"/>
<path d="M48.7289 4.17237H50.5409L47.6249 11.3604C47.4409 11.8164 47.1969 12.1644 46.8929 12.4044C46.5889 12.6444 46.1729 12.7644 45.6449 12.7644H44.4209V11.3844H45.9089L46.2929 10.3284L43.7969 4.17237H45.7049L46.6049 6.77637L47.1689 8.57638H47.2649L47.8049 6.77637L48.7289 4.17237Z" fill="#333333" style="fill:#333333;fill:color(display-p3 0.2000 0.2000 0.2000);fill-opacity:1;"/>
<path d="M3.86503 19.5084C3.16103 19.5084 2.54903 19.3924 2.02903 19.1604C1.50903 18.9284 1.08903 18.6124 0.769031 18.2124L1.81303 17.0604C2.11703 17.3964 2.44903 17.6444 2.80903 17.8044C3.17703 17.9644 3.54903 18.0444 3.92503 18.0444C4.35703 18.0444 4.68503 17.9484 4.90903 17.7564C5.13303 17.5644 5.24503 17.2884 5.24503 16.9284C5.24503 16.6324 5.15703 16.4084 4.98103 16.2564C4.81303 16.1044 4.52503 15.9964 4.11703 15.9324L3.24103 15.7884C2.48903 15.6604 1.94503 15.3844 1.60903 14.9604C1.27303 14.5284 1.10503 14.0044 1.10503 13.3884C1.10503 12.5804 1.36903 11.9564 1.89703 11.5164C2.42503 11.0684 3.16503 10.8444 4.11703 10.8444C4.76503 10.8444 5.32903 10.9444 5.80903 11.1444C6.28903 11.3444 6.67703 11.6164 6.97303 11.9604L5.95303 13.1004C5.72903 12.8524 5.46503 12.6604 5.16103 12.5244C4.85703 12.3804 4.51303 12.3084 4.12903 12.3084C3.32103 12.3084 2.91703 12.6404 2.91703 13.3044C2.91703 13.5924 3.00503 13.8084 3.18103 13.9524C3.36503 14.0964 3.66103 14.2044 4.06903 14.2764L4.94503 14.4324C5.62503 14.5524 6.14903 14.8084 6.51703 15.2004C6.88503 15.5924 7.06903 16.1204 7.06903 16.7844C7.06903 17.1764 7.00103 17.5404 6.86503 17.8764C6.72903 18.2044 6.52503 18.4924 6.25303 18.7404C5.98103 18.9804 5.64503 19.1684 5.24503 19.3044C4.85303 19.4404 4.39303 19.5084 3.86503 19.5084Z" fill="#333333" style="fill:#333333;fill:color(display-p3 0.2000 0.2000 0.2000);fill-opacity:1;"/>
<path d="M13.4363 19.3644C13.0683 19.3644 12.7723 19.2724 12.5483 19.0884C12.3243 18.8964 12.1923 18.6244 12.1523 18.2724H12.0923C11.9803 18.6804 11.7563 18.9884 11.4203 19.1964C11.0923 19.4044 10.6883 19.5084 10.2083 19.5084C9.60834 19.5084 9.12434 19.3484 8.75634 19.0284C8.39634 18.7004 8.21634 18.2444 8.21634 17.6604C8.21634 17.0124 8.45234 16.5324 8.92434 16.2204C9.39634 15.9084 10.0883 15.7524 11.0003 15.7524H11.9963V15.4404C11.9963 15.0724 11.9083 14.7964 11.7323 14.6124C11.5643 14.4204 11.2763 14.3244 10.8683 14.3244C10.4923 14.3244 10.1883 14.3964 9.95634 14.5404C9.72434 14.6844 9.52434 14.8724 9.35634 15.1044L8.38434 14.2404C8.59234 13.8884 8.91634 13.6004 9.35634 13.3764C9.80434 13.1444 10.3763 13.0284 11.0723 13.0284C11.9203 13.0284 12.5803 13.2244 13.0523 13.6164C13.5323 14.0004 13.7723 14.5844 13.7723 15.3684V18.0804H14.4563V19.3644H13.4363ZM10.8803 18.3444C11.1923 18.3444 11.4563 18.2684 11.6723 18.1164C11.8883 17.9644 11.9963 17.7444 11.9963 17.4564V16.7124H11.0483C10.3203 16.7124 9.95634 16.9564 9.95634 17.4444V17.6844C9.95634 17.9004 10.0403 18.0644 10.2083 18.1764C10.3763 18.2884 10.6003 18.3444 10.8803 18.3444Z" fill="#333333" style="fill:#333333;fill:color(display-p3 0.2000 0.2000 0.2000);fill-opacity:1;"/>
<path d="M18.3157 19.5084C17.6277 19.5084 17.0277 19.4044 16.5157 19.1964C16.0117 18.9884 15.6317 18.7044 15.3757 18.3444L16.3717 17.4204C16.6117 17.6844 16.8917 17.8924 17.2117 18.0444C17.5397 18.1884 17.9117 18.2604 18.3277 18.2604C18.6797 18.2604 18.9557 18.2084 19.1557 18.1044C19.3557 17.9924 19.4557 17.8244 19.4557 17.6004C19.4557 17.4244 19.3877 17.3044 19.2517 17.2404C19.1157 17.1684 18.9277 17.1124 18.6877 17.0724L17.6917 16.9164C17.4117 16.8764 17.1517 16.8164 16.9117 16.7364C16.6717 16.6484 16.4637 16.5324 16.2877 16.3884C16.1117 16.2444 15.9717 16.0684 15.8677 15.8604C15.7637 15.6524 15.7117 15.4004 15.7117 15.1044C15.7117 14.4564 15.9597 13.9484 16.4557 13.5804C16.9517 13.2124 17.6477 13.0284 18.5437 13.0284C19.1517 13.0284 19.6677 13.1124 20.0917 13.2804C20.5237 13.4404 20.8677 13.6724 21.1237 13.9764L20.2357 14.9844C20.0517 14.7844 19.8157 14.6164 19.5277 14.4804C19.2397 14.3444 18.8917 14.2764 18.4837 14.2764C17.7957 14.2764 17.4517 14.4844 17.4517 14.9004C17.4517 15.0844 17.5197 15.2124 17.6557 15.2844C17.7917 15.3484 17.9797 15.4004 18.2197 15.4404L19.2037 15.5964C19.4837 15.6364 19.7437 15.7004 19.9837 15.7884C20.2237 15.8684 20.4317 15.9804 20.6077 16.1244C20.7917 16.2684 20.9357 16.4444 21.0397 16.6524C21.1437 16.8604 21.1957 17.1124 21.1957 17.4084C21.1957 18.0564 20.9437 18.5684 20.4397 18.9444C19.9437 19.3204 19.2357 19.5084 18.3157 19.5084Z" fill="#333333" style="fill:#333333;fill:color(display-p3 0.2000 0.2000 0.2000);fill-opacity:1;"/>
<path d="M25.511 19.5084C24.823 19.5084 24.223 19.4044 23.711 19.1964C23.207 18.9884 22.827 18.7044 22.571 18.3444L23.567 17.4204C23.807 17.6844 24.087 17.8924 24.407 18.0444C24.735 18.1884 25.107 18.2604 25.523 18.2604C25.875 18.2604 26.151 18.2084 26.351 18.1044C26.551 17.9924 26.651 17.8244 26.651 17.6004C26.651 17.4244 26.583 17.3044 26.447 17.2404C26.311 17.1684 26.123 17.1124 25.883 17.0724L24.887 16.9164C24.607 16.8764 24.347 16.8164 24.107 16.7364C23.867 16.6484 23.659 16.5324 23.483 16.3884C23.307 16.2444 23.167 16.0684 23.063 15.8604C22.959 15.6524 22.907 15.4004 22.907 15.1044C22.907 14.4564 23.155 13.9484 23.651 13.5804C24.147 13.2124 24.843 13.0284 25.739 13.0284C26.347 13.0284 26.863 13.1124 27.287 13.2804C27.719 13.4404 28.063 13.6724 28.319 13.9764L27.431 14.9844C27.247 14.7844 27.011 14.6164 26.723 14.4804C26.435 14.3444 26.087 14.2764 25.679 14.2764C24.991 14.2764 24.647 14.4844 24.647 14.9004C24.647 15.0844 24.715 15.2124 24.851 15.2844C24.987 15.3484 25.175 15.4004 25.415 15.4404L26.399 15.5964C26.679 15.6364 26.939 15.7004 27.179 15.7884C27.419 15.8684 27.627 15.9804 27.803 16.1244C27.987 16.2684 28.131 16.4444 28.235 16.6524C28.339 16.8604 28.391 17.1124 28.391 17.4084C28.391 18.0564 28.139 18.5684 27.635 18.9444C27.139 19.3204 26.431 19.5084 25.511 19.5084Z" fill="#333333" style="fill:#333333;fill:color(display-p3 0.2000 0.2000 0.2000);fill-opacity:1;"/>
<path d="M35.0223 19.3644C34.6543 19.3644 34.3583 19.2724 34.1343 19.0884C33.9103 18.8964 33.7783 18.6244 33.7383 18.2724H33.6783C33.5663 18.6804 33.3423 18.9884 33.0063 19.1964C32.6783 19.4044 32.2743 19.5084 31.7943 19.5084C31.1943 19.5084 30.7103 19.3484 30.3423 19.0284C29.9823 18.7004 29.8023 18.2444 29.8023 17.6604C29.8023 17.0124 30.0383 16.5324 30.5103 16.2204C30.9823 15.9084 31.6743 15.7524 32.5863 15.7524H33.5823V15.4404C33.5823 15.0724 33.4943 14.7964 33.3183 14.6124C33.1503 14.4204 32.8623 14.3244 32.4543 14.3244C32.0783 14.3244 31.7743 14.3964 31.5423 14.5404C31.3103 14.6844 31.1103 14.8724 30.9423 15.1044L29.9703 14.2404C30.1783 13.8884 30.5023 13.6004 30.9423 13.3764C31.3903 13.1444 31.9623 13.0284 32.6583 13.0284C33.5063 13.0284 34.1663 13.2244 34.6383 13.6164C35.1183 14.0004 35.3583 14.5844 35.3583 15.3684V18.0804H36.0423V19.3644H35.0223ZM32.4663 18.3444C32.7783 18.3444 33.0423 18.2684 33.2583 18.1164C33.4743 17.9644 33.5823 17.7444 33.5823 17.4564V16.7124H32.6343C31.9063 16.7124 31.5423 16.9564 31.5423 17.4444V17.6844C31.5423 17.9004 31.6263 18.0644 31.7943 18.1764C31.9623 18.2884 32.1863 18.3444 32.4663 18.3444Z" fill="#333333" style="fill:#333333;fill:color(display-p3 0.2000 0.2000 0.2000);fill-opacity:1;"/>
<path d="M37.1536 19.3644V13.1724H38.9296V14.3004H39.0016C39.0736 14.1244 39.1616 13.9604 39.2656 13.8084C39.3696 13.6564 39.4936 13.5244 39.6376 13.4124C39.7896 13.2924 39.9616 13.2004 40.1536 13.1364C40.3536 13.0644 40.5776 13.0284 40.8256 13.0284C41.1216 13.0284 41.3936 13.0804 41.6416 13.1844C41.8896 13.2804 42.1016 13.4284 42.2776 13.6284C42.4536 13.8284 42.5896 14.0724 42.6856 14.3604C42.7896 14.6484 42.8416 14.9804 42.8416 15.3564V19.3644H41.0656V15.5964C41.0656 14.7964 40.7176 14.3964 40.0216 14.3964C39.8856 14.3964 39.7496 14.4164 39.6136 14.4564C39.4856 14.4884 39.3696 14.5444 39.2656 14.6244C39.1616 14.6964 39.0776 14.7884 39.0136 14.9004C38.9576 15.0124 38.9296 15.1444 38.9296 15.2964V19.3644H37.1536Z" fill="#333333" style="fill:#333333;fill:color(display-p3 0.2000 0.2000 0.2000);fill-opacity:1;"/>
<path d="M47.1689 19.5084C46.6889 19.5084 46.2569 19.4364 45.8729 19.2924C45.4889 19.1404 45.1609 18.9244 44.8889 18.6444C44.6249 18.3644 44.4209 18.0244 44.2769 17.6244C44.1329 17.2244 44.0609 16.7724 44.0609 16.2684C44.0609 15.7644 44.1329 15.3124 44.2769 14.9124C44.4209 14.5124 44.6249 14.1724 44.8889 13.8924C45.1609 13.6124 45.4889 13.4004 45.8729 13.2564C46.2569 13.1044 46.6889 13.0284 47.1689 13.0284C47.6489 13.0284 48.0809 13.1044 48.4649 13.2564C48.8489 13.4004 49.1729 13.6124 49.4369 13.8924C49.7089 14.1724 49.9169 14.5124 50.0609 14.9124C50.2049 15.3124 50.2769 15.7644 50.2769 16.2684C50.2769 16.7724 50.2049 17.2244 50.0609 17.6244C49.9169 18.0244 49.7089 18.3644 49.4369 18.6444C49.1729 18.9244 48.8489 19.1404 48.4649 19.2924C48.0809 19.4364 47.6489 19.5084 47.1689 19.5084ZM47.1689 18.1884C47.5689 18.1884 47.8809 18.0644 48.1049 17.8164C48.3289 17.5684 48.4409 17.2164 48.4409 16.7604V15.7764C48.4409 15.3204 48.3289 14.9684 48.1049 14.7204C47.8809 14.4724 47.5689 14.3484 47.1689 14.3484C46.7689 14.3484 46.4569 14.4724 46.2329 14.7204C46.0089 14.9684 45.8969 15.3204 45.8969 15.7764V16.7604C45.8969 17.2164 46.0089 17.5684 46.2329 17.8164C46.4569 18.0644 46.7689 18.1884 47.1689 18.1884Z" fill="#333333" style="fill:#333333;fill:color(display-p3 0.2000 0.2000 0.2000);fill-opacity:1;"/>
</svg>
