<svg width="148" height="39" viewBox="0 0 148 39" fill="none" xmlns="http://www.w3.org/2000/svg">
<path fill-rule="evenodd" clip-rule="evenodd" d="M23.8727 14.1414L29.3862 29.2396L25.7829 31.3217L21.4832 19.5361C21.428 19.3982 21.428 19.242 21.4832 19.1041L23.2937 14.1414C23.3948 13.8656 23.7716 13.8656 23.8727 14.1414ZM20.8316 22.5045L24.3442 32.1529L20.7401 34.2355L18.433 27.8992C18.3778 27.7613 18.3778 27.6051 18.433 27.4673L20.2526 22.5045C20.3445 22.2288 20.7305 22.2288 20.8316 22.5045ZM17.4684 0.93457C16.9813 0.93457 16.4851 1.06324 16.0531 1.32056L2.29519 9.26101C1.42211 9.76647 0.879883 10.7039 0.879883 11.7148V27.5957C0.879883 28.6066 1.42211 29.544 2.29519 30.0587L16.0531 37.9991C16.4942 38.2565 16.9813 38.3851 17.4684 38.3851C17.9555 38.3851 18.4518 38.2565 18.8837 37.9991L32.6416 30.0587C33.5239 29.5532 34.0569 28.6158 34.0569 27.5957V11.7056C34.0569 10.6947 33.5147 9.75728 32.6416 9.24262L18.8929 1.32056C18.4518 1.06324 17.9555 0.93457 17.4684 0.93457ZM16.3097 10.5752H12.8266C12.5693 10.5752 12.3303 10.7406 12.2476 10.9796L4.77588 31.474L8.37849 33.5602L16.613 10.9888C16.6773 10.7866 16.5303 10.5752 16.3097 10.5752ZM18.9287 10.5752H22.4118C22.6324 10.5752 22.7795 10.7866 22.7059 10.9979L13.4145 36.4735L9.81192 34.3873L18.3497 10.9796C18.4324 10.7406 18.6714 10.5752 18.9287 10.5752Z" fill="white" style="fill:white;fill:color(display-p3 1.0000 1.0000 1.0000);fill-opacity:1;"/>
<path d="M48.9107 10.583C49.26 10.583 49.554 10.6565 49.793 10.7944C50.0319 10.9322 50.2709 11.2171 50.5007 11.6307L55.0499 19.8836C55.0958 19.9755 55.105 20.049 55.0774 20.1134C55.0591 20.1777 54.9855 20.2053 54.8752 20.2053H53.1291C52.9728 20.2053 52.8718 20.1409 52.8166 20.0307L51.8424 18.2661H45.3908L44.4442 20.0307C44.3799 20.1501 44.2788 20.2053 44.1318 20.2053H42.3488C42.2294 20.2053 42.1558 20.1777 42.1375 20.1134C42.1191 20.049 42.1191 19.9755 42.165 19.8836L46.6775 11.6307C46.9072 11.2171 47.1278 10.9414 47.3484 10.7944C47.5689 10.6473 47.8263 10.583 48.1112 10.583H48.9107ZM46.2363 16.6578H50.9694L48.7821 12.6324C48.7453 12.5681 48.6993 12.5314 48.6258 12.5314H48.5431C48.4788 12.5314 48.4328 12.5589 48.3869 12.6324L46.2363 16.6578Z" fill="white" style="fill:white;fill:color(display-p3 1.0000 1.0000 1.0000);fill-opacity:1;"/>
<path d="M65.0401 10.583C66.0969 10.583 66.8506 10.822 67.3101 11.2999C67.7696 11.7777 67.9993 12.4762 67.9993 13.4136V14.1948C67.9993 14.9852 67.8339 15.6009 67.5214 16.0604C67.209 16.52 66.6759 16.814 65.9499 16.9427L68.3026 19.856C68.3486 19.902 68.367 19.9663 68.3394 20.0582C68.321 20.1501 68.2475 20.1961 68.1188 20.1961H66.3543C66.2348 20.1961 66.1521 20.1777 66.1061 20.1593C66.0602 20.1318 66.0142 20.0858 65.9683 20.0215L63.7902 17.1633H59.3513V19.902C59.3513 20.1042 59.2502 20.1961 59.0572 20.1961H57.5683C57.3569 20.1961 57.2559 20.095 57.2559 19.902V10.9966C57.2559 10.7209 57.3937 10.583 57.6694 10.583H65.0401ZM59.3513 15.4814H64.6081C65.0768 15.4814 65.4077 15.3804 65.6007 15.1874C65.7937 14.9852 65.8948 14.6819 65.8948 14.2683V13.6985C65.8948 13.285 65.7937 12.9817 65.6007 12.7795C65.4077 12.5773 65.0768 12.4854 64.6081 12.4854H59.5259C59.4064 12.4854 59.3513 12.5405 59.3513 12.6508V15.4814Z" fill="white" style="fill:white;fill:color(display-p3 1.0000 1.0000 1.0000);fill-opacity:1;"/>
<path d="M79.4865 10.583C80.4239 10.583 81.104 10.776 81.4992 11.1528C81.8944 11.5296 82.0965 12.0902 82.0965 12.853V13.5147C82.0965 14.2775 81.8025 14.8657 81.2143 15.2609C81.8392 15.6285 82.1609 16.2167 82.1609 17.0254V17.825C82.1609 18.1926 82.1241 18.5234 82.0414 18.8175C81.9587 19.1116 81.83 19.3598 81.637 19.5711C81.444 19.7825 81.1959 19.9388 80.8834 20.049C80.571 20.1593 80.185 20.2145 79.7255 20.2145H71.5644C71.2887 20.2145 71.1509 20.0766 71.1509 19.8009V10.9966C71.1509 10.7209 71.2887 10.583 71.5644 10.583H79.4865ZM73.2647 14.5808H78.8983C79.3578 14.5808 79.6611 14.5073 79.8357 14.3786C80.0103 14.2499 80.0839 14.0386 80.0839 13.7721V13.3033C80.0839 13.0184 80.0104 12.8163 79.8449 12.6784C79.6795 12.5497 79.4222 12.4762 79.0729 12.4762H73.4485C73.329 12.4762 73.2738 12.5405 73.2738 12.6508L73.2647 14.5808ZM73.2647 16.0696V18.1099C73.2647 18.2294 73.329 18.2845 73.4393 18.2845H79.0729C79.4406 18.2845 79.6979 18.211 79.8541 18.0823C80.0104 17.9536 80.0931 17.7331 80.0931 17.4482V16.9243C80.0931 16.6394 80.0103 16.4281 79.8357 16.281C79.6703 16.134 79.3487 16.0604 78.8983 16.0604H73.2647V16.0696Z" fill="white" style="fill:white;fill:color(display-p3 1.0000 1.0000 1.0000);fill-opacity:1;"/>
<path d="M87.2915 10.583C87.4937 10.583 87.5856 10.6841 87.5856 10.8771V19.8928C87.5856 20.095 87.4845 20.1869 87.2915 20.1869H85.8027C85.5913 20.1869 85.4902 20.0858 85.4902 19.8928V10.8771C85.4902 10.6749 85.6005 10.583 85.8027 10.583H87.2915Z" fill="white" style="fill:white;fill:color(display-p3 1.0000 1.0000 1.0000);fill-opacity:1;"/>
<path d="M101.69 10.583C101.901 10.583 102.002 10.6841 102.002 10.8771V12.2281C102.002 12.4395 101.892 12.5405 101.69 12.5405H97.3793V19.8928C97.3793 20.095 97.2783 20.1869 97.0853 20.1869H95.5872C95.385 20.1869 95.2931 20.0858 95.2931 19.8928V12.5405H90.9829C90.7715 12.5405 90.6704 12.4303 90.6704 12.2281V10.8771C90.6704 10.6749 90.7807 10.583 90.9829 10.583C90.9645 10.583 101.69 10.583 101.69 10.583Z" fill="white" style="fill:white;fill:color(display-p3 1.0000 1.0000 1.0000);fill-opacity:1;"/>
<path d="M112.563 10.583C113.62 10.583 114.374 10.822 114.833 11.2999C115.293 11.7777 115.522 12.4762 115.522 13.4136V14.1948C115.522 14.9852 115.357 15.6009 115.044 16.0604C114.732 16.52 114.199 16.814 113.473 16.9427L115.826 19.856C115.872 19.902 115.89 19.9663 115.862 20.0582C115.844 20.1501 115.77 20.1961 115.642 20.1961H113.877C113.758 20.1961 113.675 20.1777 113.629 20.1593C113.583 20.1318 113.537 20.0858 113.491 20.0215L111.313 17.1633H106.874V19.902C106.874 20.1042 106.773 20.1961 106.58 20.1961H105.091C104.88 20.1961 104.779 20.095 104.779 19.902V10.9966C104.779 10.7209 104.917 10.583 105.192 10.583H112.563ZM106.874 15.4814H112.131C112.6 15.4814 112.931 15.3804 113.124 15.1874C113.317 14.9852 113.418 14.6819 113.418 14.2683V13.6985C113.418 13.285 113.317 12.9817 113.124 12.7795C112.931 12.5773 112.6 12.4854 112.131 12.4854H107.049C106.929 12.4854 106.874 12.5405 106.874 12.6508V15.4814Z" fill="white" style="fill:white;fill:color(display-p3 1.0000 1.0000 1.0000);fill-opacity:1;"/>
<path d="M120.285 10.583C120.487 10.583 120.579 10.6841 120.579 10.8771V16.3637C120.579 16.7313 120.607 17.0346 120.671 17.2736C120.735 17.5217 120.836 17.7147 120.965 17.8434C121.103 17.9904 121.287 18.0915 121.526 18.1375C121.765 18.2018 122.059 18.2294 122.417 18.2294H126.222C126.58 18.2294 126.874 18.2018 127.113 18.1375C127.352 18.0731 127.536 17.972 127.674 17.8434C127.812 17.6963 127.913 17.5033 127.968 17.2736C128.023 17.0254 128.051 16.7313 128.051 16.3637V10.8771C128.051 10.6749 128.152 10.583 128.345 10.583H129.843C130.045 10.583 130.137 10.6841 130.137 10.8771V16.5659C130.137 17.2276 130.063 17.779 129.935 18.2477C129.797 18.7073 129.576 19.0841 129.273 19.369C128.97 19.663 128.565 19.8652 128.078 19.9939C127.591 20.1226 126.994 20.1869 126.305 20.1869H122.344C121.645 20.1869 121.057 20.1226 120.579 19.9939C120.092 19.8652 119.697 19.6539 119.393 19.369C119.09 19.0749 118.86 18.7073 118.723 18.2477C118.585 17.7882 118.511 17.2184 118.511 16.5659V10.8771C118.511 10.6749 118.622 10.583 118.824 10.583C118.815 10.583 120.285 10.583 120.285 10.583Z" fill="white" style="fill:white;fill:color(display-p3 1.0000 1.0000 1.0000);fill-opacity:1;"/>
<path d="M136.052 10.583C136.254 10.583 136.429 10.6014 136.576 10.6198C136.723 10.6473 136.852 10.6933 136.962 10.7852C137.072 10.8587 137.164 10.969 137.256 11.0977C137.339 11.2263 137.431 11.4009 137.523 11.6307L140.381 18.2294C140.418 18.3121 140.482 18.3488 140.574 18.3488H140.739C140.831 18.3488 140.895 18.3121 140.932 18.2294L143.79 11.6307C143.882 11.4101 143.974 11.2355 144.057 11.0977C144.14 10.969 144.241 10.8587 144.351 10.7852C144.461 10.7117 144.59 10.6565 144.728 10.6198C144.875 10.5922 145.04 10.583 145.242 10.583H146.713C147.191 10.583 147.512 10.6933 147.678 10.9047C147.843 11.116 147.926 11.4837 147.926 12.0075V19.8928C147.926 20.095 147.816 20.1869 147.614 20.1869H146.207C146.005 20.1869 145.913 20.0858 145.913 19.8928V12.7244C145.913 12.6324 145.877 12.5865 145.803 12.5865H145.684C145.592 12.5865 145.527 12.6233 145.509 12.6968L142.724 18.8543C142.614 19.1024 142.504 19.3138 142.384 19.4792C142.265 19.6447 142.145 19.7825 142.017 19.902C141.888 20.0123 141.732 20.095 141.566 20.1409C141.401 20.1869 141.199 20.2145 140.969 20.2145H140.307C140.077 20.2145 139.875 20.1961 139.71 20.1409C139.544 20.0858 139.388 20.0215 139.26 19.902C139.131 19.7917 139.002 19.6447 138.892 19.4792C138.782 19.3138 138.662 19.1024 138.552 18.8543L135.776 12.6968C135.749 12.6233 135.694 12.5865 135.602 12.5865H135.482C135.409 12.5865 135.372 12.6324 135.372 12.7244V19.902C135.372 20.1042 135.271 20.1961 135.069 20.1961H133.672C133.46 20.1961 133.359 20.095 133.359 19.902V12.0167C133.359 11.4929 133.442 11.1252 133.608 10.9139C133.773 10.7025 134.095 10.5922 134.582 10.5922L136.052 10.583Z" fill="white" style="fill:white;fill:color(display-p3 1.0000 1.0000 1.0000);fill-opacity:1;"/>
<path d="M44.0829 28.655C43.5755 28.655 43.1788 28.5952 42.8929 28.4755C42.6071 28.3558 42.407 28.1762 42.2926 27.9368C42.1783 27.6974 42.1211 27.4012 42.1211 27.048V25.046C42.1211 24.4714 42.2747 24.0495 42.5821 23.7802C42.8894 23.5048 43.3896 23.3672 44.0829 23.3672H47.3097C47.8028 23.3672 48.178 23.3911 48.4353 23.439C48.6997 23.4809 48.8319 23.5258 48.8319 23.5737L48.6175 24.3188C48.496 24.3009 48.1351 24.2829 47.5348 24.265C46.9416 24.241 46.0768 24.229 44.9405 24.229H44.3938C43.822 24.229 43.5362 24.4415 43.5362 24.8665V27.1558C43.5362 27.3593 43.5969 27.5179 43.7184 27.6316C43.847 27.7393 44.0722 27.7932 44.3938 27.7932H44.8333C46.0197 27.7932 46.938 27.7842 47.5884 27.7662C48.2459 27.7423 48.6533 27.7184 48.8105 27.6944L49.25 28.2869C49.25 28.3169 49.1893 28.3618 49.0678 28.4216C48.9534 28.4815 48.739 28.5353 48.4246 28.5832C48.1101 28.6311 47.6563 28.655 47.0631 28.655H44.0829Z" fill="white" style="fill:white;fill:color(display-p3 1.0000 1.0000 1.0000);fill-opacity:1;"/>
<path d="M52.0682 28.655C51.5679 28.655 51.1748 28.5952 50.8889 28.4755C50.6031 28.3558 50.3994 28.1762 50.2779 27.9368C50.1635 27.6974 50.1064 27.4012 50.1064 27.048V24.9742C50.1064 24.6271 50.1635 24.3368 50.2779 24.1034C50.3922 23.864 50.5923 23.6844 50.8782 23.5647C51.1641 23.439 51.5607 23.3762 52.0682 23.3762H55.1985C55.6987 23.3762 56.0882 23.439 56.367 23.5647C56.6528 23.6844 56.8529 23.864 56.9673 24.1034C57.0888 24.3368 57.1495 24.6271 57.1495 24.9742V27.048C57.1495 27.5747 57.0102 27.9757 56.7314 28.251C56.4527 28.5204 55.9417 28.655 55.1985 28.655H52.0682ZM52.379 27.7932H54.8983C55.1627 27.7932 55.3664 27.7363 55.5093 27.6226C55.6594 27.5089 55.7345 27.3533 55.7345 27.1558V24.8665C55.7345 24.6929 55.6594 24.5463 55.5093 24.4266C55.3593 24.3009 55.1556 24.238 54.8983 24.238H52.379C52.1218 24.238 51.9145 24.2949 51.7573 24.4086C51.6 24.5223 51.5214 24.6749 51.5214 24.8665V27.1558C51.5214 27.3593 51.5965 27.5179 51.7466 27.6316C51.9038 27.7393 52.1146 27.7932 52.379 27.7932Z" fill="white" style="fill:white;fill:color(display-p3 1.0000 1.0000 1.0000);fill-opacity:1;"/>
<path d="M58.7562 28.655V24.0944L58.649 23.3762H60.2785L62.7012 26.9672L65.2098 23.3762H66.657V28.655H65.2419V25.3064H65.124L64.7059 26.0874L63.3552 28.1164H62.058L60.7073 26.0874L60.2785 25.3064H60.1713V28.655H58.7562Z" fill="white" style="fill:white;fill:color(display-p3 1.0000 1.0000 1.0000);fill-opacity:1;"/>
<path d="M68.3746 28.655V24.0944L68.2674 23.3762H69.8969L72.3197 26.9672L74.8282 23.3762H76.2754V28.655H74.8603V25.3064H74.7424L74.3243 26.0874L72.9736 28.1164H71.6764L70.3257 26.0874L69.8969 25.3064H69.7897V28.655H68.3746Z" fill="white" style="fill:white;fill:color(display-p3 1.0000 1.0000 1.0000);fill-opacity:1;"/>
<path d="M79.4724 28.7448C78.8221 28.7448 78.3683 28.5982 78.111 28.3049C77.8537 28.0116 77.7251 27.6226 77.7251 27.1378V23.3762H79.1401V27.1737C79.1401 27.455 79.2223 27.6435 79.3867 27.7393C79.5511 27.8351 79.7547 27.883 79.9977 27.883H82.2704C82.4991 27.883 82.6992 27.8351 82.8707 27.7393C83.0423 27.6376 83.128 27.449 83.128 27.1737V23.3762H84.5431V27.1378C84.5431 27.461 84.4895 27.7423 84.3823 27.9817C84.2751 28.2211 84.0964 28.4096 83.8463 28.5473C83.5961 28.679 83.2495 28.7448 82.8064 28.7448H79.4724Z" fill="white" style="fill:white;fill:color(display-p3 1.0000 1.0000 1.0000);fill-opacity:1;"/>
<path d="M86.0935 28.655V24.0944L85.9863 23.3762H87.53L91.1749 26.5722L91.5929 27.057H91.7109V23.3762H93.1259V28.655H91.7645L88.0338 25.4051L87.6158 24.9832H87.5086V28.655H86.0935Z" fill="white" style="fill:white;fill:color(display-p3 1.0000 1.0000 1.0000);fill-opacity:1;"/>
<path d="M94.7358 28.655V23.3762H96.1509V28.655H94.7358Z" fill="white" style="fill:white;fill:color(display-p3 1.0000 1.0000 1.0000);fill-opacity:1;"/>
<path d="M99.9136 28.655L99.9028 24.229H97.1156V23.3672H104.127V24.229H101.329V28.655H99.9136Z" fill="white" style="fill:white;fill:color(display-p3 1.0000 1.0000 1.0000);fill-opacity:1;"/>
<path d="M107.464 28.655V26.4645L104.345 23.3762H106.06L107.646 25.055L108.14 25.6116H108.247L108.74 25.055L110.326 23.3762H112.042L111.624 23.9148L108.879 26.5004V28.655H107.464Z" fill="white" style="fill:white;fill:color(display-p3 1.0000 1.0000 1.0000);fill-opacity:1;"/>
</svg>
