<svg width="1454" height="340" viewBox="0 0 1454 340" fill="none" xmlns="http://www.w3.org/2000/svg">
<g clip-path="url(#clip0_3_2)">
<path d="M451.08 4.92001L395.91 150.55H421.67L434.04 117.29H496.92L509.49 150.55H535.66L480.49 4.92001H451.08ZM465.27 33.73L488.39 94.57H442.55L465.27 33.73Z" fill="black"/>
<path d="M631.59 129.86H575.41L630.98 62.52V44.07H545.59V64.76H601.97L544.77 132.29V150.55H631.58V129.86H631.59Z" fill="black"/>
<path d="M655.93 123.79C655.93 145.48 666.88 151.78 687.16 151.78C693.45 151.78 699.53 151.17 703.99 150.36V129.86C700.34 130.26 698.11 130.47 694.05 130.47C685.33 130.47 679.85 129.45 679.85 119.92V64.77H702.16V44.08H679.85V12.84H655.92V44.08H641.11V64.77H655.92V123.79H655.93Z" fill="black"/>
<path d="M765.23 152.79C786.53 152.79 803.36 141.62 810.87 122.97L789.98 115.06C786.73 126.02 777.2 132.11 765.24 132.11C749.62 132.11 738.67 120.94 736.84 102.69H811.48V94.59C811.48 65.38 795.05 42.06 764.22 42.06C733.39 42.06 713.51 66.2 713.51 97.42C713.51 130.27 734.81 152.8 765.23 152.8V152.79ZM764.01 62.53C779.43 62.53 786.73 72.66 786.93 84.44H738.05C741.7 70.04 751.44 62.53 764.01 62.53Z" fill="black"/>
<path d="M847.38 97.41C847.38 75.71 858.74 62.93 875.37 62.93C888.35 62.93 896.26 71.66 899.3 83.22L919.79 72.07C914.11 55.02 898.29 42.05 875.37 42.05C844.95 42.05 823.04 64.56 823.04 97.41C823.04 130.26 844.95 152.79 875.37 152.79C898.49 152.79 914.72 139.19 920.19 121.95L899.3 111.41C896.26 123.17 888.35 131.7 875.37 131.7C858.74 131.7 847.38 119.12 847.38 97.41Z" fill="black"/>
<path d="M401.37 187.76H489.16V211.16H427.67V249.05H484.4V272.24H427.67V335.8H401.37V187.76Z" fill="black"/>
<path d="M612.35 281.55C612.35 315.3 590.19 339.11 555 339.11C519.81 339.11 498.68 314.68 498.68 281.55C498.68 248.42 521.25 223.37 555.41 223.37C589.57 223.37 612.35 247.39 612.35 281.55ZM524.56 281.34C524.56 303.7 535.95 317.99 555 317.99C574.05 317.99 585.64 303.7 585.64 281.34C585.64 258.98 574.05 244.48 555 244.48C535.95 244.48 524.56 259.8 524.56 281.34Z" fill="black"/>
<path d="M702.62 328.14V320.27C696.2 331.66 685.23 338.7 668.87 338.7C644.23 338.7 629.53 324.21 629.53 291.29V227.1H654.79V285.07C654.79 304.33 659.76 317.79 677.15 317.79C696.82 317.79 701.17 301.02 701.17 284.04V227.1H726.43V319.45C726.43 325.04 726.43 330.63 726.64 335.81H702.62V328.15V328.14Z" fill="black"/>
<path d="M775.29 233.72C775.29 236 775.29 238.28 775.08 240.55C775.08 240.69 775.15 240.76 775.29 240.76C781.92 230.82 792.48 223.57 809.25 223.57C834.3 223.57 848.59 240.13 848.59 268.29V335.79H823.33V279.68C823.33 258.35 818.36 244.69 801.17 244.69C783.98 244.69 776.53 258.15 776.53 275.13V335.8H751.27V243.46C751.27 237.87 751.27 232.49 751.06 226.9H775.28V233.73L775.29 233.72Z" fill="black"/>
<path d="M953.35 335.8V320.48C946.93 330.21 934.72 338.29 915.87 338.29C886.05 338.29 865.76 315.1 865.76 281.14C865.76 247.18 885.43 223.58 916.49 223.58C933.67 223.58 946.1 232.07 952.1 240.97C951.89 233.31 951.89 226.89 951.89 219.44V187.76H977.15V335.8H953.34H953.35ZM891.65 281.55C891.65 302.26 902.83 317.78 921.67 317.78C940.51 317.78 953.14 302.04 953.14 280.72C953.14 259.4 940.1 244.49 921.87 244.49C903.64 244.49 891.64 260.85 891.64 281.55H891.65Z" fill="black"/>
<path d="M999.31 261.05C1000.35 240.14 1017.53 223.57 1045.9 223.57C1072.4 223.57 1090.83 234.54 1090.83 271.61V302.05C1090.83 317.16 1091.66 327.72 1093.31 335.8H1070.12C1069.5 332.69 1068.88 327.73 1068.88 321.31C1062.88 330.21 1050.45 337.87 1032.85 337.87C1010.28 337.87 994.13 326.07 994.13 305.57C994.13 283 1018.35 274.3 1041.34 270.99C1050.66 269.54 1059.15 268.71 1066.39 268.09C1065.77 249.87 1059.56 243.24 1045.27 243.24C1030.98 243.24 1024.77 250.49 1023.32 261.05H999.3H999.31ZM1066.81 285.69L1061.22 286.31C1033.68 289 1021.05 293.56 1021.05 304.94C1021.05 314.88 1028.3 319.85 1039.89 319.85C1058.11 319.85 1066.6 308.67 1066.6 290.24C1066.6 290.03 1066.6 287.96 1066.81 285.68V285.69Z" fill="black"/>
<path d="M1144.86 227.1H1165.15V245.94H1144.86V305.36C1144.86 315.5 1149.62 318.82 1157.9 318.82C1159.97 318.82 1161.63 318.61 1163.08 318.41V337.04C1160.8 337.66 1158.11 337.87 1153.35 337.87C1132.85 337.87 1119.6 331.24 1119.6 309.71V245.94H1103.24V227.1H1119.6V197.7H1144.86V227.1Z" fill="black"/>
<path d="M1180.47 187.76H1206.35V211.36H1180.47V187.76ZM1206.14 227.1V335.8H1180.88V227.1H1206.14Z" fill="black"/>
<path d="M1337.82 281.55C1337.82 315.3 1315.66 339.11 1280.47 339.11C1245.28 339.11 1224.15 314.68 1224.15 281.55C1224.15 248.42 1246.72 223.37 1280.88 223.37C1315.04 223.37 1337.82 247.39 1337.82 281.55ZM1250.03 281.34C1250.03 303.7 1261.42 317.99 1280.46 317.99C1299.5 317.99 1311.1 303.7 1311.1 281.34C1311.1 258.98 1299.51 244.48 1280.46 244.48C1261.41 244.48 1250.03 259.8 1250.03 281.34Z" fill="black"/>
<path d="M1380.06 233.72C1380.06 236 1380.06 238.28 1379.85 240.55C1379.85 240.69 1379.92 240.76 1380.06 240.76C1386.69 230.82 1397.24 223.57 1414.01 223.57C1439.06 223.57 1453.35 240.13 1453.35 268.29V335.79H1428.09V279.68C1428.09 258.35 1423.12 244.69 1405.93 244.69C1388.74 244.69 1381.29 258.15 1381.29 275.13V335.8H1356.03V243.46C1356.03 237.87 1356.03 232.49 1355.82 226.9H1380.05V233.73L1380.06 233.72Z" fill="black"/>
<path d="M169.41 338.82C156.48 338.82 143.56 333.9 133.71 324.06L14.76 205.1C-4.92 185.42 -4.92 153.39 14.76 133.71L133.71 14.76C153.39 -4.92 185.42 -4.92 205.1 14.76L324.05 133.71C333.58 143.24 338.84 155.92 338.84 169.41C338.84 182.9 333.59 195.57 324.05 205.1L205.1 324.06C195.26 333.9 182.33 338.82 169.4 338.82H169.41ZM169.41 4.07C157.52 4.07 145.64 8.59 136.59 17.64L17.64 136.59C-0.460001 154.69 -0.460001 184.13 17.64 202.23L136.59 321.19C154.69 339.28 184.13 339.29 202.23 321.19L321.18 202.23C329.95 193.47 334.77 181.81 334.77 169.41C334.77 157.01 329.94 145.36 321.18 136.59L202.23 17.64C193.18 8.59 181.3 4.07 169.41 4.07Z" fill="black"/>
<path d="M169.41 325.12C159.17 325.12 149.54 321.13 142.3 313.89L24.93 196.53C9.98003 181.58 9.98003 157.25 24.93 142.3L142.3 24.93C157.25 9.98 181.58 9.98 196.53 24.93L313.9 142.3C328.85 157.25 328.85 181.58 313.9 196.53L196.53 313.89C189.29 321.13 179.66 325.12 169.42 325.12H169.41ZM169.41 17.77C160.25 17.77 151.65 21.34 145.17 27.81L27.81 145.17C14.45 158.53 14.45 180.28 27.81 193.65L145.18 311.01C151.65 317.49 160.26 321.05 169.42 321.05C178.58 321.05 187.18 317.49 193.66 311.01L311.03 193.65C324.39 180.29 324.39 158.54 311.03 145.17L193.65 27.81C187.18 21.34 178.57 17.77 169.41 17.77Z" fill="black"/>
<path d="M169.41 311.39C162.7 311.39 155.99 308.84 150.87 303.73L35.09 187.95C30.14 183 27.41 176.42 27.41 169.41C27.41 162.4 30.14 155.83 35.09 150.87L150.87 35.09C155.82 30.14 162.4 27.41 169.41 27.41C176.42 27.41 182.99 30.14 187.95 35.09L303.73 150.87C308.68 155.82 311.41 162.4 311.41 169.41C311.41 176.42 308.68 182.99 303.73 187.95L187.95 303.73C182.84 308.84 176.13 311.39 169.41 311.39ZM169.41 31.49C163.5 31.49 157.93 33.79 153.75 37.98L37.97 153.76C33.79 157.94 31.48 163.5 31.48 169.42C31.48 175.34 33.78 180.9 37.97 185.08L153.75 300.86C162.38 309.49 176.44 309.49 185.07 300.86L300.85 185.08C305.03 180.9 307.34 175.33 307.34 169.42C307.34 163.51 305.04 157.94 300.85 153.76L185.07 37.98C180.89 33.8 175.33 31.49 169.41 31.49Z" fill="black"/>
<path d="M169.41 297.68C165.65 297.68 162.11 296.21 159.45 293.56L45.26 179.37C42.6 176.71 41.14 173.18 41.14 169.42C41.14 165.66 42.6 162.12 45.26 159.46L159.45 45.27C164.77 39.95 174.04 39.95 179.36 45.27L293.55 159.46C296.21 162.12 297.67 165.66 297.67 169.42C297.67 173.18 296.21 176.72 293.55 179.37L179.36 293.56C176.7 296.22 173.16 297.68 169.4 297.68H169.41ZM169.41 45.21C166.74 45.21 164.22 46.25 162.33 48.14L48.14 162.33C46.25 164.22 45.21 166.74 45.21 169.41C45.21 172.08 46.25 174.6 48.14 176.49L162.33 290.68C166.11 294.46 172.71 294.46 176.49 290.68L290.68 176.49C292.57 174.6 293.61 172.09 293.61 169.41C293.61 166.73 292.57 164.22 290.68 162.33L176.49 48.14C174.6 46.25 172.08 45.21 169.41 45.21Z" fill="black"/>
<path d="M169.41 245.16C168.07 245.16 166.82 244.64 165.87 243.69L95.12 172.94C93.17 170.99 93.17 167.82 95.12 165.87L165.88 95.12C167.77 93.23 171.06 93.23 172.95 95.12L243.7 165.87C245.65 167.82 245.65 170.99 243.7 172.94L172.94 243.69C172 244.64 170.74 245.16 169.4 245.16H169.41ZM169.41 97.72C169.27 97.72 168.99 97.76 168.75 97.99L97.99 168.75C97.63 169.11 97.63 169.71 97.99 170.07L168.75 240.82C169.22 241.3 169.59 241.3 170.06 240.82L240.82 170.07C241.18 169.71 241.18 169.11 240.82 168.75L170.06 98C169.82 97.76 169.54 97.73 169.4 97.73L169.41 97.72Z" fill="black"/>
<path d="M224.091 168.896L169.926 114.731C169.641 114.446 169.179 114.446 168.894 114.731L114.729 168.896C114.444 169.181 114.444 169.643 114.729 169.928L168.894 224.092C169.179 224.378 169.641 224.378 169.926 224.092L224.091 169.928C224.376 169.643 224.376 169.181 224.091 168.896Z" fill="black"/>
</g>
<defs>
<clipPath id="clip0_3_2">
<rect width="1453.35" height="339.11" fill="white"/>
</clipPath>
</defs>
</svg>
