<svg width="93" height="33" viewBox="0 0 93 33" fill="none" xmlns="http://www.w3.org/2000/svg">
<g clip-path="url(#clip0_538_475)">
<path d="M7.15783 23.9084V16.1183H8.84548C11.9689 16.1183 14.1855 17.2236 14.1855 20.9164C14.1855 24.0433 12.8505 25.5258 9.87819 25.5258C8.44245 25.5258 7.15783 25.4719 7.15783 23.9084ZM7.15783 15.3658V8.87527C7.15783 7.89033 7.32154 7.83983 8.60399 7.83983C12.2058 7.83983 13.8157 8.62272 13.8157 11.325C13.8157 13.7747 12.4514 15.3153 9.66818 15.3658H7.15783ZM2.88354 9.9901V22.9992C2.88354 25.3108 2.65037 25.5258 0.5 25.5527V26.2784H9.85278C13.6354 26.2784 17.8843 25.6064 17.8843 21.0909C17.8843 17.8117 14.879 16.414 12.2363 15.8765V15.8227C14.5421 15.3927 16.7961 13.995 16.7961 11.2803C16.7961 7.30227 11.9255 6.71094 8.76467 6.71094H0.5V7.43666C2.65037 7.46354 2.88354 7.67857 2.88354 9.9901ZM21.6495 16.5423C21.6495 16.2268 21.3501 15.9113 19.9346 15.8325V15.2015C21.5406 14.9123 23.1194 14.4127 24.6982 13.8606V24.2984C24.6982 25.1134 24.8615 25.2711 26.2226 25.2711V25.9021H20.0163V25.2711C21.4862 25.2711 21.6495 25.1134 21.6495 24.2984V16.5423ZM25.0985 8.69522C25.0985 9.8291 24.1375 10.6795 23.1481 10.6795C22.1588 10.6795 21.1977 9.8291 21.1977 8.69522C21.1977 7.56135 22.1588 6.71094 23.1481 6.71094C24.1375 6.71094 25.0985 7.56135 25.0985 8.69522ZM35.0731 15.2939C35.1288 15.3657 35.1787 15.4478 35.2217 15.5417L39.9097 26.216H40.6249L44.4919 16.7511L48.4384 26.216H49.233L52.8881 17.1455C53.3119 16.0675 53.7621 15.0159 55.007 14.8055V14.1745H51.0075V14.8055L51.0671 14.8154C51.8375 14.9425 52.5173 15.0547 52.5173 15.5417C52.5173 15.752 52.3584 16.1464 52.1464 16.6722L50.0276 22.4564L47.5643 16.383C47.5268 16.2806 47.4693 16.1452 47.4108 16.0072C47.304 15.7555 47.1935 15.4951 47.1935 15.4102C47.1935 15.0684 47.8557 14.8844 48.8621 14.8055V14.1745H41.9227V14.8055C43.4589 14.937 43.9357 15.4365 43.9357 15.8835C43.9357 16.1501 43.7843 16.5107 43.5935 16.9652C43.5586 17.0484 43.5224 17.1348 43.4854 17.2243L41.4195 22.3512L38.9298 16.5671C38.8733 16.4229 38.8144 16.2885 38.7597 16.1639C38.6349 15.8794 38.5325 15.6457 38.5325 15.4628C38.5325 15.121 39.2211 14.8055 40.3336 14.8055V14.1745H33.9239V14.1799L31.4649 14.1841V9.72134L27.2653 14.4746V15.1083H28.6484V23.8226C28.6484 25.2486 29.8303 26.2784 31.6158 26.2784C32.7224 26.2784 34.4323 25.5126 35.0611 24.5883V23.6377C34.4826 24.1922 33.7785 24.8524 32.9486 24.8524C31.5907 24.8524 31.4649 23.9282 31.4649 23.2944V15.1083L34.3612 15.1026C34.3612 15.1026 34.9489 15.151 35.0731 15.2939ZM56.116 15.8325C57.5314 15.9113 57.8308 16.2268 57.8308 16.5423V24.2984C57.8308 25.1134 57.6675 25.2711 56.1976 25.2711V25.9021H62.4039V25.2711C61.0429 25.2711 60.8795 25.1134 60.8795 24.2984V13.8606C59.3007 14.4127 57.7219 14.9123 56.116 15.2015V15.8325ZM59.3582 10.6795C60.3476 10.6795 61.3087 9.8291 61.3087 8.69522C61.3087 7.56135 60.3476 6.71094 59.3582 6.71094C58.3689 6.71094 57.4078 7.56135 57.4078 8.69522C57.4078 9.8291 58.3689 10.6795 59.3582 10.6795ZM73.3554 14.834C71.8383 14.2815 70.4567 13.8606 69.0752 13.8606C66.9622 13.8606 64.2532 14.9393 64.2532 17.3597C64.2532 19.2539 65.987 20.2274 67.7207 21.0166C69.4544 21.8322 71.1882 22.49 71.1882 23.7528C71.1882 24.8051 70.538 25.647 69.4003 25.647C66.7726 25.647 65.4723 23.516 64.9847 21.2797L64.3345 21.385L64.5783 25.3576C65.6619 25.8311 67.6123 26.2784 68.7772 26.2784C71.3778 26.2784 73.8701 25.4628 73.8701 22.5425C73.8701 20.5168 72.0551 19.6222 70.3755 18.8066C68.3167 17.807 66.7726 17.1229 66.7726 16.2284C66.7726 15.2287 67.6936 14.492 68.6418 14.492C70.8632 14.492 72.028 16.5441 72.7053 18.3594L73.3554 18.3068V14.834ZM86.7423 21.7007L87.1189 22.0953C86.0429 24.6735 84.2136 26.2784 81.2277 26.2784C77.3809 26.2784 75.2827 23.9106 75.2827 20.2799C75.2827 16.6756 77.919 13.8606 81.6043 13.8606C84.5095 13.8606 87.065 15.9916 87.065 18.9382H78.2956C78.1611 21.4639 79.7751 23.9106 82.5727 23.9106C84.4289 23.9106 85.6394 23.1213 86.7423 21.7007ZM78.3084 18.3761H83.2024C83.6995 18.3761 83.8566 18.3003 83.8566 17.7696C83.8566 16.2026 82.6528 14.9895 81.2396 14.9895C79.0412 14.9895 78.413 16.8344 78.3084 18.3761Z" fill="#333333" style="fill:#333333;fill:color(display-p3 0.2000 0.2000 0.2000);fill-opacity:1;"/>
<path d="M88.6542 15.6394C89.8296 15.6394 90.7731 14.6703 90.7731 13.4681C90.7731 12.266 89.8296 11.2969 88.6542 11.2969C87.4827 11.2969 86.5352 12.266 86.5352 13.4681C86.5352 14.6703 87.4827 15.6394 88.6542 15.6394ZM88.6542 15.0833C87.7746 15.0833 87.0669 14.3636 87.0669 13.4681C87.0669 12.5685 87.7746 11.853 88.6542 11.853C89.5378 11.853 90.2414 12.5685 90.2414 13.4681C90.2414 14.3636 89.5378 15.0833 88.6542 15.0833ZM88.3183 14.4331V13.7584H88.6182L89.062 14.4331H89.6577L89.1499 13.6848C89.4098 13.6072 89.5617 13.3823 89.5617 13.0797C89.5617 12.6994 89.2699 12.4418 88.8421 12.4418H87.8185V14.4331H88.3183ZM88.3183 12.867H88.7221C88.922 12.867 89.026 12.9529 89.026 13.1165C89.026 13.2841 88.922 13.3618 88.7142 13.3618H88.3183V12.867Z" fill="#333333" style="fill:#333333;fill:color(display-p3 0.2000 0.2000 0.2000);fill-opacity:1;"/>
</g>
<defs>
<clipPath id="clip0_538_475">
<rect width="92" height="21" fill="white" style="fill:white;fill-opacity:1;" transform="translate(0.5 6)"/>
</clipPath>
</defs>
</svg>
