<svg width="753" height="329" viewBox="0 0 753 329" fill="none" xmlns="http://www.w3.org/2000/svg">
<g clip-path="url(#clip0_1582_77)">
<path d="M279.658 187.319L376.123 328.231L472.588 187.319L376.123 248.758L279.658 187.319Z" fill="url(#paint0_linear_1582_77)"/>
<path d="M472.588 167.47L376.123 0L279.658 167.47L376.123 228.908L472.588 167.47Z" fill="url(#paint1_linear_1582_77)"/>
<path d="M463.084 164.755C445.336 135.283 413.034 115.567 376.123 115.567C339.212 115.567 306.91 135.283 289.162 164.755L376.123 220.14L463.084 164.755Z" fill="url(#paint2_linear_1582_77)"/>
<path d="M386.26 51.1693L376.123 33.6104L365.985 51.1693L375.604 67.8294L376.123 68.7282L386.26 51.1693Z" fill="black" style="fill:black;fill-opacity:1;"/>
<path d="M390.507 58.5244L381.57 74.0036L381.641 74.0268C388.336 74.3825 394.858 75.3787 401.151 76.9588L390.507 58.5244Z" fill="black" style="fill:black;fill-opacity:1;"/>
<path d="M370.676 74.0036L361.739 58.5244L351.096 76.9588C357.389 75.3787 363.911 74.3825 370.605 74.0268L370.676 74.0036Z" fill="black" style="fill:black;fill-opacity:1;"/>
<path d="M365.986 284.983L376.124 302.542L386.261 284.983L376.643 268.323L376.124 267.424L365.986 284.983Z" fill="black" style="fill:black;fill-opacity:1;"/>
<path d="M361.74 277.628L370.676 262.149L370.605 262.125C363.911 261.77 357.389 260.773 351.096 259.193L361.74 277.628Z" fill="black" style="fill:black;fill-opacity:1;"/>
<path d="M381.57 262.149L390.508 277.628L401.151 259.193C394.858 260.773 388.336 261.77 381.641 262.125L381.57 262.149Z" fill="black" style="fill:black;fill-opacity:1;"/>
<path d="M387.927 135.039C388.1 134.089 389.119 127.52 384.959 124.027C381.724 121.312 378.98 120.821 376.123 115.567C373.265 120.821 370.521 121.312 367.286 124.027C363.077 127.561 364.171 134.247 364.324 135.074C367.984 133.582 371.981 132.752 376.17 132.752C380.325 132.752 384.292 133.569 387.927 135.039Z" fill="black" style="fill:black;fill-opacity:1;"/>
<path d="M364.324 193.371C364.171 194.198 363.077 200.884 367.286 204.418C370.521 207.133 373.265 207.624 376.123 212.878C378.98 207.624 381.724 207.133 384.959 204.418C389.119 200.925 388.1 194.356 387.927 193.406C384.292 194.876 380.326 195.693 376.171 195.693C371.981 195.693 367.984 194.863 364.325 193.371H364.324Z" fill="black" style="fill:black;fill-opacity:1;"/>
<path d="M416.318 155.386C412.856 151.263 406.373 152.228 405.333 152.414C406.816 156.062 407.64 160.047 407.64 164.223C407.64 168.398 406.816 172.383 405.333 176.032C406.373 176.217 412.856 177.182 416.318 173.059C419.033 169.824 419.524 167.08 424.778 164.223C419.524 161.365 419.033 158.621 416.318 155.386Z" fill="black" style="fill:black;fill-opacity:1;"/>
<path d="M347.001 152.43C346.332 152.302 339.511 151.118 335.928 155.387C333.212 158.622 332.722 161.366 327.468 164.223C332.722 167.08 333.212 169.824 335.928 173.059C339.511 177.327 346.332 176.144 347.001 176.016C345.522 172.371 344.7 168.392 344.7 164.223C344.7 160.053 345.522 156.075 347.001 152.43Z" fill="black" style="fill:black;fill-opacity:1;"/>
<path d="M405.132 151.915C406.013 151.301 411.26 147.402 410.793 142.048C410.426 137.841 408.832 135.554 410.527 129.818C404.791 131.513 402.504 129.919 398.297 129.552C392.9 129.081 388.982 134.416 388.416 135.233C395.916 138.413 401.936 144.423 405.132 151.915Z" fill="black" style="fill:black;fill-opacity:1;"/>
<path d="M347.186 176.48C346.585 176.889 340.97 180.867 341.452 186.397C341.819 190.605 343.413 192.892 341.718 198.627C347.454 196.932 349.741 198.526 353.948 198.894C359.416 199.371 363.367 193.886 363.852 193.18C356.368 189.985 350.365 183.972 347.185 176.481L347.186 176.48Z" fill="black" style="fill:black;fill-opacity:1;"/>
<path d="M388.417 193.213C388.983 194.029 392.901 199.364 398.298 198.893C402.505 198.526 404.792 196.932 410.528 198.627C408.833 192.892 410.427 190.604 410.794 186.397C411.261 181.043 406.013 177.145 405.133 176.53C401.937 184.022 395.917 190.032 388.417 193.213Z" fill="black" style="fill:black;fill-opacity:1;"/>
<path d="M363.852 135.265C363.367 134.56 359.416 129.075 353.948 129.552C349.741 129.919 347.454 131.513 341.718 129.818C343.413 135.554 341.819 137.841 341.452 142.048C340.97 147.579 346.585 151.556 347.186 151.965C350.365 144.474 356.369 138.461 363.852 135.266V135.265Z" fill="black" style="fill:black;fill-opacity:1;"/>
<path d="M376.171 136.919C361.115 136.919 348.867 149.167 348.867 164.222C348.867 179.277 361.115 191.525 376.171 191.525C391.226 191.525 403.474 179.277 403.474 164.222C403.474 149.167 391.226 136.919 376.171 136.919ZM376.123 181.798C366.416 181.798 358.547 173.929 358.547 164.222C358.547 154.515 366.416 146.646 376.123 146.646C385.83 146.646 393.699 154.515 393.699 164.222C393.699 173.929 385.83 181.798 376.123 181.798Z" fill="black" style="fill:black;fill-opacity:1;"/>
<path d="M376.218 181.798C383.083 181.798 388.647 173.929 388.647 164.222C388.647 154.516 383.083 146.646 376.218 146.646C369.354 146.646 363.79 154.516 363.79 164.222C363.79 173.929 369.354 181.798 376.218 181.798Z" fill="black" style="fill:black;fill-opacity:1;"/>
<path d="M379.97 103.384C384.972 101.312 387.347 95.5772 385.275 90.5752C383.203 85.5732 377.469 83.1979 372.467 85.2698C367.465 87.3417 365.09 93.0762 367.162 98.0781C369.234 103.08 374.968 105.456 379.97 103.384Z" fill="black" style="fill:black;fill-opacity:1;"/>
<path d="M331.51 94.9055C334.913 93.8075 339.048 97.1855 340.747 102.451C342.445 107.715 341.064 112.873 337.66 113.971C343.605 112.053 347.047 106.231 345.348 100.966C343.65 95.7014 337.454 92.9878 331.51 94.9055Z" fill="black" style="fill:black;fill-opacity:1;"/>
<path d="M420.928 94.9055C417.525 93.8075 413.389 97.1855 411.691 102.451C409.992 107.715 411.374 112.873 414.777 113.971C408.833 112.053 405.391 106.231 407.089 100.966C408.787 95.7014 414.983 92.9878 420.928 94.9055Z" fill="black" style="fill:black;fill-opacity:1;"/>
<path d="M361.01 96.892C359.955 91.7151 355 88.3412 349.831 89.1847L353.736 108.358C358.823 107.113 362.064 102.069 361.01 96.892Z" fill="black" style="fill:black;fill-opacity:1;"/>
<path d="M391.427 96.7885C392.482 91.6116 397.437 88.2377 402.606 89.0812L398.701 108.254C393.614 107.009 390.373 101.965 391.427 96.7885Z" fill="black" style="fill:black;fill-opacity:1;"/>
<path opacity="0.2" d="M376.123 0V228.908L279.658 167.47L376.123 0Z" fill="black" style="fill:black;fill-opacity:1;"/>
<path opacity="0.2" d="M376.123 248.758V328.231L279.658 187.319L376.123 248.758Z" fill="black" style="fill:black;fill-opacity:1;"/>
<path d="M26.8829 228.499L17.226 251.336H9.65699L0 228.499H8.287L13.7354 241.843L19.3145 228.499H26.8829Z" fill="black" style="fill:black;fill-opacity:1;"/>
<path d="M32.8555 228.499H40.555V251.336H32.8555V228.499Z" fill="black" style="fill:black;fill-opacity:1;"/>
<path d="M49.4961 228.499H57.1957V251.336H49.4961V228.499Z" fill="black" style="fill:black;fill-opacity:1;"/>
<path d="M66.1357 228.499H73.8353V251.336H66.1357V228.499Z" fill="black" style="fill:black;fill-opacity:1;"/>
<path d="M80.3453 171.822C80.3453 206.172 54.4653 212.877 31.0559 212.877H0V210.878C5.05872 210.878 8.82281 204.76 8.82281 196.761V146.295C8.82281 139.002 5.17641 132.061 0 132.061V130.062H31.0559C54.4659 130.062 80.3453 137.355 80.3453 171.822ZM54.5975 171.822C54.5975 135.12 47.7465 132.061 36.2183 132.061H31.0424V210.878H36.2183C47.7465 210.878 54.5975 208.407 54.5975 171.822Z" fill="black" style="fill:black;fill-opacity:1;"/>
<path d="M163.655 187.233V212.877H97.4258V210.878C102.366 210.878 104.249 204.76 104.249 196.761V146.295C104.249 139.002 102.602 132.061 97.4258 132.061V130.062H162.125V152.412H160.125C157.42 132.061 130.703 132.061 130.703 132.061H126.468V170.057H130.703C130.703 170.057 148.583 170.057 149.76 157.824H151.759V184.291H149.76C148.583 172.058 130.703 172.058 130.703 172.058H126.468V210.878H130.703C130.703 210.878 156.714 210.878 161.655 187.233H163.655Z" fill="black" style="fill:black;fill-opacity:1;"/>
<path d="M263.894 130.062V132.062C258.483 132.062 253.072 132.062 241.191 160.177L220.016 212.878H218.017C189.196 143.591 187.902 141.591 187.902 141.591C184.019 132.18 179.785 132.062 176.727 132.062V130.062H219.297V132.062C209.65 132.062 214.121 145.708 214.121 145.708L229.531 184.081L239.309 159.589C239.309 159.589 247.952 132.062 225.442 132.062V130.062H263.894Z" fill="black" style="fill:black;fill-opacity:1;"/>
<path d="M19.1465 145.196L24.9965 135.064L13.2959 135.063L19.1465 145.196Z" fill="black" style="fill:black;fill-opacity:1;"/>
<path d="M62.2715 171.47L72.4044 177.32V165.619L62.2715 171.47Z" fill="black" style="fill:black;fill-opacity:1;"/>
<path d="M19.1465 197.742L13.2959 207.875H24.9965L19.1465 197.742Z" fill="black" style="fill:black;fill-opacity:1;"/>
<path d="M114.573 145.196L120.423 135.064L108.723 135.063L114.573 145.196Z" fill="black" style="fill:black;fill-opacity:1;"/>
<path d="M200.415 145.196L206.265 135.064L194.564 135.063L200.415 145.196Z" fill="black" style="fill:black;fill-opacity:1;"/>
<path d="M114.573 197.742L108.723 207.875H120.423L114.573 197.742Z" fill="black" style="fill:black;fill-opacity:1;"/>
<path opacity="0.2" d="M19.1467 196.761V146.295C19.1467 139.002 15.5003 132.061 10.3239 132.061V130.062H0V132.061C5.17589 132.061 8.82281 139.002 8.82281 146.295V196.761C8.82281 204.76 5.05872 210.878 0 210.878V212.877H10.3239V210.878C15.3826 210.878 19.1467 204.76 19.1467 196.761Z" fill="black" style="fill:black;fill-opacity:1;"/>
<path opacity="0.2" d="M41.3652 132.062V132.42C49.7555 133.893 54.5969 140.972 54.5969 171.823C54.5969 202.673 49.7555 209.222 41.3652 210.56V210.878H41.3792C43.3325 210.878 45.1515 210.806 46.8261 210.51C47.8848 210.231 48.9296 209.922 49.9583 209.583C56.2234 206.78 64.9208 198.104 64.9208 171.823C64.9208 145.946 56.353 136.794 50.3037 133.646C48.8836 133.147 47.4321 132.709 45.9552 132.327C44.5264 132.122 42.999 132.062 41.3797 132.062H41.3652Z" fill="black" style="fill:black;fill-opacity:1;"/>
<path opacity="0.2" d="M114.573 196.761V146.295C114.573 139.002 112.926 132.061 107.75 132.061V130.062H97.4258V132.061C102.602 132.061 104.249 139.002 104.249 146.295V196.761C104.249 204.76 102.367 210.878 97.4258 210.878V212.877H107.75V210.878C112.69 210.878 114.573 204.76 114.573 196.761Z" fill="black" style="fill:black;fill-opacity:1;"/>
<path opacity="0.2" d="M187.049 132.062V130.062H176.726V132.062C179.784 132.062 184.019 132.18 187.901 141.591C187.901 141.591 189.195 143.591 218.016 212.878H220.015L224.104 202.704C199.393 143.4 198.225 141.591 198.225 141.591C194.342 132.18 190.107 132.062 187.049 132.062Z" fill="black" style="fill:black;fill-opacity:1;"/>
<path d="M624.894 228.482H632.603V251.351H624.894V228.482Z" fill="black" style="fill:black;fill-opacity:1;"/>
<path d="M665.405 228.482V251.351H659.067L650.378 240.962V251.351H642.863V228.482H649.201L657.891 238.871V228.482H665.405Z" fill="black" style="fill:black;fill-opacity:1;"/>
<path d="M675.665 228.482H686.936C694.58 228.482 699.841 232.827 699.841 239.917C699.841 247.006 694.58 251.351 686.936 251.351H675.665V228.482ZM686.609 245.34C689.843 245.34 692.065 243.412 692.065 239.917C692.065 236.421 689.843 234.494 686.609 234.494H683.375V245.34H686.609Z" fill="black" style="fill:black;fill-opacity:1;"/>
<path d="M709.187 228.482H716.896V251.351H709.187V228.482Z" fill="black" style="fill:black;fill-opacity:1;"/>
<path d="M742.739 247.365H734.049L732.514 251.351H724.673L734.67 228.482H742.249L752.246 251.351H744.275L742.739 247.365ZM740.616 241.812L738.394 236.062L736.173 241.812H740.616Z" fill="black" style="fill:black;fill-opacity:1;"/>
<path d="M565.421 188.173L567.067 206.642C558.363 212.407 549.187 213.936 536.6 213.936C511.426 213.936 495.78 194.879 495.78 171.469C495.78 148.06 511.426 129.003 536.6 129.003C548.717 129.003 559.657 130.179 567.067 136.179L565.421 154.648H563.421C556.833 138.767 550.011 131.003 536.6 131.003C525.967 131.003 522.117 139.237 522.117 171.469C522.117 203.702 525.967 211.936 536.6 211.936C550.716 211.936 560.363 200.996 563.421 188.173H565.421Z" fill="black" style="fill:black;fill-opacity:1;"/>
<path d="M657.883 172.058C657.883 195.467 643.178 213.936 617.298 213.936C591.418 213.936 576.714 195.467 576.714 172.058C576.714 148.765 591.418 129.003 617.298 129.003C643.178 129.003 657.883 148.765 657.883 172.058ZM632.37 172.058C632.37 139.825 631.179 131.003 617.299 131.003C603.3 131.003 601.992 139.825 601.992 172.058C601.992 204.29 603.3 211.936 617.299 211.936C631.18 211.936 632.37 204.407 632.37 172.058Z" fill="black" style="fill:black;fill-opacity:1;"/>
<path d="M752.247 130.062V132.062C734.483 131.944 734.719 159.941 734.719 159.941V212.877H728.484L677.077 148.295V182.88C677.077 182.88 676.959 210.878 693.193 210.878V212.877H657.432V210.878C675.195 210.878 675.078 182.88 675.078 182.88V146.178L670.49 140.413C662.961 131.003 659.55 132.297 656.491 132.061V130.062H690.474L732.719 182.161V159.941C732.719 159.941 732.837 131.944 716.603 132.062V130.062H752.247Z" fill="black" style="fill:black;fill-opacity:1;"/>
<path d="M595.763 171.47L585.63 165.619V177.32L595.763 171.47Z" fill="black" style="fill:black;fill-opacity:1;"/>
<path d="M504.334 177.32L514.467 171.47L504.334 165.619" fill="black" style="fill:black;fill-opacity:1;"/>
<path d="M640.494 171.47L650.627 165.619V177.32L640.494 171.47Z" fill="black" style="fill:black;fill-opacity:1;"/>
<path d="M682.927 145.197L688.778 135.065L677.077 135.064L682.927 145.197Z" fill="black" style="fill:black;fill-opacity:1;"/>
<path opacity="0.2" d="M622.436 131.568C631.491 133.95 632.37 144.361 632.37 172.059C632.37 199.756 631.491 209.327 622.436 211.442C623.934 211.788 625.693 211.129 627.622 210.905C629.358 210.703 630.915 209.752 632.283 209.48C633.776 208.963 635.211 208.369 636.582 207.698C642.079 203.67 642.694 195.306 642.694 172.059C642.694 148.812 642.08 139.91 636.597 135.503C635.026 134.691 633.918 133.783 631.727 133.222C630.345 132.914 629.09 132.203 627.622 132.037C625.649 131.813 622.436 131.568 622.436 131.568Z" fill="black" style="fill:black;fill-opacity:1;"/>
<path opacity="0.2" d="M608.039 210.64C594.465 203.846 587.038 188.686 587.038 172.058C587.038 155.429 594.466 139.723 608.041 132.558C609.452 131.378 611.187 130.649 613.319 130.277C616.157 129.296 619.205 129.638 622.46 129.285C620.791 129.105 619.073 129.003 617.298 129.003C591.418 129.003 576.714 148.765 576.714 172.058C576.714 195.467 591.418 213.936 617.298 213.936C619.073 213.936 620.791 213.841 622.46 213.671C618.967 213.317 615.709 213.633 612.697 212.596C610.845 212.242 609.311 211.616 608.039 210.64Z" fill="black" style="fill:black;fill-opacity:1;"/>
<path opacity="0.2" d="M677.077 148.295L728.484 212.877H734.719V207.74L677.077 135.325V148.295Z" fill="black" style="fill:black;fill-opacity:1;"/>
<path opacity="0.2" d="M666.814 132.062V130.062H656.49V132.062C659.549 132.298 662.96 131.004 670.489 140.414L675.077 146.179V134.531C671.282 131.645 668.96 132.227 666.814 132.062Z" fill="black" style="fill:black;fill-opacity:1;"/>
<path opacity="0.2" d="M505.589 171.469C505.589 149.209 519.022 129.152 542.778 129.152C540.598 129.045 538.362 129.003 536.084 129.003C510.91 129.003 495.265 148.06 495.265 171.469C495.265 194.879 510.911 213.936 536.084 213.936C538.343 213.936 540.489 213.884 542.545 213.769C520.071 213.769 505.589 193.654 505.589 171.469Z" fill="black" style="fill:black;fill-opacity:1;"/>
</g>
<defs>
<linearGradient id="paint0_linear_1582_77" x1="376.123" y1="187.319" x2="376.123" y2="328.231" gradientUnits="userSpaceOnUse">
<stop offset="0.41" style="stop-color:black;stop-opacity:1;"/>
</linearGradient>
<linearGradient id="paint1_linear_1582_77" x1="376.123" y1="228.908" x2="376.123" y2="0" gradientUnits="userSpaceOnUse">
<stop offset="0.41" style="stop-color:black;stop-opacity:1;"/>
</linearGradient>
<linearGradient id="paint2_linear_1582_77" x1="376.123" y1="115.567" x2="376.123" y2="220.14" gradientUnits="userSpaceOnUse">
<stop style="stop-color:black;stop-opacity:1;"/>
</linearGradient>
<clipPath id="clip0_1582_77">
<rect width="753" height="329" fill="white" style="fill:white;fill-opacity:1;"/>
</clipPath>
</defs>
</svg>
