<svg width="128" height="42" viewBox="0 0 128 42" fill="none" xmlns="http://www.w3.org/2000/svg">
<path d="M2.61719 34.009H15.5662C27.1302 34.009 29.6482 26.987 29.6482 20.824C29.6482 14.345 26.5382 7.954 15.5662 7.954H2.61719V34.009ZM11.2772 15.483H14.2552C20.1152 15.483 20.6542 19.02 20.6542 20.876C20.6542 22.732 20.1402 26.479 14.2552 26.479H11.2772V15.483ZM40.5702 14.713H46.1262C47.5652 14.713 48.0792 15.536 48.0792 16.622C48.0792 17.707 47.5652 18.53 46.1262 18.53H40.5702V14.713ZM40.5702 25.393H44.5842C47.3852 25.393 48.3622 27.04 48.3622 29.841V34.009H57.0722V27.249C57.0722 23.887 55.5322 21.611 52.8322 20.875C54.4262 20.315 56.9962 18.669 56.9962 14.747C56.9962 9.984 54.0412 7.953 49.2362 7.953H31.9092V34.009H40.5692V25.394L40.5702 25.393ZM68.5762 7.954H59.9412V34.009H68.5762V7.954ZM87.7052 26.444C94.8752 26.444 96.9562 21.892 96.9562 17.094C96.9562 12.227 94.9262 7.954 87.7062 7.954H71.5392V34.009H80.1992V26.444H87.7052ZM80.2002 15.099H85.9832C87.4992 15.099 88.0132 15.975 88.0132 17.13C88.0132 18.251 87.4992 19.161 85.9832 19.161H80.2002V15.099ZM111.414 34.499C121.899 34.499 125.381 29.806 125.381 25.289C125.381 19.966 122.657 17.374 115.281 17.094L111.632 16.989C108.394 16.884 107.726 16.219 107.726 15.203V15.169C107.726 14.224 108.202 13.523 111.183 13.523C114.421 13.523 114.845 14.994 114.922 15.94H124.687V15.695C124.687 11.387 120.986 7.5 111.067 7.5C101.996 7.5 98.0382 10.984 98.0382 15.572C98.0382 19.669 99.8112 23.539 107.495 23.819L111.298 23.959C114.922 24.134 115.281 24.975 115.281 26.06V26.13C115.281 27.216 114.613 28.232 111.53 28.232C108.163 28.232 107.726 26.27 107.649 25.045H97.7302V25.36C97.7302 28.722 100.287 34.499 111.414 34.499Z" fill="#ffffff" style="fill:#ffffff;fill-opacity:1;"/>
</svg>
