<svg width="88" height="45" viewBox="0 0 88 45" fill="none" xmlns="http://www.w3.org/2000/svg">
<path d="M41.8886 19.3832C41.8144 20.4288 41.6473 20.9561 40.6732 21.3379L40.7475 21.9289C41.6937 21.8562 42.3525 21.8562 43.5401 21.8562C46.6572 21.8562 48.8746 21.8834 50.6465 21.9743C50.9157 20.7379 51.1103 19.5651 51.231 18.1377L50.5722 18.0195C50.2569 18.9014 50.0156 19.4014 49.7187 19.856C49.357 20.356 48.9674 20.6924 48.1137 20.8106C47.4551 20.9106 46.6293 20.9288 45.5347 20.9288C44.4399 20.9288 44.0225 20.7197 43.9761 19.5469C43.9482 19.0742 43.9018 17.7831 43.9018 16.9467V13.7283C44.7089 13.7283 46.4346 13.7556 47.2138 13.8465C48.3086 13.992 48.6518 14.3465 49.0138 15.4466L49.5981 15.3284C49.524 14.4011 49.524 13.8465 49.524 13.2556C49.524 12.6646 49.524 12.1373 49.5981 11.2099L49.0138 11.0918C48.6518 12.1918 48.3086 12.5737 47.2138 12.6919C46.4346 12.7646 44.7368 12.8101 43.9018 12.8101V9.76439C43.9018 8.90978 43.9018 8.04609 43.9761 7.30967C44.0503 6.35507 44.1895 6.16414 45.3398 6.16414C46.4901 6.16414 46.8242 6.19143 47.4366 6.28233C47.9005 6.35507 48.4571 6.54598 48.8282 6.92784C49.19 7.30967 49.4589 7.8097 49.7745 8.69159L50.4794 8.5734C50.4054 7.26422 50.3126 6.38233 50.1362 5.16406C49.19 5.2368 48.4293 5.2368 47.4366 5.2368H42.9556C42.3432 5.2368 41.6937 5.2368 40.7381 5.16406L40.6641 5.76411C41.6382 6.14595 41.805 6.67326 41.8793 7.7188C41.9535 8.50066 41.9535 9.55529 41.9535 10.3917V16.7285C41.9535 17.5649 41.9535 18.6105 41.8793 19.4014L41.8886 19.3832Z" fill="#333333" style="fill:#333333;fill:color(display-p3 0.2000 0.2000 0.2000);fill-opacity:1;"/>
<path d="M54.1454 14.4835L52.6888 18.4383C52.1043 19.9839 51.9375 20.5112 51.9375 21.0567C51.9375 21.6022 52.4199 22.1477 52.9857 22.1477C53.8394 22.1477 54.9618 21.484 56.2515 19.0293L55.7689 18.6929C54.5722 20.3566 54.0898 20.6203 53.8206 20.6203C53.5517 20.6203 53.5796 20.5021 53.5796 20.3839C53.5796 20.2657 53.626 20.1021 53.8949 19.3838L55.4814 15.0017C55.8432 14.0198 56.2328 12.9743 56.2328 12.2106C56.2328 11.4469 55.7689 11.0469 55.2587 11.0469C54.4516 11.0469 53.4589 11.956 52.0673 13.9289L52.5312 14.338C53.6538 13.047 54.1362 12.6743 54.3773 12.6743C54.6186 12.6743 54.5722 12.747 54.5722 12.8925C54.5722 13.1288 54.4979 13.5834 54.1547 14.4926L54.1454 14.4835Z" fill="#333333" style="fill:#333333;fill:color(display-p3 0.2000 0.2000 0.2000);fill-opacity:1;"/>
<path d="M56.0202 7.02745C56.753 7.02745 57.3096 6.48197 57.3096 5.76372C57.3096 5.04548 56.753 4.5 56.0202 4.5C55.2871 4.5 54.7305 5.04548 54.7305 5.76372C54.7305 6.48197 55.2871 7.02745 56.0202 7.02745Z" fill="#333333" style="fill:#333333;fill:color(display-p3 0.2000 0.2000 0.2000);fill-opacity:1;"/>
<path d="M66.7366 18.4663C66.7366 16.6753 65.5954 15.3024 63.2297 15.2297L60.2887 15.1297C59.194 15.0842 58.6373 14.6297 58.6373 13.9387C58.6373 13.2477 58.8044 12.8477 59.5651 12.275C60.27 12.8477 61.0773 13.1568 62.1719 13.1568C64.3151 13.1568 66.0684 11.4931 66.0684 9.15654C66.0684 6.82002 65.8552 7.46551 65.2613 6.82002H67.5437L67.7384 5.93814L67.5437 5.52901C66.6902 5.60175 65.8365 5.62902 65.2334 5.62902C63.8418 5.62902 63.4801 5.15625 62.07 5.15625C59.9268 5.15625 58.0992 6.92003 58.0992 9.15654C58.0992 11.3931 58.3681 10.9476 58.9248 11.684C57.6817 12.6113 57.2457 13.5659 57.2457 14.4933C57.2457 15.4206 57.9506 16.4025 58.999 16.7571C57.6074 17.6844 57.0508 18.5663 57.0508 19.6846C57.0508 21.3029 58.4424 22.4938 61.1886 22.4938C63.9346 22.4938 66.7366 20.6119 66.7366 18.4663ZM62.0236 6.10178C63.3595 6.10178 64.2129 7.29277 64.2129 9.26564C64.2129 11.2385 63.4337 12.1931 62.1627 12.1931C60.8918 12.1931 59.9732 11.093 59.9732 9.00199C59.9732 7.00184 60.8267 6.09269 62.0236 6.09269V6.10178ZM61.5782 21.1665C59.5372 21.1665 58.6373 20.3119 58.6373 19.2845C58.6373 18.2572 58.9805 17.7572 59.834 16.9753C60.836 17.048 61.708 17.048 62.8028 17.048C64.6304 17.048 65.4099 17.7662 65.4099 18.8845C65.4099 20.0028 64.3893 21.1665 61.5876 21.1665H61.5782Z" fill="#333333" style="fill:#333333;fill:color(display-p3 0.2000 0.2000 0.2000);fill-opacity:1;"/>
<path d="M72.1622 22.5041C74.3237 22.5041 75.7617 21.0222 76.4947 19.2402L75.9102 18.8856C74.9082 20.2857 73.962 20.8131 72.4033 20.8131C70.8446 20.8131 68.9428 19.1493 68.9428 16.6946C68.9428 14.2399 68.9428 16.0764 68.9891 15.7854H76.4854C76.5318 15.5945 76.5318 15.4308 76.5318 15.2399C76.5318 12.9488 74.7505 11.2578 72.4127 11.2578C69.3975 11.2578 67.0781 13.758 67.0781 17.0673C67.0781 20.3766 69.1007 22.495 72.1435 22.495L72.1622 22.5041ZM71.893 12.3306C73.2568 12.3306 74.3794 13.2125 74.3979 14.8308H69.1656C69.4624 13.4216 70.4086 12.3306 71.893 12.3306Z" fill="#333333" style="fill:#333333;fill:color(display-p3 0.2000 0.2000 0.2000);fill-opacity:1;"/>
<path d="M81.2746 15.2132C80.3747 14.8587 80.2262 14.4768 80.1519 13.4949C80.1055 12.7585 80.1055 11.9221 80.1055 11.1857V9.06734C80.1055 7.53995 81.1539 6.4217 82.8332 6.4217C84.5123 6.4217 84.9483 7.33085 84.9483 8.65822V11.1857C84.9483 11.9221 84.9483 12.7585 84.8743 13.4949C84.8 14.4768 84.6793 14.8496 83.7795 15.2132L83.8537 15.7587C84.7072 15.686 85.2454 15.686 85.802 15.686C86.3586 15.686 86.8966 15.686 87.7503 15.7587L87.8243 15.2132C86.9244 14.8587 86.7761 14.4768 86.7019 13.4949C86.6555 12.7585 86.6555 11.9221 86.6555 11.1857V8.4491C86.6555 7.4945 86.4606 6.90354 86.1452 6.34897C85.5607 5.42162 84.5587 4.86705 83.3711 4.86705C82.1838 4.86705 80.7643 5.82165 80.1055 7.03083L80.0776 7.00356C80.1055 6.40351 80.1519 5.7671 80.2262 5.00341L79.7159 4.8125C78.8624 5.57617 78.2594 5.95803 77.1367 6.47625V6.97628C78.0181 7.13992 78.2594 7.35812 78.3336 8.33093C78.4077 9.06734 78.4077 9.83104 78.4077 10.5675V11.1675C78.4077 11.9039 78.4077 12.7403 78.3336 13.4767C78.2594 14.4586 78.1387 14.8314 77.2389 15.195L77.3131 15.7405C78.1666 15.6678 78.7047 15.6678 79.2614 15.6678C79.818 15.6678 80.356 15.6678 81.2097 15.7405L81.2837 15.195L81.2746 15.2132Z" fill="#333333" style="fill:#333333;fill:color(display-p3 0.2000 0.2000 0.2000);fill-opacity:1;"/>
<path d="M49.7218 37.9332C49.3601 38.4787 48.8962 38.8606 48.0149 39.0241C47.3097 39.1424 46.6233 39.1424 45.5285 39.1424C44.4337 39.1424 44.0905 38.9332 43.9698 37.7604C43.9234 37.2878 43.8956 35.9966 43.8956 35.1602V28.5871C43.8956 27.7507 43.8955 26.7051 43.9698 25.9143C44.0441 24.8687 44.2111 24.3413 45.1852 23.9596L45.111 23.3594C44.1647 23.4322 43.5059 23.4322 42.8938 23.4322C42.2814 23.4322 41.6783 23.4322 40.7227 23.3594L40.6484 23.9596C41.6226 24.3413 41.7896 24.8687 41.8639 25.9143C41.9381 26.696 41.9381 27.7507 41.9381 28.5871V34.924C41.9381 35.7604 41.9381 36.8058 41.8639 37.5969C41.7896 38.6425 41.6226 39.1696 40.6484 39.5515L40.7227 40.1515C41.669 40.0789 42.3277 40.0789 43.5245 40.0789C46.6418 40.0789 48.7849 40.1062 50.7053 40.1971C50.9743 38.8606 51.1877 37.6514 51.3175 36.124L50.6126 36.0058C50.297 36.9332 50.028 37.4786 49.7127 37.9332H49.7218Z" fill="#333333" style="fill:#333333;fill:color(display-p3 0.2000 0.2000 0.2000);fill-opacity:1;"/>
<path d="M59.1261 37.5754C59.0797 36.8388 59.0797 36.1479 59.0797 35.4116V33.1295C59.0797 32.0569 58.7363 31.1022 58.3467 30.5568C57.7621 29.7203 56.8344 29.3203 55.6471 29.3203C54.4595 29.3203 52.9936 30.2021 52.5297 31.0385L52.9936 31.8021C53.8192 31.1568 54.5059 30.8294 55.3315 30.8294C56.1573 30.8294 56.5005 31.0204 56.8623 31.4931C57.1778 31.9022 57.3725 32.475 57.3725 33.2113V34.3751C56.1294 34.6842 54.5244 35.2569 53.6245 35.8297C52.6783 36.4299 52.0938 37.0936 52.0938 38.2118C52.0938 39.33 53.0679 40.4755 54.6265 40.4755C56.185 40.4755 56.788 39.8755 57.4468 38.4299H57.4932C57.7158 39.5028 58.3467 40.221 60.026 40.2847L60.3413 39.33C59.5621 38.9754 59.1725 38.3754 59.1261 37.5935V37.5754ZM57.3725 36.5117C57.3725 38.1573 56.0367 39.0118 55.0347 39.0118C54.0326 39.0118 53.8192 38.4391 53.8192 37.7935C53.8192 37.1481 54.3018 36.4388 55.9624 35.7479C56.4263 35.557 56.8623 35.3662 57.3725 35.2024V36.5117Z" fill="#333333" style="fill:#333333;fill:color(display-p3 0.2000 0.2000 0.2000);fill-opacity:1;"/>
<path d="M70.9952 25.8264C71.4591 24.9172 71.728 24.4899 72.1642 24.108L72.09 23.5625C71.3848 23.6353 71.0416 23.6353 70.5034 23.6353C69.9653 23.6353 69.5572 23.6353 68.852 23.5625L68.7501 24.108C69.4829 24.4899 69.6036 24.8718 69.6036 25.3719C69.6036 25.8718 69.5108 26.3719 68.852 27.872L67.2472 31.5633L65.7349 27.8537C65.0019 26.0629 64.9091 25.6173 64.9091 25.0626C64.9091 24.5082 65.104 24.3444 65.6421 24.108L65.5679 23.5625C64.8627 23.6081 64.4176 23.6353 63.8886 23.6353C63.3598 23.6353 62.627 23.6081 61.9218 23.5625L61.8199 24.108C62.4042 24.4899 62.5712 24.7082 62.9423 25.4899C63.3319 26.3447 63.6475 27.2265 63.9164 27.8993L66.3286 33.736L64.5752 37.4545C64.2133 38.2181 63.8422 38.6 63.3319 38.6C62.8217 38.6 62.7197 38.4818 62.2559 38.4818C61.792 38.4818 61.3281 38.9363 61.3281 39.4545C61.3281 39.9728 61.8105 40.4548 62.4693 40.4548C63.1279 40.4548 63.9073 40.1001 64.3154 39.691C64.7978 39.1911 65.2617 38.4545 65.7255 37.4272L70.0396 27.8993C70.3364 27.2537 70.6241 26.5447 70.9858 25.8264H70.9952Z" fill="#333333" style="fill:#333333;fill:color(display-p3 0.2000 0.2000 0.2000);fill-opacity:1;"/>
<path d="M74.565 29.2589C71.5498 29.2589 69.2305 31.7593 69.2305 35.0686C69.2305 38.3779 71.253 40.4962 74.296 40.4962C77.3389 40.4962 77.8955 39.0144 78.6286 37.2322L78.0441 36.8778C77.042 38.2778 76.0958 38.8052 74.5371 38.8052C72.9785 38.8052 71.0766 37.1415 71.0766 34.6867C71.0766 32.2319 71.0766 34.0684 71.123 33.7774H78.6192C78.6656 33.5866 78.6656 33.423 78.6656 33.232C78.6656 30.941 76.8844 29.25 74.5556 29.25L74.565 29.2589ZM71.2994 32.8319C71.5962 31.4228 72.5425 30.3318 74.0269 30.3318C75.5113 30.3318 76.5133 31.2138 76.5318 32.8319H71.2994Z" fill="#333333" style="fill:#333333;fill:color(display-p3 0.2000 0.2000 0.2000);fill-opacity:1;"/>
<path d="M86.3013 29.2954C85.1602 29.2954 84.0377 30.2047 83.3789 31.7774L83.3511 31.7501C83.3789 31.1501 83.4253 30.2046 83.4996 29.4408L82.9893 29.25C82.1359 30.0136 81.5328 30.3955 80.4102 30.9137V31.4138C81.2915 31.5774 81.5328 31.7955 81.6069 32.7685C81.6811 33.5048 81.6811 34.2684 81.6811 35.0049V35.6049C81.6811 36.3413 81.6811 37.1777 81.6069 37.9142C81.5328 38.8961 81.4122 39.2689 80.5123 39.6325L80.5863 40.178C81.44 40.1053 81.978 40.1053 82.5346 40.1053C83.0913 40.1053 83.8707 40.1053 84.7242 40.178L84.7984 39.6325C83.7315 39.3234 83.5087 38.8961 83.4347 37.9142C83.3883 37.1777 83.3883 36.3413 83.3883 35.6049V34.4867C83.3883 32.2047 84.3346 30.8864 85.4849 30.8864C86.0694 30.8864 86.3662 31.3137 86.9972 31.3137C87.6281 31.3137 87.8691 31.1229 87.8691 30.4773C87.8691 29.8319 87.3034 29.2862 86.3107 29.2862L86.3013 29.2954Z" fill="#333333" style="fill:#333333;fill:color(display-p3 0.2000 0.2000 0.2000);fill-opacity:1;"/>
<path d="M31.5201 5.02344H27.0391V13.815H31.5201V5.02344Z" fill="#333333" style="fill:#333333;fill:color(display-p3 0.2000 0.2000 0.2000);fill-opacity:1;"/>
<path d="M22.5567 5.02344H18.2427H18.0665H13.7617V9.41464H18.0665V22.5974H22.5567H27.0377V13.815H22.5567V5.02344Z" fill="#333333" style="fill:#333333;fill:color(display-p3 0.2000 0.2000 0.2000);fill-opacity:1;"/>
<path d="M13.5851 31.389H9.09484V22.5974V5.02344H0.132812V22.5974V40.1806H9.09484H13.5851H18.0661H22.5563H27.0374V31.389H22.5563H18.0661V22.5974H13.5851V31.389Z" fill="#333333" style="fill:#333333;fill:color(display-p3 0.2000 0.2000 0.2000);fill-opacity:1;"/>
</svg>
