<svg width="88" height="38" viewBox="0 0 88 38" fill="none" xmlns="http://www.w3.org/2000/svg">
<path d="M80.1772 27.6884C76.4036 27.6884 73.2528 26.1178 72.8344 22.3659C72.8214 22.2498 72.9012 22.1446 73.0115 22.1299L76.8833 21.6098C77.0045 21.5934 77.1122 21.691 77.1228 21.8188C77.2782 23.6877 78.538 24.5321 80.274 24.5321C82.1148 24.5321 83.0513 23.8194 83.0513 22.5636C83.0513 21.4436 81.8242 21.0364 79.2729 20.3915C76.1727 19.6109 73.3307 18.5928 73.3307 15.097C73.3307 11.3637 76.4633 9.9043 79.9511 9.9043C83.4397 9.9043 86.4299 11.1153 86.9338 14.8231C86.9494 14.9376 86.8741 15.0443 86.7656 15.0637L83.0224 15.7347C82.9002 15.7566 82.7876 15.6609 82.7747 15.5313C82.6014 13.8023 81.5595 13.0267 80.0157 13.0267C78.6916 13.0267 77.5936 13.5358 77.5936 14.7237C77.5936 15.8776 78.7562 16.2849 80.92 16.794C83.7941 17.4727 87.3788 18.2873 87.3788 22.3261C87.3788 26.3987 83.9556 27.6884 80.1772 27.6884Z" fill="#333333" style="fill:#333333;fill-opacity:1;"/>
<path d="M70.299 11.519C71.5908 12.8765 71.7522 14.7093 71.7522 16.9153V27.3211C71.7522 27.4414 71.6594 27.539 71.5449 27.539H67.406C67.2915 27.539 67.1987 27.4414 67.1987 27.3211V17.3226C67.1987 15.7613 67.0695 14.9469 66.359 14.2341C65.7778 13.6572 65.2287 13.5553 64.2599 13.5553C62.8712 13.5553 61.2565 14.5396 61.2565 18.0353V27.3211C61.2565 27.4414 61.1637 27.539 61.0493 27.539H56.9426C56.8281 27.539 56.7354 27.4414 56.7354 27.3211V10.5489C56.7354 10.4286 56.8281 10.3311 56.9426 10.3311H61.017C61.1314 10.3311 61.2242 10.4286 61.2242 10.5489V12.3958C61.2242 12.5002 61.3718 12.5332 61.418 12.4408C62.3266 10.6268 64.0538 9.92383 66.0038 9.92383C68.0707 9.92383 69.2655 10.4329 70.299 11.519Z" fill="#333333" style="fill:#333333;fill-opacity:1;"/>
<path d="M53.1598 12.0859C54.7276 13.7616 55.5175 16.3083 55.584 19.5335C55.5864 19.652 55.4971 19.7503 55.3843 19.7541L43.9831 20.1328C43.8677 20.1367 43.7773 20.2394 43.7852 20.3604C43.962 23.0612 45.2897 24.4019 47.6473 24.3235C49.6366 24.2574 50.6407 23.3109 50.9532 21.656C50.9738 21.5464 51.0669 21.4669 51.173 21.4732L55.1439 21.7089C55.2718 21.7164 55.3626 21.8438 55.3312 21.9743C54.4486 25.6407 51.8203 27.5466 47.7483 27.6819C45.2306 27.7654 43.2038 26.9839 41.8063 25.6381C40.209 24.0952 39.367 21.8821 39.2813 19.0326C39.1996 16.3188 39.8404 13.9885 41.3741 12.3416C42.7504 10.8358 44.6637 9.99124 47.1814 9.9076C49.7313 9.82289 51.7582 10.6045 53.1598 12.0859ZM47.2804 13.1981C45.9569 13.242 45.0331 13.6802 44.4454 14.5486C44.0504 15.1186 43.8204 15.8239 43.7302 16.6399C43.716 16.7688 43.8157 16.8786 43.9392 16.8745L50.6777 16.6506C50.7999 16.6466 50.8926 16.5325 50.8735 16.4054C50.732 15.4624 50.4467 14.6734 49.8922 14.096C49.2586 13.438 48.4424 13.1595 47.2804 13.1981Z" fill="#333333" style="fill:#333333;fill-opacity:1;"/>
<path d="M16.033 0.427936L6.18456 17.4316C6.10732 17.565 5.92786 17.5798 5.83206 17.4605C4.96504 16.3802 1.73492 11.7847 5.73186 7.59615C9.37909 3.77408 14.0246 1.04903 15.7463 0.107191C15.9416 0.000334904 16.1474 0.23056 16.033 0.427936Z" fill="#333333" style="fill:#333333;fill-opacity:1;"/>
<path d="M15.4806 37.4539C15.6772 37.5982 15.9193 37.352 15.7876 37.1418C13.5878 33.631 6.27539 21.9499 5.26526 20.1963C4.26893 18.4668 2.30931 15.5925 2.14584 13.1334C2.12952 12.8878 1.80599 12.838 1.72461 13.0689C1.59335 13.4412 1.45361 13.8856 1.32338 14.3933C-0.320736 20.8017 2.06702 27.6021 7.25274 31.4107L15.4806 37.4539Z" fill="#333333" style="fill:#333333;fill-opacity:1;"/>
<path d="M16.8346 37.1468L26.6831 20.1431C26.7604 20.0097 26.9398 19.9949 27.0356 20.1143C27.9026 21.1945 31.1327 25.7899 27.1358 29.9786C23.4887 33.8006 18.8431 36.5257 17.1214 37.4674C16.9261 37.5743 16.7202 37.3441 16.8346 37.1468Z" fill="#333333" style="fill:#333333;fill-opacity:1;"/>
<path d="M17.3845 0.123305C17.188 -0.0210493 16.9458 0.225131 17.0776 0.435362C19.2774 3.94611 26.5899 15.6272 27.5999 17.3808C28.5963 19.1103 30.5558 21.9846 30.7194 24.4438C30.7357 24.6893 31.0592 24.7392 31.1406 24.5083C31.2719 24.1359 31.4115 23.6915 31.5418 23.1838C33.1859 16.7754 30.7982 9.97501 25.6124 6.16633L17.3845 0.123305Z" fill="#333333" style="fill:#333333;fill-opacity:1;"/>
</svg>
