<svg width="371" height="501" viewBox="0 0 371 501" fill="none" xmlns="http://www.w3.org/2000/svg">
<g clip-path="url(#clip0_1582_139)">
<path d="M259.03 180.49C250.61 185.35 242.19 190.22 233.77 195.08C227.13 198.92 220.49 202.76 213.84 206.59C204.39 212.05 194.94 217.51 185.49 222.97C176.04 228.43 166.59 233.89 157.14 239.35C147.69 233.89 138.24 228.43 128.79 222.97C126.73 221.78 124.67 220.59 122.62 219.4C114.2 214.54 105.78 209.67 97.36 204.81C88.94 199.94 80.52 195.08 72.1 190.22C76.96 182.11 81.83 174 86.69 165.9C91.55 157.79 96.42 149.69 101.28 141.58C129.37 94.8 157.44 48.02 185.5 1.25V57.94C165.85 90.69 146.21 123.43 126.56 156.17C121.7 164.28 116.83 172.38 111.97 180.49C120.39 185.35 128.81 190.22 137.23 195.08C143.87 198.92 150.51 202.76 157.16 206.59C166.61 201.13 176.06 195.67 185.51 190.21C196.74 183.72 207.96 177.24 219.19 170.75C207.97 152.04 196.74 133.33 185.51 114.62V57.93C205.16 90.68 224.8 123.42 244.45 156.16C249.31 164.27 254.18 172.37 259.04 180.48L259.03 180.49Z" fill="black" style="fill:black;fill-opacity:1;"/>
<path d="M185.5 114.63C174.27 133.34 163.04 152.05 151.82 170.76C163.05 177.25 174.27 183.73 185.5 190.22C176.05 195.68 166.6 201.14 157.15 206.6C150.51 202.77 143.87 198.93 137.22 195.09C128.8 190.23 120.38 185.36 111.96 180.5C116.83 172.39 121.69 164.29 126.55 156.18C146.2 123.43 165.84 90.6897 185.49 57.9497V114.64L185.5 114.63Z" fill="black" style="fill:black;fill-opacity:1;"/>
<path d="M298.88 190.22C290.46 195.08 282.04 199.95 273.62 204.81C265.2 209.67 256.78 214.54 248.36 219.4C246.3 220.59 244.24 221.78 242.19 222.97C232.74 228.43 223.29 233.89 213.84 239.35C204.39 233.89 194.94 228.43 185.49 222.97C194.94 217.51 204.39 212.05 213.84 206.59C220.48 202.76 227.12 198.92 233.77 195.08C242.19 190.22 250.61 185.35 259.03 180.49C254.16 172.38 249.3 164.28 244.44 156.17C224.79 123.42 205.15 90.68 185.5 57.94V1.25C213.56 48.02 241.63 94.8 269.7 141.58C274.56 149.69 279.43 157.79 284.29 165.9C289.15 174.01 294.02 182.12 298.88 190.22Z" fill="black" style="fill:black;fill-opacity:1;"/>
<path d="M185.5 278.41V369.12L72.12 212.9L185.5 278.41Z" fill="black" style="fill:black;fill-opacity:1;"/>
<path d="M185.5 278.41V369.12L298.88 212.9L185.5 278.41Z" fill="black" style="fill:black;fill-opacity:1;"/>
<path d="M71.74 190.88C80.16 195.74 88.58 200.61 97 205.47L156.78 240.01C156.9 240.08 157.03 240.11 157.16 240.11C157.29 240.11 157.42 240.08 157.54 240.01L185.51 223.85L213.48 240.01C213.6 240.08 213.73 240.11 213.86 240.11C213.99 240.11 214.12 240.08 214.24 240.01L274.02 205.47C282.44 200.6 290.86 195.74 299.28 190.88C299.46 190.78 299.58 190.61 299.63 190.41C299.68 190.21 299.65 190.01 299.55 189.83L186.15 0.859766C186.15 0.859766 186.13 0.839766 186.12 0.829766C186.1 0.789766 186.07 0.759766 186.04 0.729766C186.01 0.699766 185.99 0.669766 185.96 0.649766C185.93 0.629766 185.89 0.609766 185.86 0.589766C185.82 0.569766 185.79 0.549766 185.74 0.539766C185.73 0.539766 185.72 0.529766 185.7 0.519766C185.67 0.519766 185.65 0.519766 185.62 0.519766C185.58 0.519766 185.54 0.509766 185.49 0.509766C185.45 0.509766 185.41 0.509766 185.37 0.519766C185.34 0.519766 185.32 0.519766 185.29 0.519766C185.28 0.519766 185.27 0.529766 185.25 0.539766C185.21 0.549766 185.18 0.569766 185.14 0.589766C185.1 0.609766 185.07 0.629766 185.04 0.649766C185.01 0.669766 184.98 0.699766 184.96 0.729766C184.93 0.759766 184.9 0.789766 184.88 0.829766C184.88 0.839766 184.86 0.849766 184.85 0.859766L100.65 141.19C98.2 145.28 95.74 149.37 93.29 153.46C90.88 157.48 88.47 161.49 86.06 165.51L71.47 189.83C71.37 190 71.34 190.21 71.39 190.41C71.44 190.61 71.57 190.77 71.74 190.88ZM273.25 204.16L213.85 238.48L187.01 222.98L214.22 207.26C220.58 203.59 226.93 199.91 233.29 196.24L259.41 181.15C259.59 181.05 259.71 180.88 259.76 180.68C259.81 180.48 259.78 180.28 259.68 180.1C254.81 171.99 249.95 163.89 245.09 155.78L186.26 57.7298V3.97977L297.84 189.96C289.64 194.69 281.45 199.43 273.25 204.17V204.16ZM185.5 189.35L152.87 170.5C163.75 152.37 174.62 134.24 185.5 116.11C196.38 134.24 207.26 152.37 218.13 170.5L185.5 189.35ZM127.21 156.56L184.75 60.6698V114.42C173.56 133.07 162.37 151.72 151.18 170.37C151.08 170.54 151.05 170.75 151.1 170.95C151.15 171.15 151.28 171.31 151.45 171.42L183.99 190.22L157.15 205.72C151.37 202.38 145.6 199.05 139.82 195.71L113.01 180.22C117.75 172.33 122.48 164.45 127.21 156.56ZM87.36 166.29C89.77 162.27 92.18 158.26 94.59 154.24C97.04 150.15 99.5 146.06 101.95 141.97L184.74 3.97977V57.7298L184.4 58.2998L125.91 155.78C121.05 163.89 116.18 171.99 111.32 180.1C111.29 180.14 111.27 180.19 111.26 180.24C111.23 180.33 111.21 180.43 111.22 180.53C111.22 180.58 111.23 180.63 111.24 180.68C111.29 180.88 111.42 181.04 111.59 181.15L139.07 197.03C144.97 200.44 150.87 203.85 156.78 207.26C156.87 207.31 156.97 207.34 157.06 207.35C157.09 207.35 157.12 207.36 157.15 207.36C157.28 207.36 157.41 207.33 157.53 207.26L219.55 171.43C219.73 171.33 219.85 171.16 219.9 170.96C219.95 170.76 219.92 170.56 219.82 170.38C208.63 151.73 197.44 133.08 186.25 114.43V60.6798L243.79 156.57C248.52 164.46 253.25 172.34 257.99 180.23L232.54 194.93C226.18 198.61 219.83 202.28 213.47 205.95L185.12 222.33L157.15 238.49L97.75 204.17C89.55 199.43 81.36 194.7 73.16 189.96L87.36 166.29Z" fill="black" style="fill:black;fill-opacity:1;"/>
<path d="M299.5 213.35C299.71 213.06 299.69 212.66 299.45 212.4C299.21 212.14 298.82 212.07 298.51 212.25L185.5 277.54L72.49 212.25C72.18 212.07 71.79 212.13 71.55 212.4C71.31 212.66 71.29 213.06 71.5 213.35L184.88 369.57C184.92 369.63 184.97 369.67 185.03 369.72C185.05 369.73 185.06 369.74 185.08 369.75C185.13 369.78 185.17 369.8 185.22 369.82C185.23 369.82 185.24 369.83 185.25 369.84H185.27C185.34 369.86 185.41 369.87 185.48 369.87C185.55 369.87 185.62 369.86 185.69 369.84H185.71C185.72 369.84 185.73 369.83 185.74 369.82C185.79 369.8 185.84 369.78 185.88 369.75C185.9 369.74 185.91 369.73 185.93 369.72C185.98 369.68 186.03 369.63 186.08 369.57L299.46 213.35H299.5ZM186.26 366.79V278.85L296.19 215.34L186.26 366.8V366.79ZM184.74 278.85V366.79L74.81 215.33L184.74 278.84V278.85Z" fill="black" style="fill:black;fill-opacity:1;"/>
<path d="M109.15 445.82C105.87 445.82 102.97 446.48 100.45 447.77C97.94 449.08 95.99 450.82 94.59 453V424.53H83.4V492.12H94.49V467.56C94.49 465.32 94.93 463.32 95.82 461.55C96.7 459.8 97.97 458.42 99.64 457.41C101.31 456.42 103.29 455.91 105.6 455.91C107.47 455.91 109.12 456.31 110.51 457.14C111.91 457.96 112.98 459.19 113.78 460.83C114.57 462.46 114.96 464.57 114.96 467.11V492.12H126.07V464.47C126.07 458.71 124.62 454.17 121.74 450.82C118.86 447.49 114.65 445.82 109.15 445.82Z" fill="black" style="fill:black;fill-opacity:1;"/>
<path d="M176.29 478.76C173.04 480.94 169.15 482.04 164.6 482.04C160.6 482.04 157.1 481.08 154.09 479.17C151.09 477.26 148.77 474.56 147.13 471.07C145.49 467.58 144.67 463.53 144.67 458.92C144.67 454.31 145.49 450 147.13 446.55C148.77 443.09 151.09 440.42 154.09 438.54C157.09 436.66 160.59 435.72 164.6 435.72C169.09 435.72 172.89 436.8 176.02 438.95C179.14 441.1 181.28 444.12 182.43 448H194.71C193.98 443.21 192.25 439.07 189.52 435.58C186.79 432.09 183.33 429.38 179.15 427.44C174.97 425.5 170.23 424.53 164.96 424.53C158.53 424.53 152.86 425.96 147.95 428.81C143.04 431.66 139.23 435.66 136.53 440.82C133.83 445.98 132.48 452.01 132.48 458.92C132.48 465.83 133.8 471.95 136.44 477.07C139.08 482.19 142.78 486.17 147.54 488.99C152.3 491.81 157.93 493.22 164.42 493.22C169.7 493.22 174.47 492.25 178.75 490.31C183.03 488.37 186.57 485.64 189.39 482.12C192.21 478.6 194.04 474.54 194.89 469.93H182.79C181.7 473.63 179.53 476.57 176.29 478.75V478.76Z" fill="black" style="fill:black;fill-opacity:1;"/>
<path d="M245.34 478.76C242.09 480.94 238.2 482.04 233.65 482.04C229.65 482.04 226.15 481.08 223.14 479.17C220.14 477.26 217.82 474.56 216.18 471.07C214.54 467.58 213.72 463.53 213.72 458.92C213.72 454.31 214.54 450 216.18 446.55C217.82 443.09 220.14 440.42 223.14 438.54C226.14 436.66 229.64 435.72 233.65 435.72C238.14 435.72 241.94 436.8 245.07 438.95C248.19 441.1 250.33 444.12 251.48 448H263.76C263.03 443.21 261.3 439.07 258.57 435.58C255.84 432.09 252.38 429.38 248.2 427.44C244.02 425.5 239.28 424.53 234.01 424.53C227.58 424.53 221.91 425.96 217 428.81C212.09 431.66 208.28 435.66 205.58 440.82C202.88 445.98 201.53 452.01 201.53 458.92C201.53 465.83 202.85 471.95 205.49 477.07C208.13 482.19 211.83 486.17 216.59 488.99C221.35 491.81 226.98 493.22 233.47 493.22C238.75 493.22 243.52 492.25 247.8 490.31C252.08 488.37 255.62 485.64 258.44 482.12C261.26 478.6 263.09 474.54 263.94 469.93H251.84C250.75 473.63 248.58 476.57 245.34 478.75V478.76Z" fill="black" style="fill:black;fill-opacity:1;"/>
<path d="M270.39 500.5H291.68V491.95H280.49V424.63H291.68V416.08H270.39V500.5Z" fill="black" style="fill:black;fill-opacity:1;"/>
<path d="M348.99 416.08V424.63H360.18V491.95H348.99V500.5H370.19V416.08H348.99Z" fill="black" style="fill:black;fill-opacity:1;"/>
<path d="M341.97 436.36C339.78 432.72 336.8 429.83 333 427.68C329.21 425.53 324.92 424.45 320.14 424.45C315.36 424.45 311.17 425.48 307.45 427.5C303.71 429.54 300.77 432.38 298.61 436.02C296.46 439.66 295.38 443.85 295.38 448.58C295.38 453.06 296.36 457.05 298.29 460.53C300.24 464.03 302.94 466.76 306.39 468.73C309.86 470.7 313.86 471.69 318.41 471.69C320.04 471.69 321.73 471.4 323.43 470.87L307.49 492.16H320.77L335.14 472.6C337.63 469.2 339.6 466.2 341.06 463.63C342.51 461.05 343.57 458.58 344.24 456.22C344.9 453.85 345.23 451.34 345.23 448.66C345.23 444.12 344.14 440.03 341.96 436.37L341.97 436.36ZM331.68 455.61C330.59 457.63 329.05 459.23 327.09 460.37C325.12 461.53 322.8 462.1 320.14 462.1C317.48 462.1 315.33 461.53 313.36 460.37C311.39 459.23 309.86 457.63 308.76 455.61C307.67 453.57 307.13 451.22 307.13 448.56C307.13 445.9 307.67 443.43 308.76 441.37C309.85 439.3 311.39 437.7 313.36 436.54C315.33 435.4 317.58 434.82 320.14 434.82C322.7 434.82 325.04 435.39 327.04 436.54C329.04 437.7 330.59 439.3 331.69 441.37C332.78 443.42 333.32 445.81 333.32 448.56C333.32 451.31 332.78 453.58 331.69 455.61H331.68Z" fill="black" style="fill:black;fill-opacity:1;"/>
<path d="M76.9601 438.72H65.7001V424.54H54.6001V438.72H48.5601V448.01H54.6001V492.13H65.7001V448.01H76.9601V438.72Z" fill="black" style="fill:black;fill-opacity:1;"/>
<path d="M42.1201 435.26V424.52H0.810059V492.12H42.1201V481.38H12.4601V462.97H39.0201V453.68H12.4601V435.26H42.1201Z" fill="black" style="fill:black;fill-opacity:1;"/>
</g>
<defs>
<clipPath id="clip0_1582_139">
<rect width="371" height="501" fill="white" style="fill:white;fill-opacity:1;"/>
</clipPath>
</defs>
</svg>
