<svg width="121" height="36" viewBox="0 0 121 36" fill="none" xmlns="http://www.w3.org/2000/svg">
<path d="M37.1689 20.2437L35.7995 14.9308C35.7602 14.7746 35.6338 14.6531 35.4768 14.6139L30.1869 13.3162C30.1477 13.3075 30.1041 13.3031 30.0648 13.3031C29.9383 13.2901 29.8075 13.3291 29.7116 13.4246L20.7847 22.3098L19.6029 17.7175C19.5636 17.5612 19.4372 17.4397 19.2802 17.4006L14.7361 16.2851L23.6585 7.40424C23.7109 7.35215 23.7414 7.28707 23.7632 7.22191C23.8025 7.13514 23.8156 7.0353 23.7894 6.93982L22.4201 1.62693C22.3808 1.47067 22.2544 1.34913 22.0973 1.31007L16.8075 0.0122388C16.7029 -0.0138083 16.5982 0.00355404 16.5066 0.0469635H16.5022C16.4761 0.05998 16.4543 0.0773426 16.4281 0.094705C16.4063 0.112067 16.3758 0.120752 16.3584 0.142453L1.12989 15.2911C1.12989 15.2911 1.1037 15.3345 1.08625 15.3562C0.990309 15.4691 0.955421 15.6167 0.999034 15.7599L2.47737 20.8948C2.52103 21.0424 2.63439 21.1552 2.77828 21.1943L7.73234 22.6093L9.15402 27.5359C9.19761 27.6835 9.31103 27.7963 9.45493 27.8354L14.4264 29.2547L15.8525 34.203C15.896 34.3506 16.0095 34.4634 16.1534 34.5025L21.3342 35.9827C21.3734 35.9956 21.4171 36 21.4563 36C21.465 36 21.4737 35.9956 21.4868 35.9956C21.4868 35.9956 21.4912 35.9956 21.4955 35.9956C21.6089 35.9956 21.7223 35.9523 21.8096 35.8655L37.0424 20.7038C37.0947 20.6517 37.1252 20.5866 37.1471 20.5215C37.1863 20.4347 37.1994 20.3348 37.1732 20.2393L37.1689 20.2437ZM30.3396 26.1338L29.2275 21.815L31.6915 19.3669L35.926 20.578L30.3439 26.1382L30.3396 26.1338ZM21.7005 34.7325L20.5885 30.4137L25.0454 25.9776L29.2799 27.1886L21.7005 34.7325ZM25.1369 24.645L24.0729 20.9555L27.8974 21.8931L25.1369 24.6407V24.645ZM28.5036 22.5356L29.4805 26.3249L25.7606 25.2614L28.5036 22.5312V22.5356ZM28.6301 21.1683L24.2953 20.1048L29.8642 14.5619L31.0679 18.7419L28.6301 21.1683ZM23.2181 21.1726L24.4218 25.3526L19.9867 29.767L15.6518 28.7035L23.2181 21.1726ZM35.0101 15.3953L36.1222 19.7141L31.9183 18.5118L30.7146 14.3405L35.0101 15.3953ZM14.9977 28.0611L13.8857 23.7422L15.4905 22.1449L19.725 23.3559L14.9977 28.0611ZM15.5821 20.8123L14.518 17.1228L18.3426 18.0604L15.5821 20.808V20.8123ZM19.9256 22.4965L16.2057 21.433L18.9488 18.7028L19.9256 22.4921V22.4965ZM14.8712 21.5241L13.2882 23.0998L8.95341 22.0364L13.6676 17.3442L14.8712 21.5241ZM9.88231 7.82093L11.086 12.001L6.61157 16.4544L2.27676 15.3909L9.88231 7.82093ZM16.4891 1.24496L17.6928 5.42495L15.2942 7.81229L10.9595 6.74885L16.4891 1.24496ZM17.0038 12.7779L15.8917 8.46333L18.3164 6.05001L22.5509 7.25667L17.0038 12.7779ZM11.8011 11.2934L10.7371 7.60391L14.5616 8.54147L11.8011 11.289V11.2934ZM15.1678 9.18387L16.1446 12.9732L12.4291 11.9098L15.1721 9.17952L15.1678 9.18387ZM11.7139 12.6217L15.9484 13.8283L8.32979 21.4113L7.21777 17.0968L11.7139 12.6217ZM21.6351 2.08703L22.7471 6.40589L18.5432 5.20358L17.3395 1.03227L21.6351 2.08703ZM2.05873 16.246L5.88334 17.1836L3.12279 19.9312L2.05873 16.2416V16.246ZM3.74641 20.5562L6.48947 17.826L7.46634 21.6153L3.75078 20.5519L3.74641 20.5562ZM9.93465 27.0628L8.731 22.8914L13.0266 23.9462L14.1386 28.2651L9.93465 27.0628ZM15.4338 29.5586L19.2584 30.4961L16.4979 33.2437L15.4338 29.5542V29.5586ZM17.1215 33.8688L19.8646 31.1385L20.8414 34.9279L17.1215 33.8644V33.8688Z" fill="white" style="fill:white;fill-opacity:1;"/>
<path d="M50.1775 26.6763C48.7776 26.6763 47.5609 26.3985 46.5143 25.8428C45.472 25.2873 44.6609 24.532 44.0896 23.5684C43.514 22.6092 43.2305 21.5023 43.2305 20.2522C43.2305 19.0021 43.5096 17.8953 44.0678 16.936C44.626 15.9767 45.3935 15.2171 46.3747 14.6615C47.3559 14.1059 48.4724 13.8281 49.7327 13.8281C50.993 13.8281 52.0483 14.0972 53.0077 14.6354C53.9672 15.1737 54.7173 15.929 55.2668 16.8969C55.8162 17.8649 56.091 19.0151 56.091 20.3433C56.091 20.4519 56.091 20.5907 56.0779 20.7557C56.0691 20.9207 56.0604 21.0639 56.0429 21.1898H45.5636V19.2451H54.4905L53.313 19.8529C53.3304 19.1497 53.1822 18.5203 52.8769 17.9647C52.5717 17.4091 52.1487 16.9794 51.6166 16.6755C51.0846 16.3717 50.4522 16.2198 49.7327 16.2198C49.0131 16.2198 48.3939 16.3717 47.8356 16.6755C47.2775 16.9794 46.8501 17.4134 46.5536 17.9778C46.257 18.542 46.1044 19.1888 46.1044 19.9223V20.3911C46.1044 21.142 46.2744 21.8061 46.6102 22.3834C46.946 22.9607 47.4301 23.4121 48.058 23.729C48.686 24.0502 49.4143 24.2108 50.2472 24.2108C50.9537 24.2108 51.5904 24.0936 52.153 23.8592C52.7199 23.6248 53.2215 23.2819 53.6619 22.8262L55.2624 24.6535C54.6824 25.309 53.9628 25.8124 53.108 26.1554C52.2533 26.4983 51.2765 26.6719 50.1775 26.6719V26.6763Z" fill="white" style="fill:white;fill-opacity:1;"/>
<path d="M56.0664 16.4387V14.0948H64.4482V16.4387H56.0664ZM62.4727 26.6825C61.0902 26.6825 60.0218 26.3266 59.2717 25.6147C58.5172 24.9028 58.1422 23.8611 58.1422 22.4852V11.2344H61.064V22.3897C61.064 22.9843 61.2211 23.4444 61.535 23.7743C61.8491 24.1042 62.2895 24.2648 62.852 24.2648C63.4975 24.2648 64.0295 24.0912 64.4525 23.7483L65.2986 25.8361C64.9367 26.1182 64.5049 26.3266 64.0033 26.4698C63.5018 26.6087 62.9916 26.6825 62.4727 26.6825Z" fill="white" style="fill:white;fill-opacity:1;"/>
<path d="M73.445 13.8389C74.465 13.8389 75.3636 14.0342 76.1403 14.4248C76.9162 14.8155 77.5355 15.4188 78.0017 16.2305C78.4645 17.0422 78.6951 18.0839 78.6951 19.347V26.5177H75.7516V19.7203C75.7516 18.6092 75.4948 17.7844 74.9757 17.2376C74.4565 16.6907 73.7194 16.4172 72.7601 16.4172C72.071 16.4172 71.4566 16.5561 70.924 16.8382C70.3922 17.1203 69.9781 17.537 69.6903 18.0926C69.3976 18.6483 69.2537 19.347 69.2537 20.1891V26.5177H66.332V9.125H69.2537V17.3981L68.6435 16.3434C69.0668 15.5447 69.6988 14.9284 70.5403 14.4899C71.3818 14.0515 72.3503 13.8345 73.4493 13.8345L73.445 13.8389Z" fill="white" style="fill:white;fill-opacity:1;"/>
<path d="M86.705 26.6763C85.3049 26.6763 84.0881 26.3985 83.0413 25.8428C81.9995 25.2873 81.1883 24.532 80.617 23.5684C80.0414 22.6092 79.7578 21.5023 79.7578 20.2522C79.7578 19.0021 80.0371 17.8953 80.5951 16.936C81.153 15.9767 81.9212 15.2171 82.9024 14.6615C83.8835 14.1059 84.9994 13.8281 86.26 13.8281C87.5205 13.8281 88.5757 14.0972 89.535 14.6354C90.4943 15.1737 91.2448 15.929 91.7943 16.8969C92.3438 17.8649 92.6182 19.0151 92.6182 20.3433C92.6182 20.4519 92.6182 20.5907 92.6055 20.7557C92.5963 20.9207 92.5879 21.0639 92.5702 21.1898H82.0912V19.2451H91.0177L89.8404 19.8529C89.8581 19.1497 89.7092 18.5203 89.4045 17.9647C89.0991 17.4091 88.6758 16.9794 88.144 16.6755C87.6121 16.3717 86.9794 16.2198 86.26 16.2198C85.5405 16.2198 84.9211 16.3717 84.3632 16.6755C83.8045 16.9794 83.3778 17.4134 83.0808 17.9778C82.7846 18.542 82.6315 19.1888 82.6315 19.9223V20.3911C82.6315 21.142 82.8015 21.8061 83.1373 22.3834C83.4737 22.9607 83.9576 23.4121 84.5854 23.729C85.2132 24.0502 85.9418 24.2108 86.7749 24.2108C87.4809 24.2108 88.1179 24.0936 88.6801 23.8592C89.2472 23.6248 89.7487 23.2819 90.1896 22.8262L91.7901 24.6535C91.2096 25.309 90.4901 25.8124 89.6352 26.1554C88.781 26.4983 87.804 26.6719 86.705 26.6719V26.6763Z" fill="white" style="fill:white;fill-opacity:1;"/>
<path d="M93.93 26.5148V13.9965H96.7339V17.4429L96.403 16.4359C96.7649 15.5939 97.3532 14.9471 98.1693 14.5044C98.9847 14.0573 99.9828 13.8359 101.161 13.8359V16.6269C101.051 16.6096 100.943 16.6009 100.829 16.5922C100.72 16.5835 100.616 16.5792 100.524 16.5792C99.3945 16.5792 98.5001 16.9004 97.8378 17.5384C97.179 18.1808 96.8474 19.1575 96.8474 20.4683V26.5148H93.9258H93.93Z" fill="white" style="fill:white;fill-opacity:1;"/>
<path d="M106.695 16.4354V14.0916H115.077V16.4354H106.695ZM108.767 26.5143V13.3189C108.767 11.9907 109.155 10.9316 109.932 10.1416C110.707 9.35162 111.82 8.95663 113.263 8.95663C113.782 8.95663 114.27 9.01308 114.737 9.12155C115.199 9.23009 115.587 9.40371 115.901 9.63806L115.077 11.817C114.872 11.6782 114.628 11.561 114.349 11.4655C114.066 11.3699 113.778 11.3266 113.477 11.3266C112.866 11.3266 112.4 11.4958 112.086 11.8301C111.772 12.1643 111.615 12.6635 111.615 13.3189V14.773L111.684 16.0621V26.5143H108.763H108.767ZM118.636 11.9343C118.086 11.9343 117.637 11.7607 117.284 11.4178C116.931 11.0748 116.756 10.6538 116.756 10.1503C116.756 9.68152 116.931 9.27348 117.284 8.93058C117.637 8.58769 118.086 8.41406 118.636 8.41406C119.185 8.41406 119.635 8.57463 119.992 8.89583C120.345 9.21703 120.52 9.62508 120.52 10.1243C120.52 10.6234 120.345 11.0487 120.001 11.4003C119.657 11.7519 119.198 11.9299 118.636 11.9299V11.9343ZM117.175 26.5143V13.9961H120.097V26.5143H117.175Z" fill="white" style="fill:white;fill-opacity:1;"/>
<path d="M104.658 26.0314L103.489 24.1085C103.402 23.9696 103.249 23.8828 103.088 23.8828H103.079C102.914 23.8828 102.757 23.9783 102.674 24.1259L101.588 26.0791C101.439 26.3482 101.439 26.6738 101.588 26.9429L102.678 28.9005C102.761 29.0481 102.914 29.1392 103.084 29.1435H103.088C103.254 29.1435 103.411 29.0568 103.493 28.9135L104.658 26.9516C104.828 26.6694 104.824 26.3178 104.658 26.0357V26.0314Z" fill="white" style="fill:white;fill-opacity:1;"/>
</svg>
