<svg width="121" height="37" viewBox="0 0 121 37" fill="none" xmlns="http://www.w3.org/2000/svg">
<path d="M37.1689 21.1265L35.7995 15.8136C35.7602 15.6574 35.6338 15.5359 35.4768 15.4968L30.1869 14.199C30.1477 14.1903 30.1041 14.1859 30.0648 14.1859C29.9383 14.1729 29.8075 14.212 29.7116 14.3074L20.7847 23.1927L19.6029 18.6003C19.5636 18.444 19.4372 18.3225 19.2802 18.2834L14.7361 17.1679L23.6585 8.28706C23.7109 8.23496 23.7414 8.16988 23.7632 8.10473C23.8025 8.01795 23.8156 7.91812 23.7894 7.82263L22.4201 2.50975C22.3808 2.35348 22.2544 2.23195 22.0973 2.19288L16.8075 0.895051C16.7029 0.869004 16.5982 0.886367 16.5066 0.929776H16.5022C16.4761 0.942793 16.4543 0.960155 16.4281 0.977517C16.4063 0.99488 16.3758 1.00356 16.3584 1.02527L1.12989 16.1739C1.12989 16.1739 1.1037 16.2173 1.08625 16.239C0.990309 16.3519 0.955421 16.4995 0.999034 16.6427L2.47737 21.7776C2.52103 21.9252 2.63439 22.038 2.77828 22.0771L7.73234 23.4922L9.15402 28.4187C9.19761 28.5663 9.31103 28.6791 9.45493 28.7182L14.4264 30.1375L15.8525 35.0858C15.896 35.2334 16.0095 35.3462 16.1534 35.3854L21.3342 36.8655C21.3734 36.8785 21.4171 36.8828 21.4563 36.8828C21.465 36.8828 21.4737 36.8785 21.4868 36.8785C21.4868 36.8785 21.4912 36.8785 21.4955 36.8785C21.6089 36.8785 21.7223 36.8351 21.8096 36.7483L37.0424 21.5866C37.0947 21.5346 37.1252 21.4694 37.1471 21.4043C37.1863 21.3175 37.1994 21.2176 37.1732 21.1222L37.1689 21.1265ZM30.3396 27.0167L29.2275 22.6978L31.6915 20.2497L35.926 21.4608L30.3439 27.021L30.3396 27.0167ZM21.7005 35.6154L20.5885 31.2965L25.0454 26.8604L29.2799 28.0715L21.7005 35.6154ZM25.1369 25.5278L24.0729 21.8383L27.8974 22.7759L25.1369 25.5235V25.5278ZM28.5036 23.4184L29.4805 27.2077L25.7606 26.1443L28.5036 23.414V23.4184ZM28.6301 22.0511L24.2953 20.9876L29.8642 15.4447L31.0679 19.6247L28.6301 22.0511ZM23.2181 22.0554L24.4218 26.2354L19.9867 30.6498L15.6518 29.5863L23.2181 22.0554ZM35.0101 16.2781L36.1222 20.5969L31.9183 19.3946L30.7146 15.2233L35.0101 16.2781ZM14.9977 28.9439L13.8857 24.625L15.4905 23.0277L19.725 24.2387L14.9977 28.9439ZM15.5821 21.6951L14.518 18.0056L18.3426 18.9432L15.5821 21.6908V21.6951ZM19.9256 23.3793L16.2057 22.3158L18.9488 19.5856L19.9256 23.3749V23.3793ZM14.8712 22.407L13.2882 23.9826L8.95341 22.9192L13.6676 18.227L14.8712 22.407ZM9.88231 8.70374L11.086 12.8838L6.61157 17.3372L2.27676 16.2737L9.88231 8.70374ZM16.4891 2.12777L17.6928 6.30776L15.2942 8.6951L10.9595 7.63167L16.4891 2.12777ZM17.0038 13.6607L15.8917 9.34614L18.3164 6.93282L22.5509 8.13948L17.0038 13.6607ZM11.8011 12.1762L10.7371 8.48673L14.5616 9.42428L11.8011 12.1719V12.1762ZM15.1678 10.0667L16.1446 13.856L12.4291 12.7926L15.1721 10.0623L15.1678 10.0667ZM11.7139 13.5045L15.9484 14.7111L8.32979 22.2941L7.21777 17.9796L11.7139 13.5045ZM21.6351 2.96984L22.7471 7.2887L18.5432 6.08639L17.3395 1.91509L21.6351 2.96984ZM2.05873 17.1288L5.88334 18.0664L3.12279 20.814L2.05873 17.1245V17.1288ZM3.74641 21.439L6.48947 18.7088L7.46634 22.4982L3.75078 21.4347L3.74641 21.439ZM9.93465 27.9456L8.731 23.7743L13.0266 24.8291L14.1386 29.1479L9.93465 27.9456ZM15.4338 30.4414L19.2584 31.3789L16.4979 34.1265L15.4338 30.437V30.4414ZM17.1215 34.7516L19.8646 32.0213L20.8414 35.8107L17.1215 34.7472V34.7516Z" fill="#333333" style="fill:#333333;fill:color(display-p3 0.2000 0.2000 0.2000);fill-opacity:1;"/>
<path d="M50.1775 27.5591C48.7776 27.5591 47.5609 27.2813 46.5143 26.7257C45.472 26.1701 44.6609 25.4148 44.0896 24.4512C43.514 23.492 43.2305 22.3851 43.2305 21.135C43.2305 19.8849 43.5096 18.7781 44.0678 17.8188C44.626 16.8595 45.3935 16.0999 46.3747 15.5443C47.3559 14.9887 48.4724 14.7109 49.7327 14.7109C50.993 14.7109 52.0483 14.98 53.0077 15.5183C53.9672 16.0565 54.7173 16.8118 55.2668 17.7797C55.8162 18.7477 56.091 19.898 56.091 21.2261C56.091 21.3347 56.091 21.4736 56.0779 21.6385C56.0691 21.8035 56.0604 21.9467 56.0429 22.0726H45.5636V20.128H54.4905L53.313 20.7357C53.3304 20.0325 53.1822 19.4031 52.8769 18.8475C52.5717 18.2919 52.1487 17.8622 51.6166 17.5584C51.0846 17.2545 50.4522 17.1026 49.7327 17.1026C49.0131 17.1026 48.3939 17.2545 47.8356 17.5584C47.2775 17.8622 46.8501 18.2962 46.5536 18.8606C46.257 19.4248 46.1044 20.0716 46.1044 20.8051V21.2739C46.1044 22.0248 46.2744 22.6889 46.6102 23.2662C46.946 23.8435 47.4301 24.2949 48.058 24.6118C48.686 24.933 49.4143 25.0936 50.2472 25.0936C50.9537 25.0936 51.5904 24.9764 52.153 24.742C52.7199 24.5077 53.2215 24.1647 53.6619 23.709L55.2624 25.5363C54.6824 26.1918 53.9628 26.6953 53.108 27.0382C52.2533 27.3811 51.2765 27.5547 50.1775 27.5547V27.5591Z" fill="#333333" style="fill:#333333;fill:color(display-p3 0.2000 0.2000 0.2000);fill-opacity:1;"/>
<path d="M56.0664 17.3215V14.9776H64.4482V17.3215H56.0664ZM62.4727 27.5653C61.0902 27.5653 60.0218 27.2094 59.2717 26.4975C58.5172 25.7857 58.1422 24.7439 58.1422 23.368V12.1172H61.064V23.2725C61.064 23.8672 61.2211 24.3272 61.535 24.6571C61.8491 24.987 62.2895 25.1476 62.852 25.1476C63.4975 25.1476 64.0295 24.974 64.4525 24.6311L65.2986 26.7189C64.9367 27.001 64.5049 27.2094 64.0033 27.3526C63.5018 27.4915 62.9916 27.5653 62.4727 27.5653Z" fill="#333333" style="fill:#333333;fill:color(display-p3 0.2000 0.2000 0.2000);fill-opacity:1;"/>
<path d="M73.445 14.7217C74.465 14.7217 75.3636 14.917 76.1403 15.3077C76.9162 15.6983 77.5355 16.3017 78.0017 17.1133C78.4645 17.925 78.6951 18.9667 78.6951 20.2298V27.4005H75.7516V20.6031C75.7516 19.492 75.4948 18.6672 74.9757 18.1204C74.4565 17.5735 73.7194 17.3 72.7601 17.3C72.071 17.3 71.4566 17.4389 70.924 17.721C70.3922 18.0031 69.9781 18.4198 69.6903 18.9754C69.3976 19.5311 69.2537 20.2299 69.2537 21.0719V27.4005H66.332V10.0078H69.2537V18.281L68.6435 17.2262C69.0668 16.4275 69.6988 15.8112 70.5403 15.3727C71.3818 14.9344 72.3503 14.7173 73.4493 14.7173L73.445 14.7217Z" fill="#333333" style="fill:#333333;fill:color(display-p3 0.2000 0.2000 0.2000);fill-opacity:1;"/>
<path d="M86.705 27.5591C85.3049 27.5591 84.0881 27.2813 83.0413 26.7257C81.9995 26.1701 81.1883 25.4148 80.617 24.4512C80.0414 23.492 79.7578 22.3851 79.7578 21.135C79.7578 19.8849 80.0371 18.7781 80.5951 17.8188C81.153 16.8595 81.9212 16.0999 82.9024 15.5443C83.8835 14.9887 84.9994 14.7109 86.26 14.7109C87.5205 14.7109 88.5757 14.98 89.535 15.5183C90.4943 16.0565 91.2448 16.8118 91.7943 17.7797C92.3438 18.7477 92.6182 19.898 92.6182 21.2261C92.6182 21.3347 92.6182 21.4736 92.6055 21.6385C92.5963 21.8035 92.5879 21.9467 92.5702 22.0726H82.0912V20.128H91.0177L89.8404 20.7357C89.8581 20.0325 89.7092 19.4031 89.4045 18.8475C89.0991 18.2919 88.6758 17.8622 88.144 17.5584C87.6121 17.2545 86.9794 17.1026 86.26 17.1026C85.5405 17.1026 84.9211 17.2545 84.3632 17.5584C83.8045 17.8622 83.3778 18.2962 83.0808 18.8606C82.7846 19.4248 82.6315 20.0716 82.6315 20.8051V21.2739C82.6315 22.0248 82.8015 22.6889 83.1373 23.2662C83.4737 23.8435 83.9576 24.2949 84.5854 24.6118C85.2132 24.933 85.9418 25.0936 86.7749 25.0936C87.4809 25.0936 88.1179 24.9764 88.6801 24.742C89.2472 24.5077 89.7487 24.1647 90.1896 23.709L91.7901 25.5363C91.2096 26.1918 90.4901 26.6953 89.6352 27.0382C88.781 27.3811 87.804 27.5547 86.705 27.5547V27.5591Z" fill="#333333" style="fill:#333333;fill:color(display-p3 0.2000 0.2000 0.2000);fill-opacity:1;"/>
<path d="M93.93 27.3976V14.8793H96.7339V18.3257L96.403 17.3188C96.7649 16.4767 97.3532 15.8299 98.1693 15.3872C98.9847 14.9401 99.9828 14.7188 101.161 14.7188V17.5097C101.051 17.4924 100.943 17.4837 100.829 17.475C100.72 17.4663 100.616 17.462 100.524 17.462C99.3945 17.462 98.5001 17.7832 97.8378 18.4212C97.179 19.0636 96.8474 20.0403 96.8474 21.3511V27.3976H93.9258H93.93Z" fill="#333333" style="fill:#333333;fill:color(display-p3 0.2000 0.2000 0.2000);fill-opacity:1;"/>
<path d="M106.695 17.3183V14.9744H115.077V17.3183H106.695ZM108.767 27.3971V14.2017C108.767 12.8735 109.155 11.8144 109.932 11.0244C110.707 10.2344 111.82 9.83944 113.263 9.83944C113.782 9.83944 114.27 9.89589 114.737 10.0044C115.199 10.1129 115.587 10.2865 115.901 10.5209L115.077 12.6998C114.872 12.561 114.628 12.4438 114.349 12.3483C114.066 12.2528 113.778 12.2094 113.477 12.2094C112.866 12.2094 112.4 12.3786 112.086 12.7129C111.772 13.0471 111.615 13.5463 111.615 14.2017V15.6558L111.684 16.945V27.3971H108.763H108.767ZM118.636 12.8171C118.086 12.8171 117.637 12.6435 117.284 12.3006C116.931 11.9576 116.756 11.5366 116.756 11.0331C116.756 10.5643 116.931 10.1563 117.284 9.81339C117.637 9.4705 118.086 9.29688 118.636 9.29688C119.185 9.29688 119.635 9.45744 119.992 9.77864C120.345 10.0998 120.52 10.5079 120.52 11.0071C120.52 11.5062 120.345 11.9316 120.001 12.2832C119.657 12.6348 119.198 12.8127 118.636 12.8127V12.8171ZM117.175 27.3971V14.8789H120.097V27.3971H117.175Z" fill="#333333" style="fill:#333333;fill:color(display-p3 0.2000 0.2000 0.2000);fill-opacity:1;"/>
<path d="M104.658 26.9142L103.489 24.9913C103.402 24.8524 103.249 24.7656 103.088 24.7656H103.079C102.914 24.7656 102.757 24.8611 102.674 25.0087L101.588 26.9619C101.439 27.231 101.439 27.5566 101.588 27.8257L102.678 29.7833C102.761 29.9309 102.914 30.022 103.084 30.0264H103.088C103.254 30.0264 103.411 29.9396 103.493 29.7964L104.658 27.8344C104.828 27.5522 104.824 27.2006 104.658 26.9185V26.9142Z" fill="#333333" style="fill:#333333;fill:color(display-p3 0.2000 0.2000 0.2000);fill-opacity:1;"/>
</svg>
