<svg width="187" height="61" viewBox="0 0 187 61" fill="none" xmlns="http://www.w3.org/2000/svg">
<g clip-path="url(#clip0_538_487)">
<path d="M58.3943 46.4527V21.8182H51.5117V14.5938H72.9956V21.8199H66.113V46.4544H58.396L58.3943 46.4527Z" fill="#ffffff" style="fill:#ffffff;fill-opacity:1;"/>
<path d="M2 30.6488C2 20.7608 9.46701 14 18.8949 14C24.5682 14 29.6994 16.3232 32.9946 21.31L26.1947 24.9008C24.3588 22.3655 21.9807 21.014 18.9777 21.014C13.6793 21.014 9.96695 25.1967 9.96695 30.6899C9.96695 36.183 14.0138 40.282 18.7277 40.282C22.6073 40.282 25.4026 37.916 25.9025 34.7888V34.746H19.3121V28.7465H34.5383V30.098C34.5383 40.4924 28.4056 47 18.645 47C9.42479 47 2 40.282 2 30.6488Z" fill="#ffffff" style="fill:#ffffff;fill-opacity:1;"/>
<path d="M39.832 46.4527V14.5938H47.549V46.4527H39.832Z" fill="#ffffff" style="fill:#ffffff;fill-opacity:1;"/>
<path d="M141.016 46.4527V14.5938H148.733V46.4527H141.016Z" fill="#ffffff" style="fill:#ffffff;fill-opacity:1;"/>
<path d="M177.449 14.5938H185.001V46.4527H178.743L162.975 26.3824L163.1 46.4527H155.508V14.5938H161.933L177.701 34.5375L177.451 14.5938H177.449Z" fill="#ffffff" style="fill:#ffffff;fill-opacity:1;"/>
<path d="M91.695 39.7719C86.8983 39.7719 82.8514 35.9689 82.8514 30.5185C82.8514 25.3641 86.731 21.2652 91.7794 21.2652C94.2656 21.2652 96.436 22.2181 98.0152 23.7954C98.7769 21.3319 99.9626 19.0276 101.538 16.9678C98.7786 15.1014 95.4209 14.0391 91.82 14.0391C82.5593 14.0391 74.8828 21.0531 74.8828 30.4758C74.8828 40.3638 82.5998 46.9963 91.695 46.9963C95.3263 46.9963 98.7093 45.9664 101.484 44.136C99.9271 42.0779 98.7533 39.7599 98.0017 37.2657C96.3988 38.8361 94.1964 39.7719 91.695 39.7719Z" fill="#ffffff" style="fill:#ffffff;fill-opacity:1;"/>
<path d="M119.355 14.0391C113.543 14.0391 108.356 16.8019 105.298 21.1882C103.484 23.7919 102.418 26.9671 102.418 30.4758C102.418 33.9845 103.48 37.3615 105.281 39.9618C108.333 44.3703 113.51 46.9963 119.23 46.9963C128.533 46.9963 136.21 40.2355 136.21 30.5596C136.21 20.8837 128.575 14.0391 119.355 14.0391ZM119.23 39.7719C114.433 39.7719 110.387 35.9689 110.387 30.5185C110.387 25.3641 114.266 21.2652 119.315 21.2652C124.363 21.2652 128.243 25.3213 128.243 30.5613C128.243 35.8013 124.363 39.7719 119.232 39.7719H119.23Z" fill="#ffffff" style="fill:#ffffff;fill-opacity:1;"/>
</g>
<defs>
<clipPath id="clip0_538_487">
<rect width="183" height="33" fill="white" style="fill:white;fill-opacity:1;" transform="translate(2 14)"/>
</clipPath>
</defs>
</svg>
