<svg width="45" height="14" viewBox="0 0 45 14" fill="none" xmlns="http://www.w3.org/2000/svg">
<path d="M1.49609 11.1885V2.8125H3.30809V9.7125H6.90809V11.1885H1.49609Z" fill="#ffffff" style="fill:#ffffff;fill-opacity:1;"/>
<path d="M12.8074 11.1885L12.2794 9.1725H9.98741L9.47141 11.1885H7.64741L9.91541 2.8125H12.4594L14.7274 11.1885H12.8074ZM11.1874 4.5525H11.0914L10.2754 7.7205H12.0034L11.1874 4.5525Z" fill="#ffffff" style="fill:#ffffff;fill-opacity:1;"/>
<path d="M19.9547 7.4565L20.0507 5.1165H19.9427L18.3827 9.4245L16.8227 5.1165H16.7147L16.8107 7.4565V11.1885H15.2507V2.8125H17.3747L18.4067 5.6325H18.5027L19.5347 2.8125H21.5147V11.1885H19.9547V7.4565Z" fill="#ffffff" style="fill:#ffffff;fill-opacity:1;"/>
<path d="M22.902 2.8125H25.842C26.666 2.8125 27.294 3.0125 27.726 3.4125C28.166 3.8125 28.386 4.3565 28.386 5.0445C28.386 5.5245 28.266 5.9085 28.026 6.1965C27.794 6.4765 27.458 6.6805 27.018 6.8085V6.8805C27.538 7.0085 27.938 7.2325 28.218 7.5525C28.506 7.8725 28.65 8.3165 28.65 8.8845C28.65 9.5885 28.426 10.1485 27.978 10.5645C27.538 10.9805 26.918 11.1885 26.118 11.1885H22.902V2.8125ZM25.566 9.9285C25.998 9.9285 26.314 9.8565 26.514 9.7125C26.714 9.5685 26.814 9.3045 26.814 8.9205V8.5725C26.814 8.1885 26.714 7.9245 26.514 7.7805C26.314 7.6365 25.998 7.5645 25.566 7.5645H24.654V9.9285H25.566ZM25.338 6.3645C25.762 6.3645 26.07 6.2965 26.262 6.1605C26.454 6.0165 26.55 5.7605 26.55 5.3925V5.0325C26.55 4.6645 26.454 4.4125 26.262 4.2765C26.07 4.1405 25.762 4.0725 25.338 4.0725H24.654V6.3645H25.338Z" fill="#ffffff" style="fill:#ffffff;fill-opacity:1;"/>
<path d="M29.9413 2.8125H32.6413C33.7693 2.8125 34.6053 3.1725 35.1493 3.8925C35.6933 4.6125 35.9653 5.6485 35.9653 7.0005C35.9653 8.3525 35.6933 9.3885 35.1493 10.1085C34.6053 10.8285 33.7693 11.1885 32.6413 11.1885H29.9413V2.8125ZM32.5213 9.7725C33.0573 9.7725 33.4493 9.6005 33.6973 9.2565C33.9453 8.9125 34.0693 8.4125 34.0693 7.7565V6.2325C34.0693 5.5845 33.9453 5.0885 33.6973 4.7445C33.4493 4.4005 33.0573 4.2285 32.5213 4.2285H31.7173V9.7725H32.5213Z" fill="#ffffff" style="fill:#ffffff;fill-opacity:1;"/>
<path d="M41.5887 11.1885L41.0607 9.1725H38.7687L38.2527 11.1885H36.4287L38.6967 2.8125H41.2407L43.5087 11.1885H41.5887ZM39.9687 4.5525H39.8727L39.0567 7.7205H40.7847L39.9687 4.5525Z" fill="#ffffff" style="fill:#ffffff;fill-opacity:1;"/>
</svg>
