<svg width="138" height="38" viewBox="0 0 138 38" fill="none" xmlns="http://www.w3.org/2000/svg">
<g clip-path="url(#clip0_5728_1128)">
<path d="M11.2064 0.0312509C9.83603 0.0381427 8.48041 0.318636 7.21699 0.856763C5.95357 1.39489 4.80708 2.18015 3.843 3.16757C2.87891 4.15498 2.11611 5.32529 1.59816 6.61163C1.08022 7.89797 0.817287 9.27516 0.824358 10.6645V14.1768H9.25983V9.08825C9.25973 8.84928 9.30608 8.61263 9.39622 8.39182C9.48636 8.17102 9.61853 7.97039 9.78517 7.80139C9.95183 7.63239 10.1497 7.4984 10.3675 7.40696C10.5852 7.31552 10.8186 7.26849 11.0543 7.26854H11.3584C11.5942 7.26849 11.8276 7.31553 12.0453 7.40696C12.2632 7.4984 12.461 7.63239 12.6278 7.80139C12.7944 7.97038 12.9265 8.17102 13.0168 8.39182C13.1069 8.61263 13.1533 8.84926 13.1533 9.08825V22.7294C14.2611 22.7294 15.3581 22.5082 16.3815 22.0785C17.4049 21.6486 18.3349 21.0186 19.1182 20.2245C19.9015 19.4303 20.5228 18.4875 20.9468 17.4498C21.3706 16.4122 21.5888 15.3 21.5888 14.1768V10.6645C21.5948 7.84947 20.5014 5.14642 18.5477 3.14619C17.5891 2.15913 16.4463 1.37538 15.1859 0.840594C13.9255 0.305811 12.5728 0.030671 11.2064 0.0312509Z" fill="white" style="fill:white;fill-opacity:1;"/>
<path d="M11.3589 29.6343H11.0547C10.8191 29.6343 10.5857 29.5873 10.368 29.4959C10.1502 29.4045 9.95236 29.2704 9.78572 29.1014C9.61907 28.9325 9.48689 28.732 9.39673 28.5112C9.30657 28.2905 9.26018 28.0538 9.26023 27.8148V14.1738C8.15244 14.1737 7.05547 14.3948 6.03199 14.8245C5.00851 15.2544 4.07857 15.8843 3.29524 16.6785C2.51192 17.4727 1.89056 18.4156 1.46667 19.4533C1.04278 20.4909 0.824668 21.6032 0.824763 22.7263V26.1897C0.81071 27.5811 1.06888 28.9615 1.58433 30.2512C2.09978 31.5408 2.86228 32.714 3.82776 33.703C4.79323 34.6919 5.9425 35.4769 7.20911 36.0127C8.47572 36.5486 9.83454 36.8244 11.207 36.8244C12.5794 36.8244 13.9382 36.5486 15.2048 36.0127C16.4714 35.4769 17.6207 34.6919 18.5862 33.703C19.5517 32.714 20.3142 31.5408 20.8296 30.2512C21.3451 28.9615 21.6032 27.5811 21.5891 26.1897V22.7263H13.1538V27.8148C13.1538 28.0539 13.1073 28.2905 13.0171 28.5112C12.9269 28.732 12.7946 28.9326 12.628 29.1015C12.4613 29.2705 12.2635 29.4045 12.0457 29.4959C11.8279 29.5873 11.5945 29.6343 11.3589 29.6343Z" fill="white" style="fill:white;fill-opacity:1;"/>
<path d="M36.0073 10.8291H33.0508V26.0357H41.7283V23.1688H36.0076L36.0073 10.8291Z" fill="white" style="fill:white;fill-opacity:1;"/>
<path d="M51.1943 16.4615C50.7773 15.9361 50.2433 15.5183 49.6362 15.2428C49.0291 14.9671 48.3662 14.8413 47.7018 14.8757C47.0076 14.8701 46.3204 15.0156 45.6865 15.3024C45.0526 15.5892 44.4867 16.0106 44.0272 16.538C43.0404 17.6589 42.4951 19.1088 42.4951 20.6114C42.4951 22.1138 43.0404 23.5637 44.0272 24.6847C44.4868 25.212 45.0528 25.6331 45.6867 25.9198C46.3206 26.2064 47.0077 26.3518 47.7018 26.3463C49.2018 26.3463 50.366 25.8177 51.1943 24.7606V26.0424H53.9585V15.1806H51.1943V16.4615ZM50.3484 22.816C50.0696 23.099 49.7365 23.3209 49.3699 23.4685C49.0033 23.6161 48.6107 23.686 48.2164 23.674C47.8236 23.6867 47.4325 23.6172 47.0673 23.4695C46.7023 23.3219 46.3713 23.0994 46.0949 22.816C45.5568 22.2111 45.2591 21.4254 45.2591 20.6108C45.2591 19.7962 45.5568 19.0105 46.0949 18.4056C46.3714 18.1225 46.7025 17.9002 47.0675 17.7526C47.4325 17.605 47.8237 17.5354 48.2164 17.5479C48.6106 17.5361 49.0032 17.6061 49.3697 17.7536C49.7364 17.901 50.0695 18.1229 50.3484 18.4056C50.8925 19.0076 51.1943 19.7943 51.1943 20.6108C51.1943 21.4273 50.8925 22.2141 50.3484 22.816Z" fill="white" style="fill:white;fill-opacity:1;"/>
<path d="M61.0859 22.4715L58.2916 15.1709H55.2705L59.6615 25.6856C59.4778 26.3131 59.1164 26.872 58.6223 27.2932C58.103 27.6503 57.4799 27.8187 56.8542 27.7714V30.3786C58.0742 30.493 59.2938 30.1571 60.289 29.4327C61.2083 28.7292 61.9468 27.6021 62.5045 26.0514L66.4103 15.1717H63.4535L61.0859 22.4715Z" fill="white" style="fill:white;fill-opacity:1;"/>
<path d="M72.3926 14.8735C71.6391 14.8467 70.8883 14.9785 70.1876 15.2609C69.487 15.5433 68.8517 15.97 68.322 16.5141C67.2992 17.6289 66.7324 19.096 66.7363 20.6186C66.7402 22.1411 67.3145 23.6053 68.3431 24.7146C69.4146 25.8005 70.8359 26.3436 72.6071 26.3438C74.6635 26.3438 76.2204 25.5692 77.2779 24.0199L75.0497 22.716C74.7664 23.0806 74.4 23.3699 73.9819 23.559C73.5639 23.7483 73.1068 23.8317 72.6498 23.8021C71.0069 23.8021 69.9999 23.1216 69.6285 21.7605H77.7065C77.7754 21.3805 77.8113 20.9949 77.8135 20.6085C77.8544 19.0955 77.3039 17.6275 76.2818 16.5244C75.7867 15.9844 75.1837 15.5578 74.513 15.2731C73.8423 14.9884 73.1194 14.8522 72.3926 14.8735ZM69.5859 19.5878C69.7083 18.9495 70.0497 18.376 70.5499 17.9689C71.0816 17.5704 71.7314 17.3673 72.3923 17.3934C72.9962 17.3854 73.5865 17.5762 74.0746 17.9369C74.5938 18.3422 74.9421 18.932 75.0494 19.5875L69.5859 19.5878Z" fill="white" style="fill:white;fill-opacity:1;"/>
<path d="M82.5005 17.0414V15.1726H79.7363V26.0347H82.5005V20.8429C82.5005 19.8002 82.8325 19.0543 83.4966 18.6052C84.1616 18.1561 84.9664 17.9704 85.7575 18.0838V14.9564C85.0627 14.9475 84.3783 15.1275 83.7753 15.4777C83.1799 15.8279 82.7278 16.3827 82.5005 17.0414Z" fill="white" style="fill:white;fill-opacity:1;"/>
<path d="M99.2349 13.181V10.8291H89.4034V13.6969H95.4887L89.2451 23.6409V26.0354H99.3543V23.1684H92.9907L99.2349 13.181Z" fill="white" style="fill:white;fill-opacity:1;"/>
<path d="M105.88 14.8735C105.127 14.8467 104.376 14.9785 103.675 15.2609C102.974 15.5433 102.339 15.97 101.809 16.5141C100.787 17.6289 100.22 19.0961 100.224 20.6187C100.228 22.1412 100.802 23.6054 101.831 24.7146C102.902 25.8005 104.324 26.3436 106.094 26.3438C108.151 26.3438 109.708 25.5692 110.766 24.0199L108.537 22.716C108.254 23.0805 107.887 23.3698 107.47 23.5589C107.052 23.7482 106.595 23.8316 106.138 23.8021C104.495 23.8021 103.487 23.1216 103.117 21.7605H111.194C111.263 21.3804 111.299 20.9949 111.301 20.6085C111.342 19.0955 110.792 17.6275 109.77 16.5244C109.275 15.9844 108.671 15.5578 108.001 15.2731C107.33 14.9884 106.607 14.8522 105.88 14.8735ZM103.074 19.5878C103.196 18.9495 103.538 18.3759 104.038 17.9689C104.57 17.5702 105.22 17.3672 105.88 17.3935C106.484 17.3852 107.075 17.5759 107.563 17.9369C108.082 18.3422 108.43 18.932 108.537 19.5875L103.074 19.5878Z" fill="white" style="fill:white;fill-opacity:1;"/>
<path d="M115.991 17.0414V15.1726H113.227V26.0347H115.991V20.8429C115.991 19.8002 116.323 19.0543 116.987 18.6052C117.652 18.1561 118.456 17.9705 119.247 18.0838V14.9564C118.553 14.9475 117.868 15.1275 117.265 15.4777C116.67 15.8279 116.218 16.3826 115.991 17.0414Z" fill="white" style="fill:white;fill-opacity:1;"/>
<path d="M125.553 14.8716C124.256 14.8861 123.004 15.3552 122.01 16.1994C121.016 17.0436 120.339 18.2107 120.098 19.5025C119.856 20.7944 120.062 22.1313 120.682 23.2865C121.302 24.4416 122.297 25.3436 123.497 25.8393C124.699 26.335 126.032 26.394 127.272 26.0061C128.511 25.6182 129.579 24.8072 130.296 23.7112C131.013 22.6151 131.333 21.3015 131.203 19.9931C131.072 18.6848 130.499 17.4626 129.581 16.5339C129.057 15.9918 128.43 15.5646 127.737 15.2786C127.044 14.9927 126.301 14.8542 125.553 14.8716ZM127.631 22.7575C127.36 23.0349 127.036 23.2531 126.678 23.3987C126.322 23.5442 125.938 23.614 125.553 23.6036C125.169 23.6148 124.787 23.5453 124.431 23.3997C124.076 23.254 123.753 23.0355 123.484 22.7575C122.954 22.1704 122.659 21.4029 122.659 20.6066C122.659 19.8105 122.954 19.0431 123.484 18.4559C123.753 18.178 124.076 17.9595 124.431 17.8139C124.787 17.6683 125.169 17.5986 125.553 17.6096C125.938 17.5994 126.32 17.6693 126.678 17.8149C127.036 17.9604 127.36 18.1786 127.631 18.4559C128.168 19.0397 128.467 19.8084 128.467 20.6066C128.467 21.405 128.168 22.1737 127.631 22.7575Z" fill="white" style="fill:white;fill-opacity:1;"/>
<path d="M137.027 22.6934H133.664V26.0389H137.027V22.6934Z" fill="white" style="fill:white;fill-opacity:1;"/>
<path d="M137.027 22.6934H133.664V26.0389H137.027V22.6934Z" fill="white" style="fill:white;fill-opacity:1;"/>
</g>
<defs>
<clipPath id="clip0_5728_1128">
<rect width="136.412" height="37.4158" fill="white" style="fill:white;fill-opacity:1;" transform="translate(0.824219 0.03125)"/>
</clipPath>
</defs>
</svg>
