<svg width="140" height="37" viewBox="0 0 140 37" fill="none" xmlns="http://www.w3.org/2000/svg">
<g clip-path="url(#clip0_538_488)">
<mask id="mask0_538_488" style="mask-type:luminance" maskUnits="userSpaceOnUse" x="0" y="0" width="140" height="37">
<path d="M0 0H140V36.8H0V0Z" fill="white" style="fill:white;fill-opacity:1;"/>
</mask>
<g mask="url(#mask0_538_488)">
<path fill-rule="evenodd" clip-rule="evenodd" d="M12.9648 0L22.1288 14.258L12.9648 19.563L3.80078 14.258L12.9648 0ZM6.60478 13.58L12.9648 3.689L19.3248 13.581L12.9648 17.261L6.60478 13.581V13.58Z" fill="#ffffff" style="fill:#ffffff;fill-opacity:1;"/>
<path d="M12.9579 22.6944L2.32688 16.5414L2.03988 16.9894C0.452548 19.4597 -0.239265 22.3998 0.0799618 25.3187C0.399188 28.2376 1.71013 30.9586 3.79388 33.0274C8.85088 38.0544 17.0559 38.0544 22.1219 33.0274C24.2091 30.9607 25.5224 28.2393 25.8418 25.3194C26.1611 22.3994 25.467 19.4585 23.8759 16.9894L23.5889 16.5414L12.9579 22.6944ZM58.9009 28.1134H46.8109V8.68144H50.4989V24.6854H58.9009V28.1134ZM77.4419 28.1134H73.7529V8.68144H77.4419V28.1134ZM92.3929 28.1134V8.68144H98.7129C99.6709 8.68144 100.45 8.71344 101.04 8.78744C102.565 8.96744 103.884 9.50544 104.983 10.3954C106.097 11.2854 106.942 12.4274 107.516 13.8224C108.097 15.2104 108.384 16.7364 108.384 18.4014C108.384 20.0664 108.097 21.5924 107.516 22.9884C106.934 24.3754 106.089 25.5094 104.983 26.3994C103.876 27.2894 102.565 27.8274 101.04 28.0074C100.442 28.0804 99.6629 28.1134 98.7119 28.1134H92.3929ZM98.7129 24.6614C99.6709 24.6614 100.376 24.6114 100.827 24.5224C101.613 24.3743 102.328 23.9699 102.86 23.3724C103.426 22.7345 103.843 21.979 104.081 21.1604C104.352 20.2864 104.491 19.3644 104.491 18.3934C104.491 17.4214 104.352 16.4594 104.073 15.5854C103.802 14.7124 103.393 13.9774 102.835 13.3824C102.31 12.795 101.603 12.4012 100.827 12.2644C100.376 12.1744 99.6709 12.1244 98.7119 12.1244H96.1389V24.6534H98.7119L98.7129 24.6614ZM130.54 28.5214C128.614 28.5214 126.942 28.1054 125.507 27.2654C124.081 26.4154 122.983 25.2324 122.212 23.6984C121.45 22.1724 121.073 20.4014 121.073 18.3934C121.073 16.3854 121.45 14.6144 122.212 13.0884C122.983 11.5624 124.081 10.3784 125.507 9.53844C126.933 8.68944 128.614 8.27344 130.54 8.27344C132.466 8.27344 134.138 8.69744 135.573 9.53844C136.999 10.3784 138.097 11.5624 138.851 13.0884C139.622 14.6144 140.007 16.3854 140.007 18.3934C140.007 20.4014 139.622 22.1724 138.851 23.6984C138.089 25.2244 136.999 26.4164 135.573 27.2654C134.146 28.1054 132.466 28.5214 130.54 28.5214ZM130.646 25.0694C131.843 25.0694 132.843 24.7924 133.655 24.2454C134.466 23.6984 135.081 22.9234 135.483 21.9274C135.892 20.9314 136.089 19.7564 136.089 18.4014C136.089 16.3114 135.614 14.6804 134.655 13.5044C133.696 12.3294 132.286 11.7344 130.425 11.7344C129.228 11.7344 128.228 12.0114 127.417 12.5584C126.606 13.1044 125.991 13.8804 125.589 14.8764C125.179 15.8714 124.983 17.0464 124.983 18.4014C124.983 20.4914 125.458 22.1234 126.417 23.2984C127.376 24.4734 128.786 25.0694 130.646 25.0694Z" fill="#ffffff" style="fill:#ffffff;fill-opacity:1;"/>
</g>
</g>
<defs>
<clipPath id="clip0_538_488">
<rect width="140" height="37" fill="white" style="fill:white;fill-opacity:1;"/>
</clipPath>
</defs>
</svg>
