<svg width="526" height="98" viewBox="0 0 526 98" fill="none" xmlns="http://www.w3.org/2000/svg">
<g clip-path="url(#clip0_1442_189)">
<path d="M162.401 20.3566L167.627 2.15332H117.393L90.4805 96.0532H140.713L145.94 77.8488H120.071L126.146 56.6334H147.573L152.734 38.3635H131.307L136.532 20.3566H162.401Z" fill="#111827"/>
<path d="M228.061 13.8407C226.124 9.58551 222.824 6.30084 218.165 3.98666C213.504 1.67369 207.713 0.516602 200.789 0.516602C194.387 0.516602 188.867 1.58645 184.23 3.72495C179.592 5.86466 175.814 8.81129 172.896 12.5649C169.978 16.3197 167.801 20.7505 166.364 25.8575L156.761 59.9728C154.496 67.7441 154.138 74.4552 155.683 80.1074C157.228 85.762 160.549 90.1044 165.645 93.1395C170.74 96.1733 177.445 97.6903 185.765 97.6903C190.903 97.6903 195.792 97.0784 200.43 95.8571C205.067 94.6358 208.911 93.0631 211.959 91.1427L224.893 45.5025H190.86L185.896 62.9207H196.283L192.004 77.7811C191.588 77.9459 191.164 78.09 190.73 78.2112C189.554 78.5371 188.313 78.7019 187.006 78.7019C185.002 78.7019 183.358 78.2439 182.075 77.3267C180.79 76.4095 179.962 75.1228 179.592 73.4629C179.222 71.8042 179.363 69.7966 180.016 67.4388L191.578 27.0376C192.101 25.2916 192.689 23.8401 193.342 22.683C193.995 21.5259 194.789 20.6645 195.727 20.0962C196.662 19.5292 197.784 19.2445 199.09 19.2445C201.312 19.2445 202.835 19.9763 203.663 21.4375C204.49 22.9011 204.62 24.8542 204.054 27.2981L201.833 35.0899H227.504L229.268 28.7387C230.4 23.0635 229.996 18.0983 228.059 13.8407H228.061Z" fill="#111827"/>
<path d="M257.01 2.15332L214.42 96.0532H239.895L247.655 76.8673H260.891L257.793 96.0532H282.616L293.068 2.15332H257.009H257.01ZM263.944 58.2703H255.208L269.672 22.5993L263.943 58.2703H263.944Z" fill="#111827"/>
<path d="M364.608 17.5408C363.628 12.6519 361.254 8.86444 357.488 6.18072C353.721 3.49457 348.637 2.15332 342.236 2.15332H314.865L287.953 96.0532H312.318L321.856 62.723H327.148C333.897 62.723 339.613 61.7852 344.295 59.9072C348.975 58.0304 352.841 55.1601 355.89 51.2963C358.937 47.4337 361.289 42.4685 362.945 36.3995L363.402 34.6318C365.187 28.1279 365.59 22.4309 364.611 17.5408H364.608ZM340.275 30.5717L338.969 35.0898C337.923 38.7561 336.562 41.4313 334.886 43.1119C333.208 44.7924 330.955 45.632 328.124 45.632H326.752L334.33 19.1777H335.636C337.334 19.1777 338.651 19.5702 339.589 20.3566C340.524 21.1429 341.058 22.386 341.189 24.0895C341.32 25.7919 341.015 27.9534 340.274 30.5717H340.275Z" fill="#111827"/>
<path d="M468.843 2.15332L463.225 21.8626H479.621L458.326 96.0532H482.691L503.921 21.8626H520.317L526 2.15332H468.843Z" fill="#111827"/>
<path d="M76.4273 2.15332L51.5031 59.6164L59.5747 2.15332H26.9125L0 96.0532H21.6221L38.2946 37.8959L31.0281 96.0532H51.5394L77.8306 36.7836L60.8148 96.0532H82.6327L109.546 2.15332H76.4273Z" fill="#111827"/>
<path d="M414.962 0C387.966 0 366.081 21.9374 366.081 49C366.081 76.0626 387.965 98 414.962 98C441.959 98 463.844 76.0626 463.844 49C463.844 21.9374 441.959 0 414.962 0ZM429.129 91.0066C421.465 70.975 397.182 63.3273 379.466 75.3647C396.102 61.8673 395.855 36.3544 378.959 23.1842C396.906 34.8738 421.034 26.7536 428.31 6.57663C422.764 27.2988 437.925 47.7932 459.316 48.4935C437.943 49.6106 423.182 70.3971 429.128 91.0066H429.129Z" fill="#111827"/>
</g>
<defs>
<clipPath id="clip0_1442_189">
<rect width="526" height="98" fill="white"/>
</clipPath>
</defs>
</svg>
