<svg width="82" height="20" viewBox="0 0 82 20" fill="none" xmlns="http://www.w3.org/2000/svg">
<path d="M1.44141 14.9783L2.55741 14.6003L2.88141 6.03231L1.76541 5.65431V4.88031H5.52741L7.88541 13.1603H8.10141L10.4594 4.88031H14.2214V5.65431L13.1234 6.03231L13.4654 14.6003L14.5814 14.9783V15.7523H10.3154V14.8703L11.5034 14.4923L11.3774 7.29231H11.2334C11.1734 7.55631 11.0414 8.04231 10.8374 8.75031C10.6454 9.45831 10.4774 10.0463 10.3334 10.5143L8.96541 14.9243C8.61741 14.9723 8.25741 15.0263 7.88541 15.0863C7.52541 15.1343 7.26741 15.1643 7.11141 15.1763C7.06341 15.1763 6.95541 15.1283 6.78741 15.0323L5.41941 10.6043C5.23941 10.0043 4.93941 8.90031 4.51941 7.29231H4.37541L4.23141 14.4923L5.43741 14.8703V15.7523H1.44141V14.9783Z" fill="#ffffff" style="fill:#ffffff;fill-opacity:1;"/>
<path d="M19.6543 15.9323C18.3703 15.9323 17.4043 15.6143 16.7563 14.9783C16.1083 14.3303 15.7843 13.3343 15.7843 11.9903C15.7843 11.4503 15.8263 10.9283 15.9103 10.4243C15.9943 9.92031 16.1023 9.54831 16.2343 9.30831C16.3663 9.12831 16.6303 8.88831 17.0263 8.58831C17.4223 8.27631 17.8243 8.00631 18.2323 7.77831C18.6403 7.53831 18.9163 7.41831 19.0603 7.41831C20.3083 7.41831 21.2503 7.74831 21.8863 8.40831C22.5223 9.05631 22.8403 10.0043 22.8403 11.2523C22.8403 11.8283 22.7983 12.3743 22.7143 12.8903C22.6423 13.3943 22.5463 13.8023 22.4263 14.1143C22.2223 14.3783 21.7603 14.7503 21.0403 15.2303C20.3323 15.6983 19.8703 15.9323 19.6543 15.9323ZM19.7263 14.8343C19.7983 14.8103 20.0803 14.6723 20.5723 14.4203C20.7643 13.5683 20.8603 12.5903 20.8603 11.4863C20.8603 10.5863 20.6983 9.87231 20.3743 9.34431C20.0623 8.80431 19.5943 8.53431 18.9703 8.53431C18.7063 8.53431 18.4903 8.57631 18.3223 8.66031C18.1543 8.74431 18.0163 9.05631 17.9083 9.59631C17.8123 10.1363 17.7643 10.8503 17.7643 11.7383C17.7643 12.8903 17.9503 13.6943 18.3223 14.1503C18.7063 14.6063 19.1743 14.8343 19.7263 14.8343Z" fill="#ffffff" style="fill:#ffffff;fill-opacity:1;"/>
<path d="M25.2868 15.9323C25.2268 15.9323 25.1008 15.8423 24.9088 15.6623C24.7288 15.4823 24.6388 15.3623 24.6388 15.3023V5.38431L23.9728 5.13231V4.37631C25.1368 4.17231 25.7728 4.07031 25.8808 4.07031C25.9408 4.07031 26.0548 4.16031 26.2228 4.34031C26.4028 4.50831 26.4928 4.62831 26.4928 4.70031V14.5823L27.1408 14.8523V15.6083C26.0248 15.8243 25.4068 15.9323 25.2868 15.9323Z" fill="#ffffff" style="fill:#ffffff;fill-opacity:1;"/>
<path d="M32.2051 15.9323C30.9211 15.9323 29.9551 15.6143 29.3071 14.9783C28.6591 14.3303 28.3351 13.3343 28.3351 11.9903C28.3351 11.4503 28.3771 10.9283 28.4611 10.4243C28.5451 9.92031 28.6531 9.54831 28.7851 9.30831C28.9171 9.12831 29.1811 8.88831 29.5771 8.58831C29.9731 8.27631 30.3751 8.00631 30.7831 7.77831C31.1911 7.53831 31.4671 7.41831 31.6111 7.41831C32.8591 7.41831 33.8011 7.74831 34.4371 8.40831C35.0731 9.05631 35.3911 10.0043 35.3911 11.2523C35.3911 11.8283 35.3491 12.3743 35.2651 12.8903C35.1931 13.3943 35.0971 13.8023 34.9771 14.1143C34.7731 14.3783 34.3111 14.7503 33.5911 15.2303C32.8831 15.6983 32.4211 15.9323 32.2051 15.9323ZM32.2771 14.8343C32.3491 14.8103 32.6311 14.6723 33.1231 14.4203C33.3151 13.5683 33.4111 12.5903 33.4111 11.4863C33.4111 10.5863 33.2491 9.87231 32.9251 9.34431C32.6131 8.80431 32.1451 8.53431 31.5211 8.53431C31.2571 8.53431 31.0411 8.57631 30.8731 8.66031C30.7051 8.74431 30.5671 9.05631 30.4591 9.59631C30.3631 10.1363 30.3151 10.8503 30.3151 11.7383C30.3151 12.8903 30.5011 13.6943 30.8731 14.1503C31.2571 14.6063 31.7251 14.8343 32.2771 14.8343Z" fill="#ffffff" style="fill:#ffffff;fill-opacity:1;"/>
<path d="M39.3495 15.9323C38.8695 15.9323 38.4255 15.7883 38.0175 15.5003C37.6095 15.2123 37.2795 14.7803 37.0275 14.2043C36.7755 13.6283 36.6495 12.9263 36.6495 12.0983C36.6495 11.5223 36.6915 10.9763 36.7755 10.4603C36.8595 9.94431 36.9675 9.56031 37.0995 9.30831C37.2315 9.12831 37.4895 8.89431 37.8735 8.60631C38.2575 8.30631 38.6415 8.04231 39.0255 7.81431C39.4215 7.58631 39.6915 7.47231 39.8355 7.47231C40.1235 7.47231 40.4535 7.50831 40.8255 7.58031C41.2095 7.64031 41.5695 7.72431 41.9055 7.83231L41.8515 10.2263H40.6635L40.3935 8.94831C40.2615 8.87631 40.0935 8.81031 39.8895 8.75031C39.6975 8.69031 39.5235 8.66031 39.3675 8.66031C39.2595 8.66031 39.1755 8.68431 39.1155 8.73231C38.9595 8.85231 38.8395 9.19431 38.7555 9.75831C38.6715 10.3103 38.6295 10.9943 38.6295 11.8103C38.6295 12.3983 38.6895 12.8963 38.8095 13.3043C38.9415 13.7003 39.1035 13.9943 39.2955 14.1863C39.4875 14.3783 39.6795 14.4743 39.8715 14.4743H41.9055V15.3023C41.4255 15.4463 40.9215 15.5903 40.3935 15.7343C39.8655 15.8663 39.5175 15.9323 39.3495 15.9323Z" fill="#ffffff" style="fill:#ffffff;fill-opacity:1;"/>
<path d="M44.1652 15.9323C44.1052 15.9323 43.9793 15.8423 43.7873 15.6623C43.6073 15.4823 43.5173 15.3623 43.5173 15.3023V5.38431L42.8693 5.13231V4.37631C44.0093 4.17231 44.6393 4.07031 44.7593 4.07031C44.8193 4.07031 44.9393 4.16031 45.1193 4.34031C45.2993 4.50831 45.3893 4.62831 45.3893 4.70031L45.2993 8.69631L45.3893 8.71431C45.7373 8.45031 46.1033 8.18031 46.4873 7.90431C46.8833 7.62831 47.1053 7.49031 47.1533 7.49031C48.0413 7.49031 48.7013 7.71231 49.1333 8.15631C49.5773 8.58831 49.7993 9.35031 49.7993 10.4423V14.5823L50.4473 14.8523V15.6083C49.3193 15.8243 48.7013 15.9323 48.5933 15.9323C48.5333 15.9323 48.4073 15.8423 48.2153 15.6623C48.0233 15.4823 47.9272 15.3623 47.9272 15.3023V10.4423C47.9272 9.79431 47.8253 9.38031 47.6213 9.20031C47.4293 9.02031 47.2072 8.93031 46.9552 8.93031C46.9072 8.93031 46.5532 9.06831 45.8932 9.34431C45.8092 9.38031 45.7192 9.42231 45.6232 9.47031C45.5392 9.50631 45.4613 9.53631 45.3893 9.56031V14.5823L46.0373 14.8523V15.6083C44.9093 15.8243 44.2852 15.9323 44.1652 15.9323Z" fill="#ffffff" style="fill:#ffffff;fill-opacity:1;"/>
<path d="M51.7157 14.9783L52.8137 14.6003V6.03231L51.7157 5.65431V4.88031H56.9537C57.6137 4.88031 58.2317 5.04831 58.8077 5.38431C59.3837 5.70831 59.8517 6.25431 60.2117 7.02231C60.5717 7.79031 60.7517 8.78631 60.7517 10.0103C60.7517 11.9663 60.4217 13.4123 59.7617 14.3483C59.1017 15.2843 58.1657 15.7523 56.9537 15.7523H51.7157V14.9783ZM57.0977 14.7803C57.5897 14.7803 57.9797 14.3663 58.2677 13.5383C58.5557 12.6983 58.6997 11.5643 58.6997 10.1363C58.6997 9.35631 58.6337 8.64231 58.5017 7.99431C58.3697 7.33431 58.1837 6.81231 57.9437 6.42831C57.7037 6.03231 57.4217 5.83431 57.0977 5.83431L54.7757 6.06831V14.5103L57.0977 14.7803Z" fill="#ffffff" style="fill:#ffffff;fill-opacity:1;"/>
<path d="M61.2283 14.9783L62.3443 14.6183L65.2603 4.98831C65.5483 4.94031 65.9383 4.89231 66.4303 4.84431C66.9223 4.78431 67.2583 4.74831 67.4383 4.73631C67.4863 4.73631 67.5943 4.78431 67.7623 4.88031L70.7143 14.6183L71.8303 14.9783V15.7523H67.4203V14.8703L68.6443 14.5283L67.9963 12.2063H64.7203L64.1263 14.5283L65.4043 14.8703V15.7523H61.2283V14.9783ZM67.6903 11.1263L66.4663 6.48231H66.2503L65.0263 11.1263H67.6903Z" fill="#ffffff" style="fill:#ffffff;fill-opacity:1;"/>
<path d="M77.1249 15.9323C75.4809 15.9323 74.2569 15.5063 73.4529 14.6543C72.6489 13.8023 72.2469 12.4643 72.2469 10.6403C72.2469 9.84831 72.2949 9.12831 72.3909 8.48031C72.4869 7.83231 72.6189 7.29831 72.7869 6.87831C72.9909 6.59031 73.3089 6.27831 73.7409 5.94231C74.1729 5.60631 74.6049 5.31831 75.0369 5.07831C75.4809 4.83831 75.7989 4.71831 75.9909 4.71831C77.6349 4.71831 78.8589 5.14431 79.6629 5.99631C80.4789 6.83631 80.8869 8.17431 80.8869 10.0103C80.8869 11.4503 80.7309 12.7103 80.4189 13.7903C80.2149 14.0543 79.8849 14.3603 79.4289 14.7083C78.9849 15.0443 78.5349 15.3323 78.0789 15.5723C77.6349 15.8123 77.3169 15.9323 77.1249 15.9323ZM76.9989 14.7443C77.1309 14.7443 77.4009 14.6483 77.8089 14.4563C78.2289 14.2523 78.4629 14.1143 78.5109 14.0423C78.7149 13.0463 78.8169 11.8103 78.8169 10.3343C78.8169 8.83431 78.6429 7.72431 78.2949 7.00431C77.9469 6.28431 77.3169 5.92431 76.4049 5.92431C75.8289 5.92431 75.4089 5.99031 75.1449 6.12231C74.8809 6.25431 74.6709 6.68631 74.5149 7.41831C74.3709 8.13831 74.2989 9.09231 74.2989 10.2803C74.2989 11.4323 74.3829 12.3263 74.5509 12.9623C74.7189 13.5983 74.9949 14.0543 75.3789 14.3303C75.7629 14.6063 76.3029 14.7443 76.9989 14.7443Z" fill="#ffffff" style="fill:#ffffff;fill-opacity:1;"/>
</svg>
