<svg width="182" height="49" viewBox="0 0 182 49" fill="none" xmlns="http://www.w3.org/2000/svg">
<path d="M88.033 24.2405C88.033 27.3018 87.4528 29.9062 86.2922 32.0537C85.1408 34.2012 83.569 35.8415 81.5769 36.9746C79.5939 38.0986 77.3641 38.6607 74.8877 38.6607C72.3929 38.6607 70.154 38.0941 68.171 36.9609C66.188 35.8278 64.6208 34.1875 63.4694 32.04C62.318 29.8925 61.7423 27.2927 61.7423 24.2405C61.7423 21.1792 62.318 18.5748 63.4694 16.4273C64.6208 14.2798 66.188 12.644 68.171 11.52C70.154 10.3869 72.3929 9.82031 74.8877 9.82031C77.3641 9.82031 79.5939 10.3869 81.5769 11.52C83.569 12.644 85.1408 14.2798 86.2922 16.4273C87.4528 18.5748 88.033 21.1792 88.033 24.2405ZM82.0155 24.2405C82.0155 22.2575 81.7185 20.5852 81.1245 19.2236C80.5397 17.862 79.7127 16.8294 78.6435 16.1257C77.5743 15.4221 76.3224 15.0702 74.8877 15.0702C73.453 15.0702 72.201 15.4221 71.1318 16.1257C70.0627 16.8294 69.2311 17.862 68.6371 19.2236C68.0522 20.5852 67.7598 22.2575 67.7598 24.2405C67.7598 26.2235 68.0522 27.8958 68.6371 29.2574C69.2311 30.619 70.0627 31.6516 71.1318 32.3553C72.201 33.0589 73.453 33.4107 74.8877 33.4107C76.3224 33.4107 77.5743 33.0589 78.6435 32.3553C79.7127 31.6516 80.5397 30.619 81.1245 29.2574C81.7185 27.8958 82.0155 26.2235 82.0155 24.2405Z" fill="#ffffff" style="fill:#ffffff;fill-opacity:1;"/>
<path d="M99.9622 38.6881C97.8055 38.6881 95.9505 38.2312 94.397 37.3173C92.8526 36.3944 91.6646 35.115 90.833 33.4793C90.0106 31.8435 89.5994 29.961 89.5994 27.8318C89.5994 25.6752 90.0152 23.7836 90.8467 22.157C91.6875 20.5212 92.88 19.2464 94.4244 18.3326C95.9687 17.4096 97.8055 16.9482 99.9347 16.9482C101.772 16.9482 103.38 17.2817 104.76 17.9488C106.14 18.6159 107.232 19.5526 108.036 20.7588C108.84 21.9651 109.283 23.3815 109.365 25.0081H103.855C103.7 23.9572 103.288 23.1119 102.621 22.4722C101.963 21.8234 101.1 21.499 100.031 21.499C99.126 21.499 98.3355 21.7457 97.6593 22.2392C96.9922 22.7235 96.4713 23.4317 96.0967 24.3638C95.722 25.296 95.5347 26.4245 95.5347 27.7496C95.5347 29.0929 95.7174 30.2352 96.083 31.1764C96.4576 32.1177 96.9831 32.835 97.6593 33.3285C98.3355 33.8219 99.126 34.0687 100.031 34.0687C100.698 34.0687 101.296 33.9316 101.826 33.6575C102.366 33.3833 102.809 32.9858 103.156 32.4649C103.512 31.9349 103.745 31.2998 103.855 30.5596H109.365C109.274 32.1679 108.835 33.5844 108.05 34.8089C107.273 36.0243 106.199 36.9746 104.828 37.66C103.458 38.3454 101.836 38.6881 99.9622 38.6881Z" fill="#ffffff" style="fill:#ffffff;fill-opacity:1;"/>
<path d="M123.145 17.2223V21.6087H110.466V17.2223H123.145ZM113.344 12.178H119.184V31.807C119.184 32.3461 119.266 32.7665 119.43 33.068C119.595 33.3605 119.823 33.5661 120.116 33.6849C120.417 33.8037 120.765 33.8631 121.157 33.8631C121.432 33.8631 121.706 33.8402 121.98 33.7945C122.254 33.7397 122.464 33.6986 122.61 33.6712L123.529 38.0164C123.236 38.1078 122.825 38.2129 122.295 38.3317C121.765 38.4596 121.121 38.5373 120.362 38.5647C118.955 38.6195 117.721 38.4322 116.661 38.0027C115.611 37.5732 114.793 36.9061 114.208 36.0014C113.623 35.0967 113.335 33.9545 113.344 32.5746V12.178Z" fill="#ffffff" style="fill:#ffffff;fill-opacity:1;"/>
<path d="M131.795 38.6744C130.451 38.6744 129.254 38.4413 128.203 37.9753C127.152 37.5001 126.321 36.801 125.709 35.8781C125.105 34.946 124.804 33.7854 124.804 32.3964C124.804 31.2267 125.019 30.2443 125.448 29.4493C125.878 28.6543 126.463 28.0146 127.203 27.5303C127.943 27.0459 128.784 26.6804 129.725 26.4337C130.675 26.1869 131.671 26.0133 132.713 25.9128C133.938 25.7848 134.925 25.6661 135.674 25.5564C136.423 25.4376 136.967 25.264 137.305 25.0355C137.643 24.8071 137.812 24.4689 137.812 24.0212V23.9389C137.812 23.0708 137.538 22.3991 136.99 21.9239C136.451 21.4487 135.683 21.2112 134.687 21.2112C133.636 21.2112 132.8 21.4442 132.178 21.9102C131.557 22.3671 131.146 22.9429 130.945 23.6374L125.544 23.1987C125.818 21.9194 126.357 20.8136 127.162 19.8815C127.966 18.9403 129.003 18.2184 130.273 17.7158C131.553 17.204 133.033 16.9482 134.714 16.9482C135.884 16.9482 137.003 17.0852 138.073 17.3594C139.151 17.6335 140.106 18.0585 140.938 18.6342C141.778 19.2099 142.441 19.9501 142.925 20.8548C143.409 21.7503 143.652 22.8241 143.652 24.076V38.2768H138.114V35.3572H137.949C137.611 36.0151 137.159 36.5954 136.592 37.098C136.026 37.5915 135.345 37.9799 134.55 38.2631C133.755 38.5373 132.836 38.6744 131.795 38.6744ZM133.467 34.6444C134.326 34.6444 135.084 34.4753 135.742 34.1372C136.4 33.79 136.917 33.3239 137.291 32.7391C137.666 32.1542 137.853 31.4917 137.853 30.7515V28.5172C137.671 28.636 137.419 28.7456 137.099 28.8462C136.789 28.9375 136.437 29.0244 136.044 29.1066C135.651 29.1797 135.258 29.2482 134.865 29.3122C134.472 29.367 134.116 29.4173 133.796 29.463C133.111 29.5635 132.512 29.7234 132 29.9428C131.489 30.1621 131.091 30.4591 130.808 30.8337C130.524 31.1993 130.383 31.6562 130.383 32.2045C130.383 32.9995 130.671 33.6072 131.246 34.0276C131.831 34.4388 132.571 34.6444 133.467 34.6444Z" fill="#ffffff" style="fill:#ffffff;fill-opacity:1;"/>
<path d="M152.863 26.1047V38.2768H147.024V17.2223H152.589V20.937H152.836C153.302 19.7125 154.083 18.7438 155.18 18.031C156.276 17.3091 157.606 16.9482 159.169 16.9482C160.631 16.9482 161.906 17.268 162.993 17.9077C164.08 18.5473 164.926 19.4612 165.529 20.6491C166.132 21.828 166.434 23.2353 166.434 24.871V38.2768H160.594V25.9128C160.603 24.6243 160.274 23.6191 159.607 22.8972C158.94 22.1661 158.022 21.8006 156.852 21.8006C156.066 21.8006 155.372 21.9696 154.769 22.3077C154.175 22.6459 153.709 23.1393 153.37 23.7881C153.041 24.4278 152.872 25.2 152.863 26.1047Z" fill="#ffffff" style="fill:#ffffff;fill-opacity:1;"/>
<path d="M181.077 17.2223V21.6087H168.397V17.2223H181.077ZM171.276 12.178H177.115V31.807C177.115 32.3461 177.198 32.7665 177.362 33.068C177.526 33.3605 177.755 33.5661 178.047 33.6849C178.349 33.8037 178.696 33.8631 179.089 33.8631C179.363 33.8631 179.637 33.8402 179.912 33.7945C180.186 33.7397 180.396 33.6986 180.542 33.6712L181.461 38.0164C181.168 38.1078 180.757 38.2129 180.227 38.3317C179.697 38.4596 179.053 38.5373 178.294 38.5647C176.887 38.6195 175.653 38.4322 174.593 38.0027C173.542 37.5732 172.724 36.9061 172.139 36.0014C171.555 35.0967 171.267 33.9545 171.276 32.5746V12.178Z" fill="#ffffff" style="fill:#ffffff;fill-opacity:1;"/>
<path fill-rule="evenodd" clip-rule="evenodd" d="M48.4727 24.2969C48.4727 6.498 42.1761 0.171875 24.3477 0.171875C6.57105 0.171875 0.222656 6.57971 0.222656 24.2969C0.222656 41.9465 6.6763 48.4219 24.3477 48.4219C42.0712 48.4219 48.4727 42.0285 48.4727 24.2969ZM15.8233 31.6031C18.857 31.6031 21.459 29.7545 22.5642 27.1224C23.718 31.4572 27.4617 34.7359 32.0373 35.2004C32.9775 35.2959 33.1577 35.133 33.1577 34.1151V29.7476C33.1577 28.8946 33.446 27.9493 34.812 27.9493H37.4324C37.9963 27.9493 38.0191 27.9371 38.3394 27.4847C38.3394 27.4847 39.7126 25.5668 39.9856 25.1595C40.2585 24.7521 40.2299 24.6451 39.9856 24.2954C39.7412 23.9457 38.3394 22.0113 38.3394 22.0113C38.0181 21.5655 37.992 21.555 37.4324 21.555H33.9427C33.3718 21.555 33.1577 21.8595 33.1577 22.4685V25.6371C33.1577 26.4092 33.1577 27.0358 32.0373 27.0358C30.4088 27.0358 29.5253 25.8089 29.5253 24.2954C29.5253 22.9678 30.509 21.6088 32.0373 21.6088C33.0649 21.6088 33.1577 21.3631 33.1577 20.8699V14.2473C33.1577 13.3801 32.7795 13.3151 32.0373 13.3904C27.4617 13.8549 23.718 17.1337 22.5642 21.4685C21.459 18.8363 18.857 16.9877 15.8233 16.9877C11.7874 16.9877 8.51562 20.2595 8.51562 24.2954C8.51562 28.3313 11.7874 31.6031 15.8233 31.6031ZM15.8233 26.7313C17.1686 26.7313 18.2592 25.6407 18.2592 24.2954C18.2592 22.9501 17.1686 21.8595 15.8233 21.8595C14.478 21.8595 13.3874 22.9501 13.3874 24.2954C13.3874 25.6407 14.478 26.7313 15.8233 26.7313Z" fill="#ffffff" style="fill:#ffffff;fill-opacity:1;"/>
</svg>
