<svg width="393" height="88" viewBox="0 0 393 88" fill="none" xmlns="http://www.w3.org/2000/svg">
<path d="M55.3924 22.208C52.714 21.0772 49.6847 20.5117 46.3041 20.5117C33.8786 20.5117 26.1733 26.4923 23.1879 38.4535C22.1343 42.8466 21.3216 46.6089 20.7513 49.7406C20.5313 51.1323 20.4219 52.3066 20.4219 53.2637C20.4219 57.8307 22.0681 61.3538 25.3611 63.833C28.6979 66.2687 32.9788 67.4866 38.2032 67.4866C44.5255 67.4866 49.5747 66.0296 53.3505 63.1154C57.1262 60.1577 59.7827 55.6993 61.3195 49.7406C62.2412 46.0869 63.0314 42.3245 63.6903 38.4535C63.9098 37.0616 64.0193 35.9091 64.0193 34.9956C64.0193 31.951 63.2514 29.3413 61.7146 27.1666C60.1779 24.9482 58.0708 23.2954 55.3924 22.208ZM51.441 38.6492C50.9139 41.6939 50.1456 45.2604 49.1358 49.3492C48.3893 52.3066 47.1382 54.5031 45.382 55.9386C43.6695 57.374 41.5843 58.0916 39.1254 58.0916C34.9107 58.0916 32.8031 56.091 32.8031 52.0893C32.8031 51.1323 32.8907 50.2191 33.0664 49.3492C33.8567 45.13 34.647 41.5634 35.4372 38.6492C36.1837 35.6915 37.4129 33.4951 39.1254 32.0597C40.8816 30.6243 42.9887 29.9067 45.4477 29.9067C49.6185 29.9067 51.7042 31.8857 51.7042 35.8438C51.7042 36.8007 51.6161 37.7358 51.441 38.6492ZM109.69 24.1653C106.748 22.1645 102.841 21.1641 97.967 21.1641H80.4489C80.01 21.1641 79.5929 21.3163 79.1978 21.6209C78.8027 21.9253 78.5613 22.3168 78.4732 22.7952L69.385 65.2032C69.2974 65.6381 69.3631 66.0296 69.5825 66.3775C69.8458 66.6818 70.219 66.8341 70.7018 66.8341H79.6586C80.0976 66.8341 80.5146 66.6818 80.9097 66.3775C81.3049 66.0731 81.5468 65.6815 81.6343 65.2032L84.6641 50.9149H93.5548C99.3062 50.9149 103.828 49.7188 107.121 47.3265C110.458 44.9344 112.675 41.2372 113.773 36.2353C114.036 35.0609 114.168 33.93 114.168 32.8427C114.168 29.0586 112.675 26.1661 109.69 24.1653ZM101.589 36.1048C101.151 37.9751 100.228 39.4103 98.8235 40.4108C97.4619 41.4112 95.8594 41.9114 94.0156 41.9114H86.4422L88.9445 30.2329H96.8478C98.6473 30.2329 99.9208 30.5809 100.667 31.2768C101.413 31.9292 101.787 32.8861 101.787 34.1475C101.787 34.713 101.721 35.3654 101.589 36.1048ZM161.936 21.6209C162.111 21.8818 162.199 22.1429 162.199 22.4038C162.199 22.5342 162.177 22.6647 162.133 22.7952L160.618 29.7762C160.53 30.2547 160.289 30.6461 159.894 30.9506C159.543 31.2551 159.125 31.4073 158.643 31.4073H146.986L139.675 65.2032C139.588 65.6815 139.346 66.0731 138.951 66.3775C138.556 66.6818 138.139 66.8341 137.7 66.8341H129.006C128.524 66.8341 128.15 66.6818 127.887 66.3775C127.624 66.0296 127.536 65.6381 127.624 65.2032L134.934 31.4073H123.211C122.728 31.4073 122.355 31.2551 122.092 30.9506C121.872 30.6027 121.806 30.2112 121.894 29.7762L123.409 22.7952C123.496 22.3168 123.738 21.9253 124.133 21.6209C124.529 21.3163 124.946 21.1641 125.384 21.1641H160.816C161.299 21.1641 161.672 21.3163 161.936 21.6209ZM183.636 21.6209C183.812 21.8818 183.9 22.1429 183.9 22.4038C183.9 22.5342 183.877 22.6647 183.834 22.7952L174.745 65.2032C174.657 65.6815 174.416 66.0731 174.021 66.3775C173.626 66.6818 173.209 66.8341 172.77 66.8341H163.879C163.396 66.8341 163.022 66.6818 162.759 66.3775C162.496 66.0296 162.408 65.6381 162.496 65.2032L171.65 22.7952C171.738 22.3168 171.979 21.9253 172.374 21.6209C172.77 21.3163 173.187 21.1641 173.626 21.1641H182.516C183 21.1641 183.373 21.3163 183.636 21.6209ZM241.84 21.6209C242.015 21.8818 242.103 22.1429 242.103 22.4038C242.103 22.5342 242.081 22.6647 242.037 22.7952L232.948 65.2032C232.861 65.6815 232.619 66.0731 232.224 66.3775C231.829 66.6818 231.412 66.8341 230.973 66.8341H223.004C222.521 66.8341 222.148 66.6818 221.884 66.3775C221.665 66.0296 221.599 65.6381 221.687 65.2032L226.824 41.1285L216.748 54.3727C216.309 54.8512 215.892 55.2211 215.496 55.482C215.101 55.7429 214.64 55.8733 214.113 55.8733H210.689C209.766 55.8733 209.13 55.3733 208.779 54.3727L204.103 40.5413L198.834 65.2032C198.746 65.6815 198.505 66.0731 198.11 66.3775C197.715 66.6818 197.298 66.8341 196.859 66.8341H188.956C188.473 66.8341 188.099 66.6818 187.836 66.3775C187.573 66.0731 187.485 65.6815 187.573 65.2032L196.661 22.7952C196.749 22.3168 196.991 21.9253 197.386 21.6209C197.781 21.3163 198.22 21.1641 198.702 21.1641H205.815C206.869 21.1641 207.549 21.6425 207.857 22.5995L215.036 43.151L231.038 22.5995C231.258 22.2515 231.566 21.9253 231.96 21.6209C232.399 21.3163 232.926 21.1641 233.542 21.1641H240.719C241.201 21.1641 241.575 21.3163 241.84 21.6209ZM266.843 21.6209C267.021 21.8818 267.108 22.1429 267.108 22.4038C267.108 22.5342 267.085 22.6647 267.042 22.7952L257.953 65.2032C257.865 65.6815 257.623 66.0731 257.229 66.3775C256.834 66.6818 256.417 66.8341 255.977 66.8341H247.086C246.604 66.8341 246.23 66.6818 245.967 66.3775C245.705 66.0296 245.615 65.6381 245.705 65.2032L254.858 22.7952C254.946 22.3168 255.187 21.9253 255.582 21.6209C255.977 21.3163 256.394 21.1641 256.834 21.1641H265.725C266.207 21.1641 266.581 21.3163 266.843 21.6209ZM311.019 26.7751C312.469 28.5583 313.193 30.3416 313.193 32.125C313.193 32.6469 313.171 33.0167 313.127 33.234C313.039 33.6255 312.842 33.9517 312.535 34.2128C312.271 34.4737 311.942 34.6041 311.547 34.6041H302.721C301.757 34.6041 301.097 34.2345 300.747 33.4951C300.702 32.4947 300.174 31.6466 299.164 30.9506C298.157 30.2547 296.839 29.9067 295.214 29.9067C293.282 29.9067 291.68 30.2547 290.405 30.9506C289.178 31.6466 288.409 32.6687 288.102 34.017C288.057 34.2345 288.036 34.5172 288.036 34.8652C288.036 35.9091 288.651 36.779 289.88 37.4749C291.153 38.1273 293.37 38.8015 296.532 39.4974C301.449 40.4544 305.026 41.8244 307.265 43.6078C309.548 45.3911 310.69 47.7615 310.69 50.7192C310.69 51.7195 310.558 52.8069 310.295 53.9813C309.33 58.4179 306.982 61.7887 303.249 64.0939C299.559 66.3558 294.621 67.4866 288.431 67.4866C284.566 67.4866 281.252 66.9648 278.487 65.9209C275.764 64.8769 273.7 63.485 272.295 61.7452C270.935 60.0054 270.253 58.0698 270.253 55.9386C270.253 55.5907 270.298 55.0688 270.386 54.3727C270.473 53.9813 270.648 53.6551 270.913 53.3942C271.221 53.1331 271.571 53.0027 271.966 53.0027H280.396C280.923 53.0027 281.318 53.0896 281.581 53.2637C281.888 53.4377 282.196 53.7421 282.503 54.1772C282.811 55.308 283.513 56.2432 284.611 56.9826C285.753 57.7218 287.312 58.0916 289.287 58.0916C291.789 58.0916 293.809 57.7002 295.347 56.9172C296.882 56.1342 297.804 55.0688 298.112 53.7204C298.157 53.5464 298.178 53.2855 298.178 52.9374C298.178 51.8501 297.497 51.0018 296.137 50.3928C294.774 49.7406 292.272 48.9793 288.627 48.1094C284.369 47.196 281.143 45.826 278.948 43.9992C276.751 42.1289 275.653 39.6931 275.653 36.6919C275.653 35.648 275.786 34.5825 276.048 33.4951C276.928 29.45 279.1 26.2749 282.569 23.9696C286.082 21.6643 290.605 20.5117 296.137 20.5117C299.472 20.5117 302.435 21.099 305.028 22.2733C307.618 23.4476 309.614 24.9482 311.019 26.7751ZM372.576 22.4038C372.576 22.5342 372.552 22.6647 372.509 22.7952L363.419 65.2032C363.332 65.6815 363.091 66.0731 362.696 66.3775C362.301 66.6818 361.884 66.8341 361.444 66.8341H353.476C352.993 66.8341 352.62 66.6818 352.357 66.3775C352.137 66.0296 352.071 65.6381 352.158 65.2032L357.296 41.1285L347.22 54.3727C346.78 54.8512 346.363 55.2211 345.968 55.482C345.573 55.7429 345.112 55.8733 344.585 55.8733H341.16C340.237 55.8733 339.601 55.3733 339.251 54.3727L334.575 40.5413L329.305 65.2032C329.218 65.6815 328.977 66.0731 328.581 66.3775C328.186 66.6818 327.77 66.8341 327.33 66.8341H319.427C318.945 66.8341 318.571 66.6818 318.309 66.3775C318.044 66.0731 317.956 65.6815 318.044 65.2032L327.134 22.7952C327.221 22.3168 327.462 21.9253 327.857 21.6209C328.252 21.3163 328.692 21.1641 329.175 21.1641H336.287C337.34 21.1641 338.021 21.6425 338.329 22.5995L345.507 43.151L361.511 22.5995C361.73 22.2515 362.038 21.9253 362.433 21.6209C362.871 21.3163 363.398 21.1641 364.013 21.1641H371.192C371.674 21.1641 372.048 21.3163 372.311 21.6209C372.486 21.8818 372.576 22.1429 372.576 22.4038Z" fill="#ffffff" style="fill:#ffffff;fill-opacity:1;"/>
</svg>
