<svg width="153" height="70" viewBox="0 0 153 70" fill="none" xmlns="http://www.w3.org/2000/svg">
<g clip-path="url(#clip0_532_390)">
<path d="M41 10.1484H0V15.1484H41V10.1484Z" fill="#000000"/>
<path d="M41 32.5469H0V37.5469H41V32.5469Z" fill="#000000"/>
<path d="M11.2 17.6484H0V22.6484H11.2V17.6484Z" fill="#000000"/>
<path d="M41.0008 17.6484H29.8008V22.6484H41.0008V17.6484Z" fill="#000000"/>
<path d="M41.0008 25.0469H29.8008V30.0469H41.0008V25.0469Z" fill="#000000"/>
<path d="M11.2 25.0469H0V30.0469H11.2V25.0469Z" fill="#000000"/>
<path d="M11.2 39.9492H0V44.9492H11.2V39.9492Z" fill="#000000"/>
<path d="M11.2 47.4492H0V52.4492H11.2V47.4492Z" fill="#000000"/>
<path d="M11.2 54.8477H0V59.8477H11.2V54.8477Z" fill="#000000"/>
<path d="M67.0984 17.6484H55.8984V22.6484H67.0984V17.6484Z" fill="#000000"/>
<path d="M67.0984 10.1484H55.8984V15.1484H67.0984V10.1484Z" fill="#000000"/>
<path d="M67.0984 25.0469H55.8984V30.0469H67.0984V25.0469Z" fill="#000000"/>
<path d="M67.0984 32.5469H55.8984V37.5469H67.0984V32.5469Z" fill="#000000"/>
<path d="M67.0984 39.9492H55.8984V44.9492H67.0984V39.9492Z" fill="#000000"/>
<path d="M67.0984 47.4492H55.8984V52.4492H67.0984V47.4492Z" fill="#000000"/>
<path d="M127.301 17.6484H111.801V22.6484H127.301V17.6484Z" fill="#000000"/>
<path d="M152.801 47.4492H137.301V52.4492H152.801V47.4492Z" fill="#000000"/>
<path d="M123.001 10.1484H111.801V15.1484H123.001V10.1484Z" fill="#000000"/>
<path d="M152.899 54.8477H141.699V59.8477H152.899V54.8477Z" fill="#000000"/>
<path d="M123.001 54.8477H111.801V59.8477H123.001V54.8477Z" fill="#000000"/>
<path d="M123.001 25.0469H111.801V30.0469H123.001V25.0469Z" fill="#000000"/>
<path d="M132.902 25.0469H126.102V30.0469H132.902V25.0469Z" fill="#000000"/>
<path d="M123.001 32.5469H111.801V37.5469H123.001V32.5469Z" fill="#000000"/>
<path d="M135.999 32.5469H129.199V37.5469H135.999V32.5469Z" fill="#000000"/>
<path d="M123.001 39.9492H111.801V44.9492H123.001V39.9492Z" fill="#000000"/>
<path d="M139.101 39.9492H132.301V44.9492H139.101V39.9492Z" fill="#000000"/>
<path d="M123.001 47.4492H111.801V52.4492H123.001V47.4492Z" fill="#000000"/>
<path d="M152.899 17.6484H141.699V22.6484H152.899V17.6484Z" fill="#000000"/>
<path d="M152.899 10.1484H141.699V15.1484H152.899V10.1484Z" fill="#000000"/>
<path d="M152.899 25.0469H141.699V30.0469H152.899V25.0469Z" fill="#000000"/>
<path d="M152.899 32.5469H141.699V37.5469H152.899V32.5469Z" fill="#000000"/>
<path d="M152.899 39.9492H141.699V44.9492H152.899V39.9492Z" fill="#000000"/>
<path d="M96.8992 17.6484H85.6992V22.6484H96.8992V17.6484Z" fill="#000000"/>
<path d="M96.8992 10.1484H85.6992V15.1484H96.8992V10.1484Z" fill="#000000"/>
<path d="M96.8992 25.0469H85.6992V30.0469H96.8992V25.0469Z" fill="#000000"/>
<path d="M96.8992 32.5469H85.6992V37.5469H96.8992V32.5469Z" fill="#000000"/>
<path d="M96.8992 39.9492H85.6992V44.9492H96.8992V39.9492Z" fill="#000000"/>
<path d="M96.8992 47.4492H85.6992V52.4492H96.8992V47.4492Z" fill="#000000"/>
<path d="M72.7 54.8477H61.5V59.8477H72.7V54.8477Z" fill="#000000"/>
<path d="M82.0008 47.4492H70.8008V52.4492H82.0008V47.4492Z" fill="#000000"/>
<path d="M82.0008 39.9492H70.8008V44.9492H82.0008V39.9492Z" fill="#000000"/>
<path d="M91.3992 54.8477H80.1992V59.8477H91.3992V54.8477Z" fill="#000000"/>
</g>
<defs>
<clipPath id="clip0_532_390">
<rect width="152.9" height="49.7" fill="white" style="fill:white;fill-opacity:1;" transform="translate(0 10.1484)"/>
</clipPath>
</defs>
</svg>
