<svg width="126" height="48" viewBox="0 0 126 48" fill="none" xmlns="http://www.w3.org/2000/svg">
<path d="M62.3801 22.995C61.232 22.5197 59.8296 22.1235 58.1732 21.8057H58.138C56.5287 21.5132 55.3214 21.2447 54.5167 21.0002C53.7121 20.7571 53.0792 20.4276 52.6174 20.0126C52.1556 19.5982 51.9254 19.0249 51.9254 18.2928C51.9254 17.2195 52.3161 16.4024 53.0968 15.8415C53.8782 15.2806 54.9074 14.9997 56.1851 14.9997C57.5818 14.9997 58.711 15.3655 59.5755 16.0976C60.3513 16.7551 60.8265 17.5903 61.001 18.6019C61.0355 18.8036 61.201 18.9524 61.3995 18.9546L65.3277 18.985C65.5685 18.9872 65.7613 18.7739 65.7374 18.5264C65.6058 17.1731 65.1728 15.9424 64.4393 14.835C63.6227 13.6036 62.4984 12.6457 61.0665 11.9621C59.6346 11.2793 58.0077 10.9375 56.1851 10.9375C54.4576 10.9375 52.9018 11.267 51.5171 11.9258C50.133 12.5847 49.056 13.4991 48.2865 14.6703C47.5171 15.8415 47.1327 17.1586 47.1327 18.6222C47.1327 20.2324 47.4755 21.5256 48.1619 22.5008C48.8483 23.4768 49.7473 24.2148 50.8595 24.7148C51.9718 25.2148 53.3087 25.611 54.8708 25.9042L55.0482 25.9405C56.704 26.2576 57.9416 26.5384 58.7582 26.7822C59.5748 27.0268 60.2189 27.3678 60.6927 27.8068C61.1658 28.2459 61.4023 28.8438 61.4023 29.5999C61.4023 30.6739 60.9764 31.5149 60.1246 32.1245C59.2728 32.7348 58.1718 33.0396 56.8229 33.0396C55.2129 33.0396 53.912 32.6187 52.918 31.7769C52.0134 31.0113 51.4812 30.0281 51.3214 28.8278C51.2939 28.6203 51.1264 28.4628 50.9236 28.4599L47.0003 28.399C46.7617 28.3953 46.5688 28.6029 46.5871 28.8482C46.6983 30.3241 47.1461 31.6543 47.9303 32.8385C48.7941 34.144 49.9831 35.1686 51.4981 35.9124C53.0123 36.6569 54.7518 37.0285 56.7166 37.0285C58.5385 37.0285 60.1718 36.6874 61.6156 36.0039C63.0588 35.321 64.1894 34.3755 65.006 33.168C65.8226 31.9605 66.2309 30.6006 66.2309 29.0876C66.2309 27.4774 65.8754 26.1785 65.1658 25.1901C64.4562 24.2025 63.5276 23.471 62.3801 22.995Z" fill="#333333" style="fill:#333333;fill:color(display-p3 0.2000 0.2000 0.2000);fill-opacity:1;"/>
<path d="M86.5041 32.8555H85.8909C85.5361 32.8555 85.2573 32.7583 85.0567 32.5623C84.8553 32.3679 84.7547 32.05 84.7547 31.611V24.6215C84.7547 22.4017 84.0683 20.7124 82.6962 19.5535C81.3235 18.3954 79.7071 17.8047 77.1749 17.8047C74.7842 17.8047 72.9166 18.3402 71.4495 19.3888C70.1119 20.3452 69.3059 21.655 69.0299 23.3204C68.987 23.5794 69.1771 23.8167 69.4312 23.8167H73.0391C73.22 23.8167 73.3819 23.6941 73.4298 23.5141C73.5945 22.8981 73.9578 22.3952 74.5195 22.0055C75.17 21.5541 75.943 21.3285 76.9609 21.3285C78.8807 21.3285 80.2457 22.5483 80.2457 24.3653V24.9335C80.2457 25.1657 80.0634 25.3537 79.8381 25.3537H76.5702C73.9198 25.3537 71.9078 25.8907 70.5357 26.9639C69.163 28.0379 68.4766 29.5625 68.4766 31.5377C68.4766 33.2459 69.1038 34.5877 70.3583 35.5629C71.2995 36.2944 72.4245 36.7167 73.5825 36.9018C74.4674 37.0433 75.3763 37.0948 76.2633 36.9482C77.1925 36.7951 77.9472 36.4003 78.7026 35.8372C79.3812 35.3322 79.9472 34.6849 80.4639 33.8954C80.7159 33.4491 81.377 33.6283 81.377 34.1443V34.7647C81.3763 35.8924 82.2626 36.8067 83.3566 36.8067H86.5041C86.7293 36.8067 86.9117 36.6188 86.9117 36.3866V33.2749C86.9117 33.0427 86.7293 32.8555 86.5041 32.8555ZM80.2464 29.0865C80.2464 29.9892 80.0627 30.7758 79.6959 31.4463C78.9271 32.8526 77.5516 33.587 76.0035 33.587C75.1038 33.587 74.3823 33.3678 73.8381 32.9288C73.2932 32.4898 73.0215 31.9042 73.0215 31.172C73.0215 30.3433 73.3235 29.7025 73.9268 29.2512C74.5301 28.8005 75.3875 28.5741 76.5005 28.5741H79.8388C80.0641 28.5741 80.2464 28.7621 80.2464 28.9943V29.0865Z" fill="#333333" style="fill:#333333;fill:color(display-p3 0.2000 0.2000 0.2000);fill-opacity:1;"/>
<path d="M99.6556 11.2031H94.9608C92.4842 11.2031 90.4764 13.2726 90.4764 15.8255V17.8566C90.4764 18.0888 90.2941 18.2768 90.0688 18.2768H87.3881C87.1628 18.2768 86.9805 18.4647 86.9805 18.6969V21.8448C86.9805 22.077 87.1628 22.265 87.3881 22.265H90.0688C90.2941 22.265 90.4764 22.4529 90.4764 22.6851V36.387C90.4764 36.6192 90.6588 36.8071 90.884 36.8071H94.5419C94.7672 36.8071 94.9495 36.6192 94.9495 36.387V22.6851C94.9495 22.4529 95.1318 22.265 95.3571 22.265H99.6197C99.845 22.265 100.027 22.077 100.027 21.8448V18.6969C100.027 18.4647 99.845 18.2768 99.6197 18.2768H95.3571C95.1318 18.2768 94.9495 18.0888 94.9495 17.8566V16.0316C94.9495 15.5672 95.3149 15.1913 95.7647 15.1913H99.6549C99.8802 15.1913 100.062 15.0033 100.062 14.7711V11.6232C100.062 11.391 99.8809 11.2031 99.6556 11.2031Z" fill="#333333" style="fill:#333333;fill:color(display-p3 0.2000 0.2000 0.2000);fill-opacity:1;"/>
<path d="M117.577 22.0599C116.785 20.6942 115.701 19.6449 114.329 18.9128C112.957 18.1813 111.37 17.8047 109.573 17.8047C107.775 17.8047 106.223 18.2118 104.851 19.0042C103.478 19.7973 102.413 20.9192 101.656 22.3705C100.899 23.8226 100.52 25.5235 100.52 27.4755C100.52 29.4275 100.911 31.0559 101.691 32.5072C102.473 33.9585 103.591 35.0746 105.046 35.8554C106.501 36.6362 108.211 37.0266 110.176 37.0266C111.69 37.0266 113.045 36.74 114.241 36.1667C115.435 35.5942 116.4 34.8068 117.133 33.8069C117.761 32.9506 118.19 32.013 118.419 30.9949C118.479 30.7308 118.286 30.4768 118.022 30.4768H114.348C114.172 30.4768 114.017 30.5944 113.961 30.7664C113.702 31.5552 113.245 32.1785 112.59 32.6357C111.856 33.148 110.945 33.4041 109.856 33.4041C108.957 33.4041 108.17 33.2089 107.496 32.8185C106.821 32.4288 106.289 31.8795 105.898 31.172C105.744 30.8926 105.618 30.5973 105.518 30.2932C105.41 29.9667 105.332 29.63 105.279 29.2889C105.261 29.1699 105.244 29.0495 105.23 28.929C105.202 28.6808 105.393 28.4639 105.635 28.4639H118.307C118.513 28.4639 118.689 28.3071 118.712 28.0959C118.73 27.9414 118.742 27.7839 118.748 27.6221C118.76 27.3297 118.766 27.0612 118.766 26.8173C118.766 25.0126 118.369 23.4263 117.577 22.0599ZM113.77 25.2797H105.833C105.573 25.2797 105.376 25.0308 105.434 24.7688C105.561 24.1948 105.78 23.6767 106.093 23.2123C106.495 22.6151 107.016 22.1572 107.655 21.8401C108.294 21.5229 108.992 21.364 109.749 21.364C110.98 21.364 111.998 21.7058 112.802 22.3887C113.493 22.975 113.948 23.7674 114.168 24.7666C114.226 25.0293 114.031 25.2797 113.77 25.2797Z" fill="#333333" style="fill:#333333;fill:color(display-p3 0.2000 0.2000 0.2000);fill-opacity:1;"/>
<path d="M37.4592 24H33.9801C32.941 24 32.0991 24.8679 32.0991 25.9389V31.1441C32.0991 32.2151 31.2571 33.083 30.2181 33.083H16.3772C15.3381 33.083 14.4961 33.9509 14.4961 35.022V38.6082C14.4961 39.6792 15.3381 40.5471 16.3772 40.5471H31.0192C32.0583 40.5471 32.8882 39.6792 32.8882 38.6082V35.7309C32.8882 34.6599 33.7302 33.9001 34.7693 33.9001H37.4585C38.4975 33.9001 39.3395 33.0322 39.3395 31.9611V25.9164C39.3395 24.8454 38.4982 24 37.4592 24Z" fill="#333333" style="fill:#333333;fill:color(display-p3 0.2000 0.2000 0.2000);fill-opacity:1;"/>
<path d="M14.495 16.8718C14.495 15.8007 15.337 14.9328 16.3761 14.9328H30.2085C31.2476 14.9328 32.0895 14.0649 32.0895 12.9939V9.4077C32.0895 8.33663 31.2476 7.46875 30.2085 7.46875H15.5742C14.5352 7.46875 13.6932 8.33663 13.6932 9.4077V12.171C13.6932 13.242 12.8513 14.1099 11.8122 14.1099H9.13493C8.09586 14.1099 7.25391 14.9778 7.25391 16.0489V22.1001C7.25391 23.1712 8.09938 23.9955 9.13846 23.9955H12.6175C13.6566 23.9955 14.4986 23.1277 14.4986 22.0566L14.495 16.8718Z" fill="#333333" style="fill:#333333;fill:color(display-p3 0.2000 0.2000 0.2000);fill-opacity:1;"/>
<path d="M21.66 20.2266H25.0018C26.0909 20.2266 26.9744 21.138 26.9744 22.2599V25.7046C26.9744 26.8271 26.0902 27.7378 25.0018 27.7378H21.66C20.571 27.7378 19.6875 26.8264 19.6875 25.7046V22.2599C19.6875 21.1373 20.5717 20.2266 21.66 20.2266Z" fill="#333333" style="fill:#333333;fill:color(display-p3 0.2000 0.2000 0.2000);fill-opacity:1;"/>
</svg>
