<svg width="137" height="52" viewBox="0 0 137 52" fill="none" xmlns="http://www.w3.org/2000/svg">
<g clip-path="url(#clip0_538_454)">
<path d="M52.0784 17.698C49.5379 17.698 47.5517 19.1579 47.5517 21.2566C47.5517 23.3552 49.2146 24.0396 51.2931 24.4502L53.926 24.8608C57.3902 25.4082 59.7921 27.005 59.7921 30.7461C59.7921 34.6696 56.5588 36.9508 52.4017 36.9508C48.6603 36.9508 45.1498 34.7609 44.6418 30.518C44.5956 30.153 44.8727 29.8336 45.2422 29.8336H46.8127C47.0898 29.8336 47.367 30.0617 47.4132 30.3355C47.7365 33.3466 50.0922 34.5328 52.4017 34.5328C54.9422 34.5328 56.9283 33.301 56.9283 30.7917C56.9283 28.5562 55.3117 27.7806 53.1869 27.37L50.6003 26.9138C46.9975 26.3207 44.7341 24.587 44.7341 21.3478C44.7341 17.5611 48.0598 15.2344 52.0784 15.2344C55.2655 15.2344 58.8221 17.0137 59.515 21.2566C59.5612 21.6216 59.284 21.9409 58.9145 21.9409H57.2517C56.9745 21.9409 56.6974 21.7128 56.6512 21.4391C56.1893 18.7473 54.1107 17.698 52.0784 17.698Z" fill="#ffffff" style="fill:#ffffff;fill:color(display-p3 1 1 1);fill-opacity:1;"/>
<path d="M70.1405 20.0234C74.0205 20.0234 76.7457 22.0765 77.7157 25.4069C77.8081 25.7719 77.5309 26.1825 77.1152 26.1825H75.3138C75.0367 26.1825 74.8519 26 74.7595 25.7719C74.0667 23.8557 72.5424 22.8064 70.1405 22.8064C66.9072 22.8064 65.1058 25.4069 65.1058 28.5549C65.1058 31.6572 66.9072 34.3033 70.1405 34.3033C72.4962 34.3033 74.0667 33.2084 74.7595 31.3379C74.8519 31.1098 75.0829 30.9273 75.3138 30.9273H77.1152C77.5309 30.9273 77.8081 31.2922 77.6695 31.7028C76.6533 35.1702 73.9743 37.0863 70.0943 37.0863C65.1058 37.0863 61.9648 33.2996 61.9648 28.6005C62.011 23.8557 65.1982 20.0234 70.1405 20.0234Z" fill="#ffffff" style="fill:#ffffff;fill:color(display-p3 1 1 1);fill-opacity:1;"/>
<path d="M80.6708 34.2559H84.5508V23.5802H81.0865C80.7632 23.5802 80.486 23.3064 80.486 22.9871V21.4815C80.486 21.1622 80.7632 20.8884 81.0865 20.8884H85.7979C86.7679 20.8884 87.5993 21.7096 87.5993 22.6677V23.0783C88.4769 21.0253 90.3245 20.5234 93.1883 20.5234C94.2969 20.5234 95.0359 20.7059 95.4516 20.8428C95.6826 20.934 95.8212 21.1622 95.8212 21.3903V22.9871C95.8212 23.3977 95.4516 23.6714 95.0359 23.5345C94.5278 23.352 93.7888 23.2152 92.865 23.2152C89.8164 23.2152 87.6455 25.2682 87.6455 28.8724V34.2559H92.634C92.9574 34.2559 93.2345 34.5296 93.2345 34.849V36.3545C93.2345 36.6739 92.9574 36.9476 92.634 36.9476H80.6708C80.3475 36.9476 80.0703 36.6739 80.0703 36.3545V34.849C80.0703 34.5296 80.3475 34.2559 80.6708 34.2559Z" fill="#ffffff" style="fill:#ffffff;fill:color(display-p3 1 1 1);fill-opacity:1;"/>
<path d="M98.1289 28.5093C98.1289 23.8557 101.27 20.0234 106.351 20.0234C111.432 20.0234 114.573 23.8101 114.573 28.5093C114.573 33.1628 111.432 36.9951 106.351 36.9951C101.224 36.9495 98.1289 33.1628 98.1289 28.5093ZM106.305 34.2121C109.584 34.2121 111.432 31.6116 111.432 28.4636C111.432 25.3613 109.538 22.7152 106.305 22.7152C103.025 22.7152 101.177 25.3157 101.177 28.4636C101.177 31.6116 103.071 34.2121 106.305 34.2121Z" fill="#ffffff" style="fill:#ffffff;fill:color(display-p3 1 1 1);fill-opacity:1;"/>
<path d="M121.319 34.3944H126.031C126.354 34.3944 126.631 34.6681 126.631 34.9874V36.4018C126.631 36.7211 126.354 36.9948 126.031 36.9948H119.01C118.686 36.9948 118.409 36.7211 118.409 36.4018V18.0614H116.054C115.73 18.0614 115.453 17.7877 115.453 17.4683V16.054C115.453 15.7347 115.73 15.4609 116.054 15.4609H119.518C120.488 15.4609 121.319 16.2821 121.319 17.2402V34.3944Z" fill="#ffffff" style="fill:#ffffff;fill:color(display-p3 1 1 1);fill-opacity:1;"/>
<path d="M131.71 34.3944H136.421C136.745 34.3944 137.022 34.6681 137.022 34.9874V36.4018C137.022 36.7211 136.745 36.9948 136.421 36.9948H129.4C129.077 36.9948 128.8 36.7211 128.8 36.4018V18.0614H126.444C126.121 18.0614 125.844 17.7877 125.844 17.4683V16.054C125.844 15.7347 126.121 15.4609 126.444 15.4609H129.908C130.878 15.4609 131.71 16.2821 131.71 17.2402V34.3944Z" fill="#ffffff" style="fill:#ffffff;fill:color(display-p3 1 1 1);fill-opacity:1;"/>
<path d="M4.73415 21.7565C3.25606 20.3878 2.23988 18.6085 2.23988 16.5099V16.2817C2.37845 12.7232 5.33462 9.80332 8.93745 9.71207H31.9863C32.5868 9.7577 33.0487 10.1683 33.0487 10.7614V30.0598C33.5568 30.151 33.8339 30.2423 34.342 30.3792C34.7577 30.516 35.312 30.8354 35.312 30.8354V10.7614C35.2658 8.93649 33.7878 7.47656 31.9401 7.47656H8.93745C3.94892 7.56781 -0.0234375 11.5826 -0.0234375 16.5099C-0.0234375 19.3841 1.31608 21.8477 3.44082 23.5357C3.57939 23.6726 3.71797 23.8095 4.13368 23.8095C4.82653 23.8095 5.28843 23.262 5.24224 22.7145C5.24224 22.2127 5.05748 22.0302 4.73415 21.7565Z" fill="#ffffff" style="fill:#ffffff;fill:color(display-p3 1 1 1);fill-opacity:1;"/>
<path d="M31.3846 31.3388H13.3243C12.1234 31.3388 11.1534 32.2969 11.1534 33.5287V36.0836C11.1996 37.2698 12.2157 38.2735 13.4167 38.2735H14.7562V36.0836H13.4167V33.5743C13.4167 33.5743 13.74 33.5743 14.1557 33.5743C16.419 33.5743 18.1281 35.673 18.1281 37.9085C18.1281 39.9159 16.2805 42.4251 13.2319 42.2426C10.5067 42.0602 9.02861 39.6878 9.02861 37.9085V16.1465C9.02861 15.1884 8.19719 14.3672 7.2272 14.3672H5.42578V16.6027H6.7653V37.9541C6.67292 42.2883 9.90623 44.4782 13.2319 44.4782L31.4308 44.5238C35.0799 44.5238 38.0822 41.6039 38.0822 37.9541C38.036 34.3043 35.0799 31.3388 31.3846 31.3388ZM35.7727 38.0454C35.6803 40.3721 33.7403 42.2426 31.3846 42.2426L18.7285 42.197C19.7447 41.0565 20.3452 39.5509 20.3452 37.9085C20.3452 35.3536 18.8209 33.5743 18.8209 33.5743H31.4308C33.8327 33.5743 35.8189 35.5361 35.8189 37.9085L35.7727 38.0454Z" fill="#ffffff" style="fill:#ffffff;fill:color(display-p3 1 1 1);fill-opacity:1;"/>
<path d="M26.5363 16.9633H12.9102V14.7734H26.5363C27.1367 14.7734 27.6448 15.2753 27.6448 15.8684C27.6448 16.4615 27.1829 16.9633 26.5363 16.9633Z" fill="#ffffff" style="fill:#ffffff;fill:color(display-p3 1 1 1);fill-opacity:1;"/>
<path d="M26.5363 27.4621H12.9102V25.2266H26.5363C27.1367 25.2266 27.6448 25.7284 27.6448 26.3215C27.6448 26.9602 27.1829 27.4621 26.5363 27.4621Z" fill="#ffffff" style="fill:#ffffff;fill:color(display-p3 1 1 1);fill-opacity:1;"/>
<path d="M28.9381 22.2121H12.9102V19.9766H28.9381C29.5386 19.9766 30.0467 20.4784 30.0467 21.0715C30.0467 21.7102 29.5386 22.2121 28.9381 22.2121Z" fill="#ffffff" style="fill:#ffffff;fill:color(display-p3 1 1 1);fill-opacity:1;"/>
</g>
<defs>
<clipPath id="clip0_538_454">
<rect width="137" height="52" fill="white" style="fill:white;fill-opacity:1;"/>
</clipPath>
</defs>
</svg>
