<svg width="449" height="104" viewBox="0 0 449 104" fill="none" xmlns="http://www.w3.org/2000/svg">
<g clip-path="url(#clip0_538_392)">
<path d="M125.656 66.6641H143.865V69.5142H128.775V78.1172H143.079V80.9279H128.775V93.0985H125.676V66.6706H125.663L125.656 66.6641Z" fill="#333333" style="fill:#333333;fill-opacity:1;"/>
<path d="M161.283 66.2757C163.219 66.2428 165.043 66.5719 166.727 67.2564C168.425 67.941 169.859 68.8757 171.055 70.0671C172.264 71.2716 173.189 72.7131 173.856 74.4048C174.543 76.0964 174.854 77.9263 174.841 79.8747C174.874 81.823 174.543 83.6463 173.856 85.3445C173.182 87.0362 172.257 88.4975 171.055 89.6823C169.859 90.8737 168.412 91.8083 166.727 92.4732C165.043 93.1577 163.226 93.4802 161.283 93.4539C159.347 93.4868 157.524 93.1577 155.839 92.4732C154.154 91.7886 152.707 90.8671 151.498 89.6823C150.302 88.4777 149.364 87.0362 148.697 85.3445C148.029 83.6529 147.699 81.823 147.712 79.8747C147.679 77.2747 148.234 74.9248 149.41 72.8448C150.573 70.7648 152.198 69.1324 154.286 67.9739C156.374 66.8154 158.7 66.2493 161.296 66.2823H161.283V66.2757ZM161.283 90.5248C164.296 90.5248 166.774 89.5309 168.696 87.5562C170.619 85.5683 171.59 83.0078 171.59 79.8878C171.59 76.7678 170.619 74.2139 168.696 72.2392C166.774 70.2514 164.296 69.2509 161.283 69.2509C158.27 69.2509 155.779 70.2448 153.857 72.2392C151.934 74.2337 150.963 76.7876 150.963 79.8878C150.963 82.9881 151.934 85.5486 153.857 87.5364C155.779 89.5243 158.27 90.5248 161.283 90.5248Z" fill="#333333" style="fill:#333333;fill-opacity:1;"/>
<path d="M180.284 66.6641H183.383V83.4686C183.383 85.7724 184.011 87.5365 185.259 88.7608C186.528 89.9785 188.272 90.5906 190.492 90.5906C192.712 90.5906 194.575 89.9653 195.804 88.7213C197.013 87.4575 197.621 85.7066 197.621 83.4752V66.6706H200.72V83.7385C200.72 86.7861 199.795 89.1623 197.932 90.8671C196.095 92.5917 193.604 93.4539 190.472 93.4539C187.341 93.4539 184.777 92.5785 182.973 90.8408C181.17 89.0899 180.258 86.7137 180.258 83.7385V66.6706H180.271L180.284 66.6641Z" fill="#333333" style="fill:#333333;fill-opacity:1;"/>
<path d="M228.827 66.6641V93.0919H225.457L210.572 71.4296V93.0919H207.453V66.6641H210.81L225.695 88.221V66.6641H228.827Z" fill="#333333" style="fill:#333333;fill-opacity:1;"/>
<path d="M235.789 66.6667H244.662C248.897 66.6667 252.221 67.8713 254.626 70.2607C257.044 72.65 258.233 75.849 258.233 79.8708C258.233 83.8926 257.011 87.2824 254.579 89.5994C252.135 91.9295 248.825 93.088 244.662 93.088H235.789V66.6602V66.6667ZM245.224 90.2116C248.177 90.2116 250.536 89.2769 252.293 87.4009C254.071 85.5118 254.963 83.0171 254.963 79.9103C254.963 76.8035 254.071 74.2495 252.28 72.3604C250.49 70.4581 248.138 69.5103 245.224 69.5103H238.901V90.205H245.224V90.2116Z" fill="#333333" style="fill:#333333;fill-opacity:1;"/>
<path d="M279.127 86.5306H266.316L263.799 93.0997H260.383L270.855 66.6719H274.555L285.126 93.0997H281.651L279.134 86.5306H279.127ZM278.156 83.9898L272.698 69.7261L267.254 83.9898H278.156Z" fill="#333333" style="fill:#333333;fill-opacity:1;"/>
<path d="M304.699 69.385H296.051V93.1141H292.919V69.385H284.211V66.6797H304.699V69.385Z" fill="#333333" style="fill:#333333;fill-opacity:1;"/>
<path d="M308.938 93.0919V66.6641H312.056V93.0919H308.938Z" fill="#333333" style="fill:#333333;fill-opacity:1;"/>
<path d="M331.308 66.2757C333.244 66.2428 335.067 66.5719 336.765 67.2564C338.45 67.941 339.897 68.8757 341.093 70.0671C342.289 71.2716 343.227 72.7131 343.894 74.4048C344.568 76.0964 344.892 77.9263 344.879 79.8747C344.892 81.823 344.568 83.6463 343.894 85.3445C343.22 87.0428 342.282 88.4975 341.093 89.6823C339.904 90.8671 338.45 91.8083 336.765 92.4732C335.067 93.1577 333.244 93.4802 331.308 93.4539C329.372 93.4868 327.548 93.1577 325.864 92.4732C324.166 91.7886 322.719 90.8671 321.523 89.6823C320.327 88.4777 319.389 87.0362 318.721 85.3445C318.034 83.6529 317.711 81.823 317.737 79.8747C317.691 77.2747 318.259 74.9248 319.422 72.8448C320.598 70.7648 322.223 69.1324 324.311 67.9739C326.386 66.8154 328.724 66.2493 331.308 66.2823V66.2757ZM331.308 90.5248C334.321 90.5248 336.798 89.5309 338.721 87.5562C340.657 85.5683 341.615 83.0078 341.615 79.8878C341.615 76.7678 340.663 74.2139 338.721 72.2392C336.798 70.2514 334.321 69.2509 331.308 69.2509C328.295 69.2509 325.804 70.2448 323.882 72.2392C321.946 74.2271 320.988 76.7876 320.988 79.8878C320.988 82.9881 321.939 85.5486 323.882 87.5364C325.804 89.5243 328.282 90.5248 331.308 90.5248Z" fill="#333333" style="fill:#333333;fill-opacity:1;"/>
<path d="M371.905 66.6641V93.0919H368.535L353.65 71.4296V93.0919H350.531V66.6641H353.901L368.786 88.221V66.6641H371.905Z" fill="#333333" style="fill:#333333;fill-opacity:1;"/>
<path fill-rule="evenodd" clip-rule="evenodd" d="M129.015 48.595C130.746 50.6618 132.92 52.2482 135.549 53.3672C138.192 54.4664 141.139 55.0193 144.389 55.0193C146.775 55.0193 149.014 54.7231 151.115 54.0978C153.203 53.5054 155.066 52.6102 156.665 51.4517C158.277 50.2603 159.526 48.7793 160.425 47.0219C161.35 45.2512 161.799 43.2173 161.799 41.0056C161.799 38.794 161.396 36.9049 160.544 35.391C159.724 33.8902 158.667 32.6856 157.379 31.7839C156.143 30.8755 154.842 30.1778 153.501 29.6907C152.232 29.2168 151.082 28.8416 150.085 28.5586L141.509 26.0902C140.419 25.794 139.302 25.4056 138.152 24.9317C137.062 24.4578 136.157 23.8325 135.424 23.0624C134.737 22.3186 134.38 21.351 134.38 20.0937C134.38 18.8365 134.783 17.7175 135.576 16.75C136.395 15.756 137.485 14.9662 138.899 14.3869C140.313 13.8208 141.899 13.5378 143.669 13.5575C145.519 13.5905 147.204 13.9459 148.737 14.6436C150.256 15.3282 151.525 16.2958 152.543 17.553C153.573 18.7839 154.227 20.2583 154.525 22.0092C154.558 22.1408 154.63 22.2593 154.749 22.3515C154.868 22.4436 155.02 22.4699 155.152 22.4436L161.072 21.4168C161.204 21.3839 161.343 21.3115 161.416 21.193C161.508 21.0745 161.535 20.9231 161.508 20.7915C160.953 17.9808 159.85 15.5783 158.211 13.5444C156.599 11.5105 154.544 9.96362 152.067 8.89729C149.609 7.81122 146.834 7.24514 143.749 7.23197C140.69 7.19906 137.948 7.7059 135.49 8.73273C133.032 9.77273 131.063 11.2735 129.596 13.2482C128.149 15.2229 127.436 17.5991 127.436 20.3636C127.436 22.075 127.72 23.6021 128.301 24.912C128.87 26.1758 129.643 27.275 130.614 28.1965C131.565 29.0851 132.655 29.8289 133.864 30.4411C135.06 31.0203 136.296 31.4943 137.578 31.8826L149.061 35.2856C149.853 35.5094 150.593 35.7925 151.327 36.1348C152.04 36.4639 152.668 36.8786 153.203 37.3656C153.758 37.8132 154.174 38.3596 154.472 39.031C154.782 39.6431 154.947 40.4132 154.947 41.3479C154.947 42.8618 154.498 44.1388 153.619 45.2249C152.741 46.3241 151.518 47.1996 149.933 47.8117C148.38 48.4239 146.623 48.7201 144.654 48.7201C141.628 48.7201 139.018 47.9631 136.791 46.4492C134.611 44.9221 133.171 42.8092 132.464 40.1039C132.404 39.834 132.133 39.6563 131.869 39.7024L126.114 40.6107C125.962 40.6436 125.844 40.716 125.758 40.8345C125.672 40.953 125.639 41.0846 125.665 41.236C126.187 44.0598 127.29 46.5282 129.008 48.6213L129.015 48.595ZM248.642 8.73273C248.404 8.73273 248.212 8.92362 248.212 9.16058V53.512C248.212 53.7489 248.404 53.9398 248.642 53.9398H254.753V37.6421H263.686C264.697 38.8467 265.668 40.0907 266.626 41.4006C268.192 43.4477 269.639 45.5737 270.967 47.792C272.176 49.7667 273.22 51.7019 274.112 53.6173L274.264 53.9267H281.512C281.822 53.9267 282.034 53.6173 281.901 53.3343C281.069 51.5241 280.17 49.7403 279.159 48.0026C277.805 45.5803 276.312 43.1712 274.687 40.8148C273.762 39.4654 272.81 38.1424 271.839 36.8654C274.541 36.0492 276.669 34.5616 278.221 32.396C280.071 29.7829 280.996 26.7089 280.996 23.2006C280.996 20.7915 280.58 18.5798 279.728 16.592C278.875 14.5712 277.58 12.8927 275.863 11.5697C274.165 10.2335 272.057 9.38438 269.599 9.01577C269.018 8.91046 268.423 8.85121 267.809 8.82489C267.214 8.77881 266.692 8.76565 266.243 8.76565H248.628H248.642V8.75248V8.73273ZM274.336 23.1743C274.336 24.3327 274.145 25.4912 273.755 26.6234C273.365 27.7094 272.757 28.6573 271.918 29.4735C271.112 30.2436 270.068 30.8097 268.727 31.1059C268.311 31.198 267.848 31.2705 267.353 31.3165C266.877 31.3626 266.441 31.3758 266.071 31.3758H254.766V14.9727H266.071C266.441 14.9727 266.864 14.9727 267.353 15.032C267.828 15.0451 268.278 15.1241 268.681 15.2229C270.009 15.5059 271.066 16.0522 271.859 16.8553C272.691 17.6715 273.306 18.6391 273.695 19.7383C274.085 20.8507 274.277 21.9829 274.277 23.1545H274.336V23.1677V23.1743ZM449 9.4897V15.4335H435.178V53.9003H427.963V15.4335H414.141V9.4897C414.141 9.25273 414.332 9.06185 414.57 9.06185H448.57C448.808 9.06185 449 9.25273 449 9.4897ZM378.166 9.4897C378.166 9.25273 378.357 9.06185 378.595 9.06185H405.631C405.869 9.06185 406.061 9.25273 406.061 9.4897V15.3743H385.394V27.3211H403.781V33.5018H385.394V47.5879H407.646V53.4725C407.646 53.7094 407.455 53.9003 407.217 53.9003H378.602C378.364 53.9003 378.172 53.7094 378.172 53.4725V9.4897H378.166ZM361.998 53.6305L362.15 53.9003H367.7C367.938 53.9003 368.13 53.7094 368.13 53.4725V9.50944C368.13 9.27248 367.938 9.08159 367.7 9.08159H361.034V40.1302C359.871 38.2872 358.53 36.2664 357.01 34.0679C355.054 31.198 352.967 28.2887 350.714 25.3332C348.507 22.3317 346.267 19.4487 343.988 16.671C341.735 13.8472 339.62 11.3656 337.618 9.25932L337.453 9.09476H332.234C331.996 9.09476 331.804 9.28565 331.804 9.52261V53.4988C331.804 53.7358 331.996 53.9267 332.234 53.9267H338.9V20.6664C339.812 21.7393 340.777 22.9241 341.807 24.234C343.195 26.0046 344.628 27.8872 346.102 29.9079C347.575 31.8826 349.055 33.9363 350.528 36.0755C352.048 38.2148 353.495 40.3408 354.896 42.434C356.283 44.4811 357.565 46.4887 358.741 48.4041C359.963 50.3327 361.04 52.0902 361.965 53.637H361.998V53.6305ZM323.255 9.77273L323.09 9.95046C321.986 11.155 320.764 12.4781 319.436 13.8998H319.423L319.409 13.9327L318.65 14.7489C316.991 16.4867 315.267 18.2705 313.443 20.1267C311.666 21.9368 309.895 23.7337 308.118 25.5044C306.519 27.1105 305 28.5915 303.572 29.9935C305.257 31.1981 307.015 32.6396 308.865 34.3312C310.906 36.2006 312.908 38.195 314.857 40.3013C316.813 42.4274 318.643 44.5798 320.348 46.7783C322.092 48.9768 323.552 51.0897 324.702 53.0907L324.794 53.2553C324.959 53.5383 324.748 53.8937 324.424 53.8937H316.714L316.549 53.6436C315.28 51.6821 313.846 49.7206 312.208 47.7591C310.569 45.7515 308.838 43.8492 306.988 42.0522C305.185 40.2092 303.335 38.5175 301.458 36.9707C299.892 35.6608 298.373 34.5221 296.879 33.5545V53.8937H290.094C289.856 53.8937 289.665 53.7029 289.665 53.4659V9.52261C289.665 9.28565 289.856 9.09476 290.094 9.09476H296.879V27.7094C297.177 27.4264 297.494 27.1302 297.804 26.834C298.756 25.9125 299.773 24.9449 300.844 23.8917C302.621 22.1211 304.365 20.357 306.096 18.5864C307.827 16.8158 309.453 15.1373 310.972 13.5378C312.525 11.9054 313.833 10.477 314.877 9.25932L315.042 9.08159H322.944C323.314 9.08159 323.512 9.52919 323.255 9.79248V9.77932V9.77273ZM234.179 53.5449C233.465 51.6426 232.791 49.7864 232.15 47.9763H232.137C231.523 46.2386 230.915 44.4679 230.274 42.671L230.168 42.3748L228.649 38.0634C227.876 38.4517 227.07 38.8796 226.264 39.3403C224.011 40.591 221.791 41.9864 219.571 43.5464C217.318 45.0603 215.157 46.6993 213.083 48.4634C211.028 50.1748 209.145 51.9388 207.473 53.7226L207.308 53.8872H200.239C199.941 53.8872 199.73 53.591 199.836 53.3079C201.415 48.9702 203.014 44.6456 204.639 40.3408C206.112 36.3915 207.546 32.633 208.947 29.0917C210.38 25.557 211.794 22.1803 213.195 18.9748C214.596 15.7034 216.076 12.4846 217.608 9.28565C217.681 9.13425 217.833 9.04868 217.998 9.04868H223.773C223.938 9.04868 224.083 9.14084 224.163 9.28565C225.695 12.4978 227.175 15.7165 228.576 18.9748C229.977 22.1869 231.364 25.557 232.765 29.0917C234.212 32.6264 235.672 36.3717 237.152 40.3408C238.791 44.6522 240.389 48.99 241.969 53.3079C242.074 53.591 241.863 53.8872 241.566 53.8872H234.318L234.185 53.5449H234.179ZM226.198 31.3889C225.583 29.796 224.975 28.236 224.361 26.6958V26.6629C223.211 23.6153 222.002 20.673 220.753 17.8558C219.458 20.6796 218.203 23.6218 217.007 26.6826C215.712 30.0725 214.397 33.594 213.102 37.234L212.118 40.0446C214.43 38.3069 216.783 36.7008 219.141 35.233C221.599 33.6862 223.912 32.4421 226.059 31.4613C226.092 31.4613 226.105 31.4482 226.132 31.4284C226.145 31.4284 226.178 31.4153 226.191 31.3955L226.198 31.3889ZM201.606 15.4203V9.47653C201.606 9.23957 201.415 9.04868 201.177 9.04868H167.177C166.939 9.04868 166.748 9.23957 166.748 9.47653V15.4203H180.569V53.4527C180.569 53.6897 180.761 53.8806 180.999 53.8806H187.368C187.606 53.8806 187.798 53.6897 187.798 53.4527V15.4335H201.606V15.4203Z" fill="#333333" style="fill:#333333;fill-opacity:1;"/>
<path fill-rule="evenodd" clip-rule="evenodd" d="M0 52C0 80.7185 23.369 104 52.1955 104C81.0219 104 104.391 80.7185 104.391 52C104.391 23.2815 81.0219 0 52.1955 0C23.369 0 0 23.2815 0 52ZM29.1675 39.7422L30.4493 35.773C30.7003 34.97 31.3412 34.3315 32.1671 34.0946L36.1643 32.8768C36.7193 32.7123 36.7193 31.929 36.1643 31.7447L32.1803 30.4677C31.3742 30.1979 30.7466 29.5791 30.4955 28.7563L29.2732 24.7741C29.108 24.2211 28.3218 24.2211 28.1368 24.7741L26.855 28.7432C26.5841 29.5462 25.9631 30.1715 25.1372 30.4217L21.14 31.6394C20.585 31.8039 20.5718 32.5872 21.14 32.7715L25.124 34.0485C25.9301 34.3184 26.5709 34.9371 26.8088 35.7599L28.0311 39.7422C28.1963 40.2951 28.9825 40.3082 29.1675 39.7422ZM89.3536 38.8467C90.2607 38.2704 91.2071 37.8114 92.3748 37.4697L92.4403 37.4844L92.4072 37.4383H92.4006C90.6233 32.9821 87.333 29.2368 82.9129 26.4722C78.5127 23.7406 72.4144 22.3452 66.3756 23.53C63.3958 24.1092 60.5019 25.2085 57.9516 26.696C55.4145 28.1639 53.1483 29.9345 51.1992 31.8368C50.2511 32.7497 49.401 33.7114 48.5545 34.6691L48.5544 34.6692L48.4573 34.7791L46.1779 37.6884L42.6431 42.3685C42.379 42.7211 42.1137 43.0773 41.8466 43.4359L41.8452 43.4379C37.5561 49.1963 32.8131 55.5642 25.3129 57.5406C19.2071 59.1398 15.7986 58.385 12.3315 57.6173C11.3789 57.4064 10.4219 57.1945 9.40338 57.0302L9.33594 57.0138C10.915 61.3844 13.2869 65.2416 16.346 68.7631C19.4315 72.2254 23.2966 75.3915 28.2452 77.4715C33.1344 79.5976 39.2657 80.3545 45.0072 79.2092C50.762 78.11 55.8163 75.4507 59.8929 72.39C63.9958 69.2831 67.3059 65.7616 70.0941 62.0953C70.753 61.2369 71.1431 60.6845 71.5876 60.0551L71.5881 60.0545L71.5883 60.054L71.59 60.0516C71.6663 59.9437 71.7441 59.8335 71.8251 59.7191L73.358 57.4482C73.8987 56.741 74.411 55.9841 74.921 55.2307C75.4268 54.4834 75.9303 53.7396 76.4567 53.0512L76.8523 52.4961C78.7939 49.7703 80.7377 47.0416 82.9712 44.5206C84.1671 43.1515 85.429 41.8614 86.9222 40.5976C87.6688 39.9854 88.4748 39.393 89.3536 38.8467ZM78.6795 80.3847C75.3958 80.3847 72.7266 77.7255 72.7266 74.4541C72.7266 71.1827 75.3826 68.5234 78.6795 68.5234C81.9764 68.5234 84.6324 71.1827 84.6324 74.4541C84.6324 77.7255 81.9632 80.3847 78.6795 80.3847Z" fill="#333333" style="fill:#333333;fill-opacity:1;"/>
</g>
<defs>
<clipPath id="clip0_538_392">
<rect width="449" height="104" fill="white" style="fill:white;fill-opacity:1;"/>
</clipPath>
</defs>
</svg>
