<svg width="116" height="20" viewBox="0 0 116 20" fill="none" xmlns="http://www.w3.org/2000/svg">
<g clip-path="url(#clip0_547_680)">
<path fill-rule="evenodd" clip-rule="evenodd" d="M20 10C20 15.5228 15.5228 20 10 20C4.47716 20 0 15.5228 0 10C0 4.47716 4.47716 0 10 0C15.5228 0 20 4.47716 20 10ZM1.63274 11.0938H5.91324C6.81856 12.3226 8.31152 13.125 10 13.125C11.6884 13.125 13.1814 12.3226 14.0868 11.0938H18.3672C18.4136 10.7357 18.4375 10.3706 18.4375 10C18.4375 5.34008 14.6599 1.5625 10 1.5625C5.34008 1.5625 1.5625 5.34008 1.5625 10C1.5625 10.3706 1.5864 10.7357 1.63274 11.0938ZM4.57032 9.43908C5.36712 8.19176 6.58192 7.23728 8.01728 6.77316C7.90688 7.03108 7.84576 7.31508 7.84576 7.6134C7.84576 8.79372 8.8026 9.75052 9.98292 9.75052C11.1632 9.75052 12.12 8.79372 12.12 7.6134C12.12 7.3102 12.0569 7.0218 11.9431 6.76052C13.3957 7.21984 14.6256 8.1804 15.4296 9.4392C14.7707 7.05956 12.5894 5.31248 9.99996 5.31248C7.4106 5.31248 5.22928 7.05948 4.57032 9.43908Z" fill="#333333" style="fill:#333333;fill-opacity:1;"/>
</g>
<path d="M31.0604 7.32211C31.0021 6.8295 30.7655 6.44708 30.3507 6.17484C29.9358 5.90261 29.427 5.76649 28.8242 5.76649C28.3835 5.76649 27.9978 5.83779 27.6672 5.98039C27.3399 6.12299 27.0839 6.31906 26.8991 6.56861C26.7177 6.81816 26.6269 7.10173 26.6269 7.41934C26.6269 7.68509 26.6901 7.91357 26.8165 8.10478C26.9461 8.29275 27.1114 8.44993 27.3124 8.57632C27.5133 8.69948 27.7239 8.80156 27.9443 8.88259C28.1647 8.96037 28.3673 9.02356 28.552 9.07218L29.5631 9.34441C29.8224 9.41247 30.1108 9.50645 30.4284 9.62636C30.7493 9.74628 31.0555 9.90994 31.3472 10.1174C31.6421 10.3215 31.8852 10.584 32.0764 10.9049C32.2676 11.2257 32.3632 11.6195 32.3632 12.0862C32.3632 12.6242 32.2223 13.1103 31.9403 13.5446C31.6616 13.9788 31.2532 14.324 30.7153 14.58C30.1805 14.8361 29.5307 14.9641 28.7659 14.9641C28.0529 14.9641 27.4355 14.849 26.9137 14.6189C26.3952 14.3888 25.9868 14.068 25.6887 13.6564C25.3938 13.2448 25.2269 12.7668 25.188 12.2223H26.4325C26.4649 12.5982 26.5913 12.9094 26.8116 13.1557C27.0353 13.3987 27.3172 13.5802 27.6575 13.7001C28.001 13.8168 28.3705 13.8751 28.7659 13.8751C29.2261 13.8751 29.6393 13.8006 30.0055 13.6515C30.3717 13.4992 30.6618 13.2885 30.8757 13.0196C31.0896 12.7473 31.1965 12.4297 31.1965 12.0667C31.1965 11.7362 31.1042 11.4672 30.9194 11.2598C30.7347 11.0523 30.4916 10.8838 30.1902 10.7542C29.8888 10.6246 29.5631 10.5111 29.2131 10.4139L27.9881 10.0639C27.2103 9.84026 26.5945 9.52104 26.1408 9.10621C25.6871 8.69138 25.4602 8.14853 25.4602 7.47767C25.4602 6.92024 25.6109 6.43411 25.9123 6.01928C26.2169 5.60121 26.6253 5.27712 27.1373 5.04702C27.6526 4.81368 28.2279 4.69701 28.8631 4.69701C29.5048 4.69701 30.0752 4.81206 30.5743 5.04216C31.0734 5.26902 31.4688 5.58014 31.7604 5.97553C32.0554 6.37092 32.2109 6.81978 32.2271 7.32211H31.0604ZM37.0265 7.32211V8.29437H33.1569V7.32211H37.0265ZM34.2848 5.53315H35.432V12.6501C35.432 12.9742 35.479 13.2172 35.573 13.3793C35.6702 13.5381 35.7934 13.645 35.9425 13.7001C36.0948 13.752 36.2552 13.7779 36.4237 13.7779C36.5501 13.7779 36.6538 13.7714 36.7349 13.7585C36.8159 13.7423 36.8807 13.7293 36.9293 13.7196L37.1627 14.7502C37.0849 14.7793 36.9763 14.8085 36.8369 14.8377C36.6976 14.8701 36.521 14.8863 36.3071 14.8863C35.983 14.8863 35.6654 14.8166 35.3542 14.6773C35.0464 14.5379 34.7903 14.3256 34.5862 14.0404C34.3852 13.7552 34.2848 13.3955 34.2848 12.9612V5.53315ZM40.5389 14.9641C40.0658 14.9641 39.6363 14.8749 39.2507 14.6967C38.865 14.5152 38.5588 14.2543 38.3319 13.914C38.105 13.5705 37.9916 13.1557 37.9916 12.6695C37.9916 12.2417 38.0759 11.895 38.2444 11.6292C38.4129 11.3602 38.6382 11.1496 38.9201 10.9973C39.2021 10.8449 39.5132 10.7315 39.8535 10.657C40.197 10.5792 40.5422 10.5176 40.8889 10.4722C41.3427 10.4139 41.7105 10.3701 41.9924 10.341C42.2776 10.3086 42.4851 10.2551 42.6147 10.1806C42.7476 10.106 42.814 9.97638 42.814 9.79165V9.75276C42.814 9.27311 42.6828 8.90041 42.4202 8.63466C42.161 8.36891 41.7672 8.23603 41.2389 8.23603C40.6912 8.23603 40.2618 8.35595 39.9507 8.59577C39.6396 8.83559 39.4208 9.09162 39.2944 9.36385L38.2055 8.97495C38.3999 8.52123 38.6592 8.16798 38.9833 7.91519C39.3106 7.65916 39.6671 7.48091 40.0528 7.38045C40.4417 7.27674 40.8241 7.22488 41.2001 7.22488C41.4399 7.22488 41.7154 7.25405 42.0265 7.31239C42.3408 7.36748 42.6439 7.48253 42.9355 7.65754C43.2305 7.83255 43.4751 8.09668 43.6696 8.44993C43.864 8.80318 43.9613 9.27635 43.9613 9.86943V14.7891H42.814V13.7779H42.7557C42.6779 13.94 42.5483 14.1133 42.3668 14.2981C42.1853 14.4828 41.9438 14.64 41.6424 14.7696C41.341 14.8993 40.9732 14.9641 40.5389 14.9641ZM40.7139 13.9335C41.1676 13.9335 41.5501 13.8444 41.8612 13.6661C42.1756 13.4879 42.4121 13.2578 42.5709 12.9758C42.733 12.6938 42.814 12.3973 42.814 12.0862V11.0361C42.7654 11.0945 42.6584 11.148 42.4932 11.1966C42.3311 11.2419 42.1431 11.2824 41.9293 11.3181C41.7186 11.3505 41.5128 11.3797 41.3119 11.4056C41.1142 11.4283 40.9538 11.4477 40.8306 11.4639C40.5324 11.5028 40.2537 11.566 39.9945 11.6535C39.7384 11.7378 39.531 11.8658 39.3722 12.0376C39.2166 12.2061 39.1389 12.4362 39.1389 12.7279C39.1389 13.1265 39.2863 13.4279 39.5812 13.6321C39.8794 13.833 40.257 13.9335 40.7139 13.9335ZM48.8919 7.32211V8.29437H45.0223V7.32211H48.8919ZM46.1502 5.53315H47.2974V12.6501C47.2974 12.9742 47.3444 13.2172 47.4384 13.3793C47.5356 13.5381 47.6588 13.645 47.8079 13.7001C47.9602 13.752 48.1206 13.7779 48.2891 13.7779C48.4155 13.7779 48.5192 13.7714 48.6003 13.7585C48.6813 13.7423 48.7461 13.7293 48.7947 13.7196L49.0281 14.7502C48.9503 14.7793 48.8417 14.8085 48.7023 14.8377C48.563 14.8701 48.3864 14.8863 48.1725 14.8863C47.8484 14.8863 47.5308 14.8166 47.2197 14.6773C46.9118 14.5379 46.6557 14.3256 46.4516 14.0404C46.2506 13.7552 46.1502 13.3955 46.1502 12.9612V5.53315ZM53.2575 14.9446C52.538 14.9446 51.9174 14.7858 51.3956 14.4682C50.8771 14.1474 50.4768 13.7001 50.1949 13.1265C49.9162 12.5496 49.7768 11.8788 49.7768 11.1139C49.7768 10.3491 49.9162 9.67498 50.1949 9.09162C50.4768 8.50503 50.869 8.04806 51.3713 7.72074C51.8769 7.39017 52.4667 7.22488 53.1408 7.22488C53.5297 7.22488 53.9138 7.2897 54.2929 7.41934C54.6721 7.54897 55.0173 7.75963 55.3284 8.0513C55.6395 8.33974 55.8874 8.72216 56.0722 9.19857C56.2569 9.67498 56.3493 10.2616 56.3493 10.9584V11.4445H50.5935V10.4528H55.1826C55.1826 10.0315 55.0983 9.65553 54.9298 9.32496C54.7645 8.9944 54.5279 8.73351 54.22 8.5423C53.9154 8.35108 53.5556 8.25548 53.1408 8.25548C52.6838 8.25548 52.2885 8.36891 51.9547 8.59577C51.6241 8.81939 51.3697 9.11107 51.1914 9.4708C51.0132 9.83054 50.9241 10.2162 50.9241 10.6278V11.2889C50.9241 11.8528 51.0213 12.3309 51.2157 12.723C51.4134 13.1119 51.6873 13.4085 52.0373 13.6126C52.3873 13.8136 52.794 13.914 53.2575 13.914C53.5589 13.914 53.8311 13.8719 54.0742 13.7876C54.3205 13.7001 54.5328 13.5705 54.711 13.3987C54.8893 13.2237 55.027 13.0066 55.1242 12.7473L56.2326 13.0584C56.1159 13.4344 55.9199 13.7649 55.6444 14.0501C55.3689 14.3321 55.0286 14.5525 54.6235 14.7113C54.2184 14.8668 53.7631 14.9446 53.2575 14.9446ZM61.0089 7.32211V8.29437H56.9838V7.32211H61.0089ZM58.1894 14.7891V6.29152C58.1894 5.86372 58.2898 5.50722 58.4908 5.22203C58.6917 4.93683 58.9526 4.72294 59.2734 4.58034C59.5943 4.43774 59.933 4.36644 60.2894 4.36644C60.5714 4.36644 60.8015 4.38913 60.9798 4.4345C61.158 4.47987 61.2909 4.522 61.3784 4.56089L61.0478 5.5526C60.9895 5.53315 60.9085 5.50885 60.8047 5.47968C60.7043 5.45051 60.5714 5.43593 60.4061 5.43593C60.0269 5.43593 59.7531 5.53153 59.5846 5.72274C59.4193 5.91395 59.3366 6.19429 59.3366 6.56375V14.7891H58.1894ZM66.9118 11.7362V7.32211H68.0591V14.7891H66.9118V13.5251H66.8341C66.6591 13.9043 66.3868 14.2268 66.0174 14.4925C65.6479 14.755 65.1812 14.8863 64.6173 14.8863C64.1506 14.8863 63.7358 14.7842 63.3728 14.58C63.0098 14.3726 62.7246 14.0615 62.5172 13.6467C62.3098 13.2286 62.2061 12.7019 62.2061 12.0667V7.32211H63.3534V11.989C63.3534 12.5334 63.5057 12.9677 63.8103 13.2918C64.1182 13.6159 64.5104 13.7779 64.9868 13.7779C65.272 13.7779 65.562 13.705 65.8569 13.5592C66.1551 13.4133 66.4047 13.1897 66.6056 12.8883C66.8098 12.5869 66.9118 12.2029 66.9118 11.7362ZM70.897 4.83313V14.7891H69.7497V4.83313H70.897ZM77.991 14.7891L75.2687 4.83313H76.4938L78.5744 12.9418H78.6716L80.7911 4.83313H82.1523L84.2718 12.9418H84.3691L86.4497 4.83313H87.6747L84.9524 14.7891H83.7079L81.5106 6.85542H81.4328L79.2355 14.7891H77.991ZM90.9489 14.9446C90.2748 14.9446 89.6834 14.7842 89.1745 14.4634C88.669 14.1425 88.2736 13.6937 87.9884 13.1168C87.7064 12.5399 87.5655 11.8658 87.5655 11.0945C87.5655 10.3167 87.7064 9.63771 87.9884 9.05759C88.2736 8.47748 88.669 8.027 89.1745 7.70615C89.6834 7.38531 90.2748 7.22488 90.9489 7.22488C91.623 7.22488 92.2129 7.38531 92.7184 7.70615C93.2272 8.027 93.6226 8.47748 93.9046 9.05759C94.1898 9.63771 94.3324 10.3167 94.3324 11.0945C94.3324 11.8658 94.1898 12.5399 93.9046 13.1168C93.6226 13.6937 93.2272 14.1425 92.7184 14.4634C92.2129 14.7842 91.623 14.9446 90.9489 14.9446ZM90.9489 13.914C91.461 13.914 91.8823 13.7828 92.2129 13.5203C92.5434 13.2578 92.7881 12.9126 92.9469 12.4848C93.1057 12.057 93.1851 11.5936 93.1851 11.0945C93.1851 10.5954 93.1057 10.1303 92.9469 9.69928C92.7881 9.26825 92.5434 8.91986 92.2129 8.6541C91.8823 8.38835 91.461 8.25548 90.9489 8.25548C90.4369 8.25548 90.0155 8.38835 89.685 8.6541C89.3544 8.91986 89.1097 9.26825 88.9509 9.69928C88.7921 10.1303 88.7127 10.5954 88.7127 11.0945C88.7127 11.5936 88.7921 12.057 88.9509 12.4848C89.1097 12.9126 89.3544 13.2578 89.685 13.5203C90.0155 13.7828 90.4369 13.914 90.9489 13.914ZM95.673 14.7891V7.32211H96.7814V8.44993H96.8591C96.9953 8.08047 97.2416 7.78069 97.5981 7.55059C97.9545 7.32049 98.3564 7.20544 98.8037 7.20544C98.8879 7.20544 98.9932 7.20706 99.1196 7.2103C99.246 7.21354 99.3416 7.2184 99.4065 7.22488V8.3916C99.3676 8.38187 99.2784 8.36729 99.1391 8.34784C99.003 8.32516 98.8588 8.31381 98.7064 8.31381C98.3435 8.31381 98.0194 8.38997 97.7342 8.5423C97.4522 8.69138 97.2286 8.89879 97.0633 9.16454C96.9013 9.42705 96.8202 9.72683 96.8202 10.0639V14.7891H95.673ZM101.425 12.0667L101.406 10.6472H101.639L104.906 7.32211H106.325L102.845 10.8417H102.747L101.425 12.0667ZM100.356 14.7891V4.83313H101.503V14.7891H100.356ZM105.1 14.7891L102.184 11.0945L103 10.2972L106.559 14.7891H105.1ZM112.68 8.9944L111.65 9.28607C111.585 9.11431 111.489 8.9474 111.363 8.78536C111.24 8.62008 111.071 8.48396 110.857 8.37701C110.644 8.27006 110.37 8.21659 110.036 8.21659C109.579 8.21659 109.198 8.32192 108.893 8.53257C108.592 8.73999 108.441 9.00412 108.441 9.32496C108.441 9.61016 108.545 9.8354 108.752 10.0007C108.96 10.166 109.284 10.3037 109.725 10.4139L110.833 10.6861C111.501 10.8482 111.998 11.0961 112.326 11.4299C112.653 11.7605 112.817 12.1866 112.817 12.7084C112.817 13.1362 112.693 13.5186 112.447 13.8557C112.204 14.1927 111.864 14.4585 111.426 14.6529C110.989 14.8474 110.48 14.9446 109.9 14.9446C109.138 14.9446 108.508 14.7793 108.009 14.4488C107.51 14.1182 107.194 13.6353 107.061 13.0001L108.15 12.7279C108.253 13.1297 108.449 13.4311 108.738 13.6321C109.03 13.833 109.41 13.9335 109.88 13.9335C110.415 13.9335 110.84 13.82 111.154 13.5932C111.472 13.3631 111.63 13.0876 111.63 12.7668C111.63 12.5075 111.54 12.2904 111.358 12.1153C111.177 11.9371 110.898 11.8042 110.522 11.7167L109.278 11.425C108.594 11.263 108.091 11.0118 107.771 10.6715C107.453 10.328 107.294 9.8986 107.294 9.3833C107.294 8.96199 107.412 8.58929 107.649 8.2652C107.889 7.94112 108.215 7.68671 108.626 7.50198C109.041 7.31725 109.511 7.22488 110.036 7.22488C110.775 7.22488 111.355 7.38693 111.776 7.71101C112.201 8.0351 112.502 8.46289 112.68 8.9944Z" fill="#333333" style="fill:#333333;fill-opacity:1;"/>
<defs>
<clipPath id="clip0_547_680">
<rect width="20" height="20" fill="white" style="fill:white;fill-opacity:1;"/>
</clipPath>
</defs>
</svg>
