<svg width="108" height="37" viewBox="0 0 108 37" fill="none" xmlns="http://www.w3.org/2000/svg">
<path d="M66.458 26.1028C65.9871 26.773 65.3622 27.2711 64.5832 27.5972C63.8042 27.9052 62.9347 28.0592 61.9746 28.0592C61.2138 28.0592 60.5165 27.9686 59.8824 27.7874C59.2665 27.6063 58.7231 27.3345 58.252 26.9723C57.7811 26.5919 57.4098 26.1299 57.138 25.5865C56.8662 25.025 56.7305 24.3909 56.7305 23.6844C56.7305 22.9056 56.8844 22.2443 57.1923 21.7009C57.5003 21.1394 57.917 20.6865 58.4422 20.3422C58.9857 19.9981 59.6198 19.7445 60.3443 19.5814C61.0689 19.4003 61.8298 19.3098 62.6268 19.3098H66.2951C66.2951 18.259 66.0596 17.4439 65.5886 16.8642C65.1175 16.2846 64.2934 15.9857 63.1159 15.9676C62.4275 15.9676 61.8298 16.0853 61.3226 16.3208C60.8335 16.5563 60.5074 16.9458 60.3443 17.4892H57.1652C57.2739 16.7284 57.5184 16.0853 57.8988 15.56C58.2974 15.0346 58.7683 14.5999 59.3118 14.2557C59.8734 13.9115 60.4893 13.667 61.1595 13.5221C61.8478 13.3772 62.5362 13.3047 63.2245 13.3047C64.1122 13.3047 64.9364 13.4224 65.6972 13.6579C66.458 13.8934 67.1193 14.292 67.6808 14.8535C68.3149 15.5056 68.7405 16.2846 68.958 17.1903C69.1753 18.096 69.2839 19.0833 69.2839 20.152V27.869H66.5939L66.458 26.1028ZM66.2951 21.5107H63.3061C62.7808 21.5107 62.2554 21.556 61.7301 21.6466C61.2048 21.719 60.7519 21.9092 60.3715 22.2171C60.0092 22.507 59.828 22.9327 59.828 23.4942C59.828 24.1826 60.0727 24.7079 60.5617 25.0702C61.0689 25.4144 61.6848 25.5865 62.4094 25.5865C62.971 25.5865 63.4872 25.514 63.9582 25.3691C64.4473 25.2242 64.8639 24.9887 65.2081 24.6627C65.5524 24.3185 65.8149 23.8928 65.9962 23.3856C66.1954 22.8602 66.2951 22.2352 66.2951 21.5107Z" fill="#333333" style="fill:#333333;fill:color(display-p3 0.2000 0.2000 0.2000);fill-opacity:1;"/>
<path d="M74.3781 7.60156C74.9397 7.60156 75.4015 7.77365 75.7639 8.11783C76.1443 8.46202 76.3345 8.933 76.3345 9.53079C76.3345 10.1105 76.1443 10.5724 75.7639 10.9166C75.4015 11.2607 74.9397 11.4328 74.3781 11.4328C73.7803 11.4328 73.3003 11.2607 72.938 10.9166C72.5756 10.5724 72.3945 10.1105 72.3945 9.53079C72.3945 8.933 72.5756 8.46202 72.938 8.11783C73.3003 7.77365 73.7803 7.60156 74.3781 7.60156ZM72.8021 27.872V13.5523H75.8998V27.872H72.8021Z" fill="#333333" style="fill:#333333;fill:color(display-p3 0.2000 0.2000 0.2000);fill-opacity:1;"/>
<path d="M100.518 13.3047C101.66 13.3047 102.665 13.4858 103.535 13.8481C104.404 14.2104 105.138 14.7176 105.735 15.3698C106.351 16.0038 106.813 16.7737 107.121 17.6793C107.429 18.5851 107.583 19.5905 107.583 20.6955C107.583 21.8186 107.429 22.8331 107.121 23.7388C106.831 24.6264 106.388 25.3963 105.79 26.0485C105.192 26.7005 104.449 27.1987 103.562 27.5429C102.692 27.887 101.678 28.0592 100.518 28.0592C99.3772 28.0592 98.3718 27.887 97.5024 27.5429C96.6328 27.1806 95.8992 26.6824 95.3013 26.0485C94.7217 25.3963 94.2779 24.6173 93.97 23.7116C93.6801 22.8059 93.5352 21.8005 93.5352 20.6955C93.5352 19.5905 93.6801 18.5851 93.97 17.6793C94.2779 16.7737 94.7308 16.0038 95.3285 15.3698C95.9264 14.7176 96.66 14.2104 97.5295 13.8481C98.399 13.4858 99.3954 13.3047 100.518 13.3047ZM100.518 25.3691C101.225 25.3691 101.823 25.2513 102.312 25.0159C102.819 24.7623 103.227 24.4271 103.535 24.0105C103.861 23.5939 104.096 23.1047 104.241 22.5432C104.404 21.9816 104.486 21.3748 104.486 20.7227C104.486 20.0706 104.404 19.4637 104.241 18.9021C104.096 18.3224 103.861 17.8243 103.535 17.4077C103.227 16.991 102.819 16.665 102.312 16.4295C101.823 16.194 101.225 16.0762 100.518 16.0762C99.8301 16.0762 99.2413 16.194 98.7523 16.4295C98.2631 16.665 97.8556 16.991 97.5295 17.4077C97.2034 17.8243 96.9589 18.3224 96.7959 18.9021C96.6509 19.4637 96.5784 20.0706 96.5784 20.7227C96.5784 21.3748 96.6509 21.9816 96.7959 22.5432C96.9589 23.1047 97.1943 23.5939 97.5024 24.0105C97.8283 24.4271 98.236 24.7623 98.7251 25.0159C99.2323 25.2513 99.8301 25.3691 100.518 25.3691Z" fill="#333333" style="fill:#333333;fill:color(display-p3 0.2000 0.2000 0.2000);fill-opacity:1;"/>
<path d="M84.7829 19.3992H82.5548V9.23438H79.4844V27.8769H82.5548V22.0892H84.9732L88.7501 27.8769H92.3368L87.4457 20.3774L91.9564 13.5572H88.4783L84.7829 19.3992Z" fill="#333333" style="fill:#333333;fill:color(display-p3 0.2000 0.2000 0.2000);fill-opacity:1;"/>
<path d="M54.6356 13.5165H50.9678V9.23438H50.02L45.5625 15.2905V16.0736H47.8515V23.1611C47.8515 24.8341 48.2283 26.0383 48.9822 26.7738C49.7543 27.5091 51.0321 27.8769 52.8154 27.8769H54.5253V25.1743H53.0912C52.2639 25.1743 51.7031 24.972 51.409 24.5676C51.1148 24.1631 50.9678 23.5472 50.9678 22.7199V16.0736H54.6356V13.5165Z" fill="#333333" style="fill:#333333;fill:color(display-p3 0.2000 0.2000 0.2000);fill-opacity:1;"/>
<path d="M39.8957 29.9635L33.0036 20.5996C32.2548 19.5819 31.1461 18.9724 29.9654 18.8381C29.6967 18.8068 29.4567 18.6509 29.3222 18.4157C29.1855 18.1805 29.1711 17.895 29.2791 17.6453C29.7519 16.5559 29.7806 15.2912 29.2719 14.1345L24.6091 3.48419C23.918 1.90272 22.3557 0.882812 20.6302 0.882812C18.9048 0.882812 17.3425 1.90512 16.6514 3.48419L11.9886 14.1345C11.4822 15.2912 11.5086 16.5559 11.9814 17.6453C12.0893 17.895 12.0725 18.1805 11.9382 18.4157C11.8014 18.6509 11.5638 18.8068 11.295 18.8381C10.1143 18.9724 9.00561 19.5819 8.25689 20.5996L1.36466 29.9635C0.342351 31.3529 0.239159 33.2152 1.10069 34.7103C1.96461 36.2029 3.63007 37.0453 5.34352 36.8558L16.8985 35.5695C18.1536 35.4302 19.236 34.7751 19.9415 33.82C20.1023 33.6016 20.3591 33.472 20.6302 33.472C20.9014 33.472 21.1558 33.6016 21.319 33.82C22.0245 34.7751 23.1069 35.4302 24.362 35.5695L35.9169 36.8558C37.6304 37.0477 39.2958 36.2053 40.1598 34.7103C41.0212 33.2152 40.9181 31.3529 39.8957 29.9635ZM15.0027 15.4712L19.6726 4.80888C19.8408 4.42731 20.2175 4.18013 20.6325 4.18013C21.0478 4.18013 21.4245 4.42731 21.5926 4.80888L26.2626 15.4712C26.409 15.8071 26.3778 16.1959 26.1762 16.5031C25.9746 16.8102 25.6339 16.995 25.2643 16.995H15.9986C15.6314 16.995 15.2883 16.8102 15.0867 16.5031C14.8851 16.1959 14.8539 15.8071 15.0003 15.4712H15.0027ZM17.4 31.7033C17.2345 32.0321 16.9129 32.2529 16.5481 32.2937L4.98115 33.58C4.56838 33.6255 4.16523 33.4241 3.95645 33.064C3.74765 32.704 3.77406 32.2553 4.02124 31.9193L10.9206 22.5457C11.139 22.2506 11.4894 22.0826 11.8566 22.1042C12.2237 22.1234 12.5549 22.3273 12.7397 22.6465L12.7469 22.6585L17.3666 30.6595L17.3737 30.6714C17.5585 30.9907 17.568 31.3794 17.4024 31.7057L17.4 31.7033ZM21.5806 28.0844C21.3837 28.4228 21.0238 28.634 20.6302 28.634C20.239 28.634 19.8768 28.4253 19.6799 28.0868L16.1306 21.941C15.9338 21.6026 15.9338 21.1826 16.1306 20.8443C16.3274 20.5058 16.6874 20.2947 17.0809 20.2947H24.1772C24.5683 20.2947 24.9306 20.5011 25.1274 20.8419C25.3243 21.1826 25.3243 21.6003 25.1274 21.9386L21.5806 28.0844ZM37.3064 33.064C37.0976 33.4241 36.6968 33.6281 36.2818 33.5824L24.7147 32.296C24.3499 32.2553 24.0284 32.0345 23.8628 31.7057C23.6972 31.377 23.7067 30.9883 23.8915 30.6714L23.8988 30.6595L28.5184 22.6585L28.5255 22.6465C28.7103 22.3273 29.0415 22.1234 29.4087 22.1042C29.7758 22.085 30.1262 22.2506 30.3446 22.5457L37.244 31.9193C37.4912 32.2553 37.5151 32.704 37.3088 33.064H37.3064Z" fill="#333333" style="fill:#333333;fill:color(display-p3 0.2000 0.2000 0.2000);fill-opacity:1;"/>
</svg>
