<svg width="68" height="20" viewBox="0 0 68 20" fill="none" xmlns="http://www.w3.org/2000/svg">
<path d="M6.2745 7.46437V14.3644H4.4745V7.46437H2.0625V5.98837H8.6865V7.46437H6.2745Z" fill="#ffffff" style="fill:#ffffff;fill-opacity:1;"/>
<path d="M12.7378 14.5084C11.6978 14.5084 10.9098 14.2204 10.3738 13.6444C9.83781 13.0684 9.56981 12.2844 9.56981 11.2924C9.56981 10.7884 9.63781 10.3364 9.77381 9.93637C9.91781 9.52837 10.1178 9.18438 10.3738 8.90438C10.6378 8.61637 10.9538 8.40037 11.3218 8.25638C11.6978 8.10438 12.1178 8.02838 12.5818 8.02838C13.0458 8.02838 13.4618 8.10438 13.8298 8.25638C14.1978 8.40037 14.5098 8.60837 14.7658 8.88037C15.0218 9.15237 15.2178 9.48438 15.3538 9.87638C15.4978 10.2604 15.5698 10.6924 15.5698 11.1724V11.7004H11.3338V11.8084C11.3338 12.2084 11.4578 12.5324 11.7058 12.7804C11.9538 13.0204 12.3178 13.1404 12.7978 13.1404C13.1658 13.1404 13.4818 13.0724 13.7458 12.9364C14.0098 12.7924 14.2378 12.6044 14.4298 12.3724L15.3898 13.4164C15.1498 13.7124 14.8138 13.9684 14.3818 14.1844C13.9498 14.4004 13.4018 14.5084 12.7378 14.5084ZM12.5938 9.30037C12.2098 9.30037 11.9018 9.42037 11.6698 9.66037C11.4458 9.89237 11.3338 10.2084 11.3338 10.6084V10.7044H13.8298V10.6084C13.8298 10.2004 13.7178 9.88037 13.4938 9.64838C13.2778 9.41637 12.9778 9.30037 12.5938 9.30037Z" fill="#ffffff" style="fill:#ffffff;fill-opacity:1;"/>
<path d="M20.2451 14.3644C19.6051 14.3644 19.1291 14.1964 18.8171 13.8604C18.5051 13.5244 18.3491 13.0964 18.3491 12.5764V9.55237H16.6691V8.17237H17.7611C18.0251 8.17237 18.2131 8.12037 18.3251 8.01637C18.4371 7.91237 18.4931 7.72037 18.4931 7.44037V5.98837H20.1251V8.17237H22.5371V9.55237H20.1251V12.9844H22.5371V14.3644H20.2451Z" fill="#ffffff" style="fill:#ffffff;fill-opacity:1;"/>
<path d="M24.2484 12.9844H25.6764V9.55237H24.2484V8.17237H27.4524V9.92438H27.5364C27.5924 9.70037 27.6684 9.48437 27.7644 9.27637C27.8684 9.06037 27.9964 8.87237 28.1484 8.71237C28.3084 8.54437 28.5004 8.41237 28.7244 8.31638C28.9484 8.22037 29.2124 8.17237 29.5164 8.17237H30.1044V9.80437H28.7844C28.3444 9.80437 28.0124 9.93637 27.7884 10.2004C27.5644 10.4564 27.4524 10.7724 27.4524 11.1484V12.9844H29.4924V14.3644H24.2484V12.9844Z" fill="#ffffff" style="fill:#ffffff;fill-opacity:1;"/>
<path d="M36.3997 14.3644C36.0317 14.3644 35.7357 14.2724 35.5117 14.0884C35.2877 13.8964 35.1557 13.6244 35.1157 13.2724H35.0558C34.9438 13.6804 34.7198 13.9884 34.3838 14.1964C34.0558 14.4044 33.6518 14.5084 33.1718 14.5084C32.5718 14.5084 32.0877 14.3484 31.7197 14.0284C31.3597 13.7004 31.1798 13.2444 31.1798 12.6604C31.1798 12.0124 31.4158 11.5324 31.8878 11.2204C32.3598 10.9084 33.0518 10.7524 33.9638 10.7524H34.9598V10.4404C34.9598 10.0724 34.8718 9.79637 34.6958 9.61237C34.5278 9.42037 34.2398 9.32437 33.8318 9.32437C33.4558 9.32437 33.1518 9.39637 32.9198 9.54037C32.6878 9.68437 32.4877 9.87238 32.3197 10.1044L31.3477 9.24038C31.5557 8.88838 31.8797 8.60037 32.3197 8.37637C32.7677 8.14438 33.3397 8.02838 34.0357 8.02838C34.8837 8.02838 35.5438 8.22438 36.0158 8.61637C36.4958 9.00037 36.7358 9.58437 36.7358 10.3684V13.0804H37.4198V14.3644H36.3997ZM33.8438 13.3444C34.1558 13.3444 34.4197 13.2684 34.6357 13.1164C34.8517 12.9644 34.9598 12.7444 34.9598 12.4564V11.7124H34.0117C33.2837 11.7124 32.9198 11.9564 32.9198 12.4444V12.6844C32.9198 12.9004 33.0038 13.0644 33.1718 13.1764C33.3398 13.2884 33.5637 13.3444 33.8438 13.3444Z" fill="#ffffff" style="fill:#ffffff;fill-opacity:1;"/>
<path d="M38.5311 14.3644V8.17237H40.3071V9.30037H40.3791C40.4511 9.12437 40.5391 8.96037 40.6431 8.80837C40.7471 8.65637 40.8711 8.52437 41.0151 8.41237C41.1671 8.29237 41.3391 8.20037 41.5311 8.13637C41.7311 8.06437 41.9551 8.02838 42.2031 8.02838C42.4991 8.02838 42.7711 8.08037 43.0191 8.18437C43.2671 8.28037 43.4791 8.42838 43.6551 8.62838C43.8311 8.82838 43.9671 9.07238 44.0631 9.36037C44.1671 9.64838 44.2191 9.98037 44.2191 10.3564V14.3644H42.4431V10.5964C42.4431 9.79637 42.0951 9.39637 41.3991 9.39637C41.2631 9.39637 41.1271 9.41637 40.9911 9.45638C40.8631 9.48837 40.7471 9.54437 40.6431 9.62437C40.5391 9.69637 40.4551 9.78837 40.3911 9.90037C40.3351 10.0124 40.3071 10.1444 40.3071 10.2964V14.3644H38.5311Z" fill="#ffffff" style="fill:#ffffff;fill-opacity:1;"/>
<path d="M48.5464 14.5084C48.0664 14.5084 47.6344 14.4364 47.2504 14.2924C46.8664 14.1404 46.5384 13.9244 46.2664 13.6444C46.0024 13.3644 45.7984 13.0244 45.6544 12.6244C45.5104 12.2244 45.4384 11.7724 45.4384 11.2684C45.4384 10.7644 45.5104 10.3124 45.6544 9.91237C45.7984 9.51237 46.0024 9.17237 46.2664 8.89237C46.5384 8.61237 46.8664 8.40037 47.2504 8.25638C47.6344 8.10438 48.0664 8.02838 48.5464 8.02838C49.0264 8.02838 49.4584 8.10438 49.8424 8.25638C50.2264 8.40037 50.5504 8.61237 50.8144 8.89237C51.0864 9.17237 51.2944 9.51237 51.4384 9.91237C51.5824 10.3124 51.6544 10.7644 51.6544 11.2684C51.6544 11.7724 51.5824 12.2244 51.4384 12.6244C51.2944 13.0244 51.0864 13.3644 50.8144 13.6444C50.5504 13.9244 50.2264 14.1404 49.8424 14.2924C49.4584 14.4364 49.0264 14.5084 48.5464 14.5084ZM48.5464 13.1884C48.9464 13.1884 49.2584 13.0644 49.4824 12.8164C49.7064 12.5684 49.8184 12.2164 49.8184 11.7604V10.7764C49.8184 10.3204 49.7064 9.96838 49.4824 9.72038C49.2584 9.47238 48.9464 9.34837 48.5464 9.34837C48.1464 9.34837 47.8344 9.47238 47.6104 9.72038C47.3864 9.96838 47.2744 10.3204 47.2744 10.7764V11.7604C47.2744 12.2164 47.3864 12.5684 47.6104 12.8164C47.8344 13.0644 48.1464 13.1884 48.5464 13.1884Z" fill="#ffffff" style="fill:#ffffff;fill-opacity:1;"/>
<path d="M56.8577 13.2364H56.7737C56.6137 13.6124 56.3897 13.9204 56.1017 14.1604C55.8217 14.3924 55.4337 14.5084 54.9377 14.5084C54.5937 14.5084 54.2777 14.4444 53.9897 14.3164C53.7097 14.1884 53.4657 13.9924 53.2577 13.7284C53.0577 13.4644 52.8977 13.1284 52.7777 12.7204C52.6657 12.3124 52.6097 11.8284 52.6097 11.2684C52.6097 10.7084 52.6657 10.2244 52.7777 9.81637C52.8977 9.40837 53.0577 9.07238 53.2577 8.80837C53.4657 8.54437 53.7097 8.34837 53.9897 8.22037C54.2777 8.09238 54.5937 8.02838 54.9377 8.02838C55.1857 8.02838 55.4057 8.06037 55.5977 8.12437C55.7897 8.18837 55.9577 8.27637 56.1017 8.38837C56.2537 8.50037 56.3817 8.63637 56.4857 8.79637C56.5977 8.94837 56.6937 9.11637 56.7737 9.30037H56.8577V5.48438H58.6337V14.3644H56.8577V13.2364ZM55.7057 13.1284C56.0177 13.1284 56.2857 13.0524 56.5097 12.9004C56.7417 12.7484 56.8577 12.5084 56.8577 12.1804V10.3564C56.8577 10.0284 56.7417 9.78837 56.5097 9.63637C56.2857 9.48438 56.0177 9.40837 55.7057 9.40837C55.3057 9.40837 54.9977 9.53237 54.7817 9.78037C54.5657 10.0204 54.4577 10.3564 54.4577 10.7884V11.7484C54.4577 12.1804 54.5657 12.5204 54.7817 12.7684C54.9977 13.0084 55.3057 13.1284 55.7057 13.1284Z" fill="#ffffff" style="fill:#ffffff;fill-opacity:1;"/>
<path d="M63.105 14.5084C62.065 14.5084 61.277 14.2204 60.741 13.6444C60.205 13.0684 59.937 12.2844 59.937 11.2924C59.937 10.7884 60.005 10.3364 60.141 9.93637C60.285 9.52837 60.485 9.18438 60.741 8.90438C61.005 8.61637 61.321 8.40037 61.689 8.25638C62.065 8.10438 62.485 8.02838 62.949 8.02838C63.413 8.02838 63.829 8.10438 64.197 8.25638C64.565 8.40037 64.877 8.60837 65.133 8.88037C65.389 9.15237 65.585 9.48438 65.721 9.87638C65.865 10.2604 65.937 10.6924 65.937 11.1724V11.7004H61.701V11.8084C61.701 12.2084 61.825 12.5324 62.073 12.7804C62.321 13.0204 62.685 13.1404 63.165 13.1404C63.533 13.1404 63.849 13.0724 64.113 12.9364C64.377 12.7924 64.605 12.6044 64.797 12.3724L65.757 13.4164C65.517 13.7124 65.181 13.9684 64.749 14.1844C64.317 14.4004 63.769 14.5084 63.105 14.5084ZM62.961 9.30037C62.577 9.30037 62.269 9.42037 62.037 9.66037C61.813 9.89237 61.701 10.2084 61.701 10.6084V10.7044H64.197V10.6084C64.197 10.2004 64.085 9.88037 63.861 9.64838C63.645 9.41637 63.345 9.30037 62.961 9.30037Z" fill="#ffffff" style="fill:#ffffff;fill-opacity:1;"/>
</svg>
