<svg width="170" height="41" viewBox="0 0 170 41" fill="none" xmlns="http://www.w3.org/2000/svg">
<g clip-path="url(#clip0_5728_1182)">
<path fill-rule="evenodd" clip-rule="evenodd" d="M1.47986 1.22697C5.68121 6.09649 10.2942 12.2141 11.0403 13.2036C11.0801 13.2563 11.1089 13.2945 11.126 13.3171C11.5238 13.8421 11.8521 14.2324 12.1015 14.5287C12.655 15.1866 12.8193 15.3819 12.489 15.5612C12.2226 15.7058 11.9477 15.7535 11.6735 15.7535C11.3633 15.7535 11.0138 15.6109 10.7593 15.3804C10.5795 15.2175 9.34873 13.5105 7.67284 11.0273C6.39056 9.12721 5.31743 7.551 5.28816 7.52461C5.22047 7.46358 5.22163 7.46565 7.5421 11.4305C8.99915 13.9202 9.99583 15.7601 9.99583 15.8778C9.99583 16.1172 9.92741 16.243 9.61813 16.5725C9.10254 17.1219 8.87204 17.739 8.70567 19.0163C8.51914 20.4481 7.99465 21.4597 6.54113 23.1907C5.69028 24.2041 5.55107 24.3898 5.33637 24.7982C5.06596 25.3126 4.99159 25.6006 4.96145 26.2501C4.9296 26.9368 4.99164 27.3804 5.21133 28.0369C5.40367 28.6117 5.60442 28.9913 6.11764 29.7505C6.56056 30.4054 6.81558 30.8922 6.81558 31.0827C6.81558 31.2343 6.84588 31.2344 7.5322 31.0865C9.17467 30.7322 10.5083 30.1094 11.2584 29.346C11.7226 28.8734 11.8316 28.6125 11.8352 27.965C11.8375 27.5414 11.8219 27.4528 11.702 27.2092C11.5068 26.8124 11.1516 26.4828 10.3685 25.9716C9.34251 25.3018 8.90429 24.7626 8.78325 24.021C8.68396 23.4126 8.79915 22.9833 9.36674 21.8473C9.95422 20.6714 10.0998 20.1703 10.1983 18.985C10.2619 18.2192 10.35 17.9173 10.5804 17.6749C10.8207 17.4222 11.037 17.3365 11.6316 17.2588C12.6011 17.1325 13.2184 16.8929 13.7258 16.4464C14.166 16.059 14.3502 15.6858 14.3785 15.1239L14.3999 14.698L14.154 14.4241C13.2631 13.4323 0.883285 0.447266 0.828464 0.447266C0.816753 0.447266 1.10989 0.798158 1.47986 1.22697ZM7.31565 27.0271C7.51706 26.6864 7.41005 26.2486 7.07313 26.0346C6.75481 25.8325 6.26031 25.9277 6.26031 26.1911C6.26031 26.2715 6.30684 26.3299 6.41176 26.3816C6.58838 26.4684 6.6012 26.566 6.46223 26.7654C6.32149 26.9675 6.33284 27.1451 6.49428 27.2656C6.75445 27.4603 7.12275 27.3533 7.31565 27.0271ZM13.378 8.45187C12.9806 8.393 12.9638 8.38609 13.1508 8.35864C13.5092 8.306 14.3555 8.37774 14.9387 8.51017C16.3002 8.81921 17.5391 9.61092 18.8615 11.017L19.2128 11.3905L19.7154 11.3134C21.8328 10.9884 23.9867 11.2467 25.7884 12.0414C26.284 12.2601 27.0654 12.6953 27.163 12.8072C27.194 12.8428 27.2513 13.0723 27.2899 13.3171C27.4237 14.1642 27.3568 14.8135 27.0854 15.2985C26.9379 15.5624 26.9296 15.646 27.0288 15.8719C27.108 16.0521 27.3289 16.1855 27.5478 16.1852C27.9954 16.1846 28.4772 15.4935 28.7006 14.5318L28.7892 14.1498L28.965 14.3399C29.9286 15.3826 30.6857 16.8046 30.8157 17.8167L30.8495 18.0806L30.6876 17.8407C30.4087 17.428 30.1287 17.1469 29.7699 16.9202C29.1234 16.5116 28.4395 16.3726 26.629 16.2815C24.9936 16.1992 24.0682 16.0658 23.1505 15.78C21.5889 15.2939 20.8019 14.6464 18.947 12.3225C18.1232 11.2903 17.614 10.7192 17.1075 10.2593C15.9565 9.21435 14.8256 8.66631 13.378 8.45187ZM27.5318 10.7565C27.573 10.0648 27.6713 9.60862 27.8687 9.19199C27.9469 9.02708 28.0201 8.89209 28.0313 8.89209C28.0427 8.89209 28.0087 9.01383 27.9558 9.16257C27.8123 9.56692 27.7887 10.12 27.8876 10.7634C28.0131 11.5798 28.0846 11.6976 28.9881 12.5795C29.4119 12.9932 29.9049 13.5149 30.0837 13.7389L30.4087 14.1461L30.0837 13.8551C29.6863 13.4991 28.7724 12.805 28.5706 12.7058C28.4352 12.6392 28.415 12.6404 28.3316 12.7197C28.2547 12.7928 28.2384 12.9027 28.2277 13.4222C28.2111 14.2318 28.0956 14.7514 27.8167 15.271C27.6658 15.5521 27.642 15.4921 27.7785 15.1749C27.8805 14.938 27.8908 14.8339 27.8901 14.0502C27.8885 12.4754 27.6926 12.0969 26.5445 11.4483C26.2539 11.2841 25.7745 11.0471 25.4796 10.9218C25.185 10.7965 24.9507 10.6873 24.9591 10.6791C24.9917 10.6482 26.1114 10.9603 26.5621 11.1259C27.2324 11.3721 27.3429 11.404 27.4244 11.3743C27.4789 11.3544 27.5054 11.2026 27.5318 10.7565ZM12.952 9.54754C12.844 10.7633 13.3432 12.3897 14.15 13.4504C14.7754 14.2727 15.7449 14.9116 16.4607 14.9734C16.9293 15.0138 17.0702 14.8736 16.8582 14.578C16.5638 14.1674 16.2018 13.5353 16.106 13.2647C16.0465 13.0966 15.9171 12.6 15.8185 12.1611C15.482 10.6629 15.1512 10.0794 14.3871 9.63626C14.1086 9.47474 13.514 9.26338 13.1691 9.20332L12.9855 9.1713L12.952 9.54754ZM26.5533 21.3449C22.7827 19.8952 21.4547 18.6368 21.4547 16.5136C21.4547 16.2011 21.4661 15.9455 21.4797 15.9455C21.4936 15.9455 21.6394 16.0486 21.8039 16.1746C22.5685 16.7602 23.4247 17.0104 25.795 17.3405C27.1896 17.535 27.9746 17.6918 28.6987 17.9212C31 18.6501 32.4239 20.1291 32.7634 22.1438C32.862 22.7292 32.8042 23.8269 32.6443 24.4055C32.5179 24.8625 32.1325 25.6861 32.0303 25.7177C32.002 25.7265 31.9741 25.6228 31.9669 25.4817C31.9282 24.7252 31.5279 23.9887 30.8556 23.437C30.0912 22.8097 29.0641 22.3104 26.5533 21.3449ZM23.7241 21.1854C23.777 21.336 23.859 21.6787 23.9061 21.9472C24.2082 23.6636 23.2647 25.0503 21.4295 25.5877C21.2352 25.6445 20.4699 25.7876 19.7288 25.9054C18.2286 26.1439 17.559 26.3129 16.8863 26.6223C16.4093 26.8418 15.8318 27.1704 15.8661 27.203C15.8771 27.2136 15.986 27.1888 16.108 27.1479C16.9563 26.8635 17.9003 26.7162 19.3345 26.645C19.9038 26.6168 20.5512 26.5718 20.7733 26.5451C22.0511 26.3914 22.9367 26.0207 23.6255 25.3513C24.0086 24.9788 24.2371 24.6318 24.4212 24.1425C24.5379 23.832 24.5537 23.7168 24.5546 23.1668C24.5556 22.6064 24.5414 22.5039 24.4149 22.1592C24.2494 21.7073 24.054 21.3683 23.8066 21.1031L23.6279 20.9116L23.7241 21.1854ZM25.6347 24.8786C25.1336 23.8501 25.0187 22.8572 25.2931 21.9313C25.3225 21.8322 25.3696 21.7512 25.3982 21.7512C25.4266 21.7512 25.5446 21.8124 25.6608 21.8869C25.8916 22.0353 26.3546 22.2853 27.588 22.9275C29.1274 23.7288 30.005 24.3493 30.6017 25.0585C31.1244 25.6793 31.4478 26.3864 31.6034 27.2487C31.6917 27.7372 31.64 28.9126 31.5088 29.4044C31.0949 30.9553 30.1331 32.1735 28.7612 32.8844C28.5603 32.9884 28.3798 33.0739 28.3602 33.0744C28.3407 33.0747 28.414 32.897 28.5229 32.6792C28.9844 31.7579 29.037 30.8617 28.6882 29.8644C28.4744 29.2537 28.0389 28.5085 27.1593 27.2489C26.1368 25.7846 25.8861 25.3949 25.6347 24.8786ZM16.1983 28.2517C14.6125 28.4977 12.8715 29.2991 11.4723 30.4273L11.0557 30.7632L11.4218 30.8179C13.3323 31.1026 13.8467 31.3552 15.1718 32.6588C15.9344 33.4088 16.192 33.5758 16.8245 33.73C17.7535 33.9565 18.6693 33.5404 18.9834 32.7489C19.1238 32.3953 19.105 31.8097 18.944 31.5157C18.561 30.8155 17.4452 30.5893 16.9056 31.1021C16.4562 31.5293 16.5871 32.1728 17.1461 32.2835C17.2741 32.309 17.2704 32.3035 17.1135 32.2358C16.8689 32.1301 16.7626 31.9836 16.7612 31.7506C16.7581 31.2041 17.4129 30.8974 18.0221 31.1597C18.4682 31.3521 18.6453 31.6032 18.6453 32.0434C18.6453 32.7214 18.0411 33.2323 17.3379 33.1488C16.962 33.1041 16.5023 32.8745 16.2558 32.6085C15.6356 31.9388 15.8773 30.882 16.7432 30.4765C17.4024 30.1679 18.2787 30.2439 18.9582 30.6688C19.7389 31.1571 20.0709 31.6033 20.7434 33.0679C20.9624 33.5448 21.2441 34.0817 21.3694 34.2609C22.0064 35.1714 22.7696 35.618 23.6889 35.618C24.1959 35.618 24.5773 35.5296 25.0572 35.3008C25.4138 35.1307 25.9192 34.8075 25.8828 34.7729C25.8725 34.7631 25.7246 34.807 25.5541 34.8705C24.5504 35.2443 23.53 35.2187 22.9374 34.8044C22.5643 34.5437 22.2633 34.0242 22.1085 33.3745C22.0817 33.2621 21.9934 32.7655 21.9121 32.2709C21.7061 31.0173 21.5083 30.4538 21.047 29.8071C20.575 29.1455 19.6676 28.5903 18.6532 28.3423C18.0203 28.1876 16.8817 28.1455 16.1983 28.2517ZM13.9773 18.5595C14.1142 18.0765 14.5566 17.6158 15.0118 17.4823C15.3012 17.3975 15.8994 17.4516 16.1806 17.5881C16.7257 17.8528 17.1214 18.4556 17.0356 18.8908C16.9308 19.4213 16.0298 19.8458 14.9933 19.8528C14.464 19.8563 14.2684 19.7884 14.0663 19.5306C13.9411 19.3709 13.8937 18.8541 13.9773 18.5595ZM16.0415 17.7773C16.3133 17.9358 16.3832 18.1702 16.2234 18.387C16.1133 18.5364 15.7724 18.6784 15.5234 18.6784C15.1492 18.6784 14.7409 18.4246 14.7409 18.1922C14.7409 17.7253 15.5238 17.4753 16.0415 17.7773ZM97.2834 19.1144C96.4379 16.4554 97.8324 14.2498 100.808 13.5411C101.661 13.3377 105.525 13.4295 106.187 13.6689C106.43 13.7567 106.536 14.0934 106.538 14.7855C106.539 15.3305 106.602 15.9925 106.677 16.2565C106.791 16.6566 106.725 16.7354 106.278 16.729C105.874 16.723 105.63 16.4992 105.289 15.822C104.744 14.7405 104.084 14.3965 102.547 14.3924C100.585 14.3871 99.1492 15.6362 99.3829 17.1454C99.5352 18.1275 100.573 19.0938 102.902 20.4223C105.118 21.686 106.412 22.7252 106.927 23.6563C108.305 26.1456 107.128 28.8094 104.058 30.1516C102.482 30.8405 99.8404 30.9118 97.9832 30.3155L96.7939 29.9335V28.1369C96.7939 26.5098 96.8349 26.34 97.2272 26.34C97.5554 26.34 97.6971 26.5451 97.8122 27.1875C98.0988 28.7848 99.3827 29.7544 101.211 29.7544C103.003 29.7544 104.255 28.8291 104.735 27.1514C104.939 26.4366 104.904 26.1731 104.498 25.3846C104.013 24.4393 103.176 23.812 100.336 22.2629C98.7602 21.4032 97.6458 20.2538 97.2834 19.1144ZM41.6072 14.6026C41.2196 14.6026 41.0684 14.4829 41.0684 14.1758C41.0684 13.7692 41.2196 13.749 44.2564 13.749C47.0751 13.749 47.4358 13.7891 47.3712 14.0949C47.3307 14.2853 46.9412 14.5493 46.5052 14.6818L45.7122 14.9227L45.6446 20.3646C45.5992 23.9959 45.663 26.0906 45.8359 26.6601C46.3501 28.3538 47.9187 29.3277 50.1319 29.3277C51.6726 29.3277 52.5726 28.9872 53.7034 27.9758C54.9197 26.8885 55.1136 25.8554 55.1098 20.4859C55.1061 15.1895 55.0085 14.7524 53.8054 14.6425C53.2579 14.5924 53.0744 14.4718 53.0744 14.1623C53.0744 13.7765 53.2551 13.749 55.7927 13.749C58.36 13.749 58.511 13.7727 58.511 14.1758C58.511 14.4387 58.3588 14.6039 58.1145 14.6058C57.0654 14.6145 57.0461 14.7089 56.9049 20.5165C56.7584 26.5476 56.6216 27.2617 55.3288 28.739C54.9559 29.1652 54.0668 29.7841 53.353 30.1144C52.1898 30.6525 51.8198 30.7143 49.7897 30.7108C47.9184 30.7072 47.3276 30.6217 46.3918 30.2191C45.0259 29.6312 44.1376 28.8704 43.4827 27.7271C43.0256 26.9291 42.9865 26.4972 42.8807 21.0902C42.7595 14.901 42.7008 14.6026 41.6072 14.6026ZM62.8044 14.6026C62.2865 14.6026 62.1355 14.5061 62.1355 14.1758C62.1355 13.7757 62.2802 13.75 64.4572 13.7665L66.7792 13.784L67.8902 14.9936C68.5008 15.6587 70.4918 17.7397 72.3141 19.6176C74.1366 21.4956 76.2289 23.6803 76.9635 24.4726C77.6983 25.265 78.3898 25.9132 78.5004 25.9132C78.6139 25.9132 78.6705 23.675 78.63 20.7726L78.5585 15.6321L77.9229 15.1173C77.5734 14.8341 77.0385 14.6026 76.7338 14.6026C76.3285 14.6026 76.1801 14.4865 76.1801 14.1698C76.1801 13.753 76.2958 13.7391 79.2947 13.7963C81.8448 13.845 82.4095 13.9122 82.4095 14.167C82.4095 14.3486 82.0941 14.5392 81.6523 14.6244C81.236 14.7046 80.7771 14.8813 80.6329 15.017C80.4469 15.1922 80.3521 17.4576 80.306 22.8292L80.241 30.3946H79.5845C79.0193 30.3946 78.3465 29.7934 74.7496 26.0732C72.4515 23.6962 69.7689 20.8713 68.7885 19.7957C67.8079 18.7198 66.9292 17.8315 66.8358 17.8217C66.5728 17.7939 66.6364 27.4054 66.9054 28.3178C67.1151 29.0287 67.2593 29.1512 68.1502 29.3758C68.8677 29.5565 69.1578 29.7398 69.1578 30.0122C69.1578 30.3618 68.8843 30.3946 65.9864 30.3946C63.0365 30.3946 62.8151 30.3668 62.8151 29.9946C62.8151 29.7221 63.0285 29.5543 63.4843 29.4684C64.8676 29.2078 64.9594 28.7942 65.037 22.4716C65.0805 18.9305 65.0167 16.4529 64.8683 15.9341C64.6076 15.0218 63.9579 14.6026 62.8044 14.6026ZM86.5571 14.6026C86.0718 14.6026 85.9208 14.5012 85.9208 14.1758C85.9208 13.768 86.0718 13.749 89.3187 13.749C92.5654 13.749 92.7166 13.768 92.7166 14.1758C92.7166 14.4889 92.5654 14.6026 92.1501 14.6026C91.8388 14.6026 91.3759 14.7985 91.1217 15.038C90.673 15.4607 90.6614 15.6709 90.7254 22.2046C90.7876 28.5827 90.8142 28.9517 91.2307 29.2385C91.4726 29.4049 91.9057 29.5411 92.1934 29.5411C92.5654 29.5411 92.7166 29.6642 92.7166 29.9679C92.7166 30.3758 92.5654 30.3946 89.3187 30.3946C86.1491 30.3946 85.9208 30.3678 85.9208 29.9953C85.9208 29.6948 86.1431 29.5621 86.8182 29.4604C88.1587 29.2585 88.2272 28.845 88.1436 21.4675C88.0768 15.5593 88.0481 15.191 87.633 14.9052C87.3911 14.7388 86.907 14.6026 86.5571 14.6026ZM110.259 14.6026C109.949 14.6026 109.714 14.4402 109.64 14.1758C109.526 13.7631 109.634 13.749 112.899 13.749C116.124 13.749 116.275 13.768 116.275 14.1758C116.275 14.5038 116.124 14.6026 115.623 14.6026C114.197 14.6026 114.229 14.8467 116.388 20.4277C117.486 23.2687 118.553 25.9673 118.758 26.4247L119.13 27.2564L120.861 22.9034C122.897 17.7796 123.162 16.8321 122.816 15.8976C122.575 15.2462 121.638 14.6026 120.93 14.6026C120.73 14.6026 120.579 14.4191 120.579 14.1758C120.579 13.7673 120.73 13.749 124.091 13.749C127.451 13.749 127.602 13.7673 127.602 14.1758C127.602 14.4795 127.451 14.6026 127.079 14.6026C126.126 14.6026 125.706 15.0811 125.843 16.0107C125.984 16.9676 129.88 27.2522 130.043 27.0983C130.309 26.8481 134.624 15.7766 134.624 15.345C134.624 14.828 134.24 14.6026 133.359 14.6026C132.963 14.6026 132.812 14.485 132.812 14.1758C132.812 13.7727 132.963 13.749 135.53 13.749C137.836 13.749 138.248 13.7994 138.248 14.0802C138.248 14.2624 137.966 14.5042 137.621 14.6175C136.844 14.8726 136.649 15.1636 135.675 17.5215C135.247 18.557 133.909 21.7976 132.7 24.7225C131.491 27.6478 130.45 30.1687 130.387 30.3246C130.323 30.4806 129.949 30.6082 129.554 30.6082H128.837L127.21 26.6067C126.315 24.4062 125.258 21.7989 124.861 20.813C124.18 19.1236 124.123 19.0503 123.867 19.5325C123.717 19.8142 122.642 22.4261 121.477 25.3367L119.36 30.629L118.569 30.5652L117.779 30.5015L114.765 23.0489C113.081 18.8851 111.532 15.3768 111.255 15.0994C110.982 14.826 110.534 14.6026 110.259 14.6026ZM155.554 14.6931C155.516 14.612 155.516 14.3207 155.516 14.3207C155.516 14.3207 155.507 14.2156 155.554 14.1596C155.6 14.1037 155.617 14.1022 155.783 14.0872L155.785 14.0871C156.397 14.0321 157.624 13.9395 158.648 13.8973C158.742 13.8934 158.846 13.8889 158.959 13.8841L158.962 13.884L158.963 13.8839L158.964 13.8839C160.091 13.8355 162.108 13.7709 163.494 13.8364C166.153 13.962 168.045 15.1774 168.69 17.186C169.334 19.1944 168.994 21.0797 168.115 22.2798C167.236 23.4799 165.759 24.5132 163.303 24.4459C161.275 24.3904 160.732 24.0315 160.299 23.7447C160.207 23.6841 160.121 23.6266 160.026 23.5761V26.1375C160.047 27.8843 160.063 28.7233 160.206 29.0339C160.399 29.452 160.834 29.7095 161.683 29.907C161.683 29.907 162.067 29.9921 162.167 30.0829C162.266 30.1737 162.266 30.3753 162.266 30.3753C162.266 30.3753 162.286 30.5638 162.206 30.6598C162.127 30.7559 161.973 30.7367 161.973 30.7367L158.213 30.708L155.946 30.7024C155.946 30.7024 155.708 30.7455 155.619 30.655C155.53 30.5644 155.538 30.3758 155.538 30.3758C155.538 30.3758 155.558 30.1725 155.662 30.0816C155.766 29.9905 156.153 29.8888 156.153 29.8888C157.027 29.6567 157.406 29.4112 157.604 28.9487C157.764 28.5759 157.765 27.8845 157.763 22.2422C157.762 16.8914 157.754 15.8933 157.624 15.6063C157.432 15.1813 156.951 15.0687 156.266 14.9085L156.266 14.9084C156.13 14.8766 155.986 14.8429 155.835 14.8046C155.835 14.8046 155.592 14.7742 155.554 14.6931ZM166.501 19.0592C166.501 19.9366 166.485 21.3103 165.497 22.1884C164.509 23.0664 162.564 23.3068 161.243 23.0623C160.827 22.9853 160.589 22.8665 160.406 22.7749L160.387 22.7658L160.049 22.5975L160.03 19.5147C160.017 17.5832 160.039 16.3247 160.087 16.1448C160.131 15.1263 161.72 14.9996 162.496 15.0373C165.818 15.0373 166.405 17.6834 166.501 19.0592ZM145.123 13.8685C145.123 13.8685 144.961 13.9274 144.715 14.0155L143.828 14.4486L143.189 15.9561C142.838 16.7852 142.195 18.3072 141.761 19.3383C140.971 21.2164 140.449 22.4502 139.899 23.7381C139.738 24.1169 139.25 25.2705 138.815 26.3016C138.38 27.3326 137.946 28.3138 137.849 28.4821C137.833 28.5101 137.816 28.5403 137.798 28.5721C137.555 29.0041 137.133 29.7544 136.387 29.8679C136.387 29.8679 135.977 29.906 135.825 30.0478C135.673 30.1897 135.688 30.3057 135.688 30.3057V30.4844C135.688 30.4844 135.702 30.571 135.788 30.6141C135.874 30.6573 135.99 30.6598 135.99 30.6598L138.718 30.6305H141.538C141.538 30.6305 141.738 30.6525 141.814 30.5922C141.891 30.532 141.913 30.4425 141.913 30.4425V30.2543C141.913 30.2543 141.873 30.0503 141.762 29.9706C141.65 29.8911 141.232 29.8366 141.232 29.8366C140.103 29.6963 139.908 28.8891 140.048 28.1633C140.116 27.8066 140.57 26.4875 141.081 25.1593L141.258 24.7003L144.212 24.679C145.837 24.6672 147.24 24.6752 147.33 24.6967C147.458 24.7273 147.638 25.072 148.165 26.2998C148.964 28.16 149.027 28.3865 148.85 28.7346C148.84 28.7558 148.828 28.7791 148.816 28.8043C148.65 29.1409 148.328 29.7948 147.516 29.8614C147.516 29.8614 147.085 29.8755 146.978 29.9973C146.871 30.1192 146.894 30.2593 146.894 30.2593V30.4455C146.894 30.4455 146.923 30.5546 146.978 30.5979C147.033 30.6411 147.127 30.6302 147.127 30.6302L149.809 30.612L153.579 30.6118C153.579 30.6118 153.726 30.6267 153.767 30.573C153.807 30.5192 153.815 30.4559 153.815 30.4559V30.2086C153.815 30.2086 153.799 30.0771 153.726 30.0045C153.654 29.9322 153.165 29.8556 153.165 29.8556C152.54 29.7604 152.229 29.2731 151.998 28.9101C151.939 28.8176 151.885 28.7331 151.832 28.6653C151.725 28.527 151.342 27.769 151.041 27.04C150.741 26.311 150.064 24.6642 149.536 23.3807C149.009 22.0971 148.272 20.3065 147.9 19.4018C147.528 18.4969 146.82 16.7752 146.328 15.5757C146.247 15.3789 146.174 15.202 146.109 15.0437L146.109 15.043C145.779 14.2375 145.646 13.9125 145.609 13.8685C145.491 13.7256 145.123 13.8685 145.123 13.8685ZM144.947 18.77C144.828 18.4965 144.619 18.0059 144.482 17.6797C144.233 17.0869 144.139 16.9503 144.062 17.0728C144.039 17.1086 143.883 17.5138 143.714 17.9733C142.62 20.9482 142.125 22.2878 142.026 22.5402C141.964 22.6989 141.913 22.8624 141.913 22.9036C141.913 22.951 142.802 22.9786 144.326 22.9786C145.652 22.9786 146.738 22.9631 146.738 22.944C146.738 22.925 146.62 22.6411 146.475 22.3128C146.331 21.9845 145.976 21.165 145.688 20.4917C145.4 19.8183 145.066 19.0436 144.947 18.77Z" fill="white" style="fill:white;fill:color(display-p3 1.0000 1.0000 1.0000);fill-opacity:1;"/>
</g>
<defs>
<clipPath id="clip0_5728_1182">
<rect width="168.371" height="39.7542" fill="white" style="fill:white;fill:color(display-p3 1.0000 1.0000 1.0000);fill-opacity:1;" transform="translate(0.824219 0.447266)"/>
</clipPath>
</defs>
</svg>
