<svg width="148" height="58" viewBox="0 0 148 58" fill="none" xmlns="http://www.w3.org/2000/svg">
<g clip-path="url(#clip0_547_690)">
<path d="M18.6847 43.4142C18.4557 43.9642 18.2727 44.2842 17.8157 44.2842C17.3587 44.2842 17.1757 43.9642 16.9457 43.4142L5.46472 15.6463C4.27372 12.7633 2.26172 13.9532 2.26172 12.9462C2.26172 12.6722 2.44472 12.4442 2.81072 12.4442C5.23472 12.4442 7.65972 12.5352 10.0837 12.5352C12.4177 12.5352 14.7507 12.4442 17.0837 12.4442C17.7697 12.4442 18.0897 12.5352 18.0897 12.9012C18.0897 13.7702 15.2997 13.2673 15.2997 15.4633C15.2997 16.3333 16.0317 18.2083 21.7047 32.5273H21.7947C25.7757 22.4173 27.2847 19.3973 27.2847 17.2933C27.2847 12.7193 23.3517 14.1372 23.3517 12.9472C23.3517 12.5812 23.5347 12.4442 24.1287 12.4442C25.7307 12.4442 27.6057 12.5362 28.7947 12.5362C30.8997 12.5362 32.3177 12.4442 33.8727 12.4442C34.2847 12.4442 34.6057 12.5362 34.6057 12.8102C34.6057 14.0002 31.2657 12.6273 28.6577 19.0323L18.6847 43.4142ZM39.6787 25.3903C39.6787 23.9263 39.2217 23.5142 38.3067 23.5142C36.8427 23.5142 35.7457 24.2923 35.7457 25.6643C35.7457 26.7173 35.9277 27.8602 35.9277 28.9583C35.9277 31.0163 34.5097 32.4813 32.0397 32.4813C29.5227 32.4813 28.5167 31.3833 28.5167 29.6903C28.5167 26.0303 35.2417 22.4163 41.1887 22.4163C46.2207 22.4163 48.0047 24.4743 48.0047 28.1803V40.4872C48.0047 41.0352 48.2797 41.3573 48.7827 41.3573C50.0177 41.3573 50.2007 39.7092 50.8867 39.7092C51.1157 39.7092 51.2987 39.9383 51.2987 40.1203C51.2987 40.5783 49.7437 43.9173 44.8487 43.9173C41.8747 43.9173 40.5487 42.8193 39.9997 40.9893C37.5297 42.9573 35.3797 43.9173 33.0917 43.9173C29.2487 43.9173 27.6937 41.7222 27.6937 39.7542C27.6937 36.1862 30.3477 35.0883 39.6787 31.7943V25.3903ZM39.6787 32.7553C36.8427 33.8993 36.0187 35.2252 36.0187 37.2852C36.0187 40.3042 36.7057 41.0812 37.8947 41.0812C38.6727 41.0812 39.2677 40.5323 39.6787 40.1213V32.7553ZM101.769 22.4163C107.625 22.4163 110.874 26.3502 110.874 29.3242C110.874 31.9312 109.318 33.1213 107.305 33.1213C105.429 33.1213 103.828 31.7942 103.828 29.3242C103.828 27.8602 104.103 26.3503 104.103 25.4353C104.103 23.9263 103.188 23.2393 101.815 23.2393C99.6197 23.2393 97.8817 26.1683 97.8817 29.6443C97.8817 35.7743 101.542 38.9762 105.018 38.9762C109.684 38.9762 109.455 36.0033 110.462 36.0033C110.782 36.0033 110.874 36.1863 110.874 36.4613C110.874 37.6513 108.129 43.9183 100.626 43.9183C95.6847 43.9183 90.4697 40.3042 90.4697 33.6252C90.4697 27.0822 96.0517 22.4163 101.77 22.4163H101.769ZM122.128 40.8533C122.128 43.0943 124.781 42.2252 124.781 43.1862C124.781 43.4142 124.69 43.6432 124.278 43.6432C122.539 43.6432 120.573 43.5513 118.239 43.5513C115.907 43.5513 113.939 43.6432 112.201 43.6432C111.789 43.6432 111.698 43.4142 111.698 43.1862C111.698 42.2252 114.351 43.0943 114.351 40.8533V15.5543C114.351 13.2673 111.514 13.8622 111.514 12.9922C111.514 11.9402 114.259 13.1302 122.128 10.1562V40.8533ZM123.683 32.3892C127.801 28.8662 128.808 27.9522 128.808 26.3962C128.808 23.2392 126.154 24.1093 126.154 23.1023C126.154 22.7823 126.382 22.6903 126.794 22.6903C127.664 22.6903 129.539 22.7823 131.415 22.7823C133.657 22.7823 135.258 22.6903 136.173 22.6903C136.721 22.6903 136.905 22.8743 136.905 23.1483C136.905 24.0633 133.748 23.1022 129.265 28.0882L136.585 40.8983C137.91 43.1863 139.604 42.1332 139.604 43.1862C139.604 43.5512 139.374 43.6432 138.46 43.6432C136.676 43.6432 134.846 43.5513 132.696 43.5513C130.82 43.5513 128.99 43.6432 127.114 43.6432C126.657 43.6432 126.382 43.5513 126.382 43.1403C126.382 42.4083 127.938 42.8652 127.938 41.5392C127.938 40.8532 127.48 40.0292 127.068 39.2052L123.683 32.3892ZM88.2257 19.6363C88.3227 19.9123 88.7307 19.8393 88.7287 19.5463L88.6677 12.5942C88.6677 12.5882 88.6667 12.5602 88.6527 12.5302C88.6267 12.4782 88.5727 12.4442 88.5107 12.4452C82.9337 12.4902 77.3107 12.5352 71.4637 12.5352C68.1237 12.5352 65.5167 12.4432 63.7327 12.4432C63.2287 12.4432 63.0467 12.5802 63.0467 12.9932C63.0467 14.4562 66.8897 12.7183 66.8897 15.9202V19.4482C66.8897 19.7342 67.1727 19.9403 67.4397 19.8403C68.2397 19.5423 69.0997 19.3783 69.9967 19.3783C72.0707 19.3783 73.9497 20.2443 75.3327 21.6483C75.5927 21.9103 76.0387 21.7192 76.0387 21.3512V13.9702C76.0387 13.7352 76.2287 13.5442 76.4637 13.5532C78.5847 13.6252 81.5127 13.9633 83.3017 14.8393C84.9707 15.6573 85.9807 16.1513 86.9267 17.2923C87.6417 18.1543 88.0007 19.0003 88.2257 19.6363ZM65.9387 43.6432C65.5257 43.6432 65.4347 43.4142 65.4347 43.1862C65.4347 42.2252 67.7217 43.0943 67.7217 40.8533V27.9983C67.7217 25.9853 66.6697 25.2533 65.5717 25.2533C64.3817 25.2533 63.1017 26.1223 62.1407 27.0373V40.8533C62.1407 43.0943 64.4277 42.2252 64.4277 43.1862C64.4277 43.4142 64.3367 43.6432 63.9257 43.6432C62.5527 43.6432 60.5857 43.5513 58.2527 43.5513C55.9197 43.5513 53.9527 43.6432 52.2137 43.6432C51.8017 43.6432 51.7107 43.4142 51.7107 43.1862C51.7107 42.2252 54.3637 43.0943 54.3637 40.8533V27.7693C54.3637 24.6593 51.3447 25.2073 51.3447 24.3383C51.3447 23.6063 54.2267 24.4302 62.1407 22.4172V25.5732C65.3437 23.1032 67.1737 22.4172 69.6897 22.4172C74.2647 22.4172 75.4997 25.2532 75.4997 29.2332V40.8533C75.4997 42.0463 76.2507 42.3562 76.9537 42.5322C78.8887 42.6632 81.3537 42.0273 82.9017 41.2593C84.5667 40.4333 85.5737 39.9332 86.5147 38.7892C87.2247 37.9232 87.5807 37.0753 87.8027 36.4373C87.8987 36.1613 88.3067 36.2332 88.3057 36.5252L88.2797 43.4772C88.2797 43.4842 88.2797 43.5112 88.2647 43.5412C88.2397 43.5932 88.1857 43.6283 88.1227 43.6283L65.9387 43.6432Z" fill="#333333" style="fill:#333333;fill:color(display-p3 0.2000 0.2000 0.2000);fill-opacity:1;"/>
<path d="M82.984 32.4117C83.066 32.9677 83.066 33.4907 83.519 33.4907C83.765 33.4907 83.93 33.4207 83.93 33.0377V21.6317C83.93 21.2487 83.765 21.1797 83.519 21.1797C83.066 21.1797 83.066 21.7017 82.984 22.2577C82.666 24.3437 80.654 26.1227 77.934 26.5887C77.833 26.6067 77.785 26.6857 77.794 26.7747C77.827 27.1127 77.84 27.2447 77.877 27.5137C77.885 27.5777 77.941 27.6297 78.016 27.6437C80.63 28.1437 82.603 29.9337 82.984 32.4117Z" fill="#333333" style="fill:#333333;fill:color(display-p3 0.2000 0.2000 0.2000);fill-opacity:1;"/>
<path d="M139.602 16.0023C139.602 14.0203 141.177 12.4453 143.168 12.4453C145.16 12.4453 146.735 14.0203 146.735 16.0023C146.735 17.9843 145.159 19.5593 143.168 19.5593C141.178 19.5593 139.602 17.9843 139.602 16.0023ZM140.182 16.0023C140.182 17.6773 141.539 18.9803 143.168 18.9803C144.798 18.9803 146.156 17.6773 146.156 16.0023C146.156 14.3193 144.798 13.0243 143.168 13.0243C141.539 13.0243 140.181 14.3193 140.181 16.0023H140.182ZM144.798 18.0303H144.138L143.114 16.1833H142.372V18.0303H141.792V14.0293H143.476C144.201 14.0293 144.852 14.2463 144.852 15.0883C144.852 15.8763 144.318 16.1653 143.784 16.1833L144.798 18.0303ZM142.372 14.6083V15.6043H142.987C143.53 15.6043 144.273 15.6943 144.273 15.1513C144.273 14.6443 143.848 14.6083 143.367 14.6083H142.372Z" fill="#333333" style="fill:#333333;fill:color(display-p3 0.2000 0.2000 0.2000);fill-opacity:1;"/>
</g>
<defs>
<clipPath id="clip0_547_690">
<rect width="145" height="35" fill="white" style="fill:white;fill-opacity:1;" transform="translate(2 10)"/>
</clipPath>
</defs>
</svg>
