<svg width="161" height="42" viewBox="0 0 161 42" fill="none" xmlns="http://www.w3.org/2000/svg">
<path d="M0 18.4145L13.9848 4.42969V11.4221H27.9695L13.9848 21.9107V32.3993L0 18.4145Z" fill="#ffffff" style="fill:#ffffff;fill-opacity:1;"/>
<path d="M48.946 18.4145L34.9614 32.3993V25.4069H20.9766L34.9614 14.9183V4.42969L48.946 18.4145Z" fill="#ffffff" style="fill:#ffffff;fill-opacity:1;"/>
<path d="M76.1289 30.6933V6.21875H82.0443V16.5679H82.367L90.4574 6.21875H97.4246L88.7485 17.1415L97.58 30.6933H90.5052L84.4106 21.0732L82.0443 24.0608V30.6933H76.1289Z" fill="#ffffff" style="fill:#ffffff;fill-opacity:1;"/>
<path d="M55.1562 30.6933V27.3233L67.0469 11.0228H55.1683V6.21875H74.5279V9.58879L62.6373 25.8892H74.516V30.6933H55.1562Z" fill="#ffffff" style="fill:#ffffff;fill-opacity:1;"/>
<path d="M153.997 31.0753C152.356 31.0753 150.926 30.6648 149.707 29.8443C148.496 29.0237 147.556 27.9004 146.887 26.4743C146.217 25.0482 145.883 23.4229 145.883 21.5985C145.883 19.7581 146.221 18.1209 146.899 16.6869C147.584 15.2528 148.532 14.1294 149.743 13.3168C150.954 12.4962 152.36 12.0859 153.961 12.0859C155.188 12.0859 156.299 12.3249 157.295 12.803C158.291 13.273 159.112 13.9382 159.757 14.7987C160.411 15.6512 160.821 16.647 160.988 17.7863H158.837C158.614 16.7506 158.076 15.8663 157.224 15.1333C156.379 14.3924 155.304 14.0219 153.997 14.0219C152.826 14.0219 151.79 14.3406 150.89 14.978C149.99 15.6074 149.285 16.4877 148.775 17.619C148.273 18.7423 148.022 20.0449 148.022 21.5268C148.022 23.0166 148.269 24.3352 148.763 25.4824C149.257 26.6217 149.95 27.514 150.842 28.1593C151.743 28.8046 152.794 29.1273 153.997 29.1273C154.81 29.1273 155.551 28.9759 156.22 28.6732C156.897 28.3624 157.463 27.9243 157.917 27.3586C158.379 26.793 158.69 26.1198 158.849 25.339H161C160.841 26.4464 160.446 27.4343 159.817 28.3027C159.196 29.1631 158.387 29.8403 157.391 30.3343C156.403 30.8281 155.272 31.0753 153.997 31.0753Z" fill="#ffffff" style="fill:#ffffff;fill-opacity:1;"/>
<path d="M131.822 19.2241V30.6965H129.695V12.3406H131.763V15.2207H131.954C132.384 14.2805 133.053 13.5276 133.962 12.962C134.878 12.3884 136.009 12.1016 137.356 12.1016C138.59 12.1016 139.674 12.3605 140.606 12.8783C141.546 13.3882 142.275 14.1411 142.793 15.137C143.319 16.1329 143.582 17.3558 143.582 18.8058V30.6965H141.454V18.9373C141.454 17.4315 141.032 16.2404 140.188 15.3641C139.351 14.4877 138.228 14.0495 136.818 14.0495C135.854 14.0495 134.997 14.2566 134.248 14.6709C133.499 15.0852 132.906 15.6827 132.468 16.4635C132.038 17.2363 131.822 18.1565 131.822 19.2241Z" fill="#ffffff" style="fill:#ffffff;fill-opacity:1;"/>
<path d="M115.163 37.5751C114.741 37.5751 114.346 37.5354 113.98 37.4557C113.614 37.3761 113.323 37.2885 113.107 37.1929L113.681 35.3166C114.406 35.5397 115.051 35.6194 115.617 35.5556C116.183 35.5 116.685 35.245 117.123 34.7907C117.561 34.3447 117.951 33.6594 118.294 32.7353L118.963 30.871L112.211 12.3359H114.518L119.967 27.8834H120.135L125.584 12.3359H127.89L120.123 33.5957C119.796 34.48 119.394 35.217 118.915 35.8067C118.437 36.4042 117.884 36.8462 117.254 37.1331C116.633 37.4278 115.936 37.5751 115.163 37.5751Z" fill="#ffffff" style="fill:#ffffff;fill-opacity:1;"/>
<path d="M111.115 16.3642L109.167 16.9139C108.976 16.3642 108.705 15.8663 108.355 15.4201C108.004 14.974 107.546 14.6195 106.981 14.3565C106.423 14.0936 105.73 13.9621 104.901 13.9621C103.658 13.9621 102.638 14.2569 101.842 14.8465C101.045 15.4361 100.647 16.1969 100.647 17.129C100.647 17.9178 100.918 18.5591 101.459 19.0531C102.009 19.539 102.854 19.9254 103.993 20.2123L106.765 20.8934C108.303 21.2679 109.454 21.8614 110.219 22.674C110.992 23.4867 111.378 24.5064 111.378 25.7334C111.378 26.7691 111.091 27.6892 110.518 28.4939C109.944 29.2986 109.143 29.932 108.116 30.394C107.096 30.8482 105.913 31.0753 104.566 31.0753C102.774 31.0753 101.296 30.6729 100.133 29.8682C98.9699 29.0556 98.225 27.8844 97.8984 26.3548L99.942 25.8529C100.205 26.9443 100.718 27.7689 101.483 28.3266C102.256 28.8843 103.272 29.1631 104.531 29.1631C105.941 29.1631 107.068 28.8484 107.913 28.219C108.757 27.5817 109.179 26.785 109.179 25.829C109.179 25.088 108.932 24.4666 108.438 23.9647C107.945 23.4548 107.196 23.0804 106.192 22.8413L103.192 22.1243C101.599 21.7419 100.42 21.1364 99.6551 20.3078C98.8902 19.4793 98.508 18.4516 98.508 17.2246C98.508 16.2128 98.7828 15.3245 99.3325 14.5597C99.8822 13.7869 100.639 13.1814 101.603 12.7432C102.567 12.305 103.666 12.0859 104.901 12.0859C106.582 12.0859 107.924 12.4683 108.928 13.2332C109.94 13.99 110.669 15.0337 111.115 16.3642Z" fill="#ffffff" style="fill:#ffffff;fill-opacity:1;"/>
</svg>
